<svg width="167" height="206" viewBox="0 0 167 206" fill="none" xmlns="http://www.w3.org/2000/svg">
<path fill-rule="evenodd" clip-rule="evenodd" d="M93.5953 205.865C133.74 205.865 166.284 199.246 166.284 191.081C166.284 182.916 133.74 176.297 93.5953 176.297C53.4505 176.297 20.9067 182.916 20.9067 191.081C20.9067 199.246 53.4505 205.865 93.5953 205.865Z" fill="#332C2B" fill-opacity="0.109804"/>
<path fill-rule="evenodd" clip-rule="evenodd" d="M83.2882 7.18661C42.2903 7.18661 9.05493 38.2905 9.05493 74.3784C9.05493 110.466 42.2903 120.658 83.2882 120.658C124.286 120.658 157.522 110.466 157.522 74.3784C157.522 38.2905 124.286 7.18661 83.2882 7.18661Z" fill="#FEFEFE"/>
<path fill-rule="evenodd" clip-rule="evenodd" d="M86.5983 16.0724C51.7197 16.0724 23.4451 42.5337 23.4451 73.2351C23.4451 103.936 51.7197 105.016 86.5983 105.016C121.477 105.016 149.752 103.936 149.752 73.2351C149.752 42.5337 121.477 16.0724 86.5983 16.0724Z" fill="#0C295C"/>
<path fill-rule="evenodd" clip-rule="evenodd" d="M86.5983 16.0724C51.7197 16.0724 23.4451 42.5337 23.4451 73.2351C23.4451 73.6927 23.4523 74.1429 23.4648 74.5874C26.5879 46.2877 53.5326 22.9133 86.3133 22.9133C120.599 22.9133 148.502 48.4833 149.44 78.5149C149.645 76.8596 149.752 75.1032 149.752 73.2351C149.752 42.5337 121.477 16.0724 86.5983 16.0724Z" fill="black" fill-opacity="0.141176"/>
<path fill-rule="evenodd" clip-rule="evenodd" d="M165.019 88.0486C161.409 91.5107 157.131 94.1653 152.184 96.0125C151.178 80.5987 151.696 66.4401 153.738 53.5367C158.485 55.4838 162.245 57.4193 165.019 59.343C167.033 68.9843 167.033 78.5528 165.019 88.0486Z" fill="#446AB1"/>
<path fill-rule="evenodd" clip-rule="evenodd" d="M1.56331 88.0486C5.17316 91.5107 9.45132 94.1653 14.3977 96.0125C15.4038 80.5987 14.8857 66.4401 12.8435 53.5367C8.09685 55.4838 4.33676 57.4193 1.56331 59.343C-0.451117 68.9843 -0.451117 78.5528 1.56331 88.0486Z" fill="#446AB1"/>
<path fill-rule="evenodd" clip-rule="evenodd" d="M105.45 3.13324C108 10.0268 109.274 13.4736 109.274 13.4736C92.1731 9.60108 74.4224 9.60108 57.321 13.4736C58.981 6.58006 59.811 3.13324 59.811 3.13324C75.7987 -0.197651 91.0117 -0.197651 105.45 3.13324Z" fill="#18386E"/>
<path fill-rule="evenodd" clip-rule="evenodd" d="M105.45 3.13324C108 10.0268 109.274 13.4736 109.274 13.4736C107.923 13.1676 106.568 12.8859 105.209 12.6282L102.314 4.80035C89.9195 1.941 76.8604 1.941 63.1363 4.80035L61.2449 12.6554C59.9336 12.9057 58.6254 13.1782 57.321 13.4736C58.981 6.58006 59.811 3.13324 59.811 3.13324C75.7987 -0.197651 91.0117 -0.197651 105.45 3.13324Z" fill="#446AB1"/>
<path fill-rule="evenodd" clip-rule="evenodd" d="M49.9708 173.144C49.4276 170.931 48.9547 168.608 48.5875 166.335C47.5546 159.941 47.3578 153.94 47.5546 148.775C47.7514 143.611 48.3416 139.282 49.2028 135.741C50.064 132.2 51.1962 129.445 52.5242 127.822C53.8522 126.199 55.3761 125.707 58.3515 125.412C61.3267 125.117 65.7535 125.018 70.2294 124.92C74.7054 124.822 79.2305 124.723 83.7556 124.625C88.2807 124.723 92.8059 124.822 97.2818 124.92C101.758 125.018 106.185 125.117 109.16 125.412C112.135 125.707 113.659 126.199 114.987 127.822C116.315 129.445 117.447 132.2 118.308 135.741C119.17 139.282 119.76 143.611 119.957 148.775C120.153 153.94 119.957 159.941 118.924 166.335C118.598 168.349 118.19 170.403 117.723 172.385C115.966 173.286 113.738 173.64 111.039 173.445C109.718 162.27 107.075 151.421 103.109 140.899L66.6164 140.933C62.6488 150.105 59.5649 161.229 57.3646 174.306C54.9447 174.51 51.9733 174.127 49.9708 173.144Z" fill="#FEFEFE"/>
<path fill-rule="evenodd" clip-rule="evenodd" d="M86.5983 17.3804C69.6133 17.3804 54.2329 23.7713 43.0558 33.8882C31.7547 44.1173 24.7532 58.1563 24.7532 73.235C24.7532 87.9095 31.49 95.4974 42.3817 99.412C53.5967 103.443 69.2729 103.707 86.5983 103.707C103.924 103.707 119.6 103.443 130.815 99.412C141.707 95.4974 148.443 87.9095 148.443 73.235C148.443 58.1563 141.442 44.1173 130.141 33.8883C118.964 23.7713 103.583 17.3804 86.5983 17.3804ZM86.5983 16.0723C51.7197 16.0723 23.4451 42.5336 23.4451 73.235C23.4451 103.936 51.7197 105.016 86.5983 105.016C121.477 105.016 149.752 103.936 149.752 73.235C149.752 42.5336 121.477 16.0723 86.5983 16.0723Z" fill="#446AB1"/>
<path fill-rule="evenodd" clip-rule="evenodd" d="M84.0509 189.256C80.116 189.256 76.1811 189.256 72.0495 189.01C67.9179 188.764 63.5895 188.272 60.4416 187.78C57.2936 187.288 55.3262 186.796 53.4079 183.157C52.1716 180.811 50.9557 177.157 49.9709 173.144C51.1903 173.924 55.0995 174.334 57.3647 174.306C59.5651 161.229 62.649 150.105 66.6166 140.933H105.276C109.242 151.455 111.885 162.304 113.206 173.48C115.905 173.674 115.966 173.287 117.723 172.385C116.708 176.694 115.418 180.664 114.104 183.157C112.185 186.796 110.218 187.288 107.07 187.78C103.922 188.272 99.5937 188.764 95.4621 189.01C91.3305 189.256 87.9858 189.256 84.0509 189.256Z" fill="#446AB1"/>
<path fill-rule="evenodd" clip-rule="evenodd" d="M84.0507 189.256C80.1159 189.256 76.181 189.256 72.0493 189.01C67.9177 188.764 63.5893 188.272 60.4414 187.78C57.2934 187.288 55.326 186.796 53.4078 183.156C52.1714 180.811 50.9556 177.157 49.9708 173.144C49.4276 170.931 48.9547 168.608 48.5875 166.335C47.5546 159.941 47.3578 153.94 47.5546 148.775C47.7514 143.611 48.3416 139.282 49.2028 135.741C50.064 132.2 51.1962 129.445 52.5242 127.822C53.8522 126.199 55.3761 125.707 58.3515 125.412C61.3267 125.117 65.7535 125.018 70.2294 124.92C74.7054 124.822 79.2305 124.723 83.7556 124.625C88.2807 124.723 92.8059 124.822 97.2818 124.92C101.758 125.018 106.185 125.117 109.16 125.412C112.135 125.707 113.659 126.199 114.987 127.822C116.315 129.445 117.447 132.2 118.308 135.741C119.17 139.282 119.76 143.611 119.957 148.775C120.153 153.94 119.957 159.941 118.924 166.335C118.598 168.349 118.19 170.403 117.723 172.385C116.708 176.693 115.417 180.663 114.104 183.156C112.185 186.796 110.218 187.288 107.07 187.78C103.922 188.272 99.5936 188.764 95.4619 189.01C91.3303 189.256 87.9857 189.256 84.0507 189.256C65.4473 189.256 56.4276 189.198 56.4276 158.228C56.4276 127.259 65.4473 128.937 84.0507 128.937C102.654 128.937 114.692 128.366 114.692 157.408C114.692 186.45 102.654 189.256 84.0507 189.256Z" fill="black" fill-opacity="0.109804"/>
<path d="M95.2953 175.51C94.4475 176.133 93.5162 176.661 92.5237 177.072C91.0034 177.702 89.3479 178.057 87.6378 178.057C84.0846 178.057 80.8673 176.616 78.5385 174.287C76.2098 171.959 74.7693 168.741 74.7693 165.188C74.7693 161.635 76.2098 158.417 78.5385 156.089C80.8673 153.76 84.0846 152.32 87.6378 152.32C91.191 152.32 94.4083 153.76 96.7369 156.089C99.0656 158.417 100.506 161.635 100.506 165.188C100.506 165.874 100.486 166.318 100.374 167.022L96.5683 167.019H90.145C89.5802 167.791 89.01 168.293 87.6377 168.293C86.2655 168.293 84.5328 166.903 84.5328 165.188C84.5328 163.473 86.2655 162.083 87.6377 162.083C89.01 162.083 89.5802 162.585 90.145 163.357H96.554C96.1907 161.578 95.3087 159.988 94.073 158.753C92.4265 157.106 90.151 156.087 87.6378 156.087C85.1247 156.087 82.8491 157.106 81.2025 158.753C79.5558 160.399 78.5371 162.675 78.5371 165.188C78.5371 167.701 79.5558 169.977 81.2025 171.623C82.8491 173.27 85.1247 174.289 87.6378 174.289C88.8594 174.289 90.0306 174.04 91.0961 173.599C92.1819 173.149 93.1682 172.498 93.9963 171.705L94.073 171.623C94.8085 170.888 96.0014 170.888 96.7369 171.623L99.8914 174.778C100.627 175.513 100.627 176.706 99.8914 177.442C99.1559 178.177 97.963 178.177 97.2275 177.442L95.2953 175.51Z" fill="#FEFEFE"/>
<path fill-rule="evenodd" clip-rule="evenodd" d="M0.171143 77.7692C0.37434 81.2051 0.838272 84.6315 1.56318 88.0486C5.17304 91.5107 9.45119 94.1653 14.3975 96.0125L14.3976 96.0119C25.3744 114.75 52.0804 120.658 83.2882 120.658C114.501 120.658 141.21 114.748 152.184 96.0035L152.184 96.0125C157.131 94.1653 161.409 91.5107 165.019 88.0486C165.742 84.6375 166.206 81.2172 166.41 77.7873L151.687 80.0352C146.341 99.9886 136.005 114.017 83.29 114.017C30.7692 114.017 21.238 103.717 14.8926 80.0352L0.171143 77.7692Z" fill="black" fill-opacity="0.109804"/>
<path fill-rule="evenodd" clip-rule="evenodd" d="M37.802 41.4909C39.6469 43.9726 45.5835 42.5185 51.0618 38.2431C56.5401 33.9676 59.4855 28.49 57.6405 26.0083C55.7956 23.5266 49.859 24.9807 44.3807 29.2562C38.9024 33.5315 35.957 39.0092 37.802 41.4909Z" fill="#FEFEFE" fill-opacity="0.270588"/>
<path d="M127.007 201.228C132.774 202.06 138.431 195.938 139.64 187.554C140.85 179.17 137.155 171.699 131.388 170.867C125.62 170.034 119.964 176.156 118.754 184.541C117.544 192.925 121.239 200.396 127.007 201.228Z" fill="#FEFEFE"/>
<path fill-rule="evenodd" clip-rule="evenodd" d="M123.412 174.294C121.136 176.757 119.425 180.37 118.822 184.55C118.219 188.73 118.839 192.68 120.326 195.686C121.812 198.692 124.161 200.748 127.016 201.16C129.871 201.572 132.706 200.264 134.982 197.8C137.257 195.337 138.968 191.724 139.572 187.544C140.175 183.364 139.555 179.415 138.068 176.409C136.581 173.403 134.232 171.347 131.377 170.935C128.523 170.523 125.688 171.831 123.412 174.294ZM123.31 174.2C125.607 171.715 128.484 170.378 131.397 170.798C134.31 171.218 136.692 173.314 138.192 176.348C139.693 179.382 140.315 183.36 139.708 187.564C139.102 191.768 137.38 195.408 135.083 197.894C132.787 200.38 129.909 201.717 126.997 201.297C124.084 200.876 121.702 198.781 120.201 195.747C118.701 192.713 118.079 188.735 118.685 184.531C119.292 180.327 121.014 176.687 123.31 174.2Z" fill="#FEFEFE"/>
<path d="M127.897 195.059C131.321 195.553 134.678 191.919 135.396 186.942C136.114 181.965 133.921 177.53 130.497 177.036C127.074 176.542 123.716 180.176 122.998 185.153C122.28 190.13 124.473 194.565 127.897 195.059Z" fill="#A1A1A1"/>
<path d="M72.3972 203.646C79.74 202.495 84.6299 194.779 83.319 186.41C82.0081 178.041 74.9929 172.189 67.6501 173.339C60.3073 174.489 55.4174 182.206 56.7283 190.575C58.0392 198.944 65.0544 204.796 72.3972 203.646Z" fill="#FEFEFE"/>
<path fill-rule="evenodd" clip-rule="evenodd" d="M67.6621 173.416C60.3711 174.558 55.4996 182.227 56.8054 190.563C58.1111 198.899 65.094 204.71 72.385 203.568C79.6761 202.426 84.5475 194.758 83.2418 186.422C81.936 178.086 74.9531 172.274 67.6621 173.416ZM56.651 190.587C55.335 182.185 60.2433 174.42 67.6379 173.262C75.0325 172.104 82.0801 177.996 83.3961 186.398C84.7121 194.799 79.8038 202.564 72.4092 203.723C65.0146 204.881 57.9671 198.989 56.651 190.587Z" fill="#FEFEFE"/>
<path d="M71.5103 197.985C76.1102 197.264 79.1734 192.43 78.3522 187.188C77.5311 181.945 73.1364 178.279 68.5366 179C63.9367 179.72 60.8735 184.554 61.6947 189.797C62.5159 195.04 66.9105 198.705 71.5103 197.985Z" fill="#A1A1A1"/>
<path fill-rule="evenodd" clip-rule="evenodd" d="M129.609 170.826C125.486 170.764 121.585 171.017 117.907 171.585C116.691 171.773 115.498 171.996 114.331 172.253C113.936 172.652 113.562 173.061 113.206 173.48C113.027 173.689 112.854 173.902 112.685 174.116C110.944 176.329 109.718 178.792 109.006 181.504C108.507 183.405 108.261 185.429 108.267 187.576C108.274 189.829 108.56 192.218 109.124 194.742C110.295 195.767 111.705 196.686 113.352 197.499C116.838 199.217 121.389 200.461 127.006 201.228C125.118 200.956 123.451 199.971 122.106 198.476C119.345 195.405 117.94 190.179 118.754 184.541C119.838 177.022 124.499 171.323 129.609 170.826Z" fill="#FEFEFE"/>
<path fill-rule="evenodd" clip-rule="evenodd" d="M62.0874 200.499C59.361 198.135 57.3671 194.654 56.7282 190.575C55.6622 183.77 58.6963 177.396 63.8154 174.633C59.1689 177.059 55.8477 181.471 54.8232 186.651C53.7966 191.841 54.8103 194.628 58.1971 198.643C58.424 198.912 58.6599 199.175 58.9045 199.432C60.9266 200.93 64.9649 203.289 69.0576 203.697C66.5025 203.375 64.0962 202.24 62.0874 200.499Z" fill="#FEFEFE"/>
<path fill-rule="evenodd" clip-rule="evenodd" d="M65.7401 196.554C68.2096 194.733 69.7208 191.905 69.8762 188.86C69.8839 188.71 69.8882 188.56 69.8893 188.409C69.8895 188.373 69.8896 188.336 69.8895 188.3C69.8773 185.044 68.3131 181.99 65.6785 180.077C64.1363 181.052 62.9375 182.57 62.2409 184.382C61.8181 185.481 61.5802 186.689 61.5628 187.948C61.5544 188.554 61.5971 189.173 61.6949 189.797C62.1472 192.684 63.683 195.093 65.7401 196.554Z" fill="#757475"/>
<path fill-rule="evenodd" clip-rule="evenodd" d="M122.998 185.153C122.602 187.894 123.09 190.471 124.18 192.315C127.559 188.888 128.018 183.539 125.271 179.586C124.146 181.02 123.315 182.956 122.998 185.153Z" fill="#757475"/>
<path fill-rule="evenodd" clip-rule="evenodd" d="M122.106 198.476C120.456 196.64 119.29 194.035 118.793 191.031C119.29 194.035 120.456 196.64 122.106 198.476ZM123.974 197.824C121.425 196.152 119.698 193.888 118.793 191.031C118.669 191.963 118.626 192.82 118.665 193.602C118.676 196.138 116.893 196.793 113.315 195.567C110.926 194.589 109.351 191.903 108.591 187.511C108.49 186.925 108.403 186.309 108.331 185.662C108.286 186.289 108.265 186.927 108.267 187.576C108.274 189.829 108.56 192.218 109.124 194.741C110.295 195.767 111.705 196.686 113.352 197.499C116.838 199.217 121.389 200.461 127.006 201.228C128.828 201.491 130.639 201.06 132.302 200.083C134.366 198.871 136.203 196.817 137.55 194.204C133.691 199.211 129.166 200.418 123.974 197.824Z" fill="#DCDDDD"/>
<path fill-rule="evenodd" clip-rule="evenodd" d="M60.2315 198.576C59.8175 198.065 59.4313 197.523 59.0765 196.952C59.4313 197.523 59.8175 198.065 60.2315 198.576ZM79.555 199.755C73.717 204.208 65.498 203.71 60.2395 198.586C60.2379 198.584 60.2363 198.582 60.2347 198.58C60.2336 198.579 60.2326 198.578 60.2315 198.576C59.8134 198.058 59.4279 197.515 59.0765 196.952C59.0269 196.873 58.9778 196.792 58.9294 196.711C58.928 196.709 58.9266 196.707 58.9253 196.704C58.3561 195.754 57.8834 194.747 57.5157 193.698C57.5153 193.697 57.515 193.696 57.5147 193.695C57.5138 193.693 57.5129 193.69 57.5121 193.688C57.5121 193.688 56.6278 193.492 54.8591 193.101C55.2632 194.455 55.9641 195.731 56.9781 197.108C57.3435 197.604 57.7496 198.113 58.1971 198.643C58.4241 198.912 58.6599 199.175 58.9046 199.432C60.9266 200.93 64.965 203.289 69.0576 203.697C70.1501 203.834 71.2698 203.822 72.3972 203.646C75.2149 203.204 77.6714 201.796 79.555 199.755Z" fill="#DCDDDD"/>
<path fill-rule="evenodd" clip-rule="evenodd" d="M61.5435 155.385C60.6527 151.579 59.5055 146.678 58.1019 140.682C57.7258 142.089 57.4134 143.665 57.1643 145.428C58.2935 149.279 59.5591 153.859 60.6915 158.526C61.5904 162.23 62.4053 165.99 63.0014 169.482C61.101 170.187 59.2988 171.618 57.5948 173.775C57.7925 174.799 58.0154 175.754 58.2635 176.647C58.4017 176.642 58.5395 176.705 58.624 176.827L59.3921 177.933C59.4906 177.831 59.5903 177.731 59.6914 177.632L58.4821 176.424C58.3479 176.289 58.3187 176.076 58.4236 175.908C58.6465 175.55 58.9388 175.182 59.3002 174.804C59.6543 174.434 60.0731 174.056 60.5565 173.671C60.7301 173.533 60.9832 173.555 61.1303 173.724L62.5577 175.358C62.7195 175.256 62.8832 175.156 63.0488 175.058L61.5486 173.912C61.5315 173.9 61.5151 173.887 61.4995 173.872C61.3317 173.714 61.3241 173.449 61.4827 173.281C61.8442 172.898 62.2249 172.558 62.6246 172.262C63.0251 171.966 63.4423 171.716 63.8764 171.513C64.037 171.438 64.234 171.472 64.3601 171.609C64.863 172.159 65.3255 172.678 65.7473 173.167C65.7473 173.167 65.1199 170.546 63.8651 165.303C63.8651 165.303 63.0912 161.997 61.5435 155.385Z" fill="#332C2B" fill-opacity="0.109804"/>
<path fill-rule="evenodd" clip-rule="evenodd" d="M57.1644 145.428C57.4134 143.665 57.7259 142.089 58.102 140.682C56.5484 134.126 54.5574 130.014 52.1291 128.347C51.6764 128.996 51.2488 129.781 50.8496 130.686C52.1727 131.564 53.5052 133.754 54.8605 137.932C55.3329 139.387 55.9485 141.349 56.6371 143.648C56.8087 144.221 56.9848 144.815 57.1644 145.428Z" fill="#C9CACA"/>
<path fill-rule="evenodd" clip-rule="evenodd" d="M57.4458 182.351C58.9394 183.932 60.4129 185.007 61.8663 185.578C61.9677 185.167 62.0934 184.767 62.2419 184.381C62.9385 182.57 64.1373 181.051 65.6796 180.077C66.5355 179.536 67.4974 179.162 68.5379 178.999C69.2326 178.89 69.9227 178.882 70.5964 178.963C70.3725 177.342 69.3908 175.467 67.6512 173.339C66.2792 173.554 64.9928 173.998 63.8165 174.633C63.8162 174.633 63.8159 174.633 63.8156 174.633C63.073 175.034 62.3741 175.511 61.7254 176.054L61.7246 176.055M61.7176 176.061L61.7143 176.063L61.6377 176.128L61.6373 176.128L61.56 176.195L61.5585 176.196L61.4845 176.261L61.4822 176.263M61.1802 176.537C61.0825 176.629 60.9862 176.722 60.8911 176.816C60.9862 176.722 61.0825 176.629 61.1802 176.537ZM60.386 177.347C60.2726 177.473 60.1613 177.601 60.0521 177.732C60.1612 177.601 60.2726 177.473 60.386 177.347ZM59.9831 177.815C59.9402 177.867 59.8977 177.919 59.8555 177.972C59.8977 177.919 59.9402 177.867 59.9831 177.815ZM59.4083 178.563C59.3717 178.614 59.3354 178.665 59.2994 178.717C59.3354 178.665 59.3717 178.614 59.4083 178.563ZM59.1665 178.911C59.1304 178.964 59.0947 179.018 59.0593 179.072C59.0947 179.018 59.1304 178.964 59.1665 178.911ZM58.0862 180.803C58.0614 180.855 58.037 180.906 58.0128 180.958C58.037 180.906 58.0615 180.855 58.0862 180.803ZM57.8935 181.221C57.8704 181.274 57.8476 181.326 57.825 181.379C57.8476 181.326 57.8704 181.274 57.8935 181.221ZM57.7799 181.485C57.7581 181.537 57.7364 181.589 57.715 181.642C57.7364 181.589 57.7581 181.537 57.7799 181.485ZM57.4651 182.297L57.4648 182.298L57.4644 182.299L57.4641 182.299L57.464 182.3L57.4647 182.298L57.4644 182.299L57.4648 182.298M57.464 182.3L57.4638 182.3L57.4635 182.301L57.4634 182.301L57.464 182.3ZM57.4634 182.301L57.4632 182.302L57.4628 182.303L57.4625 182.304L57.4622 182.305L57.4619 182.306L57.4616 182.306L57.4613 182.307L57.461 182.308L57.4607 182.309L57.4604 182.31L57.4601 182.311L57.4597 182.312L57.4594 182.313L57.4591 182.313L57.4588 182.314L57.4585 182.315L57.4582 182.316L57.4579 182.317L57.4576 182.318L57.4573 182.319L57.457 182.32L57.4567 182.32M57.4565 182.321L57.4563 182.321L57.456 182.322L57.4559 182.323L57.4565 182.321ZM57.4559 182.323L57.4557 182.323L57.4554 182.324L57.4551 182.325L57.4548 182.326L57.4545 182.327L57.4542 182.327L57.4539 182.328L57.4536 182.329L57.4533 182.33L57.4529 182.331M57.4527 182.332L57.4526 182.332L57.4523 182.333L57.4521 182.333L57.4527 182.332ZM57.4521 182.333L57.452 182.334L57.4517 182.334L57.4515 182.335L57.4521 182.333ZM57.4515 182.335L57.4514 182.335L57.4511 182.336L57.4508 182.337L57.4505 182.338L57.4502 182.339L57.4502 182.339L57.4499 182.34L57.4495 182.341L57.4492 182.341L57.4489 182.342L57.4486 182.343L57.4483 182.344L57.448 182.345L57.4477 182.346L57.4484 182.344M57.4477 182.346V182.346L57.4474 182.347L57.4471 182.348L57.4468 182.348L57.4465 182.349L57.4471 182.348L57.4477 182.346ZM57.4465 182.349V182.349L57.4461 182.35L57.4458 182.351L57.4465 182.349ZM57.4628 182.303L57.4625 182.304L57.4628 182.303ZM57.4622 182.305L57.4619 182.306L57.4622 182.305ZM57.4616 182.306L57.4613 182.307L57.4616 182.306ZM57.461 182.308L57.4607 182.309L57.461 182.308ZM57.4604 182.31L57.4601 182.311L57.4604 182.31ZM57.4597 182.312L57.4594 182.313L57.4597 182.312ZM57.4591 182.313L57.4588 182.314L57.4591 182.313ZM57.4585 182.315L57.4582 182.316L57.4585 182.315ZM57.4579 182.317L57.4576 182.318L57.4579 182.317ZM57.4573 182.319L57.457 182.32L57.4573 182.319ZM57.4554 182.324L57.4551 182.325L57.4554 182.324ZM57.4548 182.326L57.4545 182.327L57.4548 182.326ZM57.4542 182.327L57.4539 182.328L57.4542 182.327ZM57.4536 182.329L57.4533 182.33L57.4536 182.329ZM57.4511 182.336L57.4508 182.337L57.4511 182.336ZM57.4499 182.34L57.4495 182.341L57.4499 182.34ZM57.4492 182.341L57.4489 182.342L57.4492 182.341ZM57.4486 182.343L57.4483 182.344L57.4486 182.343ZM60.3891 177.344C60.4341 177.294 60.4794 177.244 60.5251 177.195L60.3891 177.344ZM61.7176 176.061L61.7503 176.033C62.3755 175.512 63.0486 175.051 63.7649 174.66C63.5229 174.787 63.2845 174.92 63.0499 175.058C62.8843 175.155 62.7206 175.255 62.5588 175.358C61.5199 176.016 60.5602 176.78 59.6925 177.632C59.5915 177.731 59.4917 177.831 59.3933 177.933C59.2089 178.123 59.0288 178.317 58.8534 178.515C57.8672 179.63 57.0257 180.869 56.3525 182.205C56.3525 182.205 56.717 182.253 57.4458 182.351M57.4628 182.303L57.4634 182.301L57.4628 182.303Z" fill="#332C2B" fill-opacity="0.109804"/>
<path fill-rule="evenodd" clip-rule="evenodd" d="M58.6241 176.827L63.2743 183.524L63.2732 183.525C63.3317 183.61 63.3592 183.716 63.3425 183.825C63.3076 184.053 63.095 184.209 62.8676 184.174C61.8262 184.013 60.7651 183.505 59.6845 182.651C58.6313 181.819 57.5544 180.654 56.4542 179.157C56.355 179.021 56.3434 178.833 56.4398 178.684C56.6267 178.392 56.8497 178.086 57.1086 177.765C57.3628 177.451 57.6478 177.126 57.9635 176.792C57.9862 176.766 58.0126 176.742 58.0425 176.721C58.2323 176.59 58.4927 176.637 58.6241 176.827ZM43.7526 149.84C45.6589 155.716 50.399 169.281 54.9225 177.902C57.3827 173.374 60.0758 170.567 63.0015 169.482C61.0557 158.081 56.7783 143.842 54.8606 137.932C51.7142 128.234 48.6905 129.244 45.6231 132.533C42.5557 135.821 40.6061 140.142 43.7526 149.84ZM61.1304 173.724L66.7794 180.193C66.893 180.309 66.9321 180.487 66.8648 180.646C66.6526 181.15 66.3534 181.543 65.9673 181.824C65.5879 182.1 65.1337 182.261 64.6052 182.305C64.4793 182.323 64.347 182.283 64.2503 182.187L58.4822 176.424C58.348 176.289 58.3188 176.076 58.4237 175.908C58.6466 175.55 58.9389 175.182 59.3004 174.804C59.6544 174.434 60.0732 174.056 60.5566 173.671C60.7302 173.533 60.9833 173.555 61.1304 173.724ZM68.0585 176.131C68.8756 177.364 69.2024 178.28 69.0392 178.88C69.0269 178.94 69.0013 178.998 68.9617 179.05C68.8214 179.233 68.559 179.268 68.3758 179.128L61.5487 173.912C61.5316 173.9 61.5153 173.887 61.4996 173.872C61.3318 173.714 61.3242 173.449 61.4828 173.281C61.8443 172.898 62.225 172.558 62.6247 172.262C63.0252 171.966 63.4424 171.716 63.8763 171.512L63.8765 171.513C64.0371 171.438 64.2341 171.472 64.3602 171.609C66.0513 173.456 67.2842 174.963 68.0585 176.131Z" fill="#FEFEFE"/>
<path fill-rule="evenodd" clip-rule="evenodd" d="M42.3682 144.137C44.6903 140.259 46.8595 137.943 48.8756 137.188C51.7803 136.1 54.3675 138.254 56.6372 143.648C55.9485 141.349 55.333 139.387 54.8606 137.932C53.5053 133.754 52.1728 131.564 50.8497 130.686C49.1012 129.527 47.3692 130.661 45.6231 132.533C43.2355 135.092 41.5252 138.278 42.3682 144.137Z" fill="#332C2B" fill-opacity="0.109804"/>
<path fill-rule="evenodd" clip-rule="evenodd" d="M130.497 177.036C133.193 177.425 135.125 180.257 135.475 183.873C136.524 180.57 137.335 177.928 137.908 175.947C136.407 173.162 134.132 171.263 131.387 170.867C130.792 170.781 130.198 170.769 129.609 170.826C126.445 170.778 123.412 170.916 120.51 171.24C122.599 171.743 124.112 172.234 125.047 172.712C124.551 175.084 124.543 177.486 125.022 179.918C125.104 179.805 125.187 179.694 125.271 179.586C126.694 177.772 128.585 176.76 130.497 177.036Z" fill="#332C2B" fill-opacity="0.109804"/>
<path fill-rule="evenodd" clip-rule="evenodd" d="M129.241 178.757L131.194 169.577C131.242 169.354 131.459 169.21 131.682 169.253C132.378 169.371 133.037 169.539 133.657 169.757C134.282 169.976 134.868 170.246 135.414 170.568C135.58 170.665 135.654 170.861 135.605 171.038L133.289 179.335C133.263 179.427 133.21 179.503 133.14 179.556C132.411 180.116 131.722 180.357 131.071 180.281C130.408 180.203 129.821 179.804 129.309 179.086C129.239 178.987 129.218 178.867 129.241 178.757ZM131.638 142.132C133.376 147.717 137.185 161.008 138.208 169.788C136.546 167.377 132.96 166.266 127.45 166.454C122.813 156.758 118.437 143.714 116.734 138.242C113.95 129.299 116.811 128.643 120.927 129.717C125.043 130.791 128.854 133.188 131.638 142.132ZM134.559 179.932L135.566 171.376L135.567 171.376C135.571 171.344 135.579 171.311 135.591 171.278C135.671 171.062 135.911 170.953 136.127 171.033C136.614 171.214 137.035 171.482 137.391 171.838C137.738 172.184 138.02 172.612 138.238 173.12C138.279 173.205 138.293 173.305 138.268 173.404C137.896 174.9 137.465 176.216 136.973 177.352C136.478 178.495 135.925 179.453 135.311 180.226C135.226 180.343 135.081 180.412 134.927 180.394C134.697 180.368 134.533 180.161 134.559 179.932ZM125.886 177.357C125.82 176.856 125.787 176.251 125.789 175.543C125.788 175.524 125.788 175.504 125.789 175.485C125.877 174.254 126.012 173.074 126.196 171.945C126.377 170.83 126.606 169.766 126.883 168.754L126.888 168.734C126.947 168.511 127.175 168.377 127.398 168.436C127.874 168.561 128.364 168.707 128.868 168.874L128.867 168.876C129.375 169.044 129.897 169.232 130.434 169.44C130.448 169.445 130.461 169.45 130.475 169.456C130.687 169.547 130.785 169.793 130.694 170.005L126.982 178.625C126.943 178.716 126.872 178.793 126.776 178.838C126.568 178.936 126.319 178.847 126.22 178.639C126.069 178.32 125.958 177.893 125.886 177.357Z" fill="#FEFEFE"/>
<path fill-rule="evenodd" clip-rule="evenodd" d="M117.042 129.591C125.184 132.425 130.554 138.303 133.154 147.224C132.576 145.204 132.049 143.452 131.638 142.132C128.854 133.188 125.042 130.791 120.927 129.717C119.375 129.312 118.002 129.153 117.042 129.591Z" fill="#DCDDDD"/>
<path fill-rule="evenodd" clip-rule="evenodd" d="M130.185 66.0967C124.836 61.3889 116.793 61.4906 111.565 66.3322C110.505 67.3139 108.849 67.2504 107.868 66.1903C106.886 65.1302 106.949 63.4749 108.01 62.4931C115.206 55.8282 126.279 55.6883 133.642 62.169C134.726 63.1236 134.832 64.7767 133.877 65.8614C132.922 66.946 131.269 67.0513 130.185 66.0967ZM63.0321 68.3763C57.6833 63.6685 49.6401 63.7702 44.4122 68.6118C43.352 69.5935 41.6968 69.53 40.715 68.4699C39.7333 67.4098 39.7968 65.7545 40.8569 64.7728C48.0538 58.1078 59.126 57.9679 66.4891 64.4486C67.5737 65.4032 67.6791 67.0563 66.7245 68.141C65.7698 69.2256 64.1167 69.3309 63.0321 68.3763ZM95.4473 73.3941C96.8921 73.4088 98.0514 74.592 98.0367 76.0368C98.0119 78.4766 97.9832 80.6432 97.4675 82.4532C96.8784 84.5209 95.7128 86.0081 93.8786 87.3293C90.07 90.0729 84.9334 90.0728 81.1248 87.3293L82.6539 85.2065L81.1248 87.3293C77.027 84.3776 76.7319 79.6279 77.0565 75.9404C77.1832 74.5011 78.4527 73.437 79.8921 73.5637C81.3314 73.6904 82.3955 74.9599 82.2688 76.3992C81.9749 79.7379 82.4902 81.8643 84.183 83.0837L84.1831 83.0837C86.1651 84.5115 88.8383 84.5115 90.8204 83.0837L90.8204 83.0837C91.8817 82.3193 92.2257 81.7552 92.4354 81.0194C92.7184 80.0261 92.7776 78.6373 92.8046 75.9835C92.8193 74.5387 94.0025 73.3794 95.4473 73.3941Z" fill="#8AB2FC"/>
<path fill-rule="evenodd" clip-rule="evenodd" d="M130.757 168.163C132.662 168.829 135.145 169.371 138.208 169.788C136.546 167.377 132.96 166.266 127.45 166.454C128.025 166.927 128.778 167.362 129.708 167.758C129.934 167.855 130.171 167.949 130.419 168.041C130.428 168.044 130.437 168.048 130.447 168.051C130.548 168.089 130.652 168.126 130.757 168.163Z" fill="#B6B6B7"/>
<path fill-rule="evenodd" clip-rule="evenodd" d="M57.595 173.775C57.535 173.851 57.4751 173.928 57.4154 174.006C57.3394 174.105 57.2636 174.205 57.1881 174.307C57.1848 174.311 57.1815 174.316 57.1782 174.32C56.9013 174.694 56.627 175.087 56.3554 175.499C55.8694 176.238 55.3917 177.038 54.9226 177.902C55.7634 177.174 56.5512 176.469 57.286 175.785C57.4944 175.591 57.6985 175.398 57.8983 175.208C58.4839 174.65 59.033 174.107 59.5454 173.579C60.987 172.094 62.139 170.729 63.0016 169.483C62.0047 169.852 61.0349 170.422 60.092 171.191C59.2375 171.888 58.4052 172.75 57.595 173.775Z" fill="#B6B6B7"/>
</svg>
