<svg width="198" height="226" viewBox="0 0 198 226" fill="none" xmlns="http://www.w3.org/2000/svg">
<path fill-rule="evenodd" clip-rule="evenodd" d="M107.911 225.719C148.056 225.719 180.6 219.1 180.6 210.935C180.6 202.77 148.056 196.151 107.911 196.151C67.7667 196.151 35.2229 202.77 35.2229 210.935C35.2229 219.1 67.7667 225.719 107.911 225.719Z" fill="#332C2B" fill-opacity="0.109804"/>
<path fill-rule="evenodd" clip-rule="evenodd" d="M86.3532 6.90878C45.4997 10.3472 14.99 44.1288 18.0166 80.0896C21.0433 116.05 55.0163 123.419 95.8698 119.981C136.723 116.542 168.987 103.599 165.96 67.6381C162.934 31.6774 127.207 3.47042 86.3532 6.90878Z" fill="#FEFEFE"/>
<path fill-rule="evenodd" clip-rule="evenodd" d="M86.5742 17.3649C51.8185 20.2901 25.8627 49.0296 28.4376 79.6228C31.0124 110.216 59.278 108.92 94.0337 105.995C128.789 103.07 156.874 99.623 154.299 69.0298C151.724 38.4366 121.33 14.4397 86.5742 17.3649Z" fill="#0C295C"/>
<path fill-rule="evenodd" clip-rule="evenodd" d="M86.5743 17.3651C51.8186 20.2903 25.8628 49.0297 28.4376 79.6229C28.476 80.0789 28.521 80.5268 28.5707 80.9687C29.3094 52.5068 54.1988 26.955 86.864 24.2058C121.029 21.3304 150.978 44.4701 154.432 74.3172C154.497 72.6506 154.456 70.8914 154.299 69.0299C151.724 38.4367 121.33 14.4399 86.5743 17.3651Z" fill="black" fill-opacity="0.141176"/>
<path fill-rule="evenodd" clip-rule="evenodd" d="M174.577 80.6314C171.271 84.384 167.23 87.3881 162.456 89.6436C160.161 74.3685 159.49 60.2163 160.443 47.1872C165.336 48.7293 169.245 50.3426 172.17 52.027C174.986 61.4653 175.788 71.0001 174.577 80.6314Z" fill="#446AB1"/>
<path fill-rule="evenodd" clip-rule="evenodd" d="M11.6977 94.3398C15.5852 97.487 20.0709 99.7735 25.1548 101.199C24.8647 85.7555 23.161 71.6902 20.0437 59.0036C15.4771 61.3419 11.8926 63.5858 9.29024 65.7355C8.09151 75.5117 8.89398 85.0465 11.6977 94.3398Z" fill="#446AB1"/>
<path fill-rule="evenodd" clip-rule="evenodd" d="M108.097 1.01112C111.216 7.66653 112.775 10.9943 112.775 10.9943C95.4092 8.56962 77.7209 10.0583 61.0046 15.3515C62.0806 8.34295 62.6185 4.8387 62.6185 4.8387C78.2707 0.178682 93.4301 -1.09725 108.097 1.01112Z" fill="#18386E"/>
<path fill-rule="evenodd" clip-rule="evenodd" d="M108.097 1.01112C111.216 7.66653 112.775 10.9943 112.775 10.9943C111.403 10.8027 110.028 10.6356 108.653 10.4929L105.111 2.93538C92.5211 1.12558 79.508 2.22079 66.072 6.22104L64.8461 14.207C63.5603 14.5664 62.2796 14.9477 61.0046 15.3515C62.0806 8.34295 62.6185 4.8387 62.6185 4.8387C78.2707 0.178682 93.4301 -1.09725 108.097 1.01112Z" fill="#446AB1"/>
<path fill-rule="evenodd" clip-rule="evenodd" d="M80.2449 181.799C79.1025 179.827 77.9967 177.731 77.0064 175.652C74.2207 169.804 72.348 164.1 71.0876 159.088C69.8272 154.076 69.1791 149.755 69.012 146.115C68.8448 142.474 69.1585 139.512 69.9777 137.582C70.7969 135.651 72.1215 134.751 74.8945 133.633C77.6674 132.515 81.8887 131.178 86.1572 129.828C90.4257 128.478 94.7414 127.113 99.0571 125.749C103.428 124.574 107.799 123.398 112.123 122.237C116.446 121.075 120.723 119.927 123.661 119.376C126.6 118.824 128.201 118.869 129.931 120.054C131.661 121.239 133.521 123.565 135.341 126.723C137.161 129.88 138.943 133.869 140.581 138.771C142.219 143.672 143.714 149.487 144.517 155.914C144.77 157.939 144.954 160.025 145.062 162.058C143.628 163.417 141.589 164.381 138.944 164.952C134.54 154.596 128.959 144.925 122.2 135.938L85.0934 146.787C83.859 156.704 84.0205 168.246 85.5781 181.415C83.4118 182.077 81.6341 182.206 80.2449 181.799Z" fill="#FEFEFE"/>
<path fill-rule="evenodd" clip-rule="evenodd" d="M149.863 112.041C160.352 106.445 194.645 89.3228 197.129 96.373C199.613 103.423 168.324 122.879 157.835 128.475C147.347 134.071 141.746 129.917 140.182 125.477C138.618 121.037 139.374 117.637 149.863 112.041Z" fill="#FEFEFE"/>
<path fill-rule="evenodd" clip-rule="evenodd" d="M49.2022 134.484C37.3147 134.331 -1.01137 134.874 0.0204382 142.277C1.05225 149.681 37.7817 152.591 49.6691 152.744C61.5566 152.897 64.6229 146.635 63.9731 141.972C63.3232 137.31 61.0896 134.638 49.2022 134.484Z" fill="#FEFEFE"/>
<path fill-rule="evenodd" clip-rule="evenodd" d="M146.416 190.873C146.392 189.74 146.704 187.92 147.044 186.073C147.383 184.226 147.75 182.352 148.209 180.417C148.668 178.483 149.22 176.488 149.637 175.066C150.053 173.644 150.335 172.793 150.661 172.303C150.986 171.812 151.357 171.68 153.012 171.666C154.668 171.652 157.609 171.755 160.437 172.147C163.265 172.539 165.978 173.22 167.935 173.723C169.891 174.225 171.09 174.55 171.689 174.712C172.289 174.874 172.289 174.874 170.914 179.027C169.538 183.18 166.788 191.487 165.342 195.634C163.896 199.782 163.754 199.771 163.253 199.805C162.752 199.839 161.892 199.917 160.726 199.767C159.56 199.616 158.088 199.238 156.464 198.664C154.84 198.09 153.063 197.32 151.487 196.326C149.911 195.332 148.536 194.115 147.668 193.284C146.8 192.452 146.44 192.006 146.416 190.873Z" fill="#FEFEFE"/>
<path fill-rule="evenodd" clip-rule="evenodd" d="M106.745 196.361C105.676 195.985 103.849 195.715 101.988 195.461C100.127 195.208 98.2322 194.972 96.251 194.805C94.2698 194.639 92.2027 194.541 90.7213 194.493C89.2399 194.446 88.3442 194.448 87.7763 194.605C87.2083 194.761 86.968 195.072 86.4384 196.641C85.9088 198.21 85.0897 201.036 84.5807 203.845C84.0717 206.654 83.8727 209.445 83.7404 211.461C83.6081 213.476 83.5426 214.716 83.5099 215.337C83.4771 215.957 83.4771 215.957 87.8519 215.945C92.2268 215.933 100.976 215.909 105.368 215.828C109.76 215.747 109.794 215.609 109.982 215.143C110.171 214.678 110.513 213.885 110.734 212.73C110.954 211.576 111.054 210.06 111.014 208.337C110.975 206.615 110.798 204.686 110.345 202.879C109.892 201.072 109.164 199.386 108.645 198.302C108.125 197.219 107.813 196.737 106.745 196.361Z" fill="#FEFEFE"/>
<path fill-rule="evenodd" clip-rule="evenodd" d="M86.5742 17.3649C51.8185 20.2901 25.8627 49.0296 28.4376 79.6228C31.0124 110.216 59.278 108.92 94.0337 105.995C128.789 103.07 156.874 99.623 154.299 69.0298C151.724 38.4366 121.33 14.4397 86.5742 17.3649ZM86.6812 18.6679C69.6426 20.102 54.766 27.8583 44.4676 39.0023C34.1972 50.116 28.4849 64.5958 29.7406 79.5154V79.5155C30.9709 94.1335 38.3214 101.128 49.5051 104.116C61.0287 107.195 76.6677 106.144 93.9264 104.692C111.187 103.239 126.783 101.661 137.624 96.7024C148.15 91.8878 154.227 83.7609 152.996 69.137C151.741 54.2194 143.689 40.8998 131.707 31.6601C119.691 22.3941 103.725 17.2335 86.6816 18.6679H86.6812Z" fill="#446AB1"/>
<path fill-rule="evenodd" clip-rule="evenodd" d="M117.477 187.7C113.7 188.805 109.923 189.909 105.888 190.832C101.854 191.755 97.5613 192.498 94.4019 192.909C91.2424 193.32 89.216 193.4 86.3534 190.445C84.5084 188.54 82.3162 185.375 80.2449 181.799C81.6341 182.206 83.4118 182.078 85.5781 181.415C84.0205 168.246 83.859 156.704 85.0934 146.787L122.199 135.939C128.959 144.925 134.54 154.596 138.944 164.952C141.589 164.382 143.628 163.417 145.062 162.058C145.297 166.479 145.172 170.651 144.61 173.413C143.791 177.445 142.04 178.469 139.157 179.825C136.273 181.18 132.257 182.867 128.36 184.262C124.464 185.658 121.253 186.596 117.477 187.7Z" fill="#446AB1"/>
<path fill-rule="evenodd" clip-rule="evenodd" d="M117.477 187.7C113.7 188.804 109.923 189.909 105.889 190.832C101.854 191.755 97.5614 192.498 94.4019 192.909C91.2424 193.32 89.2161 193.4 86.3535 190.445C84.5085 188.54 82.3163 185.375 80.2449 181.799C79.1025 179.827 77.9968 177.731 77.0065 175.652C74.2208 169.804 72.348 164.1 71.0876 159.088C69.8272 154.075 69.1791 149.755 69.012 146.115C68.8448 142.474 69.1586 139.512 69.9778 137.582C70.797 135.651 72.1215 134.751 74.8946 133.633C77.6675 132.515 81.8888 131.178 86.1573 129.828C90.4257 128.478 94.7415 127.113 99.0572 125.749C103.428 124.574 107.799 123.398 112.123 122.237C116.446 121.075 120.723 119.927 123.661 119.376C126.6 118.824 128.201 118.869 129.931 120.054C131.661 121.239 133.521 123.565 135.341 126.723C137.161 129.88 138.943 133.869 140.581 138.771C142.219 143.672 143.714 149.487 144.517 155.914C144.77 157.939 144.954 160.025 145.062 162.058C145.297 166.479 145.172 170.651 144.611 173.413C143.791 177.445 142.04 178.469 139.157 179.824C136.273 181.18 132.257 182.866 128.36 184.262C124.464 185.657 121.254 186.596 117.477 187.7C99.6207 192.921 87.9309 196.375 79.2404 166.65C70.5498 136.924 82.6945 135.026 100.551 129.805C118.407 124.585 129.8 120.659 137.95 148.534C146.099 176.409 135.333 182.48 117.477 187.7Z" fill="black" fill-opacity="0.109804"/>
<path d="M119.339 172.339C118.7 173.175 117.954 173.943 117.117 174.617C115.835 175.648 114.345 176.453 112.704 176.932C109.293 177.93 105.801 177.45 102.912 175.868C100.024 174.286 97.7384 171.603 96.7412 168.192C95.7442 164.782 96.224 161.289 97.8057 158.401C99.3875 155.512 102.071 153.227 105.482 152.23C108.892 151.233 112.384 151.712 115.273 153.294C118.162 154.876 120.447 157.559 121.444 160.97C121.637 161.629 121.742 162.06 121.832 162.767L118.178 163.833L112.013 165.635C111.688 166.535 110.952 167.272 109.964 167.561C108.318 168.042 106.594 167.098 106.113 165.452C105.631 163.806 106.576 162.082 108.221 161.601C109.21 161.312 110.227 161.537 110.985 162.12L117.137 160.321C116.289 158.716 114.996 157.438 113.464 156.598C111.421 155.48 108.951 155.141 106.539 155.846C104.127 156.551 102.229 158.168 101.11 160.21C99.9917 162.253 99.6525 164.723 100.358 167.135C101.063 169.547 102.679 171.445 104.722 172.564C106.764 173.682 109.234 174.021 111.647 173.316C112.819 172.973 113.873 172.406 114.772 171.683C115.688 170.947 116.452 170.045 117.024 169.052L117.075 168.952C117.575 168.039 118.72 167.705 119.632 168.204L123.545 170.347C124.457 170.846 124.792 171.991 124.293 172.904C123.793 173.816 122.648 174.151 121.736 173.651L119.339 172.339Z" fill="#FEFEFE"/>
<path fill-rule="evenodd" clip-rule="evenodd" d="M149.863 112.041C153.573 110.061 160.262 106.64 167.467 103.357C152.969 110.569 152.998 113.518 155.21 118.078C156.636 121.015 158.291 125.645 164.309 124.793C161.763 126.307 159.528 127.572 157.835 128.475C147.347 134.071 141.746 129.917 140.182 125.477C138.618 121.037 139.374 117.637 149.863 112.041Z" fill="black" fill-opacity="0.109804"/>
<path fill-rule="evenodd" clip-rule="evenodd" d="M49.2022 134.484C44.9977 134.43 37.4851 134.463 29.5769 134.856C45.7675 134.604 47.0967 137.236 47.2252 142.303C47.308 145.567 47.9653 150.44 42.2277 152.447C45.1845 152.622 47.7514 152.719 49.6692 152.744C61.5566 152.897 64.623 146.635 63.9731 141.972C63.3233 137.31 61.0896 134.638 49.2022 134.484Z" fill="black" fill-opacity="0.109804"/>
<path fill-rule="evenodd" clip-rule="evenodd" d="M106.745 196.361C105.676 195.985 103.849 195.715 101.988 195.461C100.127 195.208 98.2322 194.972 96.251 194.805C94.2698 194.639 92.2026 194.541 90.7212 194.493C90.5887 194.489 90.4609 194.485 90.3376 194.482C101.274 197.001 105.47 197.94 106.626 201.615C108.347 210.585 106.669 215.438 104.151 215.847C104.585 215.841 104.993 215.835 105.368 215.828C109.76 215.747 109.794 215.609 109.982 215.144C110.171 214.678 110.513 213.885 110.734 212.73C110.954 211.576 111.054 210.06 111.014 208.337C110.975 206.615 110.798 204.687 110.345 202.879C109.892 201.072 109.164 199.386 108.645 198.302C108.125 197.219 107.813 196.737 106.745 196.361Z" fill="black" fill-opacity="0.109804"/>
<path fill-rule="evenodd" clip-rule="evenodd" d="M146.416 190.873C146.392 189.74 146.704 187.921 147.044 186.073C147.384 184.226 147.75 182.352 148.209 180.418C148.668 178.483 149.22 176.489 149.637 175.066C149.674 174.939 149.71 174.816 149.745 174.698C148.729 185.875 148.142 189.649 152.017 192.365C159.193 196.528 164.566 196.749 165.74 194.484C165.599 194.894 165.465 195.28 165.342 195.635C163.896 199.782 163.754 199.772 163.253 199.805C162.752 199.839 161.892 199.917 160.726 199.767C159.56 199.617 158.088 199.238 156.464 198.664C154.84 198.09 153.063 197.32 151.487 196.326C149.911 195.333 148.536 194.115 147.668 193.284C146.801 192.452 146.44 192.006 146.416 190.873Z" fill="black" fill-opacity="0.109804"/>
<path fill-rule="evenodd" clip-rule="evenodd" d="M9.44824 84.2134C9.93893 87.6202 10.6886 90.9957 11.6975 94.3399C15.585 97.4871 20.0707 99.7736 25.1545 101.199V101.199C37.6642 118.95 64.7716 122.598 95.8695 119.981C126.972 117.363 153.091 109.233 162.455 89.6347L162.456 89.6436C167.23 87.3881 171.27 84.384 174.577 80.6313C175.012 77.1716 175.187 73.7244 175.103 70.2896L160.621 73.7642C156.966 94.0958 147.844 108.942 95.3142 113.363C42.9785 117.767 32.6171 108.303 24.3079 85.2368L9.44824 84.2134Z" fill="black" fill-opacity="0.109804"/>
<path fill-rule="evenodd" clip-rule="evenodd" d="M40.0816 46.7865C42.1282 49.1047 47.9219 47.1578 53.0223 42.438C58.1228 37.7182 60.5984 32.0129 58.5518 29.6946C56.5053 27.3764 50.7115 29.3233 45.6111 34.0431C40.5107 38.7629 38.0351 44.4683 40.0816 46.7865Z" fill="#FEFEFE" fill-opacity="0.270588"/>
<path fill-rule="evenodd" clip-rule="evenodd" d="M132.452 42.2249C132.771 43.3359 132.129 44.4952 131.018 44.8142C124.459 46.6977 119.694 48.0659 116.233 49.0596C123.172 50.1272 127.274 50.7582 129.698 51.1311L133.194 51.6688C134.336 51.8446 135.12 52.9133 134.944 54.0557C134.769 55.1982 133.7 55.9818 132.557 55.8061L132.876 53.7375C132.557 55.8061 132.557 55.8061 132.557 55.8061L129.062 55.2683C125.698 54.7508 119.102 53.7361 106.174 51.7474L106.17 51.1311C104.704 49.6673 105.909 47.6689 105.909 47.6689L105.912 47.6678L105.914 47.6675L105.915 47.6672L105.917 47.6666L105.927 47.6637C105.952 47.6564 106.016 47.6382 106.17 47.594C106.477 47.5056 107.146 47.3137 108.59 46.8992C111.477 46.0702 117.464 44.3511 129.863 40.7909C130.974 40.4719 132.133 41.1139 132.452 42.2249ZM106.493 49.6788C105.923 47.6947 105.915 47.6672 105.915 47.6672L106.493 49.6788Z" fill="#8AB2FC"/>
<path fill-rule="evenodd" clip-rule="evenodd" d="M100.431 59.8951C102.092 77.579 98.7698 85.1618 91.8707 85.7806C81.827 86.6813 78.4083 76.6657 76.6953 62.0491C84.6218 61.5016 92.5356 60.7834 100.431 59.8951Z" fill="#8AB2FC"/>
<path fill-rule="evenodd" clip-rule="evenodd" d="M101.751 58.271C102.187 58.6254 102.462 59.1401 102.515 59.6994C103.354 68.6291 102.974 75.316 101.333 79.9375C100.502 82.2787 99.315 84.1815 97.7129 85.552C96.0925 86.9382 94.1682 87.6758 92.0576 87.8651C89.1724 88.1238 86.6256 87.6033 84.4378 86.3094C82.271 85.0279 80.6139 83.0816 79.3258 80.7438C76.7889 76.1395 75.4756 69.6231 74.6165 62.2927C74.5499 61.7242 74.719 61.1532 75.0845 60.7127C75.45 60.2721 75.98 60.0005 76.551 59.9611C84.4475 59.4156 92.3314 58.7001 100.197 57.8153C100.755 57.7525 101.315 57.9167 101.751 58.271ZM79.0471 63.9801C79.8913 70.25 81.095 75.2807 82.992 78.7237C84.0282 80.6043 85.2161 81.9065 86.5686 82.7064C87.9001 83.4939 89.547 83.8875 91.6837 83.6959C93.0227 83.5758 94.1008 83.1335 94.9918 82.3712C95.901 81.5934 96.7344 80.3792 97.3885 78.5369C98.6081 75.102 99.0886 69.8162 98.5259 62.2114C92.0438 62.9152 85.5499 63.5049 79.0471 63.9801Z" fill="#8AB2FC"/>
<path fill-rule="evenodd" clip-rule="evenodd" d="M49.3089 46.6441C52.0176 47.3581 57.7308 48.8639 69.7484 52.0316L69.5511 52.78C70.1176 53.4683 70.613 54.6032 69.727 56.0847L69.7256 56.0851L69.7254 56.0851L69.7252 56.0852L69.7251 56.0852L69.725 56.0852L69.725 56.0852C69.725 56.0852 69.725 56.0852 69.215 54.0554L69.725 56.0852C69.7245 56.0854 69.724 56.0855 69.7235 56.0856L45.6034 62.1456C44.4824 62.4272 43.3452 61.7468 43.0636 60.6257C42.7819 59.5047 43.4624 58.3675 44.5835 58.0859L60.819 54.0068C54.0025 52.2101 50.2756 51.2278 48.242 50.6918C46.8876 50.3348 46.2844 50.1758 46.0197 50.106C45.9031 50.0753 45.8523 50.0619 45.8319 50.0565C45.8309 50.0563 45.8299 50.056 45.8289 50.0557C45.8289 50.0557 45.8289 50.0557 45.8289 50.0557C45.8289 50.0557 45.8289 50.0557 45.8289 50.0557L45.8288 50.0557L45.8287 50.0557L45.8262 50.055L45.8252 50.0548C45.8211 50.0537 45.8204 50.0535 45.8208 50.0536L45.8163 50.0524C45.8142 50.0519 44.3272 47.5032 46.8646 46C46.8733 46.0022 46.8829 46.0047 46.8839 46.005L46.8886 46.0062L46.8895 46.0064L46.8918 46.007C46.9065 46.0109 46.9542 46.0235 47.0866 46.0584C47.3512 46.1281 47.9545 46.2871 49.3089 46.6441ZM46.8942 46.0144C46.885 46.0493 46.8248 46.2777 46.431 47.7717L46.8942 46.0144C46.8942 46.0144 46.8942 46.0144 46.8942 46.0144ZM45.8289 50.0557L46.3031 48.2569C45.8414 50.008 45.8292 50.0545 45.8289 50.0557C45.8289 50.0557 45.8289 50.0557 45.8289 50.0557Z" fill="#8AB2FC"/>
</svg>
