<svg width="343" height="140" viewBox="0 0 343 140" fill="none" xmlns="http://www.w3.org/2000/svg">
<g opacity="0.25">
<path fill-rule="evenodd" clip-rule="evenodd" d="M-16.2374 112.79C-17.7267 142.446 5.1074 167.695 34.764 169.184C64.4205 170.674 89.6692 147.839 91.1585 118.183C92.6478 88.5263 69.8137 63.2776 40.1571 61.7883C10.5006 60.299 -14.7481 83.1331 -16.2374 112.79Z" fill="white"/>
<path fill-rule="evenodd" clip-rule="evenodd" d="M122.072 120.076C121.879 123.924 124.842 127.199 128.689 127.392C132.536 127.586 135.812 124.623 136.005 120.776C136.198 116.929 133.236 113.653 129.389 113.46C125.541 113.267 122.266 116.229 122.072 120.076Z" fill="white"/>
<path fill-rule="evenodd" clip-rule="evenodd" d="M340.75 55C366.293 55 387 34.2932 387 8.75C387 -16.7932 366.293 -37.5 340.75 -37.5C315.207 -37.5 294.5 -16.7932 294.5 8.75C294.5 34.2932 315.207 55 340.75 55Z" fill="white"/>
<path fill-rule="evenodd" clip-rule="evenodd" d="M299 87C304.523 87 309 82.5228 309 77C309 71.4772 304.523 67 299 67C293.477 67 289 71.4772 289 77C289 82.5228 293.477 87 299 87Z" fill="white"/>
<path fill-rule="evenodd" clip-rule="evenodd" d="M261.5 10C261.5 -34.4589 297.541 -70.5 342 -70.5C386.459 -70.5 422.5 -34.4589 422.5 10C422.5 54.4589 386.459 90.5 342 90.5C329.739 90.5 318.118 87.7588 307.717 82.8558C305.831 85.6572 302.631 87.5 299 87.5C293.201 87.5 288.5 82.799 288.5 77C288.5 74.9831 289.069 73.0991 290.054 71.4994C272.59 56.7329 261.5 34.6615 261.5 10ZM290.831 72.1478C289.986 73.5679 289.5 75.2273 289.5 77C289.5 82.2467 293.753 86.5 299 86.5C302.233 86.5 305.088 84.8854 306.804 82.4186C301.065 79.624 295.707 76.1673 290.831 72.1478ZM307.334 81.5639C301.601 78.7816 296.252 75.3307 291.39 71.3125C293.123 68.9979 295.886 67.5 299 67.5C304.247 67.5 308.5 71.7533 308.5 77C308.5 78.6541 308.077 80.2095 307.334 81.5639ZM308.238 81.9955C309.043 80.51 309.5 78.8084 309.5 77C309.5 71.201 304.799 66.5 299 66.5C295.578 66.5 292.539 68.1366 290.622 70.6698C273.419 56.087 262.5 34.3186 262.5 10C262.5 -33.9066 298.093 -69.5 342 -69.5C385.907 -69.5 421.5 -33.9066 421.5 10C421.5 53.9066 385.907 89.5 342 89.5C329.929 89.5 318.485 86.8095 308.238 81.9955ZM294 8.75C294 -17.0693 314.931 -38 340.75 -38C366.569 -38 387.5 -17.0693 387.5 8.75C387.5 34.5693 366.569 55.5 340.75 55.5C314.931 55.5 294 34.5693 294 8.75ZM340.75 -37C315.483 -37 295 -16.517 295 8.75C295 34.017 315.483 54.5 340.75 54.5C366.017 54.5 386.5 34.017 386.5 8.75C386.5 -16.517 366.017 -37 340.75 -37ZM-57.446 112.175C-54.8561 60.6016 -10.9478 20.8924 40.6258 23.4824C89.3081 25.9271 127.419 65.1871 129.361 112.958C129.378 112.959 129.396 112.96 129.414 112.961C133.537 113.168 136.711 116.678 136.504 120.801C136.299 124.883 132.857 128.036 128.787 127.897C123.08 176.344 80.6852 212.73 31.2469 210.247C-20.3267 207.657 -60.0359 163.749 -57.446 112.175ZM128.899 126.9C132.39 126.977 135.329 124.261 135.506 120.751C135.684 117.19 132.952 114.157 129.396 113.961C129.471 116.471 129.447 119.003 129.319 121.554C129.228 123.351 129.088 125.133 128.899 126.9ZM128.396 113.982C128.471 116.468 128.447 118.977 128.32 121.504C128.231 123.285 128.091 125.051 127.904 126.802C124.736 126.242 122.406 123.398 122.572 120.102C122.735 116.857 125.258 114.291 128.396 113.982ZM128.361 112.981C124.709 113.309 121.762 116.284 121.573 120.051C121.381 123.879 124.102 127.178 127.792 127.797C122.137 175.716 80.2004 211.704 31.2971 209.248C-19.725 206.686 -59.0094 163.247 -56.4472 112.225C-53.885 61.2034 -10.4464 21.9189 40.5757 24.4811C88.7309 26.8993 126.43 65.7294 128.361 112.981ZM-16.7368 112.765C-15.2337 82.8323 10.2499 59.7858 40.1822 61.289C70.1146 62.7921 93.161 88.2756 91.6579 118.208C90.1548 148.14 64.6713 171.187 34.7389 169.684C4.80653 168.18 -18.2399 142.697 -16.7368 112.765ZM40.1321 62.2877C10.7513 60.8123 -14.2626 83.434 -15.738 112.815C-17.2135 142.196 5.40828 167.209 34.789 168.685C64.1698 170.16 89.1837 147.539 90.6591 118.158C92.1346 88.777 69.5128 63.7631 40.1321 62.2877Z" fill="#FEFEFE"/>
</g>
</svg>
