<svg width="28" height="35" viewBox="0 0 28 35" fill="none" xmlns="http://www.w3.org/2000/svg">
<path d="M3.23389 33.2295V15.8714C3.23389 15.3001 3.69704 14.8369 4.26837 14.8369H23.1233C23.6946 14.8369 24.1578 15.3001 24.1578 15.8714V33.2166C24.1578 34.011 23.2994 34.509 22.6097 34.1145L14.793 29.6437C14.1606 29.282 13.3847 29.2795 12.75 29.6372L4.77625 34.1308C4.08666 34.5194 3.23389 34.0211 3.23389 33.2295Z" fill="#FFAB69" stroke="#FFAB69" stroke-width="0.206897"/>
<circle cx="13.7908" cy="13.7908" r="13.7908" fill="#FFAB69"/>
<circle cx="13.8859" cy="13.8859" r="9.51087" fill="#DF9154"/>
<path d="M14.2438 8.68629C16.3183 8.68629 17.3555 9.5856 17.3555 11.3842C17.3555 11.9249 17.2562 12.3718 17.0576 12.7249C16.859 13.078 16.5335 13.398 16.0811 13.6849V13.7511C16.5887 13.9828 16.9528 14.2918 17.1735 14.678C17.3942 15.0532 17.5045 15.5442 17.5045 16.1511C17.5045 17.1553 17.2176 17.9332 16.6438 18.4849C16.07 19.0256 15.2369 19.2959 14.1445 19.2959C13.6038 19.2959 13.1404 19.2463 12.7542 19.147C12.379 19.0587 11.8935 18.8877 11.2976 18.6339L11.8769 16.3166C12.7928 16.6477 13.4273 16.8132 13.7804 16.8132C14.299 16.8132 14.5583 16.5263 14.5583 15.9525C14.5583 15.3346 14.2107 15.0256 13.5155 15.0256H12.4893V12.8573H13.5321C13.8411 12.8573 14.0562 12.7911 14.1776 12.6587C14.31 12.5153 14.3762 12.3056 14.3762 12.0297C14.3762 11.5001 14.1169 11.2353 13.5983 11.2353C13.2342 11.2353 12.5887 11.4228 11.6618 11.798L11.0162 9.56354C11.6231 9.2325 12.1638 9.00629 12.6383 8.88492C13.1128 8.7525 13.648 8.68629 14.2438 8.68629Z" fill="#FFAB69"/>
</svg>
