<svg width="145" height="181" viewBox="0 0 145 181" fill="none" xmlns="http://www.w3.org/2000/svg">
<path d="M17 175.443V83C17 80.2386 19.2386 78 22 78H122C124.761 78 127 80.2386 127 83V175.38C127 179.22 122.851 181.627 119.518 179.72L77.3357 155.594C74.2793 153.846 70.5288 153.834 67.4613 155.563L24.4548 179.799C21.1217 181.677 17 179.269 17 175.443Z" fill="#FFAB69"/>
<path d="M145 72.5C145 112.541 112.541 145 72.5 145C32.4594 145 0 112.541 0 72.5C0 32.4594 32.4594 0 72.5 0C112.541 0 145 32.4594 145 72.5Z" fill="#FFAB69"/>
<circle cx="73" cy="73" r="50" fill="#DF9154"/>
<path d="M73.36 47.52C83.3867 47.52 88.4 51.8667 88.4 60.56C88.4 63.1733 87.92 65.3333 86.96 67.04C86 68.7467 84.4267 70.2933 82.24 71.68V72C84.6933 73.12 86.4533 74.6133 87.52 76.48C88.5867 78.2933 89.12 80.6667 89.12 83.6C89.12 88.4533 87.7333 92.2133 84.96 94.88C82.1867 97.4933 78.16 98.8 72.88 98.8C70.2667 98.8 68.0267 98.56 66.16 98.08C64.3467 97.6533 62 96.8267 59.12 95.6L61.92 84.4C66.3467 86 69.4133 86.8 71.12 86.8C73.6267 86.8 74.88 85.4133 74.88 82.64C74.88 79.6533 73.2 78.16 69.84 78.16H64.88V67.68H69.92C71.4133 67.68 72.4533 67.36 73.04 66.72C73.68 66.0267 74 65.0133 74 63.68C74 61.12 72.7467 59.84 70.24 59.84C68.48 59.84 65.36 60.7467 60.88 62.56L57.76 51.76C60.6933 50.16 63.3067 49.0667 65.6 48.48C67.8933 47.84 70.48 47.52 73.36 47.52Z" fill="#FFAB69"/>
</svg>
