<svg width="41" height="41" viewBox="0 0 41 41" fill="none" xmlns="http://www.w3.org/2000/svg">
<path d="M33.5666 36.4323C31.7242 37.9207 29.6888 39.0449 27.5547 39.8057C25.2321 40.6339 22.7908 41.0308 20.353 40.9981C17.8675 40.9648 15.3907 40.4855 13.0522 39.5619C10.7848 38.6665 8.64496 37.3543 6.74999 35.6272C4.85471 33.8997 3.34862 31.8893 2.24456 29.7124C1.10451 27.4647 0.39242 25.0373 0.122525 22.5591C-0.146865 20.0853 0.0265667 17.5621 0.656682 15.1183C1.26681 12.752 2.30446 10.4627 3.78196 8.36749C3.92801 8.15924 4.21479 8.10913 4.42239 8.25559C4.43307 8.26314 4.44326 8.27101 4.45306 8.27925L7.05164 10.1251C7.25803 10.2713 7.30724 10.5574 7.16195 10.7646L7.16321 10.7654C5.97756 12.4468 5.1456 14.2785 4.65711 16.1674C4.15249 18.1189 4.01346 20.1348 4.22877 22.1122C4.44357 24.0852 5.01373 26.0222 5.92784 27.8206C6.81242 29.5607 8.01895 31.1694 9.53699 32.553C11.0545 33.9361 12.7661 34.9872 14.5783 35.7047C16.4517 36.4464 18.4288 36.8314 20.4065 36.8579C22.28 36.8829 24.1604 36.5876 25.9603 35.9706C27.5416 35.4285 29.0597 34.6374 30.4555 33.5966L30.2641 33.4221C30.0763 33.2508 30.0627 32.9591 30.2335 32.7708C30.3186 32.677 30.4335 32.6265 30.5505 32.6207L34.3358 32.3748C34.5891 32.3588 34.8074 32.5519 34.8233 32.806C34.8241 32.8196 34.8244 32.8331 34.824 32.8465L34.9398 36.6302C34.9468 36.8842 34.747 37.0958 34.4937 37.1028C34.3703 37.1063 34.2569 37.0604 34.1723 36.9831L34.1717 36.9837L33.5666 36.4323ZM34.3645 32.8348L34.4228 34.7388L34.4811 36.6428L34.3645 32.8348ZM8.55975 8.50203L6.66422 8.62521V8.62446L6.64809 8.62521C6.39483 8.63218 6.18369 8.43182 6.17673 8.17784L6.06099 4.39797C6.05011 4.27402 6.08882 4.14607 6.17889 4.04686C6.34973 3.85859 6.64057 3.8449 6.8283 4.01623L7.43343 4.56777C9.27583 3.0794 11.3112 1.95514 13.4453 1.19427C15.7679 0.366094 18.2092 -0.0308045 20.647 0.00186313C23.1325 0.0352285 25.6094 0.514573 27.9478 1.43808C30.2154 2.33343 32.3551 3.64565 34.2499 5.37272C36.1453 7.10023 37.6514 9.11079 38.7554 11.2874C39.8955 13.5352 40.6076 15.9627 40.8775 18.4409C41.1469 20.9146 40.9734 23.4379 40.3433 25.8817C39.7332 28.248 38.6956 30.5372 37.2181 32.6325L37.2168 32.6316L37.2163 32.6325C37.0702 32.8397 36.7843 32.889 36.5777 32.7425L33.9785 30.8964L33.9484 30.8768C33.7407 30.7303 33.6907 30.4427 33.8368 30.2345C35.0224 28.5532 35.8544 26.7215 36.3429 24.8326C36.8475 22.8811 36.9866 20.8652 36.7713 18.8877C36.5564 16.9147 35.9862 14.9777 35.0722 13.1794C34.1876 11.4391 32.981 9.83055 31.463 8.4469C29.9455 7.06383 28.2338 6.01269 26.4217 5.29521C24.5482 4.5535 22.5712 4.1686 20.5935 4.14208C18.7201 4.11703 16.8397 4.41243 15.0398 5.02944C13.4585 5.57147 11.9402 6.3626 10.5445 7.40339L10.7359 7.57788C10.8211 7.65578 10.8774 7.76557 10.8852 7.88996C10.9011 8.14401 10.7085 8.36292 10.4553 8.37884L8.55975 8.50203Z" fill="white"/>
<path fill-rule="evenodd" clip-rule="evenodd" d="M8.30939 11.0938L15.7155 8.0378C15.9703 7.93255 16.2639 8.05472 16.3689 8.30948L19.4249 15.7154C19.5299 15.9701 19.408 16.2638 19.1532 16.369L11.7471 19.425C11.4923 19.53 11.1989 19.4081 11.0937 19.1533L8.03771 11.7472C7.93268 11.4924 8.05463 11.1988 8.30939 11.0938ZM15.8786 15.473C16.0005 15.6065 16.1887 15.6375 16.3459 15.5726C16.3958 15.5521 16.4427 15.5243 16.4725 15.4952C16.6471 15.3312 16.653 15.0616 16.4961 14.8841L13.1833 11.3302C13.0543 11.1997 12.863 11.1616 12.7018 11.2366C12.5419 11.2941 12.426 11.4588 12.4267 11.6424L12.5838 16.4984C12.5978 16.7349 12.7921 16.9221 13.0317 16.9151C13.0803 16.9117 13.1261 16.9011 13.176 16.8805C13.3332 16.8157 13.4448 16.661 13.4441 16.4774L13.4112 15.4051L15.1459 14.6893L15.8786 15.473ZM13.3725 14.5019L13.3174 12.7285L14.5291 14.0247L13.3725 14.5019Z" fill="#FEFEFE"/>
<path fill-rule="evenodd" clip-rule="evenodd" d="M21.9443 10.6095H29.9559C30.2316 10.6095 30.4564 10.8344 30.4564 11.11V19.1216C30.4564 19.3974 30.2316 19.6221 29.9559 19.6221H21.9443C21.6685 19.6221 21.4438 19.3974 21.4438 19.1216V11.11C21.4438 10.8344 21.6685 10.6095 21.9443 10.6095ZM24.6371 17.8171C24.645 17.8248 24.645 17.8171 24.6604 17.8171C24.6604 17.8094 24.6604 17.8171 24.668 17.8171H26.0351C26.9464 17.8171 27.6877 17.0759 27.6877 16.1567C27.6877 15.5699 27.371 15.0525 26.9078 14.7589C27.093 14.5118 27.2012 14.2105 27.2012 13.8785C27.2012 13.0677 26.5448 12.4111 25.7338 12.4111H24.668C24.6604 12.4111 24.6604 12.4111 24.6604 12.4111C24.645 12.4111 24.645 12.4111 24.6371 12.4111C24.4056 12.4111 24.2125 12.5965 24.2125 12.8359V17.3925C24.2125 17.624 24.4056 17.8171 24.6371 17.8171ZM25.0696 13.2685H25.7338C26.0737 13.2685 26.3438 13.5386 26.3438 13.8785C26.3438 14.2184 26.0737 14.5041 25.7338 14.5041H25.0696V13.2685ZM25.0696 15.3612H26.0351C26.4753 15.3691 26.8306 15.7165 26.8306 16.1567C26.8306 16.6048 26.4753 16.9521 26.0351 16.96H25.0696V15.3612Z" fill="#FEFEFE"/>
<path fill-rule="evenodd" clip-rule="evenodd" d="M21.9443 20.7434H29.9559C30.2316 20.7434 30.4564 20.9684 30.4564 21.2439V29.2557C30.4564 29.5312 30.2316 29.756 29.9559 29.756H21.9443C21.6685 29.756 21.4438 29.5312 21.4438 29.2557V21.2439C21.4438 20.9684 21.6685 20.7434 21.9443 20.7434ZM24.3593 27.9528H25.2704C26.761 27.9528 27.9657 26.7402 27.9657 25.2421C27.9657 23.7592 26.761 22.5468 25.2704 22.5468H24.3593C24.1197 22.5468 23.9345 22.732 23.9345 22.9717V27.5279C23.9345 27.7597 24.1197 27.9528 24.3593 27.9528ZM24.7915 23.4039H25.2704C26.2899 23.4039 27.1086 24.2303 27.1086 25.2421C27.1086 26.2693 26.2899 27.0878 25.2704 27.0955H24.7915V23.4039Z" fill="#FEFEFE"/>
<path fill-rule="evenodd" clip-rule="evenodd" d="M11.8105 20.7434H19.8222C20.0979 20.7434 20.3227 20.9684 20.3227 21.2439V29.2557C20.3227 29.5312 20.0979 29.756 19.8222 29.756H11.8105C11.5348 29.756 11.3101 29.5312 11.3101 29.2557V21.2439C11.3101 20.9684 11.5348 20.7434 11.8105 20.7434ZM16.2596 28.03C16.9392 28.03 17.5571 27.806 18.0436 27.4277C18.229 27.2809 18.26 27.0029 18.1208 26.8098C17.9664 26.6246 17.6807 26.5936 17.5031 26.7249C17.1556 27.0029 16.7384 27.1496 16.2596 27.1496C15.7268 27.1496 15.2325 26.9333 14.8695 26.5936C14.5222 26.2537 14.3058 25.7749 14.3058 25.2498C14.3058 24.7247 14.5222 24.2613 14.8695 23.906C15.2325 23.5661 15.7268 23.35 16.2596 23.35C16.7384 23.35 17.1632 23.4967 17.5031 23.7748C17.6807 23.9137 17.9664 23.8827 18.1208 23.6898C18.26 23.4967 18.229 23.2264 18.0436 23.0719C17.5571 22.6934 16.9392 22.4696 16.2596 22.4696C14.715 22.4773 13.4331 23.7206 13.4254 25.2498C13.4331 26.7867 14.715 28.03 16.2596 28.03Z" fill="#FEFEFE"/>
</svg>
