<svg width="44" height="44" viewBox="0 0 44 44" fill="none" xmlns="http://www.w3.org/2000/svg">
<path d="M36.3296 39.3778C36.153 39.2169 35.8858 39.2095 35.6972 39.3561C33.8069 40.8258 31.7363 41.9463 29.5708 42.7185C27.0783 43.6071 24.4582 44.033 21.8424 43.998C19.1749 43.9621 16.5167 43.4478 14.0071 42.4566C11.5739 41.4959 9.27733 40.0877 7.24378 38.2342C5.20991 36.3803 3.5937 34.2225 2.40875 31.8866C1.1854 29.4744 0.421078 26.8692 0.131539 24.2096C-0.157676 21.5549 0.0285633 18.8471 0.704798 16.2245C1.35941 13.685 2.47303 11.2285 4.05855 8.97969C4.21542 8.75633 4.52301 8.70257 4.74573 8.85956C4.75735 8.86765 4.76831 8.87636 4.77864 8.8851L7.56751 10.8659C7.78872 11.0227 7.84177 11.3294 7.68645 11.5514C7.68619 11.5518 7.68627 11.5524 7.68664 11.5526C7.68701 11.5529 7.68708 11.5534 7.68682 11.5538C6.41465 13.358 5.52198 15.3236 4.99784 17.3504C4.45621 19.4447 4.30707 21.6081 4.53819 23.7303C4.76866 25.8476 5.38066 27.9265 6.36161 29.8564C7.31092 31.7238 8.60562 33.4502 10.2347 34.935C11.8632 36.4195 13.7001 37.5473 15.6449 38.3174C17.6555 39.1134 19.7772 39.5264 21.8995 39.5549C23.9101 39.5818 25.9282 39.2648 27.8597 38.6025C29.4726 38.0497 31.024 37.2554 32.4596 36.2194C32.5765 36.135 32.5849 35.9648 32.4785 35.8676C32.277 35.6837 32.2625 35.3707 32.4459 35.1687C32.5372 35.068 32.6602 35.014 32.7861 35.0079L36.8484 34.7437C37.1201 34.7266 37.3545 34.9336 37.3712 35.2065C37.3722 35.2211 37.3725 35.2353 37.3722 35.2499L37.4965 39.3105C37.5039 39.583 37.2896 39.8103 37.0178 39.8178C36.8853 39.8213 36.7637 39.7722 36.673 39.6895C36.6729 39.6893 36.6726 39.6893 36.6724 39.6895C36.6722 39.6897 36.6719 39.6897 36.6718 39.6895L36.3296 39.3778ZM36.879 35.2374L36.9416 37.2805L37.0043 39.3241L36.879 35.2374ZM9.18598 9.12396L7.15225 9.25632C7.15201 9.25634 7.1518 9.25615 7.1518 9.25591C7.1518 9.25567 7.1516 9.25548 7.15136 9.25549L7.13434 9.25635C6.86255 9.2638 6.63596 9.04886 6.62854 8.77598L6.50459 4.71968C6.49265 4.58663 6.53429 4.44936 6.63081 4.34286C6.81415 4.14087 7.12628 4.12638 7.32769 4.31024C7.7013 4.65061 8.26589 4.66527 8.67128 4.36345C10.4611 3.0309 12.4037 2.00383 14.429 1.28157C16.9215 0.392679 19.5415 -0.0329702 22.1577 0.00198996C24.8252 0.0379212 27.483 0.552332 29.9927 1.54319C32.4262 2.50427 34.7225 3.91237 36.756 5.7659C38.7902 7.61976 40.4064 9.77757 41.5913 12.1134C42.8147 14.5257 43.5791 17.1308 43.8686 19.79C44.1575 22.4451 43.9715 25.1529 43.2953 27.7756C42.6408 30.3148 41.5273 32.7711 39.9417 35.0197C39.9414 35.0201 39.9409 35.0202 39.9406 35.0199C39.9403 35.0197 39.9398 35.0198 39.9395 35.0201L39.9393 35.0204C39.7828 35.2428 39.4758 35.2955 39.2541 35.1382L36.4649 33.1572L36.4323 33.1362C36.2095 32.9789 36.1559 32.6703 36.3125 32.4469C37.5852 30.6423 38.4781 28.6767 39.0023 26.6497C39.5436 24.5553 39.693 22.392 39.4619 20.2698C39.2311 18.1524 38.6194 16.0736 37.6385 14.1437C36.6892 12.2762 35.3942 10.5499 33.7651 9.06504C32.1366 7.58053 30.2997 6.45247 28.3549 5.6827C26.3446 4.88671 24.2226 4.47365 22.1003 4.44516C20.09 4.41829 18.0719 4.73526 16.1404 5.39756C14.5274 5.95037 12.9758 6.74434 11.5402 7.78064C11.4233 7.86503 11.4148 8.03528 11.5213 8.13249C11.6127 8.21601 11.6734 8.33383 11.6818 8.4672C11.6989 8.73976 11.4919 8.9748 11.2202 8.99195L9.18598 9.12396Z" fill="white"/>
<path d="M15.8812 11.3235H28.6178C29.9609 11.3235 31.1815 11.8739 32.0658 12.7605C32.9497 13.6467 33.4987 14.8704 33.4987 16.2173V29.5901C33.4987 30.9367 32.95 32.1603 32.0658 33.0469C31.1815 33.9335 29.9609 34.4839 28.6178 34.4839H15.8812C14.538 34.4839 13.3172 33.9335 12.4332 33.0469C11.5489 32.1603 11 30.9367 11 29.5901V16.2173C11 14.8704 11.5489 13.6467 12.4332 12.7605C13.3175 11.8739 14.538 11.3235 15.8812 11.3235ZM28.6178 13.1919H15.8812C15.0523 13.1919 14.2983 13.5327 13.7508 14.0815C13.2034 14.63 12.8635 15.3863 12.8635 16.2173V29.5901C12.8635 30.4208 13.2034 31.177 13.7508 31.7259C14.298 32.2747 15.0523 32.6153 15.8812 32.6153H28.6178C29.4464 32.6153 30.2007 32.2747 30.7481 31.7259C31.2952 31.177 31.6352 30.4208 31.6352 29.5901V16.2173C31.6352 15.3863 31.2952 14.63 30.7481 14.0815C30.2007 13.5327 29.4464 13.1919 28.6178 13.1919Z" fill="white"/>
<path d="M33.4987 18.2091V29.6117C33.4987 30.9524 32.9497 32.1706 32.0658 33.0533C31.1815 33.9359 29.9609 34.4839 28.6178 34.4839H15.8812C14.538 34.4839 13.3172 33.9359 12.4332 33.0533C11.5489 32.1706 11 30.9524 11 29.6117V18.2091C11 17.6955 11.4172 17.2791 11.9317 17.2791H32.5669C33.0815 17.2791 33.4987 17.6955 33.4987 18.2091ZM31.6352 29.6117V19.1392H12.8635V29.6117C12.8635 30.4388 13.2034 31.1917 13.7508 31.7381C14.298 32.2845 15.0523 32.6235 15.8812 32.6235H28.6178C29.4464 32.6235 30.2007 32.2845 30.7481 31.7381C31.2952 31.1917 31.6352 30.4388 31.6352 29.6117Z" fill="white"/>
<path d="M11.9317 19.2642C11.4172 19.2642 11 18.8198 11 18.2716C11 17.7235 11.4172 17.2791 11.9317 17.2791H32.5669C33.0815 17.2791 33.4987 17.7235 33.4987 18.2716C33.4987 18.8198 33.0815 19.2642 32.5669 19.2642H11.9317Z" fill="white"/>
<path d="M14.6028 23.2345C14.0749 23.2345 13.6469 22.9382 13.6469 22.5727C13.6469 22.2073 14.0749 21.911 14.6028 21.911H23.9401C24.468 21.911 24.8963 22.2073 24.8963 22.5727C24.8963 22.9382 24.468 23.2345 23.9401 23.2345H14.6028Z" fill="white"/>
<path d="M14.6028 28.5284C14.0749 28.5284 13.6469 28.0841 13.6469 27.5361C13.6469 26.9877 14.0749 26.5432 14.6028 26.5432H23.9401C24.468 26.5432 24.8963 26.9877 24.8963 27.5361C24.8963 28.0841 24.468 28.5284 23.9401 28.5284H14.6028Z" fill="white"/>
<path d="M25.8316 23.3041C25.4668 22.9618 25.4668 22.4072 25.8316 22.0649C26.1963 21.7226 26.7877 21.7226 27.1522 22.0649L27.5545 22.4424L29.2576 20.8442C29.6221 20.5021 30.2134 20.5021 30.5782 20.8442C30.943 21.1865 30.943 21.7415 30.5782 22.0835L28.2148 24.3013C27.8504 24.6436 27.2589 24.6436 26.8942 24.3013L25.8316 23.3041Z" fill="white"/>
<path d="M25.8316 28.3889C25.4668 27.9899 25.4668 27.3426 25.8316 26.9432C26.1961 26.5438 26.7874 26.5438 27.1522 26.9432L27.5546 27.3836L29.2578 25.519C29.6223 25.12 30.2136 25.12 30.5784 25.519C30.9429 25.9184 30.9429 26.5658 30.5784 26.9649L28.2149 29.5523C27.8501 29.9516 27.2587 29.9516 26.8942 29.5523L25.8316 28.3889Z" fill="white"/>
<path d="M26.3632 11.0178C26.3632 10.4557 26.7755 10 27.2841 10C27.7926 10 28.2049 10.4557 28.2049 11.0178V13.6141C28.2049 14.1763 27.7926 14.6321 27.2841 14.6321C26.7755 14.6321 26.3632 14.1763 26.3632 13.6141V11.0178ZM18.1355 13.6141C18.1355 14.1763 17.7232 14.6321 17.2146 14.6321C16.7061 14.6321 16.2938 14.1763 16.2938 13.6141V11.0178C16.2938 10.4557 16.7061 10 17.2146 10C17.7232 10 18.1355 10.4557 18.1355 11.0178V13.6141Z" fill="white"/>
</svg>
