<svg width="75" height="94" viewBox="0 0 75 94" fill="none" xmlns="http://www.w3.org/2000/svg">
<path d="M8.79311 90.0382V45.3448C8.79311 42.5834 11.0317 40.3448 13.7931 40.3448H60.6897C63.4511 40.3448 65.6897 42.5834 65.6897 45.3448V90.0005C65.6897 92.3045 63.2002 93.7485 61.2002 92.6046L42.3804 81.8404C39.324 80.0923 35.5735 80.0804 32.506 81.809L13.266 92.6517C11.2661 93.7787 8.79311 92.3337 8.79311 90.0382Z" fill="white"/>
<path d="M75 37.5C75 58.2107 58.2107 75 37.5 75C16.7893 75 0 58.2107 0 37.5C0 16.7893 16.7893 0 37.5 0C58.2107 0 75 16.7893 75 37.5Z" fill="white"/>
<path d="M39.777 20C43.6787 20 46.5246 20.9847 48.3148 22.9542C50.1049 24.9237 51 27.855 51 31.7481C51 35.6412 50.3115 38.5725 48.9344 40.542C47.5574 42.4656 45.5377 44.229 42.8754 45.8321L42.1869 46.2443V50.4351H33.1672V43.9084C33.1672 42.4428 33.3967 41.2977 33.8557 40.4733C34.3607 39.6031 35.1869 38.8931 36.3344 38.3435C37.482 37.7481 38.3082 37.313 38.8131 37.0382C39.318 36.7634 39.8 36.3282 40.259 35.7328C40.7639 35.0916 41.0164 34.2901 41.0164 33.3282C41.0164 32.3206 40.7639 31.5649 40.259 31.0611C39.7541 30.5115 38.9279 30.2366 37.7803 30.2366C36.6328 30.2366 34.0393 30.7634 30 31.8168V21.4427C33.8557 20.4809 37.1148 20 39.777 20ZM31.9279 59.8473C31.9279 56.229 33.9016 54.4198 37.8492 54.4198C41.7967 54.4198 43.7705 56.229 43.7705 59.8473C43.7705 61.5878 43.3115 62.8931 42.3934 63.7634C41.5213 64.5878 40.0754 65 38.0557 65C33.9705 65 31.9279 63.2824 31.9279 59.8473Z" fill="#3B73C5"/>
</svg>
