<svg width="66" height="80" viewBox="0 0 66 80" fill="none" xmlns="http://www.w3.org/2000/svg">
<path fill-rule="evenodd" clip-rule="evenodd" d="M5.50056 1.50507H64.1415C64.9998 1.50507 65.7021 2.20081 65.7021 3.05118V71.4483C65.7021 72.2987 64.9998 72.9944 64.1415 72.9944H5.50056V1.50507Z" fill="#5D5D5D"/>
<path fill-rule="evenodd" clip-rule="evenodd" d="M0 1.50507H52.8537C53.712 1.50507 54.4143 2.20081 54.4143 3.05118V71.4483C54.4143 72.2987 53.712 72.9944 52.8537 72.9944H0V1.50507Z" fill="#888888"/>
<path d="M61.9395 4.51514H57.4244V70.7369H61.9395V4.51514Z" fill="#FAF7ED"/>
<path d="M58.1769 4.51514H55.1668V70.7369H58.1769V4.51514Z" fill="#F2EEE1"/>
<path d="M55.9194 4.51514H54.4143V70.7369H55.9194V4.51514Z" fill="#E3DBC1"/>
<path fill-rule="evenodd" clip-rule="evenodd" d="M3.99552 1.50504H8.51064V0.269023C8.51064 0.121003 8.39337 0 8.24991 0H4.25627C4.11282 0 3.99552 0.121003 3.99552 0.269023V1.50504Z" fill="#2E4C7A"/>
<path fill-rule="evenodd" clip-rule="evenodd" d="M3.99552 72.9944H8.51064V80L6.19017 76.8912L3.99552 80V72.9944Z" fill="#2E4C7A"/>
</svg>
