<svg width="164" height="95" viewBox="0 0 164 95" fill="none" xmlns="http://www.w3.org/2000/svg">
<path fill-rule="evenodd" clip-rule="evenodd" d="M11.1833 2.36569H151.818C156.669 2.36569 160.639 6.34005 160.639 11.1976V83.196C160.639 88.0536 156.669 92.0279 151.818 92.0279H11.1833C6.33174 92.0279 2.3623 88.0536 2.3623 83.196V11.1976C2.3623 6.34005 6.33174 2.36569 11.1833 2.36569Z" fill="#9AD7F6" fill-opacity="0.4"/>
<path d="M11.3094 0H11.355V4.98471H11.3094C10.5498 4.98471 9.81954 5.12122 9.1426 5.37067V22.4907L4.97889 26.227V68.4033L9.1426 72.1393V89.2598C9.81954 89.5092 10.5498 89.6456 11.3094 89.6456H11.355V94.6304H11.3094C8.19706 94.6304 5.36877 93.357 3.32034 91.3061C1.2719 89.2553 0 86.4237 0 83.3077V11.3226C0 8.20664 1.2719 5.37512 3.32034 3.32429C5.36877 1.27346 8.19706 0 11.3094 0ZM154.095 68.4033V26.227L158.258 22.4907V11.3226C158.258 9.58232 157.545 7.99768 156.397 6.84827C155.249 5.69887 153.666 4.98471 151.928 4.98471H151.882V0H151.928C155.04 0 157.869 1.27346 159.917 3.32429C161.965 5.37512 163.237 8.20664 163.237 11.3226V83.3077C163.237 86.4237 161.965 89.2553 159.917 91.3061C157.869 93.357 155.04 94.6304 151.928 94.6304H151.882V89.6456H151.928C153.666 89.6456 155.249 88.9316 156.397 87.7822C157.545 86.6327 158.258 85.048 158.258 83.3077V72.1393L154.095 68.4033Z" fill="#446AB1"/>
<path fill-rule="evenodd" clip-rule="evenodd" d="M42.0962 59.2727C42.0962 61.7298 39.0124 62.828 37.4593 60.924L34.1436 56.8591L33.9036 56.5649C33.5038 56.0748 32.9398 55.7464 32.3162 55.6406L23.4128 54.13C22.1565 53.9168 21.2373 52.8285 21.2373 51.5543V42.6662C21.2373 41.3921 22.1564 40.3038 23.4125 40.0905L32.3164 38.5789C32.9398 38.473 33.5037 38.1446 33.9035 37.6546L34.1436 37.3603L37.4593 33.2954C39.0124 31.3914 42.0962 32.4896 42.0962 34.9467V59.2727Z" fill="#3B73C5"/>
<path fill-rule="evenodd" clip-rule="evenodd" d="M50.2878 47.1097C50.2878 44.4392 48.9474 42.1328 47.006 41.0495C45.746 40.3465 44.5068 41.5607 44.5068 43.0035V51.2158C44.5068 52.6587 45.746 53.8729 47.006 53.1698C48.9474 52.0865 50.2878 49.7801 50.2878 47.1097ZM61.2371 47.1097C61.2371 41.7409 59.3645 36.8802 56.336 33.3617C53.8879 30.5164 50.6845 28.548 47.1055 27.8989C45.6858 27.6415 44.5068 28.8353 44.5068 30.2781V31.4216C44.5068 32.8644 45.6967 34.0001 47.0886 34.3798C49.1591 34.9446 51.009 36.1737 52.4627 37.8633C54.4985 40.2293 55.7575 43.4982 55.7575 47.1097C55.7575 50.7211 54.4985 53.99 52.4627 56.3561C51.009 58.0457 49.1591 59.2755 47.0886 59.8406C45.6967 60.2205 44.5068 61.3562 44.5068 62.799V63.9413C44.5068 65.3841 45.6858 66.5779 47.1055 66.3205C50.6845 65.6717 53.8879 63.7042 56.336 60.8589C59.3645 57.3392 61.2371 52.4785 61.2371 47.1097Z" fill="#3B73C5"/>
<path d="M78.7873 42.7229C78.5353 42.7229 78.33 42.6622 78.1713 42.5409C78.022 42.4196 77.9006 42.2282 77.8073 41.9669L74.8813 33.6929C74.7786 33.3942 74.7973 33.1422 74.9373 32.9369C75.0866 32.7316 75.334 32.6289 75.6793 32.6289C75.9313 32.6289 76.1273 32.6896 76.2673 32.8109C76.4073 32.9229 76.5193 33.1049 76.6033 33.3569L79.1233 40.8329H78.5633L81.1953 33.3709C81.2886 33.1189 81.4053 32.9322 81.5453 32.8109C81.6853 32.6896 81.8673 32.6289 82.0913 32.6289C82.3153 32.6289 82.4926 32.6896 82.6233 32.8109C82.754 32.9322 82.866 33.1236 82.9593 33.3849L85.5073 40.8329H85.0173L87.5793 33.3569C87.6633 33.1142 87.7753 32.9322 87.9153 32.8109C88.0553 32.6896 88.2466 32.6289 88.4893 32.6289C88.788 32.6289 89.0073 32.7316 89.1473 32.9369C89.2873 33.1422 89.306 33.3942 89.2033 33.6929L86.2493 41.9809C86.156 42.2329 86.0346 42.4196 85.8853 42.5409C85.736 42.6622 85.5353 42.7229 85.2833 42.7229C85.0313 42.7229 84.8306 42.6622 84.6813 42.5409C84.532 42.4196 84.4106 42.2282 84.3173 41.9669L81.8813 35.0229H82.2033L79.7393 41.9809C79.646 42.2329 79.5246 42.4196 79.3753 42.5409C79.2353 42.6622 79.0393 42.7229 78.7873 42.7229ZM92.2985 42.7229C92.0185 42.7229 91.8038 42.6482 91.6545 42.4989C91.5052 42.3402 91.4305 42.1162 91.4305 41.8269V33.5109C91.4305 33.2216 91.5052 33.0022 91.6545 32.8529C91.8038 32.7036 92.0185 32.6289 92.2985 32.6289C92.5785 32.6289 92.7932 32.7036 92.9425 32.8529C93.1012 33.0022 93.1805 33.2216 93.1805 33.5109V37.1369H92.9845C93.1898 36.6422 93.5072 36.2689 93.9365 36.0169C94.3752 35.7556 94.8698 35.6249 95.4205 35.6249C95.9712 35.6249 96.4238 35.7276 96.7785 35.9329C97.1332 36.1382 97.3992 36.4509 97.5765 36.8709C97.7538 37.2816 97.8425 37.8042 97.8425 38.4389V41.8269C97.8425 42.1162 97.7678 42.3402 97.6185 42.4989C97.4692 42.6482 97.2545 42.7229 96.9745 42.7229C96.6945 42.7229 96.4752 42.6482 96.3165 42.4989C96.1672 42.3402 96.0925 42.1162 96.0925 41.8269V38.5229C96.0925 37.9909 95.9898 37.6036 95.7845 37.3609C95.5885 37.1182 95.2805 36.9969 94.8605 36.9969C94.3472 36.9969 93.9365 37.1602 93.6285 37.4869C93.3298 37.8042 93.1805 38.2289 93.1805 38.7609V41.8269C93.1805 42.4242 92.8865 42.7229 92.2985 42.7229ZM101.874 42.7509C101.379 42.7509 100.936 42.6576 100.544 42.4709C100.161 42.2749 99.858 42.0136 99.634 41.6869C99.4193 41.3602 99.312 40.9916 99.312 40.5809C99.312 40.0769 99.4426 39.6802 99.704 39.3909C99.9653 39.0922 100.39 38.8776 100.978 38.7469C101.566 38.6162 102.355 38.5509 103.344 38.5509H104.044V39.5589H103.358C102.779 39.5589 102.317 39.5869 101.972 39.6429C101.627 39.6989 101.379 39.7969 101.23 39.9369C101.09 40.0676 101.02 40.2542 101.02 40.4969C101.02 40.8049 101.127 41.0569 101.342 41.2529C101.557 41.4489 101.855 41.5469 102.238 41.5469C102.546 41.5469 102.817 41.4769 103.05 41.3369C103.293 41.1876 103.484 40.9869 103.624 40.7349C103.764 40.4829 103.834 40.1936 103.834 39.8669V38.2569C103.834 37.7902 103.731 37.4542 103.526 37.2489C103.321 37.0436 102.975 36.9409 102.49 36.9409C102.219 36.9409 101.925 36.9736 101.608 37.0389C101.3 37.1042 100.973 37.2162 100.628 37.3749C100.451 37.4589 100.292 37.4822 100.152 37.4449C100.021 37.4076 99.9186 37.3329 99.844 37.2209C99.7693 37.0996 99.732 36.9689 99.732 36.8289C99.732 36.6889 99.7693 36.5536 99.844 36.4229C99.9186 36.2829 100.045 36.1802 100.222 36.1149C100.651 35.9376 101.062 35.8116 101.454 35.7369C101.855 35.6622 102.219 35.6249 102.546 35.6249C103.218 35.6249 103.769 35.7276 104.198 35.9329C104.637 36.1382 104.963 36.4509 105.178 36.8709C105.393 37.2816 105.5 37.8136 105.5 38.4669V41.8269C105.5 42.1162 105.43 42.3402 105.29 42.4989C105.15 42.6482 104.949 42.7229 104.688 42.7229C104.427 42.7229 104.221 42.6482 104.072 42.4989C103.932 42.3402 103.862 42.1162 103.862 41.8269V41.1549H103.974C103.909 41.4816 103.778 41.7662 103.582 42.0089C103.395 42.2422 103.157 42.4242 102.868 42.5549C102.579 42.6856 102.247 42.7509 101.874 42.7509ZM110.412 42.7509C109.806 42.7509 109.297 42.6482 108.886 42.4429C108.485 42.2376 108.186 41.9389 107.99 41.5469C107.794 41.1456 107.696 40.6509 107.696 40.0629V37.0809H106.968C106.744 37.0809 106.572 37.0249 106.45 36.9129C106.329 36.7916 106.268 36.6282 106.268 36.4229C106.268 36.2082 106.329 36.0449 106.45 35.9329C106.572 35.8209 106.744 35.7649 106.968 35.7649H107.696V34.4909C107.696 34.2016 107.771 33.9822 107.92 33.8329C108.079 33.6836 108.298 33.6089 108.578 33.6089C108.858 33.6089 109.073 33.6836 109.222 33.8329C109.372 33.9822 109.446 34.2016 109.446 34.4909V35.7649H110.93C111.154 35.7649 111.327 35.8209 111.448 35.9329C111.57 36.0449 111.63 36.2082 111.63 36.4229C111.63 36.6282 111.57 36.7916 111.448 36.9129C111.327 37.0249 111.154 37.0809 110.93 37.0809H109.446V39.9649C109.446 40.4129 109.544 40.7489 109.74 40.9729C109.936 41.1969 110.254 41.3089 110.692 41.3089C110.851 41.3089 110.991 41.2949 111.112 41.2669C111.234 41.2389 111.341 41.2202 111.434 41.2109C111.546 41.2016 111.64 41.2389 111.714 41.3229C111.789 41.3976 111.826 41.5562 111.826 41.7989C111.826 41.9856 111.794 42.1536 111.728 42.3029C111.672 42.4429 111.565 42.5409 111.406 42.5969C111.285 42.6342 111.126 42.6669 110.93 42.6949C110.734 42.7322 110.562 42.7509 110.412 42.7509ZM118.186 45.2429C117.981 45.2429 117.813 45.1869 117.682 45.0749C117.551 44.9722 117.472 44.8322 117.444 44.6549C117.425 44.4776 117.458 44.2909 117.542 44.0949L118.494 41.9809V42.7089L115.946 36.8149C115.862 36.6096 115.834 36.4182 115.862 36.2409C115.89 36.0636 115.974 35.9236 116.114 35.8209C116.263 35.7089 116.464 35.6529 116.716 35.6529C116.931 35.6529 117.103 35.7042 117.234 35.8069C117.365 35.9002 117.481 36.0822 117.584 36.3529L119.474 41.0709H119.054L120.986 36.3389C121.089 36.0776 121.21 35.9002 121.35 35.8069C121.49 35.7042 121.677 35.6529 121.91 35.6529C122.115 35.6529 122.279 35.7089 122.4 35.8209C122.521 35.9236 122.596 36.0636 122.624 36.2409C122.652 36.4089 122.619 36.5956 122.526 36.8009L119.124 44.5709C119.003 44.8322 118.872 45.0096 118.732 45.1029C118.592 45.1962 118.41 45.2429 118.186 45.2429ZM126.804 42.7509C126.095 42.7509 125.479 42.6062 124.956 42.3169C124.434 42.0276 124.028 41.6169 123.738 41.0849C123.449 40.5436 123.304 39.9089 123.304 39.1809C123.304 38.6302 123.384 38.1402 123.542 37.7109C123.71 37.2722 123.948 36.8989 124.256 36.5909C124.564 36.2736 124.933 36.0356 125.362 35.8769C125.792 35.7089 126.272 35.6249 126.804 35.6249C127.514 35.6249 128.13 35.7696 128.652 36.0589C129.175 36.3482 129.581 36.7589 129.87 37.2909C130.16 37.8229 130.304 38.4529 130.304 39.1809C130.304 39.7316 130.22 40.2262 130.052 40.6649C129.894 41.1036 129.66 41.4816 129.352 41.7989C129.044 42.1069 128.676 42.3449 128.246 42.5129C127.817 42.6716 127.336 42.7509 126.804 42.7509ZM126.804 41.4209C127.15 41.4209 127.453 41.3369 127.714 41.1689C127.976 41.0009 128.176 40.7536 128.316 40.4269C128.466 40.0909 128.54 39.6756 128.54 39.1809C128.54 38.4342 128.382 37.8789 128.064 37.5149C127.747 37.1416 127.327 36.9549 126.804 36.9549C126.459 36.9549 126.156 37.0389 125.894 37.2069C125.633 37.3656 125.428 37.6129 125.278 37.9489C125.138 38.2756 125.068 38.6862 125.068 39.1809C125.068 39.9182 125.227 40.4782 125.544 40.8609C125.862 41.2342 126.282 41.4209 126.804 41.4209ZM134.227 42.7509C133.658 42.7509 133.186 42.6482 132.813 42.4429C132.44 42.2282 132.16 41.9109 131.973 41.4909C131.796 41.0709 131.707 40.5482 131.707 39.9229V36.5349C131.707 36.2362 131.782 36.0169 131.931 35.8769C132.08 35.7276 132.295 35.6529 132.575 35.6529C132.855 35.6529 133.07 35.7276 133.219 35.8769C133.378 36.0169 133.457 36.2362 133.457 36.5349V39.9509C133.457 40.4362 133.555 40.7956 133.751 41.0289C133.947 41.2622 134.26 41.3789 134.689 41.3789C135.156 41.3789 135.538 41.2202 135.837 40.9029C136.136 40.5762 136.285 40.1469 136.285 39.6149V36.5349C136.285 36.2362 136.36 36.0169 136.509 35.8769C136.658 35.7276 136.873 35.6529 137.153 35.6529C137.433 35.6529 137.648 35.7276 137.797 35.8769C137.956 36.0169 138.035 36.2362 138.035 36.5349V41.8269C138.035 42.4242 137.75 42.7229 137.181 42.7229C136.91 42.7229 136.7 42.6482 136.551 42.4989C136.402 42.3402 136.327 42.1162 136.327 41.8269V40.7629L136.523 41.1829C136.327 41.6869 136.028 42.0742 135.627 42.3449C135.235 42.6156 134.768 42.7509 134.227 42.7509ZM76.0153 61.7229C75.7353 61.7229 75.5206 61.6482 75.3713 61.4989C75.222 61.3402 75.1473 61.1162 75.1473 60.8269V52.5109C75.1473 52.2216 75.222 52.0022 75.3713 51.8529C75.5206 51.7036 75.7353 51.6289 76.0153 51.6289C76.2953 51.6289 76.51 51.7036 76.6593 51.8529C76.818 52.0022 76.8973 52.2216 76.8973 52.5109V56.1369H76.7013C76.9066 55.6422 77.224 55.2689 77.6533 55.0169C78.092 54.7556 78.5866 54.6249 79.1373 54.6249C79.688 54.6249 80.1406 54.7276 80.4953 54.9329C80.85 55.1382 81.116 55.4509 81.2933 55.8709C81.4706 56.2816 81.5593 56.8042 81.5593 57.4389V60.8269C81.5593 61.1162 81.4846 61.3402 81.3353 61.4989C81.186 61.6482 80.9713 61.7229 80.6913 61.7229C80.4113 61.7229 80.192 61.6482 80.0333 61.4989C79.884 61.3402 79.8093 61.1162 79.8093 60.8269V57.5229C79.8093 56.9909 79.7066 56.6036 79.5013 56.3609C79.3053 56.1182 78.9973 55.9969 78.5773 55.9969C78.064 55.9969 77.6533 56.1602 77.3453 56.4869C77.0466 56.8042 76.8973 57.2289 76.8973 57.7609V60.8269C76.8973 61.4242 76.6033 61.7229 76.0153 61.7229ZM86.7108 61.7509C85.9361 61.7509 85.2688 61.6062 84.7088 61.3169C84.1488 61.0276 83.7148 60.6169 83.4068 60.0849C83.1081 59.5529 82.9588 58.9229 82.9588 58.1949C82.9588 57.4856 83.1034 56.8649 83.3928 56.3329C83.6914 55.8009 84.0974 55.3856 84.6108 55.0869C85.1334 54.7789 85.7261 54.6249 86.3888 54.6249C86.8741 54.6249 87.3081 54.7042 87.6908 54.8629C88.0828 55.0216 88.4141 55.2502 88.6848 55.5489C88.9648 55.8476 89.1748 56.2116 89.3148 56.6409C89.4641 57.0609 89.5388 57.5369 89.5388 58.0689C89.5388 58.2369 89.4781 58.3676 89.3568 58.4609C89.2448 58.5449 89.0814 58.5869 88.8668 58.5869H84.3728V57.5789H88.3068L88.0828 57.7889C88.0828 57.3596 88.0174 57.0002 87.8868 56.7109C87.7654 56.4216 87.5834 56.2022 87.3408 56.0529C87.1074 55.8942 86.8134 55.8149 86.4588 55.8149C86.0668 55.8149 85.7308 55.9082 85.4508 56.0949C85.1801 56.2722 84.9701 56.5289 84.8208 56.8649C84.6808 57.1916 84.6108 57.5836 84.6108 58.0409V58.1389C84.6108 58.9042 84.7881 59.4782 85.1428 59.8609C85.5068 60.2342 86.0388 60.4209 86.7388 60.4209C86.9814 60.4209 87.2521 60.3929 87.5508 60.3369C87.8588 60.2716 88.1481 60.1642 88.4188 60.0149C88.6148 59.9029 88.7874 59.8562 88.9368 59.8749C89.0861 59.8842 89.2028 59.9356 89.2868 60.0289C89.3801 60.1222 89.4361 60.2389 89.4548 60.3789C89.4734 60.5096 89.4454 60.6449 89.3708 60.7849C89.3054 60.9249 89.1888 61.0462 89.0208 61.1489C88.6941 61.3542 88.3161 61.5082 87.8868 61.6109C87.4668 61.7042 87.0748 61.7509 86.7108 61.7509ZM93.1786 61.7509C92.684 61.7509 92.2406 61.6576 91.8486 61.4709C91.466 61.2749 91.1626 61.0136 90.9386 60.6869C90.724 60.3602 90.6166 59.9916 90.6166 59.5809C90.6166 59.0769 90.7473 58.6802 91.0086 58.3909C91.27 58.0922 91.6946 57.8776 92.2826 57.7469C92.8706 57.6162 93.6593 57.5509 94.6486 57.5509H95.3486V58.5589H94.6626C94.084 58.5589 93.622 58.5869 93.2766 58.6429C92.9313 58.6989 92.684 58.7969 92.5346 58.9369C92.3946 59.0676 92.3246 59.2542 92.3246 59.4969C92.3246 59.8049 92.432 60.0569 92.6466 60.2529C92.8613 60.4489 93.16 60.5469 93.5426 60.5469C93.8506 60.5469 94.1213 60.4769 94.3546 60.3369C94.5973 60.1876 94.7886 59.9869 94.9286 59.7349C95.0686 59.4829 95.1386 59.1936 95.1386 58.8669V57.2569C95.1386 56.7902 95.036 56.4542 94.8306 56.2489C94.6253 56.0436 94.28 55.9409 93.7946 55.9409C93.524 55.9409 93.23 55.9736 92.9126 56.0389C92.6046 56.1042 92.278 56.2162 91.9326 56.3749C91.7553 56.4589 91.5966 56.4822 91.4566 56.4449C91.326 56.4076 91.2233 56.3329 91.1486 56.2209C91.074 56.0996 91.0366 55.9689 91.0366 55.8289C91.0366 55.6889 91.074 55.5536 91.1486 55.4229C91.2233 55.2829 91.3493 55.1802 91.5266 55.1149C91.956 54.9376 92.3666 54.8116 92.7586 54.7369C93.16 54.6622 93.524 54.6249 93.8506 54.6249C94.5226 54.6249 95.0733 54.7276 95.5026 54.9329C95.9413 55.1382 96.268 55.4509 96.4826 55.8709C96.6973 56.2816 96.8046 56.8136 96.8046 57.4669V60.8269C96.8046 61.1162 96.7346 61.3402 96.5946 61.4989C96.4546 61.6482 96.254 61.7229 95.9926 61.7229C95.7313 61.7229 95.526 61.6482 95.3766 61.4989C95.2366 61.3402 95.1666 61.1162 95.1666 60.8269V60.1549H95.2786C95.2133 60.4816 95.0826 60.7662 94.8866 61.0089C94.7 61.2422 94.462 61.4242 94.1726 61.5549C93.8833 61.6856 93.552 61.7509 93.1786 61.7509ZM99.4769 61.7229C99.1876 61.7229 98.9636 61.6482 98.8049 61.4989C98.6556 61.3402 98.5809 61.1162 98.5809 60.8269V55.5349C98.5809 55.2456 98.6556 55.0262 98.8049 54.8769C98.9542 54.7276 99.1642 54.6529 99.4349 54.6529C99.7056 54.6529 99.9156 54.7276 100.065 54.8769C100.214 55.0262 100.289 55.2456 100.289 55.5349V56.4169H100.149C100.28 55.8569 100.536 55.4322 100.919 55.1429C101.302 54.8536 101.81 54.6809 102.445 54.6249C102.641 54.6062 102.795 54.6576 102.907 54.7789C103.028 54.8909 103.098 55.0682 103.117 55.3109C103.136 55.5442 103.08 55.7356 102.949 55.8849C102.828 56.0249 102.641 56.1089 102.389 56.1369L102.081 56.1649C101.512 56.2209 101.082 56.3982 100.793 56.6969C100.504 56.9862 100.359 57.3969 100.359 57.9289V60.8269C100.359 61.1162 100.284 61.3402 100.135 61.4989C99.9856 61.6482 99.7662 61.7229 99.4769 61.7229ZM106.275 58.7549C106.098 58.7549 105.958 58.6989 105.855 58.5869C105.762 58.4656 105.715 58.3069 105.715 58.1109C105.715 57.8216 105.748 57.5509 105.813 57.2989C105.888 57.0376 106.005 56.7762 106.163 56.5149C106.322 56.2536 106.532 55.9782 106.793 55.6889C106.989 55.4649 107.143 55.2689 107.255 55.1009C107.377 54.9236 107.461 54.7556 107.507 54.5969C107.563 54.4382 107.591 54.2749 107.591 54.1069C107.591 53.7989 107.479 53.5562 107.255 53.3789C107.031 53.2016 106.714 53.1129 106.303 53.1129C105.93 53.1129 105.589 53.1642 105.281 53.2669C104.983 53.3602 104.679 53.4956 104.371 53.6729C104.166 53.7942 103.979 53.8502 103.811 53.8409C103.653 53.8222 103.522 53.7616 103.419 53.6589C103.317 53.5562 103.251 53.4302 103.223 53.2809C103.195 53.1316 103.219 52.9776 103.293 52.8189C103.368 52.6602 103.503 52.5156 103.699 52.3849C104.082 52.1329 104.521 51.9416 105.015 51.8109C105.51 51.6709 105.977 51.6009 106.415 51.6009C107.003 51.6009 107.517 51.6989 107.955 51.8949C108.403 52.0909 108.749 52.3616 108.991 52.7069C109.243 53.0522 109.369 53.4582 109.369 53.9249C109.369 54.2142 109.327 54.4896 109.243 54.7509C109.159 55.0029 109.024 55.2596 108.837 55.5209C108.651 55.7729 108.394 56.0482 108.067 56.3469C107.778 56.6082 107.545 56.8462 107.367 57.0609C107.199 57.2756 107.073 57.4809 106.989 57.6769C106.915 57.8729 106.863 58.0829 106.835 58.3069C106.826 58.4376 106.77 58.5449 106.667 58.6289C106.574 58.7129 106.443 58.7549 106.275 58.7549ZM106.247 61.6809C105.93 61.6809 105.673 61.5829 105.477 61.3869C105.291 61.1909 105.197 60.9389 105.197 60.6309C105.197 60.3322 105.291 60.0896 105.477 59.9029C105.673 59.7069 105.93 59.6089 106.247 59.6089C106.574 59.6089 106.826 59.7069 107.003 59.9029C107.19 60.0896 107.283 60.3322 107.283 60.6309C107.283 60.9389 107.19 61.1909 107.003 61.3869C106.826 61.5829 106.574 61.6809 106.247 61.6809Z" fill="#335A9A"/>
</svg>
