<svg width="119" height="97" viewBox="0 0 119 97" fill="none" xmlns="http://www.w3.org/2000/svg">
<path fill-rule="evenodd" clip-rule="evenodd" d="M69.9918 97H44.6705L4 72.8955L39.3457 48.3096L82.3654 73.4948L82.3752 73.5026L82.3765 73.5014L82.3993 73.5148C82.3993 73.5057 82.3992 73.497 82.4002 73.487L94.065 66.4249C94.0844 63.4741 93.1107 60.043 91.0195 56.378C87.5105 50.2249 81.6249 44.7237 75.215 41.0639L80.2289 41C95.4047 41 112.024 48.5714 117.35 57.9124C120.376 63.2192 119.102 67.9518 114.659 71.0519L114.69 71.0707L114.245 71.329C113.835 71.5929 113.401 71.8448 112.944 72.0831L69.9918 97ZM39.4319 46.6825L36.5055 41.5506L47.6262 41.4111L42.3433 44.6258L42.3694 44.6445C41.2141 45.1643 40.2315 45.8505 39.4319 46.6825Z" fill="black" fill-opacity="0.14902"/>
<path fill-rule="evenodd" clip-rule="evenodd" d="M82.2471 73L82.2372 72.9924L82.2484 72.9988L82.2471 73ZM82.2722 72.9849C82.2864 70.1231 81.304 66.7989 79.2093 63.2494C72.894 52.5471 58.9025 43.8695 47.9633 43.8695C45.6541 43.8695 43.6668 44.2573 42.0263 44.9686L42 44.9504L47.3113 41.8278L52.1031 39.0108C52.5886 38.6788 53.1066 38.3733 53.6796 38.1191L53.7504 38.0785L53.7573 38.0849C55.2065 37.454 56.9259 37.0781 58.9015 37V44.4014L68.8639 50.0376V38.7C70.9388 39.4283 73.0205 40.3712 75.0484 41.4906C81.4927 45.0455 87.4099 50.3891 90.9378 56.3659C93.0403 59.926 94.0192 63.2588 93.9997 66.1251L82.2722 72.9849Z" fill="#2F4668"/>
<path d="M39.0698 48L38 47.6993C38.3506 47.4507 38.7437 47.2176 39.1802 47L40 47.6899L39.0698 48Z" fill="#E4F3F6"/>
<path fill-rule="evenodd" clip-rule="evenodd" d="M82 73L39 48.557L39.7257 48.0674L39.0862 46.9779C39.8853 46.1704 40.8675 45.5045 42.0223 45L82 73Z" fill="#2657B3"/>
<path fill-rule="evenodd" clip-rule="evenodd" d="M81.9762 73L81.9651 72.9936L42 45.0942C43.6305 44.3861 45.6057 44 47.9007 44C58.773 44 72.679 52.639 78.9557 63.2939C81.0376 66.8276 82.014 70.1371 81.9999 72.9861L81.9762 73Z" fill="#2657B3"/>
<path fill-rule="evenodd" clip-rule="evenodd" d="M69 38C65.8489 36.8432 62.712 36.1984 59.7923 36.1984C59.5236 36.1984 59.2596 36.2042 59 36.2153V31L69 36.9173V38Z" fill="url(#paint0_linear_1935_2044)"/>
<path fill-rule="evenodd" clip-rule="evenodd" d="M69 50L59 44.3869V37.016C59.2596 37.0055 59.5236 37 59.7923 37C62.712 37 65.8489 37.6117 69 38.709V50Z" fill="url(#paint1_linear_1935_2044)"/>
<path d="M69 36.9477V50L79 44.0523V31L69 36.9477Z" fill="#2C3F5D"/>
<path d="M59 31.4989L68.9989 26L79 31.4989L69.0011 37L59 31.4989Z" fill="#00A9BD"/>
<path fill-rule="evenodd" clip-rule="evenodd" d="M21 43V52.7609L50 70V60.2388L21 43Z" fill="#5EA9C1"/>
<path fill-rule="evenodd" clip-rule="evenodd" d="M50 60.2388V70L79 52.7609V43L50 60.2388Z" fill="#A0C9D6"/>
<path fill-rule="evenodd" clip-rule="evenodd" d="M21 43.0006L49.9996 26L79 43.0006L50.0013 60L21 43.0006Z" fill="#287B95"/>
<path fill-rule="evenodd" clip-rule="evenodd" d="M50 36.9634V58L79 41.0353V20L50 36.9634Z" fill="#757475"/>
<path fill-rule="evenodd" clip-rule="evenodd" d="M76.9679 13.2597C72.7731 5.93564 63.4841 0 56.2202 0C54.6875 0 53.3699 0.265204 52.2827 0.752856L52.2787 0.749459L52.2306 0.776819C51.85 0.948895 51.5062 1.16132 51.1839 1.3862L23 17.8126L49.7223 37L78.9998 19.9359C79.0139 17.9748 78.3629 15.6933 76.9679 13.2597Z" fill="#6395F1"/>
<path fill-rule="evenodd" clip-rule="evenodd" d="M21 41.0353L50 58V36.9634L21 20V41.0353Z" fill="#446AB1"/>
<path fill-rule="evenodd" clip-rule="evenodd" d="M47.9876 30.3009C43.836 22.9547 34.641 17 27.4514 17C24.4003 17 22.2036 18.0763 21 19.8724L49.9998 37C50.0129 35.0332 49.3675 32.7448 47.9876 30.3009Z" fill="#4972BF"/>
<path d="M76 39.0585L54 52V38.9405L76 26V39.0585Z" fill="#222222"/>
<path fill-rule="evenodd" clip-rule="evenodd" d="M52.9402 79.9101C46.6228 68.9131 32.6323 60 21.6917 60C19.3832 60 17.3979 60.3984 15.7593 61.128L15.7522 61.1258L15.6804 61.1653C15.1074 61.4275 14.5894 61.7413 14.1036 62.0833L4 68.1844L44.2487 97L55.9997 89.9402C56.0204 86.9945 55.038 83.5692 52.9402 79.9101Z" fill="url(#paint2_linear_1935_2044)"/>
<path fill-rule="evenodd" clip-rule="evenodd" d="M40.9477 87.0888C38.2305 82.3996 34.0857 78.098 29.3779 74.7167L30.36 75.2817V62.7211L20.4257 57V69.5615L21.608 70.2427C17.5972 68.4534 13.5162 67.4057 9.78861 67.4057C5.15948 67.4057 1.82648 68.9987 0 71.6567L43.9996 97C44.0218 94.0909 43.0423 90.7065 40.9477 87.0888Z" fill="#4972BF"/>
<path d="M31 62.633V75L41 69.3679V57L31 62.633Z" fill="#2C3F5D"/>
<path fill-rule="evenodd" clip-rule="evenodd" d="M21 56.5012L30.9998 51L41 56.5012L31.0002 62L21 56.5012Z" fill="#446AB1"/>
<defs>
<linearGradient id="paint0_linear_1935_2044" x1="64" y1="31" x2="64" y2="38" gradientUnits="userSpaceOnUse">
<stop stop-color="white"/>
<stop offset="1" stop-color="white" stop-opacity="0"/>
</linearGradient>
<linearGradient id="paint1_linear_1935_2044" x1="42.0347" y1="54.9333" x2="94.2308" y2="54.9333" gradientUnits="userSpaceOnUse">
<stop stop-color="#3C5A8B"/>
<stop offset="1" stop-color="#2A3E5B"/>
</linearGradient>
<linearGradient id="paint2_linear_1935_2044" x1="4" y1="78.4997" x2="55.9805" y2="78.4997" gradientUnits="userSpaceOnUse">
<stop stop-color="#3F5E8F"/>
<stop offset="1" stop-color="#2A3F5C"/>
</linearGradient>
</defs>
</svg>
