<svg width="164" height="96" viewBox="0 0 164 96" fill="none" xmlns="http://www.w3.org/2000/svg">
<path fill-rule="evenodd" clip-rule="evenodd" d="M11.946 2.75479H152.58C157.432 2.75479 161.401 6.72915 161.401 11.5867V83.5851C161.401 88.4427 157.432 92.417 152.58 92.417H11.946C7.09444 92.417 3.125 88.4427 3.125 83.5851V11.5867C3.125 6.72915 7.09444 2.75479 11.946 2.75479Z" fill="#9AD7F6" fill-opacity="0.4"/>
<path d="M12.0721 0.389099H12.1177V5.3738H12.0721C11.3125 5.3738 10.5822 5.51031 9.9053 5.75977V22.8798L5.74158 26.6161V68.7924L9.9053 72.5284V89.6489C10.5822 89.8983 11.3125 90.0347 12.0721 90.0347H12.1177V95.0195H12.0721C8.95976 95.0195 6.13147 93.7461 4.08303 91.6952C2.03459 89.6444 0.762695 86.8128 0.762695 83.6968V11.7117C0.762695 8.59574 2.03459 5.76422 4.08303 3.71339C6.13147 1.66256 8.95976 0.389099 12.0721 0.389099ZM154.857 68.7924V26.6161L159.021 22.8798V11.7117C159.021 9.97142 158.308 8.38678 157.16 7.23737C156.012 6.08797 154.429 5.3738 152.691 5.3738H152.645V0.389099H152.691C155.803 0.389099 158.631 1.66256 160.68 3.71339C162.728 5.76422 164 8.59574 164 11.7117V83.6968C164 86.8128 162.728 89.6444 160.68 91.6952C158.631 93.7461 155.803 95.0195 152.691 95.0195H152.645V90.0347H152.691C154.429 90.0347 156.012 89.3207 157.16 88.1712C158.308 87.0218 159.021 85.4371 159.021 83.6968V72.5284L154.857 68.7924Z" fill="#446AB1"/>
</svg>
