<svg width="84" height="96" viewBox="0 0 84 96" fill="none" xmlns="http://www.w3.org/2000/svg">
<path fill-rule="evenodd" clip-rule="evenodd" d="M0.052002 2.44848C2.83726 0.84027 5.88119 0.643188 9.75788 0.643188H81.4018C82.4506 0.643188 83.3086 1.50132 83.3086 2.55016V86.9094C83.3086 87.9584 82.4506 88.8165 81.4018 88.8165H9.75788V2.44848H0.052002Z" fill="#2A5561"/>
<path fill-rule="evenodd" clip-rule="evenodd" d="M80.9322 2.69187H72.246L73.592 4.54246L74.8975 4.18001L74.9483 86.7679L80.9322 85.252V2.69187Z" fill="#FAF7ED"/>
<path fill-rule="evenodd" clip-rule="evenodd" d="M76.0974 3.92103L73.5571 4.54372V87.2596L76.0532 86.5572L76.0974 3.92103Z" fill="#F2EEE1"/>
<path fill-rule="evenodd" clip-rule="evenodd" d="M0.052002 2.446H71.6516C72.6996 2.446 73.5571 3.30413 73.5571 4.35297V88.7124C73.5571 89.7612 72.6996 90.6193 71.6516 90.6193H0.052002V2.446Z" fill="#4A7A87"/>
<path fill-rule="evenodd" clip-rule="evenodd" d="M11.8522 90.6193H17.7522V95.4541L14.72 92.1253L11.8522 95.4541V90.6193Z" fill="#DE7773"/>
</svg>
