<svg width="173" height="101" viewBox="0 0 173 101" fill="none" xmlns="http://www.w3.org/2000/svg">
<path fill-rule="evenodd" clip-rule="evenodd" d="M12.3188 3.44955H160.703C165.822 3.44955 170.01 7.64292 170.01 12.7681V88.7341C170.01 93.8593 165.822 98.0527 160.703 98.0527H12.3188C7.19989 98.0527 3.01172 93.8593 3.01172 88.7341V12.7681C3.01172 7.64292 7.19989 3.44955 12.3188 3.44955Z" fill="#9AD7F6" fill-opacity="0.4"/>
<path d="M12.4522 0.953491H12.5002V6.21288H12.4522C11.6507 6.21288 10.8802 6.35691 10.1659 6.62011V24.6836L5.77278 28.6258V73.1262L10.1659 77.0681V95.132C10.8802 95.3951 11.6507 95.5391 12.4522 95.5391H12.5002V100.799H12.4522C9.1683 100.799 6.18415 99.4549 4.02284 97.2911C1.86152 95.1273 0.519531 92.1396 0.519531 88.8519V12.9001C0.519531 9.61236 1.86152 6.62481 4.02284 4.46096C6.18415 2.29712 9.1683 0.953491 12.4522 0.953491ZM163.106 73.1262V28.6258L167.499 24.6836V12.9001C167.499 11.0639 166.746 9.39189 165.535 8.17914C164.324 6.9664 162.654 6.21288 160.82 6.21288H160.771V0.953491H160.82C164.103 0.953491 167.088 2.29712 169.249 4.46096C171.41 6.62481 172.752 9.61236 172.752 12.9001V88.8519C172.752 92.1396 171.41 95.1273 169.249 97.2911C167.088 99.4549 164.103 100.799 160.82 100.799H160.771V95.5391H160.82C162.654 95.5391 164.324 94.7857 165.535 93.5729C166.746 92.3602 167.499 90.6881 167.499 88.8519V77.0681L163.106 73.1262Z" fill="#446AB1"/>
<path d="M37.2349 36.8766C36.576 36.8766 36.0668 36.6969 35.7073 36.3375C35.3479 35.963 35.1682 35.4314 35.1682 34.7424V28.587L36.0218 30.856L30.8548 23.42C30.6002 23.0606 30.4879 22.6637 30.5179 22.2294C30.5628 21.7801 30.7425 21.4056 31.057 21.1061C31.3865 20.7916 31.8508 20.6343 32.4499 20.6343C32.8692 20.6343 33.2511 20.7392 33.5956 20.9488C33.9401 21.1435 34.2621 21.4805 34.5616 21.9598L37.7067 26.5876H36.898L40.0431 21.9373C40.3576 21.4581 40.6796 21.1211 41.0091 20.9264C41.3386 20.7317 41.728 20.6343 42.1773 20.6343C42.7464 20.6343 43.1882 20.7766 43.5027 21.0612C43.8172 21.3457 43.982 21.7052 43.9969 22.1395C44.0269 22.5738 43.8921 23.0156 43.5926 23.4649L38.4705 30.856L39.3017 28.587V34.7424C39.3017 36.1652 38.6128 36.8766 37.2349 36.8766ZM49.2682 36.9216C48.0401 36.9216 46.9692 36.6894 46.0557 36.2251C45.1421 35.7609 44.4307 35.0944 43.9215 34.2257C43.4123 33.3571 43.1577 32.3312 43.1577 31.148C43.1577 30.2494 43.2999 29.4482 43.5845 28.7442C43.8691 28.0254 44.2809 27.4188 44.8201 26.9246C45.3592 26.4154 46.0032 26.0335 46.7521 25.7789C47.5009 25.5093 48.3396 25.3745 49.2682 25.3745C50.4963 25.3745 51.5671 25.6066 52.4807 26.0709C53.3943 26.5352 54.0982 27.2016 54.5924 28.0703C55.1016 28.924 55.3562 29.9499 55.3562 31.148C55.3562 32.0316 55.2139 32.8329 54.9294 33.5518C54.6448 34.2707 54.233 34.8847 53.6938 35.3939C53.1696 35.8882 52.5256 36.2701 51.7618 36.5396C51.013 36.7943 50.1818 36.9216 49.2682 36.9216ZM49.2682 33.9786C49.6725 33.9786 50.032 33.8813 50.3465 33.6866C50.661 33.4769 50.9006 33.1699 51.0654 32.7655C51.2451 32.3462 51.335 31.807 51.335 31.148C51.335 30.1446 51.1403 29.4257 50.7509 28.9914C50.3615 28.5421 49.8672 28.3174 49.2682 28.3174C48.8638 28.3174 48.5044 28.4148 48.1898 28.6095C47.8753 28.8042 47.6282 29.1112 47.4485 29.5305C47.2688 29.9349 47.1789 30.4741 47.1789 31.148C47.1789 32.1365 47.3736 32.8554 47.763 33.3047C48.1524 33.754 48.6541 33.9786 49.2682 33.9786ZM61.3221 36.9216C60.3636 36.9216 59.5773 36.7493 58.9633 36.4049C58.3492 36.0454 57.885 35.5137 57.5704 34.8098C57.2709 34.1059 57.1211 33.2148 57.1211 32.1365V27.4188C57.1211 26.7598 57.2934 26.2656 57.6378 25.9361C57.9823 25.5916 58.4765 25.4194 59.1205 25.4194C59.7645 25.4194 60.2588 25.5916 60.6032 25.9361C60.9477 26.2656 61.1199 26.7598 61.1199 27.4188V32.2488C61.1199 32.788 61.2323 33.1923 61.4569 33.4619C61.6816 33.7315 62.0335 33.8663 62.5128 33.8663C63.0519 33.8663 63.4938 33.6716 63.8382 33.2822C64.1827 32.8928 64.3549 32.3761 64.3549 31.7321V27.4188C64.3549 26.7598 64.5271 26.2656 64.8716 25.9361C65.2161 25.5916 65.7103 25.4194 66.3543 25.4194C66.9983 25.4194 67.4925 25.5916 67.837 25.9361C68.1815 26.2656 68.3537 26.7598 68.3537 27.4188V34.8548C68.3537 36.2027 67.7097 36.8766 66.4217 36.8766C65.7927 36.8766 65.3059 36.7044 64.9615 36.3599C64.617 36.0155 64.4448 35.5137 64.4448 34.8548V33.5518L64.8042 34.6526C64.4747 35.3864 64.0104 35.9481 63.4114 36.3375C62.8273 36.7269 62.1309 36.9216 61.3221 36.9216ZM72.7251 36.8766C72.0661 36.8766 71.5569 36.7044 71.1975 36.3599C70.853 36.0155 70.6808 35.5137 70.6808 34.8548V27.4188C70.6808 26.7748 70.8455 26.2806 71.175 25.9361C71.5195 25.5916 72.0062 25.4194 72.6352 25.4194C73.2643 25.4194 73.7435 25.5916 74.073 25.9361C74.4025 26.2806 74.5672 26.7748 74.5672 27.4188V28.3399H74.3426C74.4924 27.4413 74.8743 26.7299 75.4883 26.2057C76.1173 25.6815 76.8961 25.4044 77.8247 25.3745C78.259 25.3595 78.581 25.4718 78.7907 25.7115C79.0153 25.9361 79.1352 26.3629 79.1501 26.992C79.1501 27.5311 79.0378 27.958 78.8132 28.2725C78.5885 28.587 78.1617 28.7742 77.5326 28.8341L77.0159 28.879C76.2222 28.9539 75.6456 29.1786 75.2861 29.553C74.9267 29.9124 74.747 30.4516 74.747 31.1705V34.8548C74.747 35.5137 74.5747 36.0155 74.2303 36.3599C73.8858 36.7044 73.3841 36.8766 72.7251 36.8766ZM89.1859 36.8766C88.5269 36.8766 88.0177 36.6969 87.6583 36.3375C87.2988 35.963 87.1191 35.4463 87.1191 34.7874V22.9258C87.1191 22.2518 87.2988 21.7351 87.6583 21.3757C88.0327 21.0162 88.5494 20.8365 89.2084 20.8365H94.7348C96.532 20.8365 97.9173 21.3008 98.8908 22.2294C99.8793 23.1429 100.374 24.4085 100.374 26.026C100.374 27.6435 99.8793 28.9165 98.8908 29.845C97.9173 30.7586 96.532 31.2154 94.7348 31.2154H91.2527V34.7874C91.2527 35.4463 91.0805 35.963 90.736 36.3375C90.3915 36.6969 89.8748 36.8766 89.1859 36.8766ZM91.2527 28.0478H94.0159C94.7947 28.0478 95.3938 27.8831 95.8131 27.5536C96.2325 27.2091 96.4421 26.6999 96.4421 26.026C96.4421 25.337 96.2325 24.8278 95.8131 24.4983C95.3938 24.1689 94.7947 24.0041 94.0159 24.0041H91.2527V28.0478ZM107.011 36.9216C105.782 36.9216 104.712 36.6894 103.798 36.2251C102.884 35.7609 102.173 35.0944 101.664 34.2257C101.155 33.3571 100.9 32.3312 100.9 31.148C100.9 30.2494 101.042 29.4482 101.327 28.7442C101.611 28.0254 102.023 27.4188 102.562 26.9246C103.102 26.4154 103.746 26.0335 104.494 25.7789C105.243 25.5093 106.082 25.3745 107.011 25.3745C108.239 25.3745 109.31 25.6066 110.223 26.0709C111.137 26.5352 111.841 27.2016 112.335 28.0703C112.844 28.924 113.099 29.9499 113.099 31.148C113.099 32.0316 112.956 32.8329 112.672 33.5518C112.387 34.2707 111.975 34.8847 111.436 35.3939C110.912 35.8882 110.268 36.2701 109.504 36.5396C108.755 36.7943 107.924 36.9216 107.011 36.9216ZM107.011 33.9786C107.415 33.9786 107.774 33.8813 108.089 33.6866C108.403 33.4769 108.643 33.1699 108.808 32.7655C108.987 32.3462 109.077 31.807 109.077 31.148C109.077 30.1446 108.883 29.4257 108.493 28.9914C108.104 28.5421 107.61 28.3174 107.011 28.3174C106.606 28.3174 106.247 28.4148 105.932 28.6095C105.618 28.8042 105.371 29.1112 105.191 29.5305C105.011 29.9349 104.921 30.4741 104.921 31.148C104.921 32.1365 105.116 32.8554 105.505 33.3047C105.895 33.754 106.397 33.9786 107.011 33.9786ZM116.908 36.8766C116.279 36.8766 115.792 36.6894 115.448 36.315C115.103 35.9406 114.931 35.4014 114.931 34.6975V27.5985C114.931 26.8946 115.103 26.3555 115.448 25.981C115.792 25.6066 116.279 25.4194 116.908 25.4194C117.552 25.4194 118.046 25.6066 118.391 25.981C118.75 26.3555 118.93 26.8946 118.93 27.5985V34.6975C118.93 35.4014 118.757 35.9406 118.413 36.315C118.069 36.6894 117.567 36.8766 116.908 36.8766ZM116.908 23.8244C116.204 23.8244 115.657 23.6596 115.268 23.3302C114.893 23.0007 114.706 22.5214 114.706 21.8924C114.706 21.2783 114.893 20.8066 115.268 20.4771C115.657 20.1476 116.204 19.9828 116.908 19.9828C117.642 19.9828 118.196 20.1476 118.57 20.4771C118.945 20.8066 119.132 21.2783 119.132 21.8924C119.132 22.5214 118.945 23.0007 118.57 23.3302C118.196 23.6596 117.642 23.8244 116.908 23.8244ZM123.226 36.8766C122.597 36.8766 122.11 36.7044 121.766 36.3599C121.421 36.0155 121.249 35.5137 121.249 34.8548V27.4188C121.249 26.7748 121.414 26.2806 121.743 25.9361C122.088 25.5916 122.575 25.4194 123.204 25.4194C123.833 25.4194 124.312 25.5916 124.641 25.9361C124.971 26.2806 125.136 26.7748 125.136 27.4188V28.4747L124.889 27.5536C125.248 26.8497 125.757 26.3105 126.416 25.9361C127.09 25.5617 127.854 25.3745 128.708 25.3745C129.591 25.3745 130.318 25.5467 130.887 25.8912C131.456 26.2207 131.883 26.7449 132.167 27.4637C132.452 28.1676 132.594 29.0588 132.594 30.1371V34.8548C132.594 35.5137 132.422 36.0155 132.077 36.3599C131.733 36.7044 131.239 36.8766 130.595 36.8766C129.951 36.8766 129.457 36.7044 129.112 36.3599C128.768 36.0155 128.595 35.5137 128.595 34.8548V30.2943C128.595 29.6204 128.476 29.1411 128.236 28.8566C128.011 28.572 127.674 28.4297 127.225 28.4297C126.626 28.4297 126.147 28.6244 125.787 29.0138C125.428 29.3882 125.248 29.8975 125.248 30.5415V34.8548C125.248 36.2027 124.574 36.8766 123.226 36.8766ZM140.669 36.9216C139.546 36.9216 138.617 36.7493 137.883 36.4049C137.165 36.0604 136.625 35.5437 136.266 34.8548C135.907 34.1509 135.727 33.2747 135.727 32.2263V28.5645H134.963C134.484 28.5645 134.109 28.4372 133.84 28.1826C133.585 27.928 133.458 27.5611 133.458 27.0818C133.458 26.6026 133.585 26.2431 133.84 26.0035C134.109 25.7489 134.484 25.6216 134.963 25.6216H135.727V24.2288C135.727 23.5698 135.899 23.0681 136.243 22.7236C136.588 22.3791 137.082 22.2069 137.726 22.2069C138.37 22.2069 138.864 22.3791 139.209 22.7236C139.553 23.0681 139.726 23.5698 139.726 24.2288V25.6216H141.568C142.062 25.6216 142.436 25.7489 142.691 26.0035C142.961 26.2431 143.095 26.6026 143.095 27.0818C143.095 27.5611 142.961 27.928 142.691 28.1826C142.436 28.4372 142.062 28.5645 141.568 28.5645H139.726V32.0916C139.726 32.6457 139.853 33.0576 140.107 33.3271C140.377 33.5817 140.796 33.709 141.366 33.709C141.575 33.709 141.777 33.6866 141.972 33.6416C142.167 33.5967 142.347 33.5743 142.511 33.5743C142.751 33.5593 142.946 33.6342 143.095 33.7989C143.245 33.9487 143.32 34.3006 143.32 34.8548C143.32 35.3041 143.253 35.686 143.118 36.0005C142.983 36.3 142.743 36.5172 142.399 36.652C142.189 36.7269 141.905 36.7868 141.545 36.8317C141.186 36.8916 140.894 36.9216 140.669 36.9216Z" fill="#8AB2FC"/>
<rect x="68" y="54" width="38.6899" height="31.2016" rx="3.74419" fill="#446AB1"/>
</svg>
