<svg width="112" height="30" viewBox="0 0 112 30" fill="none" xmlns="http://www.w3.org/2000/svg">
<path fill-rule="evenodd" clip-rule="evenodd" d="M44.7241 13.1818L45.3505 13.9187C41.1099 12.9398 36.8208 12.9017 32.4833 13.8051C25.3927 15.5906 18.6165 16.6592 12.1547 17.0107C19.8941 15.2441 23.7637 14.3607 23.7637 14.3607C28.4399 14.1094 32.0133 13.7069 34.4839 13.1533C38.8879 12.1145 42.3013 12.124 44.7241 13.1818Z" fill="#E3DBC1"/>
<path fill-rule="evenodd" clip-rule="evenodd" d="M67.2758 13.1818L66.6494 13.9187C70.8901 12.9398 75.1791 12.9017 79.5167 13.8051C86.6073 15.5906 93.3835 16.6592 99.8452 17.0107C92.1059 15.2441 88.2362 14.3607 88.2362 14.3607C83.56 14.1094 79.9866 13.7069 77.516 13.1533C73.112 12.1145 69.6986 12.124 67.2758 13.1818Z" fill="#E3DBC1"/>
<path fill-rule="evenodd" clip-rule="evenodd" d="M88.4761 3.38318C71.9887 7.14707 61.3237 11.6887 56.4813 17.0078C56.4378 17.0556 55.4462 17.1373 55.442 17.2012L55.3639 18.3935C68.9306 11.8129 84.5671 9.47726 102.44 12.1368C93.1308 6.30103 88.4761 3.38318 88.4761 3.38318Z" fill="url(#paint0_linear_1263_1318)"/>
<path fill-rule="evenodd" clip-rule="evenodd" d="M23.5447 3.38318C40.0321 7.14707 50.6971 11.6887 55.5395 17.0078C55.583 17.0556 56.5746 17.1373 56.5788 17.2012L56.6569 18.3935C43.2291 11.7017 27.4537 9.47726 9.58061 12.1368C18.89 6.30103 23.5447 3.38318 23.5447 3.38318Z" fill="#FAF7ED"/>
<path fill-rule="evenodd" clip-rule="evenodd" d="M56.0173 15.3401L56.0104 17.5122C44.1175 10.0102 30.818 5.52218 15.4178 3.6126C26.8113 1.2042 32.5081 0 32.5081 0C41.685 4.43645 49.2154 9.21659 56.0173 15.3401Z" fill="url(#paint1_linear_1263_1318)"/>
<path fill-rule="evenodd" clip-rule="evenodd" d="M55.9689 15.4792L55.9758 17.6513C67.8645 10.1494 81.1593 5.66145 96.5541 3.7519C85.1645 1.34353 79.4698 0.139343 79.4698 0.139343C70.2962 4.57573 62.7684 9.35581 55.9689 15.4792Z" fill="url(#paint2_linear_1263_1318)"/>
<path fill-rule="evenodd" clip-rule="evenodd" d="M49.7246 21.6835C51.1586 19.6365 53.5007 18.4175 56 18.4175C58.4992 18.4175 60.8414 19.6365 62.2753 21.6835C62.2753 21.6835 77.9781 22.8113 109.384 25.0669C108.544 25.0066 105.767 22.7899 99.8452 17.0107C93.3835 16.6592 86.6073 15.5906 79.5167 13.8051C74.4094 12.7413 69.3693 12.9827 64.3963 14.5285L55.9877 17.8587L47.6036 14.5285C42.6307 12.9827 37.5906 12.7413 32.4833 13.8051C25.3927 15.5906 18.6165 16.6592 12.1547 17.0107C6.23345 22.7899 3.15846 25.028 2.61618 25.0669C34.0218 22.8113 49.7246 21.6835 49.7246 21.6835Z" fill="#F2EEE1"/>
<path d="M110.606 25.1547C111.432 25.213 112.055 25.9299 111.996 26.756C111.938 27.582 110.31 28.7652 109.484 28.7069L63.6192 25.3981C62.7408 26.3628 61.9337 27.4305 60.7787 27.9978C59.3766 28.6863 57.8271 29.0577 56.2406 29.0577C54.6542 29.0577 53.1046 28.6863 51.7026 27.9978C50.5476 27.4305 49.2592 26.2813 48.3808 25.3166L2.37614 28.7069C1.55009 28.7652 0.0620804 27.582 0.00378308 26.756C-0.0545142 25.9299 0.567856 25.213 1.3939 25.1547L49.7247 21.6835L50.2175 22.3214C50.9109 23.2189 51.7896 23.929 52.7758 24.4133C53.7589 24.8961 54.8595 25.1566 56 25.1566C57.1405 25.1566 58.2411 24.8961 59.2242 24.4133C60.2104 23.929 61.0891 23.2189 61.7825 22.3214L62.2753 21.6835L110.606 25.1547Z" fill="#3B73C5"/>
<path fill-rule="evenodd" clip-rule="evenodd" d="M51.2744 19.9634C51.2991 19.9693 51.3198 19.9833 51.3343 20.0019C51.2701 20.0511 51.2067 20.1015 51.144 20.1528C48.8656 19.6126 46.6877 19.2533 44.6105 19.0749C42.5084 18.8944 40.51 18.8988 38.6152 19.0882C38.5565 19.094 38.5041 19.051 38.4984 18.9922C38.4926 18.9335 38.5356 18.8811 38.5943 18.8754C40.504 18.6845 42.5152 18.6798 44.6281 18.8613C46.7412 19.0427 48.9567 19.4101 51.2744 19.9634ZM53.3095 18.8272C53.3351 18.8397 53.3534 18.861 53.3626 18.8857C53.2839 18.9146 53.2056 18.9448 53.1279 18.9762C49.9619 17.4324 46.7481 16.451 43.4866 16.0325C40.1956 15.6102 36.8548 15.7608 33.4644 16.4842C33.4066 16.4965 33.3498 16.4595 33.3375 16.4017C33.3253 16.3439 33.3622 16.287 33.4201 16.2748C36.8332 15.5464 40.1977 15.395 43.5134 15.8205C46.8285 16.2459 50.094 17.2482 53.3095 18.8272ZM60.6657 20.0019C60.6802 19.9832 60.7009 19.9693 60.7256 19.9634C63.0433 19.4101 65.2588 19.0427 67.3719 18.8613C69.4847 18.6798 71.496 18.6845 73.4057 18.8754C73.4644 18.8811 73.5074 18.9335 73.5016 18.9922C73.4958 19.051 73.4435 19.094 73.3847 19.0882C71.49 18.8988 69.4916 18.8944 67.3895 19.0749C65.3122 19.2533 63.1343 19.6126 60.856 20.1528C60.7932 20.1014 60.7298 20.0511 60.6657 20.0019ZM58.6373 18.8857C58.6466 18.861 58.6649 18.8397 58.6904 18.8272C61.906 17.2482 65.1714 16.2459 68.4866 15.8205C71.8023 15.395 75.1668 15.5464 78.5799 16.2748C78.6377 16.287 78.6747 16.3439 78.6625 16.4017C78.6502 16.4595 78.5934 16.4965 78.5355 16.4842C75.1452 15.7608 71.8044 15.6102 68.5134 16.0325C65.2519 16.451 62.0381 17.4324 58.8721 18.9762C58.7943 18.9448 58.7161 18.9146 58.6373 18.8857Z" fill="#E3DBC1"/>
<path fill-rule="evenodd" clip-rule="evenodd" d="M52.4922 19.2677C54.623 20.656 57.3726 20.6549 59.5023 19.2648C60.5939 19.8259 61.5506 20.6489 62.2753 21.6835C60.9211 23.8444 58.5502 25.1566 56 25.1566C53.4498 25.1566 51.0789 23.8444 49.7247 21.6835C50.4481 20.6507 51.4028 19.8287 52.4922 19.2677Z" fill="#335A9A"/>
<path fill-rule="evenodd" clip-rule="evenodd" d="M55.9852 15.3398L56.0495 15.3403L56.0322 17.8691V18.4175C56.0322 18.4175 56.0322 18.4175 56 18.4175C55.9678 18.4175 55.9678 18.4175 55.9678 18.4175V17.8689L55.9678 17.8688L56 17.869C55.9678 17.8688 55.9678 17.8688 55.9678 17.8688L55.9852 15.3398Z" fill="#E3DBC1"/>
<path fill-rule="evenodd" clip-rule="evenodd" d="M55.9869 17.8188C59.9504 14.7684 65.8435 11.794 73.664 8.89508L73.6864 8.9554C65.856 11.858 59.9636 14.8345 56.0073 17.8842L55.9885 17.8987L55.9691 17.885C51.1051 14.4443 45.8007 11.6728 40.1984 9.64497L40.2203 9.58448C45.8206 11.6116 51.1234 14.3811 55.9869 17.8188Z" fill="#E3DBC1"/>
<path fill-rule="evenodd" clip-rule="evenodd" d="M55.9999 17.814C60.6947 15.7127 64.8231 14.2872 68.3848 13.5383L68.398 13.6013C64.839 14.3496 60.7108 15.7752 56.0132 17.8785L56.0003 17.8843L55.9873 17.8787C51.862 16.0885 48.0096 14.7135 44.43 13.7537L44.4466 13.6915C48.0261 14.6513 51.8772 16.0256 55.9999 17.814Z" fill="#E3DBC1"/>
<path fill-rule="evenodd" clip-rule="evenodd" d="M67.525 22.63C67.0276 22.895 66.6456 23.4644 66.3789 24.3383C65.9116 23.9084 65.6809 22.9281 65.6869 21.3974C65.6691 20.2852 65.3625 19.6154 64.7672 19.3881C65.7895 19.2328 66.7958 19.1178 67.7863 19.043C68.5225 19.1607 68.9183 19.8879 68.9738 21.2244C69.0412 22.8905 69.3079 23.9213 69.7739 24.3167C68.7929 23.8775 68.0432 23.3152 67.525 22.63Z" fill="#76B7E4"/>
<defs>
<linearGradient id="paint0_linear_1263_1318" x1="79.7104" y1="14.5718" x2="76.7506" y2="-8.39563" gradientUnits="userSpaceOnUse">
<stop stop-color="#FAF7ED"/>
<stop offset="1" stop-color="#E3DBC1"/>
</linearGradient>
<linearGradient id="paint1_linear_1263_1318" x1="20.0524" y1="13.1974" x2="15.4212" y2="16.4262" gradientUnits="userSpaceOnUse">
<stop stop-color="#FFFDF7"/>
<stop offset="0.54902" stop-color="#FDFAF2"/>
<stop offset="1" stop-color="#FAF7ED"/>
</linearGradient>
<linearGradient id="paint2_linear_1263_1318" x1="91.921" y1="13.3366" x2="96.5517" y2="16.5638" gradientUnits="userSpaceOnUse">
<stop stop-color="#FFFDF7"/>
<stop offset="0.54902" stop-color="#FDFAF2"/>
<stop offset="1" stop-color="#FAF7ED"/>
</linearGradient>
</defs>
</svg>
