<svg width="103" height="100" viewBox="0 0 103 100" fill="none" xmlns="http://www.w3.org/2000/svg">
<path fill-rule="evenodd" clip-rule="evenodd" d="M60.0486 100H7.50303L7.35415 99.9158L49.1235 76.2944V71H53.6592H60.0486H74.3031H92.1262L103 75.7438L60.0486 100ZM7.3344 99.9052L0 95.7951L7.3344 91.257V99.9052Z" fill="black" fill-opacity="0.14902"/>
<path fill-rule="evenodd" clip-rule="evenodd" d="M0 24V95.6675L7 100V28.3325L0 24Z" fill="url(#paint0_linear_1935_2046)"/>
<path fill-rule="evenodd" clip-rule="evenodd" d="M7 100V28.1859L49 4V37.4224L45.3696 39.5751V14.1489L10.6295 34.1525V89.8196L45.3696 69.815V66.7781L49 68.3826V75.8143L7.01985 99.9892L7 100Z" fill="url(#paint1_linear_1935_2046)"/>
<path fill-rule="evenodd" clip-rule="evenodd" d="M11 90V34.0907L46 14V39.5368L30.0788 48.9528V59.8475L46 66.8582V69.9083L11 90Z" fill="#446AB1"/>
<path d="M34.6951 82.7802C35.9666 82.0715 37 80.506 37 79.2802C37 78.0556 35.9666 77.6364 34.6951 78.3438L22.3058 85.2198C21.0312 85.9282 20 87.494 20 88.7186C20 89.9444 21.0312 90.3637 22.3058 89.6562L34.6951 82.7802Z" fill="#FEFEFE"/>
<path d="M33.2357 19.5847C34.2118 19.0547 35 17.8819 35 16.9623C35 16.0418 34.2118 15.7269 33.2357 16.2581L23.7653 21.4152C22.7892 21.9464 22 23.1201 22 24.0398C22 24.9582 22.7892 25.273 23.7653 24.7418L33.2357 19.5847Z" fill="#FEFEFE"/>
<path d="M13 29.2498C13 29.9674 13.671 30.2133 14.5004 29.7982C15.3301 29.3846 16 28.4679 16 27.7508C16 27.0323 15.3301 26.7874 14.5004 27.2009C13.671 27.6161 13 28.5311 13 29.2498Z" fill="#FEFEFE"/>
<path fill-rule="evenodd" clip-rule="evenodd" d="M0 24.5867L41.5802 0L49 4.41333L7.41981 29L0 24.5867Z" fill="#8AB2FC"/>
<path d="M75 71H53.6834L49 68.9618V37.6176L68.8748 26L75 71Z" fill="white" fill-opacity="0.48"/>
<path fill-rule="evenodd" clip-rule="evenodd" d="M76 81L54 71H74.6974L76 81Z" fill="#FEFEFE" fill-opacity="0.46"/>
<path fill-rule="evenodd" clip-rule="evenodd" d="M49 69L46 67.3934V40.1554L49 38V69Z" fill="#DFE6F2"/>
<path fill-rule="evenodd" clip-rule="evenodd" d="M46 67L30 60.0717V49.3052L46 40V67Z" fill="#6F95DB"/>
<path d="M67 76.9053C67 79.0871 74.513 82 74.513 82C74.513 82 82 79.0871 82 76.9053V74H67V76.9053Z" fill="#2C3F5D"/>
<path d="M66 74.0478C66 76.8037 69.809 79 74.5134 79C79.1909 79 83 76.8037 83 74.0478V66L66 66.3586V74.0478Z" fill="#85A8D8"/>
<path d="M66 65.9987C66 63.2296 69.809 61 74.5134 61C79.1909 61 83 63.2296 83 65.9987C83 68.7821 79.1909 71 74.5134 71C69.809 71 66 68.7821 66 65.9987Z" fill="#FCF9C5"/>
<path fill-rule="evenodd" clip-rule="evenodd" d="M54 42.1392C54 32.5911 63.2092 23.7918 74.4994 23.0417C87.1809 22.2014 95 34.2366 95 42.1392C95 47.2678 93.7762 50.097 91.6753 53.7618C88.0159 60.1447 81.9209 69 74.4994 69C67.0791 69 63.3151 61.8133 59.5751 57.0905C56.1193 52.7251 54 48.7004 54 42.1392Z" fill="url(#paint2_radial_1935_2046)"/>
<path d="M74.5134 77C77.8793 77 80.7933 76.0528 82.5371 74.5814C82.8349 74.0927 83 73.5712 83 73.0238V70.0012C82.0277 72.0463 78.5975 73.5649 74.5134 73.5649C70.4185 73.5649 66.9757 72.0463 66 70V73.0238C66 73.567 66.1663 74.0861 66.4595 74.5728C68.2076 76.0474 71.1358 77 74.5134 77Z" fill="#2C3F5D"/>
<defs>
<linearGradient id="paint0_linear_1935_2046" x1="3.50014" y1="28.5064" x2="3.50014" y2="100.961" gradientUnits="userSpaceOnUse">
<stop stop-color="#4D71A7"/>
<stop offset="0.839216" stop-color="#85A8D8"/>
<stop offset="1" stop-color="#85A8D8"/>
</linearGradient>
<linearGradient id="paint1_linear_1935_2046" x1="28" y1="4" x2="28" y2="100" gradientUnits="userSpaceOnUse">
<stop stop-color="white"/>
<stop offset="1" stop-color="white" stop-opacity="0"/>
</linearGradient>
<radialGradient id="paint2_radial_1935_2046" cx="0" cy="0" r="1" gradientUnits="userSpaceOnUse" gradientTransform="translate(83.9372 40.9479) rotate(57.0095) scale(22.0779 22.067)">
<stop stop-color="#FFF5A3"/>
<stop offset="1" stop-color="#FFE000"/>
</radialGradient>
</defs>
</svg>
