<svg width="117" height="114" viewBox="0 0 117 114" fill="none" xmlns="http://www.w3.org/2000/svg">
<path fill-rule="evenodd" clip-rule="evenodd" d="M70 33.5261C70 33.5261 54.3278 61.9284 35 72.9598C15.6714 83.9909 0 73.4759 0 73.4759C0 73.4759 15.6714 45.0713 35 34.0402C54.3278 23.0079 70 33.5261 70 33.5261Z" fill="#D7F0F7"/>
<path d="M20 62.247C20 53.8798 26.9376 43.18 35.5 38.3479C44.0612 33.5149 51 36.3828 51 44.7512C51 53.1196 44.0612 63.8225 35.5 68.6525C26.9376 73.4855 20 70.6163 20 62.247Z" fill="#FEFEFE"/>
<path fill-rule="evenodd" clip-rule="evenodd" d="M26 58.7489C26 53.7271 30.2529 47.3067 35.5 44.4065C40.745 41.5108 45 43.229 45 48.2496C45 53.2714 40.745 59.694 35.5 62.5918C30.2529 65.4916 26 63.7686 26 58.7489Z" fill="#446AB1"/>
<path d="M69 21.0849L63.9723 24V7.9609L48 17.2216V12.1735L69 0V21.0849Z" fill="#446AB1"/>
<path d="M6.0272 57.1086L1 60V39.0794L22 27V32.0085L6.0272 41.1966V57.1086Z" fill="#446AB1"/>
<path d="M22 94.8254L1 107V85.9129L6.02772 83V99.0367L22 89.7752V94.8254Z" fill="#446AB1"/>
<path d="M69 67.9207L48 80V74.9916L63.9723 65.8036V49.8926L69 47V67.9207Z" fill="#446AB1"/>
<path fill-rule="evenodd" clip-rule="evenodd" d="M26.4241 114C26.4241 114 30.1469 105.29 49.7925 94.5203C69.4393 83.7516 97.576 75 97.576 75C97.576 75 93.854 83.7106 74.2075 94.4802C54.5586 105.247 26.4241 114 26.4241 114ZM7 113.261L28.0559 101.72L31.1289 101.714L15.1153 110.492L24.8854 110.476L19.8432 113.238L7 113.261ZM35.8317 113.212L40.8739 110.449L50.6431 110.431L66.6555 101.654L69.7307 101.651L48.6779 113.19L35.8317 113.212ZM54.2662 87.3526L75.3222 75.8106L88.1662 75.7879L83.1227 78.5526L73.356 78.5676L57.3414 87.3461L54.2662 87.3526ZM92.8689 87.2868L108.884 78.5095L99.1147 78.5257L104.153 75.7631L117 75.7405L95.9441 87.2813L92.8689 87.2868Z" fill="black" fill-opacity="0.14902"/>
</svg>
