<svg width="145" height="181" viewBox="0 0 145 181" fill="none" xmlns="http://www.w3.org/2000/svg">
<path d="M17 175.443V83C17 80.2386 19.2386 78 22 78H122C124.761 78 127 80.2386 127 83V175.38C127 179.22 122.851 181.627 119.518 179.72L77.3357 155.594C74.2793 153.846 70.5288 153.834 67.4613 155.563L24.4548 179.799C21.1217 181.677 17 179.269 17 175.443Z" fill="#FFD15C"/>
<path d="M145 72.5C145 112.541 112.541 145 72.5 145C32.4594 145 0 112.541 0 72.5C0 32.4594 32.4594 0 72.5 0C112.541 0 145 32.4594 145 72.5Z" fill="#FFD15C"/>
<circle cx="73" cy="73" r="50" fill="#F7B64C"/>
<path d="M80.56 98H67.2V61.04H61.44V52.64L69.6 48.32H80.56V98Z" fill="#FFD15C"/>
</svg>
