<svg width="46" height="44" viewBox="0 0 46 44" fill="none" xmlns="http://www.w3.org/2000/svg">
<path fill-rule="evenodd" clip-rule="evenodd" d="M40.5449 18.7414C39.562 18.4997 38.7295 17.7023 38.7295 16.6901V8.78712C38.7295 7.77493 37.909 6.95438 36.8968 6.95438H28.4681C27.4559 6.95438 26.6604 6.11848 26.3865 5.14405C25.5536 2.18105 22.7255 0 19.3648 0C16.0041 0 13.176 2.18105 12.3431 5.14405C12.0692 6.11848 11.2737 6.95438 10.2615 6.95438H1.83274C0.820547 6.95438 0 7.77493 0 8.78712V16.69C0 17.7022 0.832454 18.4996 1.81537 18.7412C4.95234 19.5125 7.27052 22.2359 7.27052 25.4771C7.27052 28.7183 4.95234 31.4417 1.81537 32.213C0.832453 32.4546 0 33.2521 0 34.2643V42.1673C0 43.1795 0.820549 44 1.83274 44L10.2614 44C11.2736 44 12.069 43.164 12.3429 42.1896C13.1758 39.2266 16.004 37.0455 19.3647 37.0455C22.7254 37.0455 25.5535 39.2266 26.3864 42.1897C26.6603 43.1641 27.4557 44 28.4679 44H36.8968C37.909 44 38.7295 43.1795 38.7295 42.1673V34.2643C38.7295 33.2522 39.562 32.4547 40.5449 32.2131C43.6819 31.4418 46 28.7185 46 25.4772C46 22.236 43.6819 19.5127 40.5449 18.7414ZM23.988 33.3588C23.0168 33.678 21.978 33.8509 20.9026 33.8509C18.2854 33.8509 15.9057 32.8659 14.183 31.2627C12.4677 29.6665 11.404 27.4587 11.404 25.0003C11.404 22.5302 12.4673 20.311 14.1819 18.7064C15.9053 17.0938 18.2853 16.1025 20.9026 16.1025C21.9818 16.1025 23.0372 16.277 24.0219 16.5993C25.024 16.9271 25.9536 17.4098 26.7611 18.0183L26.7857 18.0363C27.1892 18.3295 27.4225 18.7523 27.4817 19.1961C27.5399 19.6332 27.4284 20.0928 27.1435 20.4692C27.1404 20.4733 27.1377 20.4776 27.1349 20.4818C27.1279 20.4921 27.116 20.5064 27.109 20.5149C27.1086 20.5153 27.1081 20.5155 27.1076 20.5155C27.107 20.5155 27.1065 20.5158 27.1061 20.5162C26.7989 20.8833 26.3528 21.1046 25.8854 21.1576C25.4204 21.2104 24.93 21.0978 24.5297 20.7979C24.5258 20.7949 24.5194 20.7912 24.5154 20.7883C24.0101 20.4183 23.4329 20.1174 22.8058 19.9124C22.212 19.7183 21.5714 19.6099 20.9026 19.6099C20.0856 19.6099 19.3209 19.7538 18.6337 20.0203C17.9304 20.2931 17.3063 20.6941 16.7882 21.2006L16.7797 21.2087C16.2358 21.7069 15.8032 22.2951 15.5094 22.9474C15.2252 23.5783 15.0708 24.2704 15.0708 25.0003C15.0708 25.7099 15.2254 26.3913 15.51 27.0157C15.8035 27.6596 16.2358 28.2463 16.7797 28.7444L16.7899 28.7525C17.3086 29.2598 17.9323 29.6609 18.6336 29.9329C19.321 30.1996 20.0856 30.3435 20.9026 30.3435C21.4563 30.3435 21.9915 30.2677 22.4983 30.1333C22.6467 30.0939 22.7929 30.0496 22.9366 30.0008C23.5033 29.8081 23.8354 29.245 23.8354 28.6464C23.8354 27.7699 23.1248 27.0593 22.2482 27.0593H20.7552C20.2563 27.0593 19.7984 26.86 19.4655 26.542C19.4651 26.5416 19.4646 26.5414 19.4641 26.5414C19.4636 26.5414 19.463 26.5412 19.4627 26.5408C19.1301 26.2225 18.9218 25.7839 18.9218 25.3056C18.9218 24.8182 19.1277 24.3897 19.4573 24.08C19.7924 23.765 20.2542 23.5755 20.7552 23.5755H25.6444C26.1552 23.5755 26.6204 23.7629 26.9577 24.0743C27.2942 24.3851 27.5022 24.8159 27.5022 25.3056V30.4993C27.5022 30.6568 27.4749 30.7588 27.4469 30.8637C27.4366 30.9023 27.4259 30.9421 27.4217 30.9666L27.4212 30.9699C27.4143 31.0094 27.4013 31.0476 27.3828 31.0831C27.3794 31.0896 27.381 31.0848 27.3805 31.0864C27.3798 31.0885 27.3794 31.0906 27.3794 31.0928V31.0953C27.3794 31.0991 27.3788 31.1029 27.3775 31.1065L27.3557 31.1691C27.3031 31.3201 27.225 31.4616 27.1174 31.5933C27.0188 31.714 26.8956 31.8261 26.7448 31.9293C26.7446 31.9295 26.7445 31.9298 26.7447 31.9301C26.7449 31.9303 26.7449 31.9306 26.7446 31.9308C25.9211 32.5434 24.9908 33.0293 23.988 33.3588Z" fill="white"/>
</svg>
