<svg width="64" height="63" viewBox="0 0 64 63" fill="none" xmlns="http://www.w3.org/2000/svg">
<path opacity="0.55" fill-rule="evenodd" clip-rule="evenodd" d="M45.0482 1.6781L35.5468 5.48338C36.4812 5.89683 37.4156 6.31066 38.3426 6.73602C39.2791 7.1658 40.1926 7.60075 41.0592 8.04576C41.9281 8.49187 42.7484 8.94715 43.5347 9.4216C44.3219 9.89657 45.0782 10.3926 45.8182 10.9198C46.5453 11.4378 47.2551 11.9848 47.9428 12.5528C48.6533 13.1396 49.3435 13.7518 50.0077 14.3802C50.6602 14.9976 51.2848 15.628 51.8917 16.2894C52.5007 16.953 53.0935 17.6491 53.6806 18.3956C54.2634 19.1369 54.842 19.9296 55.3972 20.7437C55.9598 21.5687 56.4978 22.4147 56.9914 23.2504C57.4825 24.0816 57.9299 24.9029 58.3349 25.7168C58.7397 26.5304 59.103 27.3386 59.426 28.1442C59.7487 28.949 60.0308 29.7504 60.2622 30.5822C60.4937 31.4142 60.6748 32.2767 60.7953 33.2033C60.9016 34.0204 60.961 34.8874 60.9891 35.7343C61.0249 36.806 61.0106 37.8459 60.9788 38.7118C60.9503 39.4898 60.9077 40.125 60.8653 40.6271C60.8229 41.1298 60.7801 41.5037 60.7517 41.7528L60.7341 41.9074C60.883 42.3754 61.0236 42.8506 61.1556 43.3333C62.072 38.1406 61.694 31.6567 60.0217 23.8815C57.9245 15.0174 52.9333 7.61628 45.0482 1.6781ZM35.4602 5.51804L14.482 13.9197C15.342 13.9983 16.2039 14.0779 17.0823 14.1654C18.0766 14.2646 19.0974 14.3745 20.1708 14.5056C21.2364 14.6358 22.3633 14.7881 23.5301 14.9585C24.7167 15.1318 25.945 15.324 27.1927 15.5312C28.428 15.7363 29.679 15.9556 30.9462 16.2053C32.2163 16.4556 33.5068 16.7373 34.8208 17.0671C36.1306 17.3958 37.4636 17.7725 38.7419 18.1721C40.0263 18.5735 41.2568 18.9987 42.3547 19.4222C43.4503 19.8449 44.4114 20.2649 45.2933 20.6956C46.1755 21.1265 46.9812 21.5695 47.7653 22.0374C48.5682 22.5166 49.3476 23.0218 50.0811 23.5452C50.779 24.0431 51.4351 24.5571 52.03 25.0801C52.6415 25.6178 53.1897 26.1659 53.6835 26.7192C54.1769 27.2722 54.6163 27.8307 55.0107 28.3893C55.3844 28.9188 55.7178 29.4487 56.0096 29.9612C56.3331 30.5292 56.6056 31.0753 56.8255 31.5756C57.0352 32.0525 57.1977 32.4885 57.3293 32.9092C57.4608 33.3294 57.5616 33.7346 57.6479 34.15C57.7319 34.5539 57.8023 34.9675 57.8599 35.3828L57.8668 35.4334C58.9823 37.3211 59.9049 39.3764 60.6347 41.5996C60.6617 41.3597 60.6968 41.0339 60.7321 40.6162C60.7747 40.1114 60.8173 39.4766 60.8456 38.7071C60.8773 37.8436 60.8914 36.8067 60.8559 35.7385C60.8279 34.8957 60.7688 34.033 60.6631 33.2206C60.5435 32.3005 60.3636 31.444 60.1337 30.6177C59.9038 29.7913 59.6233 28.9945 59.3022 28.1938C58.9815 27.3939 58.6195 26.5889 58.2152 25.7763C57.8111 24.9641 57.3652 24.1457 56.8765 23.3183C56.3838 22.4842 55.8473 21.6406 55.287 20.8189C54.7345 20.0088 54.1577 19.2186 53.5755 18.4782C52.9897 17.7332 52.3993 17.0398 51.7936 16.3798C51.1859 15.7175 50.5637 15.0894 49.9162 14.4768C49.2581 13.8541 48.5701 13.2441 47.8577 12.6557C47.1708 12.0883 46.4635 11.5432 45.7409 11.0284C45.0057 10.5046 44.2521 10.0105 43.4657 9.53599C42.6785 9.06106 41.8611 8.60721 40.9987 8.16436C40.1342 7.72047 39.2224 7.28631 38.2872 6.85716C37.362 6.43259 36.3975 6.00581 35.4333 5.57913L35.4602 5.51804ZM14.2099 14.0287L5.5155 17.5107C15.7988 16.8875 26.1145 17.9596 36.0498 20.684C40.8974 21.9816 45.3296 23.9005 49.3463 26.4407C52.7952 28.7588 55.5761 31.6578 57.6893 35.1373C57.64 34.8136 57.5828 34.4922 57.5173 34.1772C57.4319 33.7663 57.3321 33.3653 57.2018 32.949C57.0717 32.533 56.9109 32.1016 56.7033 31.6294C56.4847 31.1322 56.2143 30.59 55.8937 30.0271C55.6041 29.5187 55.2731 28.9925 54.9015 28.4661C54.5105 27.9121 54.0742 27.3576 53.5837 26.8081C53.0937 26.2589 52.5494 25.7146 51.9418 25.1804C51.3489 24.6592 50.6966 24.148 50.0037 23.6538C49.2732 23.1325 48.4968 22.6292 47.6968 22.1518C46.9181 21.687 46.1159 21.2461 45.2348 20.8158C44.3535 20.3853 43.3956 19.9666 42.3066 19.5465C41.2139 19.125 39.9861 18.7008 38.7022 18.2995C37.4265 17.9008 36.0961 17.5248 34.7885 17.1966C33.4779 16.8677 32.1894 16.5865 30.9206 16.3365C29.649 16.0859 28.4009 15.867 27.1713 15.6629C25.9288 15.4566 24.7014 15.2644 23.5112 15.0907C22.35 14.9211 21.2242 14.769 20.1546 14.6384C19.0706 14.506 18.0532 14.3963 17.0693 14.2982C16.091 14.2006 15.1501 14.1145 14.2099 14.0287Z" fill="#B0B0B0"/>
<path d="M16.1028 7.85924C16.1028 7.85924 8.07588 14.2071 6.55446 15.7287C5.033 17.2501 6.34463 17.6172 6.34463 17.6172C6.34463 17.6172 22.1359 11.7939 23.5525 10.9546C24.9689 10.1151 16.1028 7.85924 16.1028 7.85924Z" fill="white"/>
<path d="M14.5538 14.549C14.6183 14.5244 14.683 14.5001 14.7477 14.4755C14.683 14.5001 14.6183 14.5246 14.5538 14.549Z" fill="#FCF1F4"/>
<path d="M6.34456 17.6172C6.34224 17.6166 5.76193 17.452 5.82498 16.8927C6.48582 16.6427 7.11448 16.2567 7.67573 15.7307C7.72903 15.6792 7.78565 15.6313 7.84022 15.5813C8.09029 15.4253 8.33078 15.2234 8.57596 15.0735C9.23285 14.6718 9.91741 14.3175 10.6088 13.9793C11.0772 13.7502 11.5503 13.5306 12.0237 13.3113C12.7706 13.48 13.561 13.6142 14.1088 13.6142C14.4563 13.6142 14.7062 13.5601 14.7848 13.4265C14.7855 13.4254 14.7863 13.4243 14.7868 13.4232C14.7872 13.4225 14.7875 13.4219 14.7879 13.4214C14.9091 13.1997 14.5559 12.795 14.0285 12.3533C14.1736 12.2795 14.3181 12.2045 14.4617 12.1279C14.8604 11.9155 15.2547 11.6909 15.644 11.4557C15.9663 11.5018 16.2655 11.5295 16.5144 11.5295C16.6555 11.5295 16.7804 11.5205 16.8844 11.501C17.0388 11.472 17.1467 11.4196 17.1925 11.3383C17.2671 11.2052 17.1689 11.0055 16.9638 10.771C17.0481 10.7972 17.1321 10.8232 17.2174 10.8496C17.2298 10.8535 17.2432 10.8576 17.2557 10.8613C17.2575 10.8618 17.2592 10.8624 17.261 10.863C18.599 11.2758 19.882 11.6606 21.1082 12.0142C19.4076 12.6974 17.0661 13.5971 14.7476 14.4756C14.683 14.5001 14.6183 14.5245 14.5538 14.549C10.3802 16.1291 6.34456 17.6172 6.34456 17.6172Z" fill="#EAEAEA"/>
<path d="M11.234 10.4562C11.7214 10.7297 15.1352 12.8024 14.7868 13.4232C14.4385 14.0438 10.4596 12.9776 9.97241 12.7039C9.485 12.4304 9.37245 11.7056 9.72081 11.0848C10.0692 10.464 10.7466 10.1827 11.234 10.4562Z" fill="#2F97F9"/>
<path d="M9.7409 11.0499C10.001 10.6117 10.4267 10.352 10.824 10.3516C10.4269 10.3522 10.001 10.6117 9.7409 11.0499Z" fill="#6D68C4"/>
<path d="M14.11 13.6138C13.8775 13.6138 13.6014 13.5897 13.3036 13.5492C12.8121 12.9347 12.1928 12.4315 11.478 12.0887C11.4804 12.0843 11.4831 12.0798 11.4856 12.0753C11.834 11.4546 11.7214 10.7297 11.234 10.4562C11.7209 10.7294 15.1286 12.7983 14.788 13.4214C14.7876 13.4219 14.7872 13.4225 14.7869 13.4232C14.7863 13.4243 14.7855 13.4254 14.7848 13.4265C14.7062 13.5599 14.4569 13.6138 14.11 13.6138Z" fill="#5CA7FF"/>
<path d="M11.234 10.4562C11.7214 10.7297 11.834 11.4546 11.4856 12.0753C11.1372 12.6961 10.4596 12.9776 9.97241 12.7039C9.485 12.4304 9.37245 11.7056 9.72081 11.0848C10.0692 10.464 10.7466 10.1827 11.234 10.4562Z" fill="white"/>
<path d="M10.2934 12.3269C10.2224 12.3269 10.1548 12.3107 10.0936 12.2765C9.81955 12.1227 9.78521 11.6634 10.0167 11.2509C10.1968 10.93 10.4846 10.7319 10.7326 10.7319C10.8036 10.7319 10.8713 10.7481 10.9323 10.7823C11.2064 10.9362 11.2408 11.3954 11.0093 11.8079C10.8292 12.1288 10.5414 12.3269 10.2934 12.3269Z" fill="#B1BFCF"/>
<path d="M13.6395 8.37139C14.1268 8.64485 17.5409 10.7176 17.1925 11.3382C16.8441 11.9589 12.8652 10.8926 12.3778 10.6191C11.8907 10.3456 11.7779 9.62072 12.1263 8.99995C12.4746 8.37919 13.1523 8.09788 13.6395 8.37139Z" fill="#2F97F9"/>
<path d="M16.8844 11.501C17.0386 11.472 17.1467 11.4196 17.1925 11.3383C17.1467 11.4196 17.0388 11.472 16.8844 11.501Z" fill="#EEBCCA"/>
<path d="M16.5146 11.5295C16.1189 11.5295 15.5964 11.4594 15.0551 11.3568C14.6729 10.9155 14.222 10.5382 13.7151 10.2448C13.7799 10.1681 13.8392 10.0831 13.8911 9.99061C13.9258 9.92872 13.9559 9.86594 13.9815 9.80237C14.9195 10.121 15.9136 10.4445 16.9638 10.771C17.1689 11.0054 17.2671 11.2052 17.1924 11.3383C17.1467 11.4196 17.0386 11.472 16.8844 11.501C16.7804 11.5205 16.6555 11.5295 16.5146 11.5295Z" fill="#5CA7FF"/>
<path d="M13.6395 8.37139C14.1268 8.64485 14.2395 9.36969 13.8911 9.99051C13.5427 10.6113 12.8652 10.8926 12.3778 10.6191C11.8907 10.3456 11.7779 9.62072 12.1263 8.99995C12.4746 8.37919 13.1523 8.09788 13.6395 8.37139Z" fill="white"/>
<path d="M12.699 10.2422C12.628 10.2422 12.5602 10.226 12.4993 10.1916C12.2425 10.0474 12.196 9.63514 12.3819 9.24438C12.7337 9.37037 13.095 9.49762 13.4645 9.62529C13.4497 9.65816 13.4331 9.69071 13.4149 9.72321C13.2349 10.0439 12.9469 10.2422 12.699 10.2422Z" fill="#B1BFCF"/>
<path d="M30.229 13.6835C27.9207 16.3225 29.1797 16.9521 29.1797 16.9521L33.3069 14.1542L30.229 13.6835Z" fill="#F8E1E8"/>
<path d="M37.5388 9.96735C36.5245 9.85216 30.8634 10.3068 30.8259 10.8665C30.7885 11.4259 36.1746 12.4053 36.1746 12.4053C36.1746 12.4053 39.8471 11.0062 39.7072 10.7615C39.5673 10.5166 37.5388 9.96735 37.5388 9.96735Z" fill="#F8E1E8"/>
<path d="M36.4332 12.3055C35.5712 11.8603 34.1599 11.1605 32.4657 10.3415C32.954 10.2637 33.5098 10.1945 34.072 10.1367C34.8188 10.5641 35.6848 10.8107 36.6294 10.8107C37.3635 10.8107 38.0889 10.6381 38.757 10.3334C39.1281 10.4569 39.4786 10.5894 39.6328 10.6927C39.6328 10.6927 39.6328 10.6927 39.6329 10.6927C39.6331 10.6929 39.6335 10.693 39.6337 10.6933C39.6339 10.6934 39.6339 10.6934 39.6341 10.6936C39.6343 10.6938 39.6346 10.6938 39.6348 10.694C39.635 10.6942 39.6352 10.6942 39.6352 10.6944C39.6356 10.6946 39.6357 10.6947 39.6361 10.6949L39.6363 10.6951C39.6367 10.6953 39.6369 10.6955 39.6373 10.6957C39.6373 10.6957 39.6374 10.6958 39.6376 10.6961C39.6378 10.6961 39.638 10.6962 39.6381 10.6964C39.6391 10.6969 39.6398 10.6975 39.6406 10.6981C39.6406 10.6981 39.6406 10.6981 39.6408 10.6981C39.6412 10.6983 39.6413 10.6985 39.6417 10.6988C39.6419 10.6988 39.6419 10.6988 39.642 10.699C39.6423 10.6992 39.6426 10.6994 39.643 10.6996C39.643 10.6997 39.643 10.6997 39.6431 10.6997C39.6434 10.6999 39.6437 10.7003 39.6441 10.7005C39.6441 10.7005 39.6443 10.7005 39.6443 10.7007C39.6447 10.7008 39.6448 10.701 39.6452 10.7013C39.6454 10.7013 39.6454 10.7014 39.6454 10.7014C39.6677 10.7172 39.6852 10.7324 39.6971 10.7468C39.6972 10.7469 39.6975 10.7471 39.6976 10.7475C39.6978 10.7477 39.698 10.7479 39.6982 10.7482C39.6993 10.7496 39.7002 10.7507 39.7011 10.752C39.7013 10.7521 39.7013 10.7524 39.7015 10.7525C39.7017 10.7527 39.7017 10.7527 39.7017 10.7527C39.7019 10.7529 39.7019 10.7531 39.7021 10.7533C39.7021 10.7535 39.7021 10.7535 39.7022 10.7535C39.7022 10.7536 39.7025 10.7538 39.7026 10.754V10.7542C39.7028 10.7544 39.703 10.7546 39.7032 10.7548V10.7549C39.7034 10.7551 39.7036 10.7553 39.7038 10.7557C39.7039 10.756 39.7043 10.7566 39.7047 10.757C39.7047 10.7571 39.7047 10.7572 39.7047 10.7572C39.7049 10.7574 39.705 10.7575 39.705 10.7577L39.7053 10.7579C39.7053 10.7581 39.7054 10.7583 39.7056 10.7585C39.7056 10.7585 39.7056 10.7585 39.7056 10.7587C39.7058 10.7588 39.7058 10.759 39.706 10.759C39.706 10.7592 39.706 10.7592 39.7061 10.7594C39.7061 10.7596 39.7064 10.7596 39.7064 10.7598L39.7065 10.7599C39.7065 10.7601 39.7067 10.7603 39.7067 10.7605C39.7069 10.7605 39.7069 10.7607 39.7069 10.7607C39.7071 10.7609 39.7071 10.7613 39.7073 10.7615C39.7099 10.7659 39.7112 10.7709 39.7112 10.7761C39.7121 11.0112 37.2483 11.9885 36.4332 12.3055Z" fill="#F1C7D3"/>
<path d="M36.4584 13.9449C33.8702 15.4137 26.9827 13.8633 17.2174 10.8496C6.22457 7.4569 1.4131 4.41433 0.433759 2.95386C-0.54558 1.49359 -0.195793 -0.60487 4.98058 0.164528C10.1569 0.933979 19.2505 4.36156 24.9165 6.94985C30.5825 9.53793 36.6178 12.5108 36.8529 12.7382C37.0879 12.9655 36.4584 13.9449 36.4584 13.9449Z" fill="white"/>
<path d="M10.5766 2.22815C10.5766 2.44067 10.4044 2.61274 10.1918 2.61274C9.97948 2.61274 9.80725 2.44067 9.80725 2.22815C9.80725 2.01557 9.97948 1.84334 10.1918 1.84334C10.4044 1.84334 10.5766 2.01557 10.5766 2.22815Z" fill="#757475"/>
<path d="M12.3088 2.83279C12.3088 3.04536 12.1366 3.21759 11.924 3.21759C11.7117 3.21759 11.5394 3.04536 11.5394 2.83279C11.5394 2.62042 11.7117 2.4482 11.924 2.4482C12.1366 2.4482 12.3088 2.62042 12.3088 2.83279Z" fill="#757475"/>
<path d="M14.0894 3.46224C14.0894 3.6746 13.9172 3.84689 13.7046 3.84689C13.4922 3.84689 13.3199 3.6746 13.3199 3.46224C13.3199 3.24966 13.4922 3.07744 13.7046 3.07744C13.9172 3.07744 14.0894 3.24966 14.0894 3.46224Z" fill="#757475"/>
<path d="M15.8215 4.06686C15.8215 4.27922 15.6492 4.45145 15.4368 4.45145C15.2243 4.45145 15.052 4.27922 15.052 4.06686C15.052 3.85429 15.2243 3.68205 15.4368 3.68205C15.6492 3.68205 15.8215 3.85429 15.8215 4.06686Z" fill="#757475"/>
<path d="M17.6583 4.73796C17.6583 4.95053 17.4861 5.12277 17.2735 5.12277C17.0611 5.12277 16.8889 4.95053 16.8889 4.73796C16.8889 4.5256 17.0611 4.35332 17.2735 4.35332C17.4861 4.35332 17.6583 4.5256 17.6583 4.73796Z" fill="#757475"/>
<path d="M19.3904 5.34252C19.3904 5.5551 19.2181 5.72733 19.0056 5.72733C18.7932 5.72733 18.621 5.5551 18.621 5.34252C18.621 5.13016 18.7932 4.95793 19.0056 4.95793C19.2181 4.95793 19.3904 5.13016 19.3904 5.34252Z" fill="#757475"/>
<path d="M28.3511 9.44464C28.3511 9.65701 28.1789 9.82929 27.9663 9.82929C27.7539 9.82929 27.5817 9.65701 27.5817 9.44464C27.5817 9.23207 27.7539 9.05984 27.9663 9.05984C28.1789 9.05984 28.3511 9.23207 28.3511 9.44464Z" fill="#757475"/>
<path d="M30.3822 10.2617C30.3822 10.4741 30.21 10.6463 29.9974 10.6463C29.785 10.6463 29.6128 10.4741 29.6128 10.2617C29.6128 10.0492 29.785 9.87694 29.9974 9.87694C30.21 9.87694 30.3822 10.0492 30.3822 10.2617Z" fill="#989DE6"/>
<path d="M10.5766 2.22811H10.5069C10.5066 2.40203 10.3657 2.54286 10.1918 2.54302C10.0179 2.54286 9.87707 2.40203 9.87691 2.22811C9.87707 2.0542 10.0179 1.91336 10.1918 1.91299C10.3657 1.91336 10.5066 2.0542 10.5069 2.22811H10.6463C10.6461 1.97709 10.4428 1.77362 10.1918 1.77362C9.9408 1.77362 9.73755 1.97709 9.73755 2.22811C9.73755 2.47914 9.9408 2.68239 10.1918 2.68239C10.4428 2.68239 10.6461 2.47914 10.6463 2.22811H10.5766Z" fill="#C3C6C8"/>
<path d="M12.3088 2.83263H12.2391C12.2388 3.00655 12.0979 3.14739 11.924 3.14776C11.7501 3.14739 11.6093 3.00655 11.6091 2.83263C11.6093 2.65872 11.7501 2.51787 11.924 2.51766C12.0979 2.51787 12.2388 2.65872 12.2391 2.83263H12.3785C12.3783 2.58161 12.175 2.37836 11.924 2.37836C11.673 2.37836 11.4697 2.58161 11.4697 2.83263C11.4697 3.08366 11.673 3.28711 11.924 3.28711C12.175 3.28711 12.3783 3.08366 12.3785 2.83263H12.3088Z" fill="#C3C6C8"/>
<path d="M14.0894 3.4622H14.0197C14.0193 3.63612 13.8786 3.77696 13.7046 3.77717C13.5307 3.77696 13.39 3.63612 13.3896 3.4622C13.39 3.28813 13.5307 3.14745 13.7046 3.14708C13.8786 3.14745 14.0193 3.28813 14.0197 3.4622H14.1591C14.1591 3.21118 13.9556 3.00772 13.7046 3.00772C13.4537 3.00772 13.2502 3.21118 13.2502 3.4622C13.2502 3.71307 13.4537 3.91653 13.7046 3.91653C13.9556 3.91653 14.1591 3.71307 14.1591 3.4622H14.0894Z" fill="#C3C6C8"/>
<path d="M15.8214 4.06683H15.7517C15.7514 4.24074 15.6107 4.38158 15.4368 4.38173C15.2627 4.38158 15.122 4.24074 15.1217 4.06683C15.122 3.89291 15.2627 3.75207 15.4368 3.75165C15.6107 3.75207 15.7514 3.89291 15.7517 4.06683H15.8911C15.8911 3.8158 15.6877 3.61234 15.4368 3.61234C15.1858 3.61234 14.9823 3.8158 14.9823 4.06683C14.9823 4.31785 15.1858 4.5211 15.4368 4.5211C15.6877 4.5211 15.8911 4.31785 15.8911 4.06683H15.8214Z" fill="#C3C6C8"/>
<path d="M17.6583 4.73793H17.5886C17.5882 4.91184 17.4476 5.05268 17.2735 5.05305C17.0996 5.05268 16.9587 4.91184 16.9586 4.73793C16.9587 4.56401 17.0996 4.42317 17.2735 4.42296C17.4476 4.42317 17.5882 4.56401 17.5886 4.73793H17.728C17.728 4.4869 17.5245 4.2836 17.2735 4.2836C17.0227 4.2836 16.8192 4.4869 16.8192 4.73793C16.8192 4.98895 17.0227 5.1922 17.2735 5.19241C17.5245 5.1922 17.728 4.98895 17.728 4.73793H17.6583Z" fill="#C3C6C8"/>
<path d="M19.3903 5.34261H19.3207C19.3203 5.51674 19.1797 5.65737 19.0055 5.65773C18.8316 5.65737 18.691 5.51674 18.6906 5.34261C18.691 5.1687 18.8316 5.02786 19.0055 5.0277C19.1797 5.02786 19.3203 5.1687 19.3207 5.34261H19.46C19.46 5.0918 19.2566 4.88834 19.0055 4.88834C18.7547 4.88834 18.5513 5.0918 18.5513 5.34261C18.5513 5.59364 18.7547 5.7971 19.0055 5.7971C19.2566 5.7971 19.46 5.59364 19.46 5.34261H19.3903Z" fill="#C3C6C8"/>
<path d="M28.3512 9.44461H28.2815C28.2811 9.61852 28.1404 9.75937 27.9664 9.75958C27.7924 9.75937 27.6516 9.61852 27.6514 9.44461C27.6516 9.27069 27.7924 9.12985 27.9664 9.12949C28.1404 9.12985 28.2811 9.27069 28.2815 9.44461H28.4209C28.4209 9.19359 28.2174 8.99013 27.9664 8.99013C27.7153 8.99013 27.5121 9.19359 27.5121 9.44461C27.5121 9.69563 27.7153 9.89888 27.9664 9.89888C28.2174 9.89888 28.4209 9.69563 28.4209 9.44461H28.3512Z" fill="#C3C6C8"/>
<path d="M30.3822 10.2618H30.3125C30.3121 10.4357 30.1715 10.5764 29.9974 10.5767C29.8235 10.5764 29.6828 10.4357 29.6824 10.2618C29.6828 10.0877 29.8235 9.94707 29.9974 9.9467C30.1715 9.94707 30.3121 10.0877 30.3125 10.2618H30.4518C30.4518 10.0108 30.2484 9.80734 29.9974 9.80734C29.7466 9.80734 29.5431 10.0108 29.5431 10.2618C29.5431 10.5126 29.7466 10.7161 29.9974 10.7161C30.2484 10.7161 30.4518 10.5126 30.4518 10.2618H30.3822Z" fill="white"/>
<path d="M0.431878 2.95106C0.431524 2.95041 0.43123 2.95 0.430876 2.94958C0.431171 2.95 0.431524 2.95064 0.431878 2.95106ZM0.424975 2.94062C0.424798 2.94044 0.42462 2.94019 0.424561 2.94002C0.424738 2.94019 0.424798 2.94044 0.424975 2.94062Z" fill="#948BD1"/>
<path d="M33.5816 14.5057C30.0892 14.5055 24.4591 13.0831 17.2611 10.863C17.2592 10.8624 17.2575 10.8618 17.2557 10.8613C17.2432 10.8575 17.2298 10.8535 17.2174 10.8496C15.8755 10.4354 14.6265 10.0266 13.4645 9.62528C13.0949 9.49761 12.7337 9.37036 12.3818 9.24437C4.77552 6.51877 1.25551 4.17929 0.433754 2.95388C0.432806 2.95256 0.431861 2.95109 0.431018 2.94983C0.430702 2.94946 0.430386 2.94888 0.430123 2.94851C0.429438 2.9474 0.428751 2.94646 0.428014 2.94535C0.427803 2.94498 0.427546 2.94461 0.427335 2.94424C0.42644 2.94292 0.425646 2.94182 0.424856 2.94051C0.424698 2.94035 0.424644 2.94013 0.424486 2.93997C0.166615 2.55106 0.00481649 2.11775 0.00170898 1.70603C0.111525 1.51595 0.40131 1.43083 0.834465 1.43083C3.19306 1.43083 9.78962 3.95355 14.5706 5.74211C20.2299 7.85922 29.7252 12.5129 34.7007 13.1589C35.4725 13.2591 36.1224 13.4029 36.6706 13.5739C36.5634 13.7806 36.4593 13.9431 36.4584 13.9449C35.7836 14.3279 34.8159 14.5057 33.5816 14.5057Z" fill="#77BEFF"/>
<path d="M0.347778 0.779762C3.271 0.0039908 6.41452 1.66845 7.28895 1.84332C8.16331 2.01813 8.42139 1.11068 6.0017 0.340279C5.64713 0.271914 5.30604 0.212823 4.98054 0.164525C2.31451 -0.231814 0.931094 0.133505 0.347778 0.779762Z" fill="#757475"/>
<path d="M18.726 6.02277C18.726 6.02277 35.2517 1.5636 39.7109 0.776558C44.1703 -0.0103262 45.8492 1.72083 45.8492 1.72083C45.8492 1.72083 29.6382 8.87547 27.015 9.49518C24.3919 10.115 18.726 6.02277 18.726 6.02277Z" fill="white"/>
<path d="M26.4149 9.48944C25.1485 9.48944 23.4123 8.74027 21.9201 7.93016C21.9095 7.92458 21.8981 7.92179 21.887 7.92179C21.8623 7.92179 21.8383 7.935 21.8257 7.95802C21.6408 7.85716 21.4598 7.75551 21.2837 7.65444C21.9476 7.5333 22.6086 7.4012 23.267 7.25883C24.7181 7.69699 27.1529 8.26683 28.5565 8.26683C29.0991 8.26683 29.4876 8.18176 29.6058 7.97103C29.786 7.65017 29.3165 7.07859 28.5833 6.44387C28.4281 6.30972 28.2611 6.17241 28.0859 6.03436C28.6624 5.86714 29.2364 5.6936 29.8094 5.51394C31.2426 5.89743 33.1151 6.28913 34.2788 6.28913C34.7702 6.28913 35.1357 6.21924 35.2879 6.04922L35.2881 6.04906C35.2883 6.0487 35.2886 6.04849 35.2888 6.04812C35.304 6.03105 35.3172 6.01262 35.328 5.99334C35.3542 5.94689 35.3667 5.89521 35.3667 5.83891C35.3669 5.43794 34.7374 4.79968 33.8998 4.12946C36.8786 3.052 39.8188 1.84945 42.7356 0.607346C44.6366 0.771938 45.5665 1.47281 45.7934 1.66959C45.7163 1.7034 45.4818 1.80674 45.1195 1.96575C43.5503 2.65472 39.5912 4.38533 35.7379 6.01151C33.8113 6.82462 31.9111 7.61171 30.3496 8.22895C28.789 8.84619 27.5634 9.29436 26.9991 9.4274C26.8207 9.46959 26.6262 9.48944 26.419 9.48944C26.4177 9.48944 26.4162 9.48944 26.4149 9.48944Z" fill="#EAEAEA"/>
<path d="M24.1073 3.37931C24.8615 3.80256 30.1448 7.01036 29.6057 7.97095C29.0666 8.93159 22.9088 7.28124 22.1546 6.85798C21.4006 6.43473 21.2261 5.31282 21.7653 4.35218C22.3046 3.39159 23.3531 2.95606 24.1073 3.37931Z" fill="#2F97F9"/>
<path d="M21.7357 4.40679C21.7361 4.40606 21.7366 4.40516 21.737 4.40443C21.7364 4.40516 21.7361 4.40606 21.7357 4.40679ZM21.7472 4.38547C21.748 4.38394 21.7487 4.38267 21.7494 4.3812C21.7487 4.38246 21.748 4.38394 21.7472 4.38547ZM21.7654 4.35218C22.1497 3.66747 22.7926 3.2496 23.4033 3.21916C22.7927 3.2496 22.1497 3.66769 21.7654 4.35218Z" fill="#6D68C4"/>
<path d="M28.5582 8.26602C28.2956 8.26602 27.9968 8.24616 27.6756 8.21087C26.9188 7.10718 25.7794 6.29781 24.4134 6.02319C24.4424 5.97858 24.4701 5.93249 24.4966 5.88509C25.0359 4.9245 24.8616 3.80258 24.1074 3.37933C24.3103 3.4932 24.8409 3.80854 25.4979 4.22752C26.2947 4.73573 27.2772 5.39626 28.0858 6.0343C28.2611 6.17235 28.4281 6.30966 28.5833 6.4438C29.3165 7.07853 29.7858 7.6501 29.6058 7.97097C29.4878 8.18133 29.0998 8.26602 28.5582 8.26602Z" fill="#5CA7FF"/>
<path d="M24.1073 3.37931C24.8615 3.80256 25.0357 4.92448 24.4965 5.88507C23.9573 6.84571 22.9088 7.28124 22.1546 6.85798C21.4006 6.43473 21.2261 5.31282 21.7653 4.35218C22.3046 3.39159 23.3531 2.95606 24.1073 3.37931Z" fill="white"/>
<path d="M22.6515 6.2747C22.5416 6.2747 22.437 6.24957 22.3426 6.19664C21.9184 5.95841 21.865 5.24789 22.2234 4.60928C22.502 4.11281 22.9475 3.80623 23.3314 3.80623C23.4412 3.80623 23.546 3.8313 23.6404 3.88429C24.0646 4.1223 24.118 4.83302 23.7595 5.47143C23.4808 5.9679 23.0352 6.2747 22.6515 6.2747Z" fill="#B1BFCF"/>
<path d="M29.8296 1.40172C30.5838 1.82497 35.8671 5.03255 35.3279 5.9932C34.7889 6.95378 28.6311 5.30365 27.8769 4.8804C27.1228 4.45693 26.9485 3.33522 27.4877 2.37442C28.0269 1.41394 29.0754 0.978257 29.8296 1.40172Z" fill="#2F97F9"/>
<path d="M35.2877 6.04914C35.2877 6.04914 35.2877 6.04899 35.2879 6.04899L35.2877 6.04914Z" fill="#EEBCCA"/>
<path d="M27.4005 2.54435C27.4012 2.54287 27.402 2.54119 27.4027 2.5395C27.402 2.54119 27.4012 2.54266 27.4005 2.54435ZM27.4876 2.37454C27.887 1.66324 28.5653 1.23978 29.1969 1.23978C28.5655 1.23978 27.887 1.66324 27.4876 2.37454Z" fill="#6D68C4"/>
<path d="M34.2796 6.28865C33.9827 6.28865 33.6396 6.26316 33.2694 6.21897C32.5126 5.16694 31.4007 4.39897 30.0758 4.13384C30.1266 4.0621 30.1744 3.98652 30.2188 3.90751C30.7569 2.94892 30.5845 1.82985 29.8346 1.40454C30.5694 1.81794 35.3669 4.73158 35.3665 5.8388C35.3665 5.8951 35.3541 5.94677 35.3279 5.99323C35.3171 6.0125 35.3039 6.03094 35.2887 6.04801C35.2883 6.04838 35.2882 6.04858 35.288 6.04895C35.2877 6.04895 35.2877 6.04911 35.2877 6.04911C35.1356 6.21897 34.7708 6.28865 34.2796 6.28865Z" fill="#5CA7FF"/>
<path d="M29.8296 1.40172C30.5838 1.82497 30.7581 2.94689 30.2188 3.90748C29.6797 4.86812 28.6311 5.30365 27.8769 4.8804C27.1228 4.45693 26.9485 3.33522 27.4877 2.37442C28.0269 1.41394 29.0754 0.978257 29.8296 1.40172Z" fill="white"/>
<path d="M28.3738 4.29688C28.2639 4.29688 28.1592 4.27181 28.0649 4.21882C27.6407 3.98081 27.5873 3.27009 27.9457 2.63168C28.2242 2.13521 28.6698 1.82841 29.0537 1.82841C29.1635 1.82841 29.2683 1.85354 29.3627 1.90647C29.7869 2.1447 29.8402 2.85536 29.4818 3.49382C29.2031 3.99029 28.7575 4.29688 28.3738 4.29688Z" fill="#B1BFCF"/>
<path d="M30.8262 12.2128C32.483 12.7371 35.1864 13.2282 35.1864 13.2282L40.879 11.5987C40.879 11.5987 40.6692 11.3648 39.7248 11.2598C38.7805 11.1548 30.8262 12.2128 30.8262 12.2128Z" fill="#F8E1E8"/>
<path opacity="0.21" d="M62.1798 42.3332C62.0509 41.7939 61.9083 41.2611 61.7537 40.7352C61.7756 40.5437 61.8053 40.2818 61.8367 39.9477C61.9611 40.7332 62.0756 41.5283 62.1798 42.3332ZM61.6558 40.4084C60.9072 37.9557 59.8938 35.659 58.7311 33.5772C58.705 33.4338 58.6773 33.2912 58.6479 33.1499C58.5616 32.7345 58.4608 32.3293 58.3293 31.9091C58.1977 31.4884 58.0352 31.0524 57.8255 30.5755C57.6055 30.0752 57.3331 29.529 57.0096 28.9611C56.7178 28.4486 56.3844 27.9187 56.0107 27.3892C55.6163 26.8306 55.1769 26.2721 54.6835 25.7191C54.1897 25.1658 53.6415 24.6177 53.03 24.08C52.4351 23.557 51.779 23.043 51.081 22.5451C50.3476 22.0217 49.5682 21.5165 48.7653 21.0373C47.9812 20.5694 47.1755 20.1264 46.2933 19.6955C45.4114 19.2648 44.4503 18.8448 43.3547 18.4221C42.2568 17.9986 41.0263 17.5734 39.7419 17.172C38.4636 16.7724 37.1306 16.3957 35.8208 16.0669C34.5068 15.7372 33.2163 15.4555 31.9462 15.2052C31.3583 15.0894 30.7739 14.9801 30.1929 14.8757L32.4541 13.3428C32.9149 13.3799 33.348 13.3991 33.7525 13.3991C34.9871 13.3991 35.9542 13.2213 36.6292 12.8383C36.6319 12.8338 37.2582 11.8583 37.0237 11.6317C36.9912 11.6001 36.8472 11.5159 36.6083 11.3871L40.5639 10.4228C51.153 16.311 57.1743 21.9592 59.5935 29.978C60.4754 32.9467 61.2014 36.0896 61.7491 39.4064C61.7434 39.4786 61.7377 39.5485 61.7321 39.6161C61.7054 39.9318 61.6789 40.1951 61.6558 40.4084ZM58.5245 33.2117C57.0137 30.5785 55.2691 28.3037 53.533 26.5116C47.8642 20.8029 38.7605 17.4656 28.8646 15.7761L29.4854 15.3554L30.0347 14.983C30.6579 15.0943 31.2863 15.2114 31.9206 15.3364C33.1894 15.5864 34.4778 15.8676 35.7885 16.1965C37.0961 16.5247 38.4265 16.9007 39.7022 17.2994C40.9861 17.7007 42.2139 18.1249 43.3066 18.5464C44.3956 18.9665 45.3535 19.3852 46.2348 19.8157C47.1159 20.246 47.9181 20.6869 48.6968 21.1517C49.4968 21.6291 50.2732 22.1324 51.0037 22.6537C51.6965 23.1479 52.3488 23.6591 52.9418 24.1803C53.5493 24.7145 54.0937 25.2588 54.5837 25.8079C55.0742 26.3575 55.5105 26.9119 55.9015 27.466C56.2731 27.9924 56.6041 28.5186 56.8937 29.0269C57.2143 29.5899 57.4847 30.1321 57.7033 30.6293C57.9109 31.1015 58.0717 31.5329 58.2018 31.9489C58.3321 32.3652 58.4319 32.7662 58.5173 33.177L58.5245 33.2117Z" fill="#7BA8FF" fill-opacity="0.47"/>
<path d="M40.3401 4.49685C40.3401 4.49664 40.3398 4.49664 40.3398 4.49648C40.3398 4.49648 40.3401 4.49664 40.3401 4.49685ZM40.2789 4.43834C40.2785 4.43813 40.2784 4.43791 40.278 4.43775C40.2784 4.43791 40.2788 4.43813 40.2789 4.43834ZM40.2754 4.43591C40.275 4.43554 40.2749 4.43533 40.2745 4.43517C40.2746 4.43533 40.275 4.4357 40.2754 4.43591Z" fill="#AA9FDC"/>
<path d="M34.7012 8.31214C35.9354 8.31214 36.9031 8.13433 37.5779 7.75137C36.9029 8.13433 35.9358 8.31214 34.7012 8.31214Z" fill="#C2B3E2"/>
<path d="M62.3695 35.5571C62.3695 49.7435 50.8693 61.2438 36.683 61.2438C22.5929 61.2438 11.1546 49.8985 11 35.8449L11.0922 34.6028H62.291L62.3643 35.1473C62.3665 35.2838 62.3695 35.4201 62.3695 35.5571Z" fill="#335A9A"/>
<path d="M15.446 34.6028C15.9918 35.0499 16.512 35.4273 16.7716 35.5571C17.0141 35.6783 17.2681 35.6632 17.495 35.648C17.8731 35.6227 18.1763 35.5974 18.2268 36.2039C18.3076 37.174 18.5501 38.5484 19.1969 38.8719C19.8438 39.1952 20.814 39.5996 20.4905 38.3868C20.1672 37.174 19.7629 37.9016 19.9245 36.5272C20.0708 35.2851 20.6128 34.7034 19.8806 34.6028H19.3727C18.5076 34.7298 18.6918 35.5507 18.473 34.6028H15.446Z" fill="#6FB4A8"/>
<path d="M55.9422 48.7758C57.1953 47.2396 56.4677 45.744 57.6805 43.3185C58.893 40.8931 59.9442 40.974 60.025 39.2357C60.1058 37.4975 59.6612 37.6995 59.6208 36.5677C59.5856 35.5847 60.9221 35.8209 60.9568 34.6028H42.5406C42.394 35.092 42.2736 35.5239 42.1981 35.9615C41.9959 37.1337 43.0874 39.4378 44.7448 40.5696C46.4022 41.7015 46.5638 41.378 47.1298 39.7612C47.6957 38.1443 48.4234 37.9826 50.0403 38.6293C51.6573 39.2761 51.738 39.8078 51.2936 41.2398C50.8487 42.6717 51.0509 43.3185 51.7785 44.2077C52.5061 45.0972 52.6275 45.0971 51.253 46.2694C49.8786 47.4417 50.2424 48.4523 50.4446 49.3821C50.6468 50.3119 50.1211 51.3627 49.8786 52.4139C49.6361 53.4648 51.1317 53.4245 52.102 52.1712C53.0721 50.9181 53.2337 50.6352 54.2443 50.0289C55.2549 49.4226 54.6892 50.3119 55.9422 48.7758Z" fill="#4A7A87"/>
<path d="M30.3001 41.0547C29.4217 40.5897 30.893 39.5457 29.5455 39.1683C28.1981 38.7911 27.1741 39.0066 26.3656 37.9826C25.557 36.9585 26.2038 36.5272 24.7485 36.8507C24.0521 37.0055 23.7753 36.8895 23.5757 36.7738C23.3581 36.6476 23.232 36.5214 22.7543 36.7449C21.838 37.174 21.8852 38.1313 21.7539 38.8385C21.6225 39.5457 20.8141 39.4378 20.7602 41.0547C20.7061 42.6716 20.7061 46.5524 21.9997 46.9296C22.4533 47.0619 22.8737 47.0153 23.2494 46.9686C23.9453 46.8822 24.4875 46.796 24.8024 47.846C25.2875 49.4629 23.7784 49.2473 25.2337 50.9181C26.6889 52.5889 25.6649 54.9066 26.9583 56.1464C28.2519 57.3858 28.1441 57.8709 29.1683 58.3562C30.1923 58.8413 31.0008 58.6256 30.3001 57.871C29.5994 57.1165 29.1953 56.9278 29.2761 56.3349C29.3569 55.742 29.303 55.742 29.1953 55.3377C29.0873 54.9336 28.8718 54.9066 29.2761 54.4484C29.6802 53.9905 30.2193 54.3676 30.1115 53.7478C30.0037 53.1279 28.5754 52.8046 29.1145 52.3733C29.6533 51.9423 29.5994 52.7238 30.3539 52.8855C31.1085 53.0471 31.3242 52.4273 31.1354 51.7535C30.9468 51.0797 30.6505 50.9181 31.5398 50.6218C32.4291 50.3252 32.1327 49.7592 32.1057 49.4898C32.0788 49.2204 32.4291 49.2743 32.9411 49.3282C33.4532 49.3821 34.7199 48.9276 34.3155 47.6187C33.9112 46.3098 33.1297 45.5013 34.5041 45.3127C35.8785 45.1241 36.8757 44.4773 35.9054 43.4801C34.9354 42.483 34.2347 42.3214 33.2644 42.3753C32.2943 42.4292 31.8092 41.5399 31.5398 41.378C31.2703 41.2164 30.7583 41.2972 30.3001 41.0547Z" fill="#6FB4A8"/>
<path d="M37.3728 62.9327C37.3687 62.9327 37.3643 62.9327 37.3602 62.9327C37.3645 62.9327 37.3686 62.9327 37.3728 62.9327ZM37.354 62.9327C37.3483 62.9327 37.3422 62.9327 37.3366 62.9327C37.3425 62.9327 37.3479 62.9327 37.354 62.9327ZM37.3278 62.9327C37.3247 62.9327 37.3214 62.9327 37.3182 62.9327C37.3208 62.9327 37.3253 62.9327 37.3278 62.9327ZM37.2894 62.9325C37.2888 62.9325 37.2883 62.9325 37.2877 62.9325C37.2887 62.9325 37.2885 62.9325 37.2894 62.9325ZM62.825 41.0465C63.0088 39.8067 63.1041 38.5372 63.1041 37.2462C63.1041 37.2462 63.1043 37.2462 63.1043 37.2461C63.1043 37.2462 63.1043 37.2462 63.1043 37.2462C63.1043 38.5372 63.0089 39.8067 62.825 41.0465Z" fill="#4B50AD"/>
<path d="M36.6829 61.2438C36.6768 61.2438 36.6703 61.2438 36.6642 61.2438C36.6621 61.2438 36.6603 61.2438 36.6582 61.2438C36.6539 61.2438 36.6495 61.2436 36.6452 61.2436C36.6428 61.2436 36.6406 61.2436 36.6381 61.2436C36.6339 61.2436 36.6298 61.2436 36.6255 61.2436C36.6233 61.2436 36.6214 61.2436 36.6193 61.2436C36.6132 61.2436 36.6079 61.2436 36.6019 61.2436C36.5989 61.2436 36.5962 61.2436 36.5932 61.2436C36.5906 61.2436 36.5861 61.2436 36.5835 61.2436C36.5801 61.2436 36.577 61.2434 36.5737 61.2434C36.571 61.2434 36.5686 61.2434 36.566 61.2434C36.5623 61.2434 36.5584 61.2434 36.5547 61.2434H36.553C33.8578 61.23 31.2613 60.7999 28.8228 60.0169C30.3462 59.4818 31.8028 58.8166 33.1409 58.0652C36.2073 56.3427 38.9631 53.9713 40.9368 51.0484C42.8067 48.2788 43.6308 44.5684 43.4788 41.2599C43.4446 40.5163 43.3712 39.7859 43.2575 39.0689C43.6653 39.646 44.1711 40.178 44.7447 40.5696C45.4037 41.0196 45.8265 41.2398 46.1319 41.2398C46.5946 41.2398 46.7887 40.7352 47.1297 39.7612C47.2808 39.3297 47.4432 39.002 47.631 38.7654C48.3895 38.7009 49.1275 38.6298 49.8428 38.5527C49.9071 38.5769 49.9729 38.6023 50.0402 38.6293C51.6572 39.2761 51.7379 39.8078 51.2935 41.2398C50.8486 42.6717 51.0508 43.3185 51.7784 44.2077C52.506 45.0972 52.6274 45.0971 51.253 46.2694C49.8785 47.4417 50.2423 48.4523 50.4445 49.3821C50.6467 50.3119 50.121 51.3627 49.8785 52.4139C49.7646 52.9071 50.0337 53.1599 50.4514 53.1599C50.9241 53.1599 51.5868 52.8364 52.1019 52.1712C53.072 50.9181 53.2337 50.6352 54.2442 50.0289C55.2549 49.4226 54.6891 50.3119 55.9421 48.7758C56.9647 47.5223 56.6683 46.2958 57.1835 44.5691L57.7654 42.8109L58.2654 42.3109L58.7967 41.5836C59.0733 41.2456 59.3186 40.9875 59.516 40.7225C60.2696 41.1062 60.9697 41.4741 61.6024 41.8127C60.2599 47.1773 57.2307 51.8734 53.111 55.3043C48.658 59.013 42.9311 61.2438 36.6829 61.2438ZM62.3666 35.1651L62.291 34.6028C62.291 35.3384 61.3311 36.0339 59.6245 36.6506C60.239 39.0978 60.2527 39.5311 59.5223 40.7744C60.2666 41.1259 60.9597 41.4736 61.6024 41.8127C62.1374 39.7128 62.3694 36.8481 62.3694 35.5571C62.3694 35.4259 62.3685 35.2958 62.3666 35.1651Z" fill="#2E4C7A"/>
<path d="M50.4514 53.1598C50.0337 53.1598 49.7647 52.907 49.8786 52.4138C50.121 51.3626 50.6467 50.3118 50.4445 49.382C50.2424 48.4522 49.8786 47.4416 51.253 46.2693C52.6274 45.097 52.5061 45.0971 51.7784 44.2076C51.0508 43.3184 50.8487 42.6716 51.2935 41.2397C51.7379 39.8077 51.6573 39.276 50.0402 38.6292C49.973 38.6022 49.9072 38.5768 49.8429 38.5526C51.2437 38.4015 52.5566 38.227 53.7668 38.0322C55.8508 38.9125 57.8194 39.8583 59.516 40.7224C59.3187 40.9874 59.0734 41.2455 58.7967 41.5835H55.7237L55.74 41.3551C55.6278 41.2278 55.5056 41.1529 55.3692 41.1529C55.2453 41.1529 55.1098 41.2147 54.9593 41.3551L55.2517 46.863C55.2534 46.8929 55.2764 46.9079 55.2993 46.9079C55.322 46.9081 55.3447 46.8933 55.3469 46.8638L55.5106 44.569H57.1836C56.6683 46.2957 56.9647 47.5222 55.9422 48.7757C54.6891 50.3118 55.2549 49.4225 54.2443 50.0288C53.2337 50.6351 53.0721 50.918 52.1019 52.1711C51.5869 52.8363 50.9241 53.1598 50.4514 53.1598ZM46.132 41.2397C45.8265 41.2397 45.4038 41.0195 44.7447 40.5695C44.1712 40.1779 43.6654 39.6459 43.2576 39.0688C43.2568 39.0635 43.2559 39.0582 43.2551 39.053C44.7735 38.9807 46.2371 38.8841 47.6311 38.7653C47.4432 39.0019 47.2808 39.3296 47.1298 39.7611C46.7888 40.7351 46.5946 41.2397 46.132 41.2397ZM60.0102 38.3191C59.2644 37.967 58.4666 37.6108 57.6161 37.2551C58.3679 37.0637 59.0396 36.862 59.6245 36.6505C59.6697 37.4502 59.9287 37.5467 60.0102 38.3191Z" fill="#4A7A87"/>
<path d="M62.2911 34.6029C62.2911 37.1451 50.8298 39.2058 36.6918 39.2058C22.5536 39.2058 11.0923 37.1451 11.0923 34.6029C11.0923 32.0608 22.5536 30 36.6918 30C50.8298 30 62.2911 32.0608 62.2911 34.6029Z" fill="#335A9A"/>
<path d="M46.235 30.3306C46.2248 30.3519 46.2135 30.3741 46.2001 30.3971C45.998 30.7463 45.3916 30.5524 45.2703 30.8239C45.1492 31.0956 47.2107 31.2896 46.5639 31.5612C46.2525 31.6918 45.8287 31.6472 45.4368 31.6026C45.0147 31.5545 44.6297 31.5066 44.4619 31.6775C44.1386 32.0073 44.4216 32.8221 44.9874 32.8609C45.5533 32.8998 45.998 32.8802 46.6853 32.7058C46.9675 32.6341 47.2156 32.6376 47.4101 32.6411C47.6892 32.6461 47.8575 32.6513 47.8575 32.4341C47.8575 32.0655 47.2512 31.988 48.0192 31.8134C48.7873 31.6387 48.8276 31.409 49.5554 31.3299C50.283 31.2507 49.8382 31.1537 50.4447 31.6001C51.0509 32.0462 51.4956 31.9685 51.4956 32.279C51.4956 32.5893 51.3339 32.7058 51.4956 32.7446C51.6574 32.7833 52.5467 32.6862 52.1829 32.3178C51.8191 31.9491 51.6978 32.0074 51.4553 31.7357C51.2128 31.4642 50.3639 31.1537 50.8488 31.1732C51.3339 31.1925 51.7786 31.3089 52.0213 31.5417C52.2637 31.7745 51.8594 31.9296 52.4659 32.0655C53.0722 32.2013 53.3551 32.1625 53.3957 32.4148C53.436 32.6669 54.002 32.4729 53.7595 32.2013C53.5168 31.9296 52.6276 31.7745 53.436 31.697C54.2351 31.6203 54.2435 31.5055 53.834 31.1844C51.6177 30.8249 49.0502 30.5341 46.235 30.3306ZM54.7092 31.3333C54.7526 31.4174 54.841 31.4914 55.0126 31.5417C55.4176 31.6605 55.8351 31.6711 56.063 31.5935C55.6306 31.5036 55.1786 31.4169 54.7092 31.3333ZM57.3767 31.891C57.3894 32.0031 57.4207 32.0599 57.7116 31.9754C57.6017 31.947 57.4901 31.9189 57.3767 31.891Z" fill="#6FB4A8"/>
<path d="M13.5984 32.6144C13.6398 32.9307 13.5928 33.2592 13.4568 33.5594C13.0525 34.4518 13.365 35.1502 13.6131 35.4607C13.8611 35.771 16.1248 36.6635 16.7716 36.8186C17.0141 36.8768 17.2679 36.8695 17.495 36.8622C17.8731 36.8502 18.1763 36.8379 18.2268 37.129C18.2645 37.3459 18.3373 37.605 18.4697 37.8355C19.092 37.9489 19.746 38.0567 20.4306 38.158L20.4181 38.1345C20.0946 37.5525 19.7629 37.9439 19.9245 37.2842C20.0864 36.6246 20.733 36.353 19.6013 36.353C18.4693 36.353 18.712 36.8574 18.4693 36.353C18.2269 35.8486 19.7629 35.5382 18.3076 35.5382C16.8524 35.5382 16.5124 36.4306 16.4399 35.771C16.3673 35.1114 16.6906 34.7234 17.5801 34.2966C18.4693 33.8699 19.3586 34.1026 19.6013 34.4518C19.8438 34.8011 20.134 35.0726 20.5548 34.7234C20.9757 34.3743 19.8913 34.3743 20.5548 33.9863C21.2182 33.5982 22.4309 33.5982 22.5117 32.7834C22.5926 31.9686 23.7245 32.2403 24.3713 31.7746C25.0181 31.309 24.7754 30.6496 25.6649 30.9211C26.5541 31.1927 27.4434 31.6972 27.8477 31.5419C28.2519 31.3867 28.7775 31.1821 27.5647 30.8577C26.9427 30.6912 26.4591 30.5285 26.3536 30.3911C20.7695 30.8349 16.2331 31.627 13.5984 32.6144ZM29.033 30.2096C29.0121 30.2368 28.9807 30.267 28.9392 30.3003C28.5753 30.5913 29.2624 31.0569 30.1922 30.8822C30.9667 30.7369 30.1426 30.414 29.9858 30.1599C29.6658 30.1755 29.3478 30.1919 29.033 30.2096Z" fill="#6FB4A8"/>
<path d="M60.9016 36.1018C60.8933 36.0825 60.8844 36.0629 60.874 36.0426C60.3888 35.092 60.7526 33.9946 61.5611 33.7382C61.4928 33.6109 61.4204 33.4842 61.3439 33.3586C60.8271 33.0268 60.1092 32.7102 59.2145 32.4133C59.0888 32.5457 58.9066 32.6433 58.6103 32.667C57.8825 32.7252 57.5187 32.3565 56.9124 32.2207C56.5202 32.1328 56.4663 32.1343 56.2799 32.1358C56.1784 32.1367 56.0374 32.1375 55.7806 32.124C55.053 32.0851 54.6082 31.7941 54.4871 32.1044C54.3657 32.4149 55.6188 32.4342 56.0634 32.958C56.5083 33.4818 57.357 34.0444 55.821 33.7534C54.2849 33.4625 54.2041 32.8803 53.5168 33.1715C52.8297 33.4625 53.6786 33.6951 52.7892 33.6758C51.8999 33.6565 51.0106 33.3653 50.768 33.2102C50.5255 33.055 50.4344 32.8777 50.4041 32.6863C50.202 31.4084 49.7978 32.5312 48.8276 32.667C47.8575 32.8029 47.8575 32.5894 46.4831 32.9387C45.1087 33.2878 43.8959 33.6951 43.4109 34.801C42.9258 35.9068 42.4003 36.4499 42.1982 37.0125C41.996 37.575 41.5918 38.5099 43.2487 39.0531C44.7695 38.9809 46.2348 38.884 47.6308 38.7652C48.1424 38.0795 48.4067 38.2867 49.7232 38.5652C54.9048 38.013 58.9104 37.1418 60.9016 36.1018Z" fill="#599191"/>
<path d="M21.589 37.1497C20.336 36.8586 21.0636 37.2466 21.3869 37.3437C21.7104 37.4408 21.7104 37.7122 22.6805 37.7899C23.6507 37.8675 24.3379 37.9062 24.0146 37.6541C23.6911 37.4019 24.3379 37.4989 22.9635 37.3243C21.5891 37.1498 21.589 37.1497 21.589 37.1497Z" fill="#6FB4A8"/>
<path d="M28.6837 40.6192C27.8058 40.3961 30.4264 40.2775 29.0788 40.0966C27.7315 39.9154 27.9086 40.1629 27.1002 39.6716C26.2916 39.1802 26.9383 38.9732 25.4831 39.1283C24.7867 39.2027 24.5098 39.1471 24.3103 39.0914C24.0927 39.031 23.9666 38.9704 23.4888 39.0776C22.6168 39.2736 22.6175 39.6993 22.5063 40.0324C24.3904 40.2757 26.4653 40.4743 28.6837 40.6192Z" fill="#6FB4A8"/>
<path d="M43.9814 40.7426C43.9823 40.7426 43.9835 40.7426 43.9844 40.7424C43.9865 40.7424 43.9896 40.7422 43.9917 40.7422C43.9887 40.7424 43.9842 40.7426 43.9814 40.7426Z" fill="#599191"/>
<path d="M29.3558 40.6612C26.9054 40.515 24.6194 40.3041 22.5604 40.0395C24.4302 40.2797 26.4867 40.4758 28.6839 40.6194C28.9063 40.6339 29.1306 40.6479 29.3558 40.6612Z" fill="#599191"/>
<path d="M43.9899 40.7421C45.5083 40.6698 46.9711 40.5732 48.3651 40.4546L48.3658 40.4544C46.9719 40.5732 45.5083 40.6698 43.9899 40.7421Z" fill="#3B6275"/>
<path d="M36.6918 39.2058C33.8716 39.2058 31.1585 39.1238 28.6211 38.9723C28.3959 38.9589 28.1717 38.9449 27.9492 38.9304C27.9492 38.9303 27.9492 38.9303 27.9492 38.9303C27.0709 38.7071 29.6919 38.5885 28.3443 38.4076C26.997 38.2264 27.1741 38.4739 26.3656 37.9826C25.7344 37.5989 25.9899 37.3886 25.4405 37.3886C25.2861 37.3886 25.068 37.4053 24.7485 37.4393C24.5077 37.4649 24.3171 37.4752 24.1625 37.4752C23.8698 37.4752 23.7063 37.4388 23.5757 37.4024C23.4451 37.3661 23.3473 37.3297 23.1866 37.3297C23.0798 37.3297 22.9451 37.3459 22.7543 37.3886C21.8821 37.5846 21.8828 38.0103 21.7717 38.3436C21.3133 38.2844 20.8657 38.2225 20.4308 38.158C20.4267 38.1502 20.4226 38.1424 20.4181 38.1344C20.0946 37.5525 19.763 37.9438 19.9246 37.2842C20.0865 36.6246 20.7331 36.3529 19.6013 36.3529C18.8468 36.3529 18.7029 36.5772 18.6191 36.5772C18.5772 36.5772 18.5502 36.521 18.4694 36.3529C18.2269 35.8486 19.763 35.5381 18.3077 35.5381C17.2453 35.5381 16.7772 36.0139 16.5738 36.014C16.4985 36.014 16.4595 35.949 16.44 35.771C16.3674 35.1114 16.6906 34.7234 17.5801 34.2966C17.9218 34.1325 18.2637 34.066 18.5688 34.066C19.0577 34.066 19.4519 34.2368 19.6013 34.4518C19.7641 34.6862 19.9486 34.8858 20.1795 34.8858C20.2925 34.8858 20.4167 34.838 20.5549 34.7234C20.9757 34.3742 19.8914 34.3742 20.5549 33.9863C21.2182 33.5981 22.431 33.5982 22.5118 32.7834C22.5174 32.7271 22.528 32.676 22.5432 32.6293C22.6047 32.6293 22.6662 32.6292 22.7275 32.6292C30.6038 32.6292 37.8096 33.5668 43.4202 34.7799C43.417 34.787 43.4139 34.794 43.4109 34.8011C42.9257 35.9068 42.4003 36.4499 42.1982 37.0125C41.996 37.5751 41.5917 38.5101 43.2491 39.0533C43.2492 39.0533 43.2492 39.0533 43.2492 39.0533C43.2485 39.0534 43.2476 39.0534 43.2468 39.0534C41.1545 39.1529 38.9577 39.2058 36.6918 39.2058ZM20.2322 35.3542C19.9573 35.3542 20.4144 35.5831 20.6522 35.6546C20.9757 35.7517 20.9757 36.0231 21.9458 36.1008C22.3549 36.1335 22.7139 36.1593 22.9678 36.1593C23.316 36.1593 23.4669 36.1108 23.2799 35.965C22.9564 35.7128 23.6032 35.8098 22.2288 35.6352C20.8544 35.4607 20.8544 35.4606 20.8544 35.4606C20.5235 35.3838 20.3306 35.3542 20.2322 35.3542ZM47.6304 38.7656C47.8855 38.4237 48.0789 38.3035 48.3717 38.3035C48.6668 38.3035 49.0628 38.4256 49.7242 38.5655C49.0459 38.6378 48.348 38.7045 47.6311 38.7654L47.6304 38.7656ZM18.4699 37.8358C13.908 37.0047 11.0923 35.863 11.0923 34.6028C11.1007 34.5216 11.1217 34.4423 11.1486 34.3639C11.1527 34.3494 11.1568 34.3349 11.1611 34.3204C11.3192 33.9114 11.7225 33.5405 12.309 33.1975C12.3092 33.1975 12.3089 33.1975 12.3092 33.1975C12.3089 33.1975 12.309 33.1975 12.309 33.1975C12.7397 33.1494 13.1693 33.1046 13.5982 33.0632C13.5762 33.2325 13.5291 33.3999 13.4569 33.5593C13.0525 34.4518 13.3651 35.1502 13.6132 35.4606C13.8612 35.771 16.1249 36.6634 16.7717 36.8185C16.9333 36.8574 17.1 36.867 17.2605 36.867C17.3408 36.867 17.4194 36.8646 17.495 36.8622C17.5707 36.8598 17.6433 36.8574 17.7115 36.8574C17.9843 36.8574 18.1864 36.896 18.2269 37.129C18.2646 37.3461 18.3375 37.6053 18.4699 37.8358ZM60.9022 36.1023C60.8936 36.0829 60.8844 36.063 60.874 36.0426C60.3991 35.1121 60.7376 34.0409 61.5105 33.7555C61.6831 33.8159 61.8548 33.8765 62.0256 33.9374C62.2004 34.1547 62.2911 34.377 62.2911 34.6028C62.2911 35.1279 61.8026 35.6321 60.9022 36.1023ZM56.4555 33.833C56.3167 33.833 56.1115 33.8085 55.821 33.7535C55.1946 33.6348 54.8101 33.4677 54.5279 33.3311L54.5653 33.3088C55.1158 33.243 55.6506 33.1628 56.166 33.0727C56.5266 33.4599 56.9969 33.833 56.4555 33.833ZM43.3741 32.9989C43.1658 32.9575 42.9568 32.9166 42.7498 32.8771C42.896 32.7209 43.0265 32.5489 43.138 32.3633C43.265 32.5894 43.3355 32.8122 43.3741 32.9989ZM37.7607 32.0732C34.3131 31.6206 31.1072 31.4091 28.2536 31.3445C28.2972 31.3073 28.3214 31.2678 28.3149 31.225C31.2659 31.0656 34.1273 30.9813 36.4692 30.9813C36.8202 30.9813 37.1593 30.9831 37.4855 30.987C37.5093 31.3692 37.6048 31.7365 37.7607 32.0732Z" fill="#335A9A"/>
<path d="M20.4307 38.158C20.4275 38.1575 20.4238 38.1571 20.4206 38.1565C19.7579 38.0583 19.1239 37.9544 18.5195 37.8447C18.5032 37.8419 18.4862 37.8388 18.4699 37.8358C18.3374 37.6052 18.2646 37.3461 18.2268 37.129C18.1863 36.896 17.9842 36.8574 17.7114 36.8574C17.6432 36.8574 17.5706 36.8598 17.495 36.8622C17.4193 36.8646 17.3407 36.867 17.2605 36.867C17.0999 36.867 16.9332 36.8574 16.7716 36.8185C16.1248 36.6634 13.8611 35.771 13.6131 35.4606C13.365 35.1501 13.0525 34.4518 13.4568 33.5593C13.5291 33.3999 13.5761 33.2325 13.5982 33.0632C16.6384 32.7683 19.6365 32.6349 22.5431 32.6293C22.5279 32.676 22.5173 32.7271 22.5117 32.7834C22.4309 33.5981 21.2182 33.5981 20.5548 33.9863C19.8913 34.3742 20.9757 34.3742 20.5548 34.7234C20.4166 34.838 20.2924 34.8858 20.1795 34.8858C19.9485 34.8858 19.764 34.6862 19.6013 34.4517C19.4518 34.2367 19.0576 34.066 18.5687 34.066C18.2636 34.066 17.9217 34.1325 17.5801 34.2966C16.6906 34.7234 16.3673 35.1113 16.4399 35.771C16.4595 35.9489 16.4984 36.014 16.5737 36.014C16.7772 36.0138 17.2452 35.5381 18.3076 35.5381C19.7629 35.5381 18.2268 35.8486 18.4693 36.3529C18.5501 36.521 18.5771 36.5772 18.6191 36.5772C18.7029 36.5772 18.8467 36.3529 19.6013 36.3529C20.733 36.3529 20.0864 36.6245 19.9245 37.2842C19.7629 37.9438 20.0946 37.5525 20.4181 38.1344C20.4225 38.1424 20.4266 38.1502 20.4307 38.158ZM28.2535 31.3445C28.0655 31.3402 27.8786 31.3367 27.6935 31.3335C27.7093 31.3084 27.7246 31.2828 27.7392 31.257C27.9313 31.246 28.1233 31.2354 28.3148 31.225C28.3213 31.2678 28.2972 31.3073 28.2535 31.3445Z" fill="#599191"/>
<path d="M43.2493 39.0533C43.2493 39.0533 43.2493 39.0533 43.2491 39.0533C41.5917 38.5101 41.996 37.5751 42.1982 37.0125C42.4003 36.4499 42.9258 35.9068 43.4109 34.8011C43.4139 34.794 43.4171 34.787 43.4202 34.7799C44.7084 35.0586 45.9125 35.3516 47.0211 35.6511C49.2767 36.2608 51.5851 37.1106 53.7669 38.0323C52.5567 38.2271 51.2438 38.4016 49.843 38.5527C49.8036 38.557 49.7636 38.5612 49.7243 38.5655C49.0628 38.4256 48.6669 38.3035 48.3718 38.3035C48.079 38.3035 47.8855 38.4238 47.6304 38.7656C46.2365 38.8842 44.7736 38.9808 43.2552 39.0531C43.2535 39.0531 43.2509 39.0533 43.2493 39.0533ZM57.6162 37.2552C55.8817 36.5302 53.9276 35.8078 51.7429 35.1266C51.6951 35.1117 51.6485 35.0972 51.6009 35.0824L54.5279 33.3311C54.8101 33.4677 55.1946 33.6348 55.821 33.7535C56.1116 33.8085 56.3167 33.833 56.4555 33.833C56.9969 33.833 56.5266 33.4599 56.166 33.0727C56.8656 32.9503 57.5289 32.8096 58.143 32.6624C59.2859 33.0026 60.4163 33.3732 61.5106 33.7555C60.7376 34.041 60.3991 35.1121 60.874 36.0426C60.8844 36.0631 60.8936 36.083 60.9022 36.1023C60.1087 36.5166 58.9958 36.904 57.6162 37.2552ZM45.5189 33.4556C45.4295 33.4354 45.3415 33.4155 45.2521 33.3956C45.3803 33.3937 45.5171 33.3923 45.6622 33.3912L45.5189 33.4556Z" fill="#599191"/>
<path d="M22.9678 36.1594C22.714 36.1594 22.355 36.1335 21.9459 36.1008C20.9758 36.0232 20.9758 35.7517 20.6523 35.6547C20.4145 35.5831 19.9574 35.3542 20.2322 35.3542C20.3307 35.3542 20.5235 35.3838 20.8545 35.4607C20.8545 35.4607 20.8545 35.4607 22.2289 35.6352C23.6033 35.8098 22.9565 35.7129 23.28 35.965C23.4669 36.1108 23.316 36.1594 22.9678 36.1594Z" fill="#599191"/>
<path d="M27.9492 38.9303C25.7521 38.7867 23.6955 38.5906 21.8258 38.3504C21.8076 38.348 21.7899 38.3458 21.7717 38.3435C21.8828 38.0102 21.8821 37.5845 22.7543 37.3885C22.9451 37.3457 23.0798 37.3296 23.1866 37.3296C23.3473 37.3296 23.4451 37.366 23.5757 37.4022C23.7063 37.4386 23.8698 37.4751 24.1625 37.4751C24.3171 37.4751 24.5077 37.4648 24.7485 37.4392C25.068 37.4052 25.2861 37.3885 25.4405 37.3885C25.9899 37.3885 25.7344 37.5988 26.3656 37.9825C27.1741 38.4738 26.997 38.2263 28.3443 38.4075C29.6919 38.5884 27.0709 38.707 27.9492 38.9301C27.9492 38.9301 27.9492 38.9301 27.9492 38.9303Z" fill="#599191"/>
<path d="M33.0185 23.1022C32.9208 23.0255 32.8224 22.9497 32.7235 22.8745C32.6826 22.8434 32.6243 22.8514 32.5932 22.8922C32.5622 22.9331 32.5702 22.9915 32.6111 23.0225C32.7092 23.097 32.8069 23.1723 32.9039 23.2484C32.9442 23.28 33.0027 23.273 33.0343 23.2326C33.0659 23.1921 33.0589 23.1338 33.0185 23.1022Z" fill="white"/>
<path d="M32.4439 52.1581L32.2876 51.9175L32.4439 52.1581Z" fill="#6FAE9A"/>
<path d="M26.3891 33.1608C26.3564 33.1608 26.3272 33.1378 26.3207 33.1046C26.3207 33.1044 26.3192 33.0967 26.3164 33.082C26.3629 33.0787 26.4099 33.0756 26.4564 33.0724C26.4571 33.0759 26.4575 33.0778 26.4575 33.078C26.4649 33.1157 26.4402 33.1523 26.4025 33.1595C26.3978 33.1605 26.3934 33.1608 26.3891 33.1608Z" fill="#150607"/>
<path d="M26.3113 21.2065C26.3146 21.1925 26.3181 21.1788 26.3215 21.1649C26.3293 21.1333 26.3577 21.1121 26.3891 21.1121C26.3947 21.1121 26.4002 21.1126 26.4058 21.1141C26.4302 21.12 26.4484 21.1383 26.4554 21.1604C26.4073 21.1756 26.3594 21.1909 26.3113 21.2065Z" fill="#3A1228"/>
<path d="M15.5337 34.3634C15.5103 34.3634 15.4872 34.3517 15.4743 34.3301C15.4739 34.3298 15.4691 34.3216 15.46 34.3062C15.5069 34.2973 15.5541 34.2885 15.6019 34.2798C15.6075 34.3076 15.5958 34.3374 15.5699 34.3532C15.5586 34.3601 15.5462 34.3634 15.5337 34.3634Z" fill="#28090C"/>
<path d="M14.4888 27.4861C14.4927 27.4585 14.4968 27.4309 14.5008 27.4033C14.5059 27.3687 14.5356 27.3438 14.5696 27.3438C14.5731 27.3438 14.5765 27.3442 14.58 27.3445C14.5967 27.3471 14.611 27.3553 14.6214 27.3668C14.5772 27.4064 14.5326 27.4464 14.4888 27.4861Z" fill="#3A1228"/>
<path d="M45.2703 35.1707C45.2355 35.1707 45.2056 35.145 45.2012 35.1097C45.2012 35.1097 45.2008 35.1075 45.2004 35.1032C45.245 35.1017 45.2917 35.1002 45.34 35.0988C45.3411 35.1343 45.3151 35.1657 45.279 35.1701C45.276 35.1705 45.2731 35.1707 45.2703 35.1707Z" fill="#28090C"/>
<path d="M45.2005 35.1033C45.1912 35.0296 45.1066 34.3332 45.0293 33.2696C45.0761 33.2726 45.123 33.2754 45.1698 33.2784C45.2134 33.8781 45.2595 34.3592 45.2926 34.6749C45.3207 34.9441 45.3394 35.092 45.3394 35.0924C45.3396 35.0946 45.3398 35.0968 45.34 35.0989C45.2917 35.1004 45.245 35.1018 45.2005 35.1033Z" fill="#73080E"/>
<path d="M48.2213 19.5916C48.1615 19.5797 48.1013 19.568 48.042 19.5565C48.0686 19.5426 48.0953 19.5292 48.1223 19.516C48.1321 19.5112 48.1425 19.5089 48.1528 19.5089C48.1786 19.5089 48.2035 19.5233 48.2155 19.5481C48.2222 19.5623 48.2239 19.5775 48.2213 19.5916Z" fill="#3A1228"/>
<path d="M49.5924 35.1848C49.5592 35.1848 49.5298 35.161 49.5239 35.1272C49.523 35.1228 49.5222 35.1179 49.5215 35.1134C49.5679 35.1146 49.6149 35.1157 49.6621 35.1168C49.6614 35.1495 49.6378 35.178 49.6045 35.1839C49.6004 35.1844 49.5963 35.1848 49.5924 35.1848Z" fill="#450609"/>
<path d="M42.7816 33.1017C42.7002 33.0947 42.6191 33.0876 42.5382 33.0804C42.4999 33.077 42.4716 33.0432 42.4749 33.0049C42.4755 32.9997 42.4763 32.9949 42.4779 32.9903C42.5013 32.9971 42.5234 33.004 42.5443 33.0111C42.6278 33.0389 42.7068 33.0692 42.7816 33.1017Z" fill="#150607"/>
<path d="M13.0435 34.8865C13.0439 34.8865 13.0433 34.8867 13.0437 34.8865C13.0435 34.8865 13.0437 34.8865 13.0435 34.8865Z" fill="#392149"/>
<path d="M12.3091 33.1976C12.3107 33.197 12.3139 33.1961 12.3158 33.1955C12.3135 33.1961 12.3113 33.1968 12.3091 33.1976ZM12.3174 33.195C12.3191 33.1943 12.3208 33.1938 12.3226 33.1933C12.3208 33.1938 12.3191 33.1944 12.3174 33.195ZM12.3243 33.1926C12.3258 33.1922 12.328 33.1915 12.3293 33.1911C12.3278 33.1916 12.326 33.1922 12.3243 33.1926ZM12.3378 33.1883C12.3399 33.1876 12.342 33.187 12.344 33.1863C12.342 33.187 12.3399 33.1877 12.3378 33.1883ZM12.345 33.186C12.9752 32.9845 13.7833 32.7944 14.7251 32.6169C14.7253 32.6169 14.7253 32.6171 14.7253 32.6171C13.7829 32.7945 12.9752 32.9845 12.345 33.186ZM14.8673 32.5907C14.8673 32.5906 14.8671 32.5906 14.8671 32.5903C15.5962 32.456 16.4011 32.3291 17.2658 32.2098V32.2102C16.4018 32.3295 15.596 32.4564 14.8673 32.5907Z" fill="#461E26"/>
<path d="M15.46 34.3062C15.46 34.3062 15.46 34.306 15.4598 34.306C15.5069 34.2971 15.5542 34.2884 15.6018 34.2794C15.6018 34.2796 15.602 34.2796 15.602 34.2798C15.5542 34.2885 15.507 34.2973 15.46 34.3062Z" fill="#250507"/>
<path d="M18.3701 24.6952C18.3841 24.6874 18.3972 24.6798 18.411 24.672C18.3975 24.6796 18.3837 24.6874 18.3701 24.6952ZM18.4673 24.64C18.4714 24.6378 18.4751 24.6356 18.4792 24.6333C18.4751 24.6356 18.4712 24.6378 18.4673 24.64ZM18.4812 24.6322C18.4857 24.6296 18.4896 24.6276 18.494 24.625C18.4896 24.6274 18.4855 24.6298 18.4812 24.6322ZM18.5096 24.6163C18.5135 24.614 18.518 24.6114 18.5221 24.6092C18.5182 24.6114 18.5135 24.614 18.5096 24.6163ZM18.5923 24.5698C18.5933 24.5692 18.5944 24.5687 18.5953 24.5681C18.594 24.5689 18.5936 24.5691 18.5923 24.5698ZM18.6159 24.5566C18.6174 24.5559 18.6186 24.5553 18.62 24.5544C18.6193 24.5548 18.6167 24.5562 18.6159 24.5566ZM18.6397 24.5434C18.6412 24.5425 18.643 24.5415 18.6445 24.5408C18.643 24.5415 18.6412 24.5427 18.6397 24.5434ZM18.6642 24.5298C18.6654 24.5291 18.6672 24.528 18.6685 24.5274C18.6663 24.5286 18.6663 24.5286 18.6642 24.5298ZM18.6886 24.5161C18.6899 24.5156 18.691 24.5148 18.6921 24.5143C18.6908 24.515 18.6901 24.5153 18.6886 24.5161ZM18.736 24.4899C18.7369 24.4893 18.7378 24.4888 18.7386 24.4884C18.738 24.4888 18.7367 24.4895 18.736 24.4899ZM18.7599 24.4767C18.7607 24.4762 18.7616 24.4758 18.7623 24.4752C18.7616 24.4756 18.7607 24.4763 18.7599 24.4767ZM18.7839 24.4633C18.7846 24.4629 18.7858 24.4624 18.7865 24.4621C18.785 24.4628 18.7852 24.4626 18.7839 24.4633ZM18.8079 24.4501C18.8088 24.4496 18.8097 24.4491 18.8106 24.4487C18.8101 24.4491 18.8084 24.4498 18.8079 24.4501ZM18.8313 24.4371C18.8326 24.4366 18.8341 24.4358 18.8352 24.4351C18.8339 24.4358 18.8328 24.4364 18.8313 24.4371ZM18.8558 24.4238C18.8569 24.4232 18.858 24.4224 18.859 24.4219C18.8582 24.4224 18.8566 24.4234 18.8558 24.4238ZM18.8802 24.4104C18.8809 24.4098 18.8818 24.4094 18.8826 24.4091C18.882 24.4094 18.8809 24.41 18.8802 24.4104ZM18.929 24.3836L18.9292 24.3834C18.9285 24.3838 18.9296 24.3833 18.929 24.3836Z" fill="#673C7B"/>
<path d="M63.1464 32.9908C63.1393 32.8591 63.0935 32.0943 62.9272 31.048C63.0935 32.0941 63.1393 32.8591 63.1464 32.9908ZM62.8359 30.5149C62.5158 28.775 61.8785 26.5032 60.625 24.9886L60.6248 24.9885C60.6228 24.9862 60.6209 24.984 60.6191 24.9816L60.6189 24.9814C60.6131 24.9744 60.6072 24.9675 60.6014 24.9604C60.6012 24.9604 60.6012 24.9603 60.601 24.96C60.5992 24.9578 60.5973 24.9556 60.5955 24.9534C60.5953 24.9531 60.5951 24.953 60.5949 24.9528C60.591 24.9481 60.5875 24.9441 60.5837 24.9394C60.5836 24.9393 60.5834 24.939 60.5832 24.9389C60.5815 24.9368 60.5795 24.9344 60.5778 24.9324C60.5776 24.9324 60.5776 24.9322 60.5776 24.9322C61.8623 26.4461 62.5119 28.7531 62.8359 30.5149Z" fill="#E9D4FB"/>
<path d="M62.8885 30.813C62.8719 30.7157 62.8543 30.6163 62.8357 30.515C62.8543 30.6161 62.8719 30.7157 62.8885 30.813Z" fill="white"/>
<path d="M60.5773 24.932L60.5771 24.9318C60.5752 24.9295 60.5734 24.9274 60.5715 24.9253L60.5713 24.9251C60.5733 24.9274 60.5754 24.9297 60.5773 24.932Z" fill="#E9D4FB"/>
<path d="M60.578 24.9329C60.5769 24.9316 60.5757 24.9302 60.5746 24.9291C60.5742 24.9287 60.574 24.928 60.5735 24.9276C60.5728 24.9266 60.5722 24.926 60.5715 24.9253C60.5737 24.9278 60.5758 24.9302 60.578 24.9329Z" fill="#F63C65"/>
<path d="M60.5736 24.9275C60.5733 24.9275 60.5733 24.9272 60.5733 24.9272C60.5691 24.9224 60.5653 24.9179 60.5611 24.913L60.5609 24.9128C60.5605 24.9124 60.5602 24.9119 60.5598 24.9115L60.5596 24.9112C60.5642 24.9166 60.5689 24.9221 60.5736 24.9275Z" fill="#E9D4FB"/>
<path d="M60.5731 24.9272C60.5718 24.9259 60.5709 24.9246 60.5698 24.9232C60.5692 24.9225 60.5684 24.9219 60.568 24.9212C60.5662 24.919 60.5642 24.917 60.5625 24.9148C60.562 24.9141 60.5616 24.9137 60.5609 24.913C60.5651 24.9179 60.5689 24.9224 60.5731 24.9272ZM60.5607 24.9128C60.5605 24.9125 60.5605 24.9123 60.5603 24.9121C60.56 24.9119 60.5598 24.9117 60.5596 24.9115C60.56 24.9119 60.5603 24.9123 60.5607 24.9128Z" fill="#F63C65"/>
<path d="M60.5601 24.9118C60.5599 24.9118 60.5599 24.9118 60.5599 24.9116C60.5581 24.9096 60.5562 24.9075 60.5544 24.9053L60.5542 24.9051C60.5562 24.9075 60.5581 24.9094 60.5601 24.9118Z" fill="#E9D4FB"/>
<path d="M60.5607 24.9125C60.5592 24.9109 60.5577 24.9092 60.5565 24.9075C60.5557 24.9067 60.5549 24.906 60.5544 24.9052C60.5565 24.9077 60.5587 24.9102 60.5607 24.9125Z" fill="#F63C65"/>
<path d="M60.5542 24.9052C60.5542 24.9052 60.5542 24.9052 60.5542 24.905L60.5537 24.9047V24.9045C60.554 24.9047 60.554 24.905 60.5542 24.9052Z" fill="#E9D4FB"/>
<path d="M60.5544 24.9049C60.5541 24.9049 60.5541 24.9049 60.5541 24.9049C60.5541 24.9045 60.5541 24.9045 60.5537 24.9045L60.5544 24.9049Z" fill="#F63C65"/>
<path d="M60.5546 24.9056L60.5544 24.9053C60.5524 24.9028 60.5504 24.9006 60.5481 24.8981C60.5504 24.9006 60.5523 24.9031 60.5546 24.9056Z" fill="#E9D4FB"/>
<path d="M60.5529 24.9034C60.5518 24.9021 60.5506 24.9008 60.5495 24.8995C60.549 24.8989 60.5486 24.8982 60.548 24.8977C60.548 24.8978 60.5482 24.8978 60.5482 24.898C60.5499 24.8999 60.5514 24.9016 60.5529 24.9034ZM60.5469 24.8963C60.5451 24.8943 60.5432 24.8921 60.5414 24.89C60.5432 24.8922 60.5451 24.8943 60.5469 24.8963ZM44.9926 19.205C44.9858 19.205 44.9787 19.205 44.9717 19.205C44.9787 19.205 44.9856 19.205 44.9926 19.205Z" fill="#F63C65"/>
<path d="M29.7059 20.2766C29.8427 20.2452 29.9789 20.2147 30.1147 20.1852C30.067 20.2067 30.0192 20.2285 29.9716 20.2502C29.883 20.2587 29.7946 20.2675 29.7059 20.2766Z" fill="#F77241"/>
<path d="M58.4293 31.5264L58.5726 31.5461L58.4275 31.6364L58.4293 31.5264Z" fill="#EA5E81"/>
<path d="M15.0641 33.0541C13.5318 30.5751 13.056 26.9566 14.6131 24.3855C14.6016 24.376 14.5482 24.383 14.4843 24.3957L14.5591 24.3786C14.5132 24.3721 14.4067 24.3543 14.3338 24.3598L14.3619 24.3534L14.2967 24.345C14.2843 24.363 14.2385 24.4351 14.226 24.4548L14.2921 24.4397C14.2596 24.4476 14.2349 24.4536 14.226 24.4548C12.6455 27.0471 13.134 30.7193 14.6904 33.217L15.0847 33.0871L15.0641 33.0541Z" fill="#4282CE"/>
<path d="M13.6326 30.8163C13.8741 31.6579 14.2279 32.4733 14.6904 33.2171L45.8098 39.4801L46.4027 39.5994L46.4036 40.9415L14.401 34.2188C13.0049 32.1669 12.3218 29.6261 12.5153 27.1508C12.6327 25.7488 13.0526 24.3358 13.907 23.2024L46.3943 27.0678L46.3954 28.4571C46.1119 28.4207 14.9101 24.4237 14.6126 24.3856C14.5367 24.3758 14.373 24.3548 14.2967 24.345C13.0753 26.2377 13.0351 28.6999 13.6326 30.8163Z" fill="#5698E7"/>
<path d="M30.6845 19.617L59.2341 21.8473L46.3943 27.0678L13.907 23.2023L30.6845 19.617Z" fill="#4282CE"/>
<path d="M46.3943 27.0677L59.2341 21.8472L59.216 22.9263L58.5615 23.2085L46.3953 28.457L46.3943 27.0677Z" fill="#5B9AE4"/>
<path d="M59.0703 31.6145L59.0526 32.6651L46.4035 40.9415L46.4026 39.5994L59.0703 31.6145Z" fill="#579AEA"/>
<path d="M58.4275 31.6363L46.1293 39.2812L46.1179 28.4214L46.3952 28.457L58.5614 23.2085C58.5591 23.3587 58.43 31.491 58.4275 31.6363Z" fill="#E8F4FB"/>
<path d="M46.118 28.4213L46.1294 39.2811L15.0846 33.087C13.5342 30.6019 13.0496 26.9702 14.613 24.3854L46.118 28.4213Z" fill="#FEFEFE"/>
<path d="M52.7104 27.4585C50.738 28.0987 48.8932 29.0535 47.0774 30.0429C49.2391 29.6238 51.2476 28.669 53.0549 27.4274C53.1366 27.3722 53.2177 27.3161 53.2987 27.2599C53.1021 27.3248 52.9062 27.3915 52.7104 27.4585Z" fill="#FEFEFE"/>
<path d="M53.1633 26.5082C54.1856 26.2775 55.1543 25.8558 56.0249 25.2731C55.0114 25.5293 54.0468 25.9498 53.1633 26.5082Z" fill="#FEFEFE"/>
<path d="M54.582 26.6289C55.1843 26.4792 55.757 26.2284 56.2734 25.8839C55.6698 26.0297 55.0964 26.2808 54.582 26.6289Z" fill="#FEFEFE"/>
<path d="M49.7366 32.0528C50.8563 31.702 51.9137 31.1736 52.8435 30.4552C51.7025 30.8391 50.7361 31.3131 49.7366 32.0528Z" fill="#FEFEFE"/>
<path d="M55.0818 31.4321C56.0385 31.0658 56.9776 30.5468 57.8141 29.8713C56.8154 30.2209 55.8865 30.744 55.0818 31.4321Z" fill="#FEFEFE"/>
<path d="M34.7391 28.7067C35.8841 29.0554 37.0827 29.2011 38.278 29.1419C37.1303 28.8007 35.9351 28.6553 34.7391 28.7067Z" fill="#E8F4FB"/>
<path d="M40.9365 29.178C41.6044 29.3652 42.3005 29.4313 42.9915 29.3716C42.3226 29.1913 41.6275 29.1253 40.9365 29.178Z" fill="#E8F4FB"/>
<path d="M38.8104 29.5741C40.0231 29.8687 41.2733 29.9734 42.5186 29.9112C41.3166 29.5557 40.0567 29.4506 38.8104 29.5741Z" fill="#E8F4FB"/>
<path d="M40.1718 31.0252C40.9057 31.1953 41.6595 31.2683 42.4115 31.2108C41.6841 31.0077 40.9229 30.9347 40.1718 31.0252Z" fill="#E8F4FB"/>
<path d="M27.3613 27.8096C24.4512 27.2966 21.487 27.3829 18.5446 27.3481C20.4464 27.8584 22.3988 28.1498 24.3589 28.3185C26.3136 28.4426 28.2736 28.4414 30.23 28.5258C30.3145 28.5286 30.399 28.5313 30.4835 28.5341C29.4591 28.2274 28.4158 27.9871 27.3613 27.8096Z" fill="#E8F4FB"/>
<path d="M27.4784 29.3919C28.5204 29.7699 29.6291 29.9128 30.7341 29.8854C29.6094 29.5267 28.6332 29.4085 27.4784 29.3919Z" fill="#E8F4FB"/>
<path d="M39.0271 36.6193C38.7322 36.5087 38.4361 36.4015 38.1385 36.2978C36.9504 35.8806 35.7356 35.5368 34.4986 35.2988C32.4694 34.9198 30.715 34.8351 28.5538 34.6181C31.8853 35.8756 35.4488 36.2419 38.9633 36.632C39.0039 36.6289 39.1924 36.6736 39.0271 36.6193Z" fill="#E8F4FB"/>
<path d="M41.542 36.7675C42.0213 36.9294 42.5238 37.0142 43.0297 37.0164C42.5542 36.8387 42.0496 36.7534 41.542 36.7675Z" fill="#E8F4FB"/>
<path d="M58.5728 31.546C58.3863 31.6619 46.3209 39.1622 46.1295 39.2811L15.0847 33.087L14.6904 33.2169L45.8098 39.4799L46.4027 39.5992L59.0703 31.6143L58.5728 31.546Z" fill="#4282CE"/>
<path d="M22.0085 41.7487L17.2982 40.6246C17.2736 40.6187 17.2505 40.6035 17.229 40.5781L21.9342 41.6999C21.9571 41.7265 21.9821 41.7425 22.0085 41.7487Z" fill="#2B7BEF"/>
<path d="M29.8643 26.7285L13.5024 21.4706C12.886 20.4221 12.853 19.0812 13.3443 17.9773L29.7536 21.968C29.1298 23.4731 29.1041 25.2674 29.8643 26.7285Z" fill="#6C6C6C"/>
<path d="M57.6072 19.106L57.5646 22.0407L30.1856 26.0639C29.7208 24.9568 29.7265 23.6795 30.1054 22.5481L57.6072 19.106Z" fill="white"/>
<path d="M29.8562 23.6971C29.7742 24.4953 29.8729 25.3222 30.1857 26.0639L57.5646 22.0407L57.5572 22.5538L29.8643 26.7285C29.1041 25.2675 29.1298 23.4732 29.7535 21.968L57.6147 18.5882L57.6072 19.1061L30.1054 22.5481C29.9811 22.9174 29.8966 23.3096 29.8562 23.6971Z" fill="#5D5D5D"/>
<path d="M29.7536 21.9678L13.3442 17.9771L36.7884 15.9178L57.6147 18.588L29.7536 21.9678Z" fill="#5D5D5D"/>
<path d="M28.3285 21.6214L27.6948 21.4672C27.275 22.9379 27.2506 24.5209 27.6171 26.0063L28.3574 26.2442C27.9063 24.7492 27.8948 23.1211 28.3285 21.6214Z" fill="#80B9EE"/>
<path d="M26.7625 21.2406L26.1288 21.0864C25.7213 22.5134 25.6867 24.0462 26.0198 25.4931L26.7527 25.7286C26.3407 24.2709 26.3417 22.6955 26.7625 21.2406Z" fill="#80B9EE"/>
<path d="M14.6214 18.2879L14.2392 18.1949C13.8922 19.3248 13.867 20.5403 14.1602 21.682L14.611 21.8267C14.271 20.6831 14.272 19.4261 14.6214 18.2879Z" fill="#80B9EE"/>
<path d="M49.1076 21.1441C47.8807 21.1758 46.6804 21.4524 45.4736 21.6481C47.3939 21.8868 49.3469 21.6545 51.2185 21.1981C51.2596 21.1876 51.3005 21.1771 51.3415 21.1664C50.5972 21.137 49.8521 21.1146 49.1076 21.1441Z" fill="#E8F4FB"/>
<path d="M50.2212 20.6052C50.9641 20.6821 51.7143 20.6311 52.4396 20.4524C51.6967 20.3729 50.946 20.424 50.2212 20.6052Z" fill="#E8F4FB"/>
<path d="M54.156 20.2338C54.5262 20.2474 54.8955 20.1947 55.2476 20.0802C54.8775 20.0644 54.5075 20.1175 54.156 20.2338Z" fill="#E8F4FB"/>
<path d="M52.4536 21.0781C52.9767 21.1412 53.5063 21.1103 54.018 20.9842C53.495 20.9256 52.9658 20.9567 52.4536 21.0781Z" fill="#E8F4FB"/>
<path d="M33.9785 24.8897C35.9329 24.9545 37.866 24.6044 39.7524 24.1227C37.7939 23.9831 35.8506 24.3338 33.9785 24.8897Z" fill="#E8F4FB"/>
<path d="M40.0687 23.4899C40.598 23.5388 41.1308 23.4854 41.6415 23.3392C41.1126 23.2998 40.581 23.3533 40.0687 23.4899Z" fill="#E8F4FB"/>
<path d="M41.2072 23.7476C41.5267 23.7746 41.8484 23.7436 42.1572 23.6571C41.8376 23.6301 41.516 23.6611 41.2072 23.7476Z" fill="#E8F4FB"/>
<path d="M24.6578 21.4382C24.0075 21.2269 23.3806 20.9495 22.7281 20.7448C22.1042 20.5538 21.458 20.4433 20.8073 20.4025C21.8912 20.8063 23.0038 21.3272 24.2249 21.4481C24.3426 21.4565 24.9769 21.5206 24.6578 21.4382Z" fill="#B0B0B0"/>
<path d="M23.3162 21.5447C23.7733 21.7798 24.2722 21.9193 24.7836 21.9666C24.321 21.7459 23.8247 21.6066 23.3162 21.5447Z" fill="#B0B0B0"/>
<path d="M14.7289 20.3859C14.9395 20.8498 15.2438 21.2677 15.6413 21.5886C15.3668 21.1315 15.0914 20.756 14.7289 20.3859Z" fill="#B0B0B0"/>
<path d="M16.4962 21.8305C16.0502 21.1267 15.5711 20.5381 15.0458 19.9432C15.4149 20.8382 15.9938 21.6311 16.7306 22.2586C16.7535 22.2788 16.7765 22.2986 16.7995 22.3183C16.6996 22.1548 16.5999 21.9914 16.4962 21.8305Z" fill="#B0B0B0"/>
<path d="M15.6274 19.6471C16.1624 20.5899 16.8431 21.4505 17.7009 22.1195C17.1203 21.2089 16.4464 20.3556 15.6274 19.6471Z" fill="#B0B0B0"/>
<path d="M16.6046 15.6999C16.583 16.3073 16.6492 16.9215 16.8016 17.51L36.1042 20.3481L36.1129 20.9378L16.6684 17.9459C16.3259 16.806 16.2502 15.5684 16.5241 14.4061L36.0463 16.377L36.055 16.973L16.695 14.8845C16.6438 15.1512 16.615 15.4286 16.6046 15.6999Z" fill="#4BA8FF"/>
<path d="M16.6022 15.7793C16.6096 15.4812 16.6388 15.1773 16.695 14.8844L36.055 16.9729L36.1042 20.348L16.8015 17.5098C16.6557 16.9471 16.589 16.3604 16.6022 15.7793Z" fill="#FEFEFE"/>
<path d="M36.1042 20.348L36.0549 16.9729L55.3612 14.6926L55.329 17.5215L36.1042 20.348Z" fill="#E8F4FB"/>
<path d="M55.56 17.9805L36.1129 20.9377L36.1043 20.348L55.329 17.5216L55.3613 14.6926L36.055 16.9729L36.0463 16.377L55.6048 14.1667L55.56 17.9805Z" fill="#4BA8FF"/>
<path d="M16.524 14.4062L34.8606 12.8949L55.6047 14.1667L36.0462 16.3771L16.524 14.4062Z" fill="#2294FE"/>
<path d="M41.3214 18.7171C39.8298 18.7907 38.366 19.1077 36.9176 19.4539C38.7439 19.5982 40.5652 19.2868 42.2963 18.7101C42.3327 18.6986 42.3692 18.6869 42.4056 18.6752C42.0439 18.6802 41.6823 18.6938 41.3214 18.7171Z" fill="#FEFEFE"/>
<path d="M39.8259 17.9947C40.5729 18.0234 41.3158 17.9094 42.0327 17.7031C41.2849 17.6522 40.5379 17.7666 39.8259 17.9947Z" fill="#FEFEFE"/>
<path d="M42.7672 18.0161C43.5361 18.0826 44.309 17.9857 45.047 17.7644C44.2779 17.7207 43.5102 17.8174 42.7672 18.0161Z" fill="#FEFEFE"/>
<path d="M49.01 16.4247C50.7485 16.5317 52.4908 16.3527 54.1795 15.9307C52.4402 15.7891 50.6929 15.9679 49.01 16.4247Z" fill="#FEFEFE"/>
<path d="M32.9293 17.5969C32.104 17.3214 31.2634 17.074 30.4008 16.9492C29.5095 16.8331 28.6064 16.8377 27.7107 16.8932C29.0385 17.213 30.4094 17.4427 31.6124 17.5455C32.0861 17.5892 32.5611 17.6169 33.0365 17.6339C33.0008 17.6216 32.9651 17.6092 32.9293 17.5969Z" fill="#E8F4FB"/>
<path d="M33.3831 17.2675C33.8412 17.4341 34.3236 17.5245 34.811 17.5339C34.356 17.3556 33.8717 17.2651 33.3831 17.2675Z" fill="#E8F4FB"/>
<path d="M33.5061 17.8965C33.9181 18.0104 34.3472 18.0498 34.7728 18.0111C34.3605 17.8993 33.9318 17.86 33.5061 17.8965Z" fill="#E8F4FB"/>
<path d="M19.5465 17.1194C20.9446 17.5094 22.389 17.7022 23.8402 17.7036C22.4622 17.2263 21.0018 17.0306 19.5465 17.1194Z" fill="#E8F4FB"/>
<path d="M32.4469 15.3811C30.7736 13.56 30.8298 10.5172 32.4223 8.66292L25.5042 8.43602C24.052 10.0725 24.0844 12.8131 25.6727 14.3478L32.554 15.4933C32.5269 15.4659 32.4732 15.4096 32.4469 15.3811Z" fill="#676767"/>
<path d="M49.9911 8.02344C46.6988 8.14837 38.5903 8.65046 32.3916 8.72689C29.3852 8.76402 27.0205 8.582 25.5043 8.43605C31.0734 8.20562 44.5782 7.73992 49.9911 8.02344Z" fill="#5B5B5B"/>
<path d="M32.0426 13.474C32.2064 13.9601 32.4593 14.4206 32.7945 14.8095L49.7341 13.6707L49.9677 13.655L49.9652 14.2647L32.554 15.4933C30.7742 13.6931 30.7951 10.555 32.4223 8.66291L49.991 8.02339L49.9884 8.64236L49.5627 8.65916L32.6908 9.33054C31.8183 10.4964 31.5781 12.0971 32.0426 13.474Z" fill="#5B5B5B"/>
<path d="M32.0658 13.541C31.5705 12.1494 31.8041 10.5154 32.6908 9.33052L49.5627 8.65913C49.5626 8.69748 49.5451 13.6169 49.5448 13.6523L32.7671 14.7771C32.4607 14.4135 32.2249 13.9886 32.0658 13.541Z" fill="#ECECEC"/>
<path d="M49.545 13.614L49.9677 13.6551C49.8623 13.6681 49.6491 13.672 49.5449 13.6523L49.545 13.614Z" fill="#3AA895"/>
<path d="M49.7341 13.6706L32.7945 14.8095L32.7671 14.7771C32.9557 14.7946 49.5613 13.5929 49.7341 13.6706Z" fill="#3AA895"/>
<path d="M28.9888 12.0245C28.9807 10.8192 29.2348 9.60996 29.6934 8.57332L29.0485 8.55214C28.6157 9.6157 28.3788 10.8259 28.3869 12.0286C28.3935 12.999 28.56 13.9759 28.8587 14.878L29.5353 14.9907C29.1899 14.0683 28.9956 13.0438 28.9888 12.0245Z" fill="#80B9EE"/>
<path d="M30.2183 12.0769C30.2124 10.8529 30.5457 9.62282 31.1334 8.62057L30.4945 8.59972C29.9488 9.63704 29.6429 10.8624 29.6489 12.0797C29.6539 13.1279 29.8908 14.1829 30.3112 15.1199L30.9965 15.234C30.5042 14.2895 30.2238 13.1798 30.2183 12.0769Z" fill="#80B9EE"/>
<path d="M25.5719 11.3661C25.5598 10.8198 25.4022 10.3803 25.2201 10.3844C25.0379 10.3885 24.9003 10.8346 24.9125 11.3808C24.9248 11.9272 25.0823 12.3667 25.2644 12.3626C25.4465 12.3586 25.5841 11.9124 25.5719 11.3661Z" fill="#80B9EE"/>
<path d="M38.0639 9.64489C37.0206 9.69677 35.9868 9.87453 34.9653 10.0867C36.9919 10.2752 39.034 10.16 41.0354 9.7981C40.0502 9.67997 39.0564 9.61002 38.0639 9.64489Z" fill="#FEFEFE"/>
<path d="M48.4535 9.03672C46.5275 8.83678 44.5742 8.94881 42.707 9.47782C44.2084 9.52433 45.7206 9.53377 47.2068 9.28922C47.6698 9.21617 48.1347 9.15059 48.592 9.04625C48.5458 9.04325 48.4996 9.03998 48.4535 9.03672Z" fill="#FEFEFE"/>
<path d="M47.4595 9.63294C47.8227 9.67413 48.1898 9.65227 48.5463 9.57126C48.1832 9.52286 47.8147 9.54461 47.4595 9.63294Z" fill="#FEFEFE"/>
<path d="M43.312 10.2267C43.6917 10.2572 44.074 10.2301 44.4449 10.1426C44.0651 10.0951 43.6802 10.1224 43.312 10.2267Z" fill="#FEFEFE"/>
<path d="M41.5293 13.3165C42.443 13.3945 43.3618 13.3094 44.2509 13.089C43.3373 12.9958 42.4161 13.0811 41.5293 13.3165Z" fill="#FEFEFE"/>
<path d="M32.7416 10.9859C33.8266 11.1756 34.936 11.1623 36.0176 10.9562C34.9309 10.7894 33.8255 10.8025 32.7416 10.9859Z" fill="#FEFEFE"/>
<path d="M34.9645 12.0037C35.5545 12.0416 36.1464 11.9927 36.7223 11.8595C36.1325 11.7861 35.5343 11.835 34.9645 12.0037Z" fill="#FEFEFE"/>
<path d="M27.0692 9.15225C26.9848 9.86029 27.0645 10.5748 27.2856 11.252C27.3072 10.4978 27.2316 9.86498 27.0692 9.15225Z" fill="#5D5D5D"/>
<path d="M27.7693 9.28897C27.5867 9.9356 27.5637 10.6122 27.6663 11.2745C27.7947 10.6164 27.82 9.98595 27.7693 9.28897Z" fill="#5D5D5D"/>
<path d="M45.1418 9.26497L46.0297 9.23574L46.1119 9.23299L46.9678 9.20482L47.0512 12.9336L46.139 12.2805L45.2282 13.1274L45.1418 9.26497Z" fill="#3B73C5"/>
<path d="M47.5846 7.34025L47.8261 7.33804L39.3964 7.76646L39.14 7.76804L39.3258 7.75861C39.4689 7.75129 47.4444 7.34726 47.5846 7.34025Z" fill="#7763A8"/>
</svg>
