<svg width="81" height="58" viewBox="0 0 81 58" fill="none" xmlns="http://www.w3.org/2000/svg">
<path d="M56.3156 12.4309C56.3156 13.2389 55.6647 13.8941 54.8616 13.8941H21.2606C20.4576 13.8941 19.8065 13.2389 19.8065 12.4309V12.1057C19.8065 11.2975 20.4576 10.6423 21.2606 10.6423H54.8616C55.6647 10.6423 56.3156 11.2975 56.3156 12.1057V12.4309Z" fill="#F8F8F9"/>
<path d="M54.8908 10.6423H49.073V13.8941H54.8908C55.6778 13.8941 56.3157 13.2389 56.3157 12.4309V12.1057C56.3157 11.2975 55.6778 10.6423 54.8908 10.6423Z" fill="#DBDCD8"/>
<path d="M53.3619 13.4507L52.6205 12.5764L52.7658 12.416L53.5073 13.2902L53.3619 13.4507Z" fill="#FEFEFE"/>
<path d="M52.1764 11.2808C52.0046 11.2808 51.839 11.3486 51.7099 11.4715C51.4173 11.7504 51.3885 12.2353 51.6459 12.5523C51.7802 12.7175 51.9739 12.8123 52.1771 12.8123C52.3489 12.8123 52.5147 12.7446 52.6437 12.6216C52.7854 12.4865 52.8703 12.2997 52.8824 12.0956C52.8946 11.8914 52.8324 11.6945 52.7077 11.5408C52.5735 11.3755 52.3797 11.2808 52.1764 11.2808ZM52.1771 13.0073C51.9219 13.0073 51.679 12.8884 51.5108 12.681C51.1876 12.2833 51.2238 11.6751 51.591 11.3251C51.7529 11.1708 51.9609 11.0858 52.1764 11.0858C52.4315 11.0858 52.6745 11.2048 52.8428 11.4121C52.9993 11.6048 53.077 11.8519 53.0621 12.1081C53.0469 12.3641 52.9406 12.5985 52.7626 12.7679C52.6006 12.9223 52.3925 13.0073 52.1771 13.0073Z" fill="#FEFEFE"/>
<path d="M67.2537 47.9124C67.2537 49.1251 66.2755 50.1077 65.0678 50.1077H11.0545C9.84711 50.1077 8.86865 49.1251 8.86865 47.9124V16.6803C8.86865 15.4682 9.84711 14.4854 11.0545 14.4854H65.0678C66.2755 14.4854 67.2537 15.4682 67.2537 16.6803V47.9124Z" fill="#3C4342"/>
<path d="M8.86865 47.4471V48.2989C8.86865 49.2981 9.84711 50.1077 11.0545 50.1077H65.0678C66.2755 50.1077 67.2537 49.2981 67.2537 48.2989V47.4471H8.86865Z" fill="#343837"/>
<path fill-rule="evenodd" clip-rule="evenodd" d="M74.0529 48.1862H2.06934V50.3066C2.92374 51.5702 5.0016 52.4727 6.06841 52.4727H70.068C71.1267 52.4727 73.1908 51.5788 74.0529 50.3248V48.1862Z" fill="#F8F8F9"/>
<path fill-rule="evenodd" clip-rule="evenodd" d="M2.06934 50.4034C2.95084 51.6142 4.9786 52.4727 6.02842 52.4727H70.0964C71.1432 52.4727 73.1712 51.6142 74.0529 50.4034H2.06934Z" fill="#C5C4C1"/>
<path d="M32.0748 48.1862C32.1409 49.0129 32.8214 49.6643 33.653 49.6643H42.4691C43.3005 49.6643 43.981 49.0129 44.0475 48.1862H32.0748Z" fill="#C5C4C1"/>
<path d="M15.0554 16.9982H12.2683V45.3777H64.0019V41.5054L15.0554 16.9982Z" fill="#F8F8F9"/>
<path d="M64.0018 16.9982H14.9288L64.0018 41.5347V16.9982Z" fill="#FEFEFE"/>
<path d="M16.8503 34.7354V8.73862C16.8503 8.56504 16.9586 8.42514 17.0927 8.42514H59.0288C59.1625 8.42514 59.2719 8.56504 59.2719 8.73862V34.7354H16.8503Z" fill="#2E4C7A"/>
<path d="M16.8503 34.7354V34.2972C16.8503 34.2944 16.9587 34.2919 17.0927 34.2919H59.0288C59.1625 34.2919 59.2719 34.2944 59.2719 34.2972V34.7354H16.8503Z" fill="#3C4342"/>
<path d="M59.2719 26.3103V8.86194C59.2719 8.70198 59.1625 8.57303 59.0288 8.57303H17.0927C16.9586 8.57303 16.8503 8.70198 16.8503 8.86194V26.3103H59.2719Z" fill="#20304B"/>
<path d="M44.4737 0H31.7967C30.1545 0 28.823 1.33342 28.823 2.97805V6.79927H47.4471V2.97805C47.4471 1.33342 46.1159 0 44.4737 0ZM44.4737 1.69063C45.1825 1.69063 45.7591 2.26829 45.7591 2.97805V5.10876H30.5113V2.97805C30.5113 2.26829 31.0879 1.69063 31.7967 1.69063H44.4737Z" fill="#20304B"/>
<path d="M45.7591 3.84314V5.08934H30.5113V3.84314H28.823V6.79934H47.4471V3.84314H45.7591Z" fill="#2E4C7A"/>
<path d="M19.8065 5.61686H26.6058V4.58218H19.8065V5.61686Z" fill="#335A9A"/>
<path d="M49.5165 5.61686H56.4636V4.58218H49.5165V5.61686Z" fill="#335A9A"/>
<path d="M14.9288 5.02545V20.0223C14.9288 22.5865 14.8997 24.6842 17.4778 24.6842H58.9037C61.4817 24.6842 61.3398 22.5865 61.3398 20.0223V5.02545H14.9288Z" fill="#2E4C7A"/>
<path d="M33.9964 24.6842H17.4679C14.9575 24.6842 14.9288 22.6796 14.9288 20.1944C14.9288 20.1373 14.9288 20.08 14.9288 20.0223V5.02545H21.998L33.9964 24.6842Z" fill="#20304B"/>
<path d="M39.0219 24.6842H35.7038L23.7975 5.02545H27.1163L39.0219 24.6842Z" fill="#20304B"/>
<path d="M37.8395 24.0931H39.9088V23.6496H37.8395V24.0931Z" fill="#DBDCD8"/>
<path d="M39.8794 24.096H36.0953V23.6457H39.8794V24.096ZM39.8794 26.4825C39.8794 26.8656 39.5609 27.1771 39.1699 27.1771H36.805C36.4135 27.1771 36.0953 26.8656 36.0953 26.4825V24.9645H39.8794V26.4825ZM39.1699 20.6934H36.805C36.1518 20.6934 35.6223 21.2118 35.6223 21.8513V26.4825C35.6223 27.122 36.1518 27.6405 36.805 27.6405H39.1699C39.8226 27.6405 40.3522 27.122 40.3522 26.4825V21.8513C40.3522 21.2118 39.8226 20.6934 39.1699 20.6934Z" fill="#FDFCFC"/>
<path d="M38.135 24.9799H36.3613V26.501C36.3613 26.8849 36.6597 27.197 37.0267 27.197H39.2436C39.6102 27.197 39.9088 26.8849 39.9088 26.501V24.9799H38.135Z" fill="#DBDCD8"/>
<path d="M36.3613 24.0931H38.1351V23.6496H36.3613V24.0931Z" fill="#DBDCD8"/>
<path d="M68.1406 33.1094V38.135L70.6534 38.1347V33.1099L68.1406 33.1094Z" fill="#4F5A58"/>
<path d="M70.6534 34.7353V33.1098L68.1406 33.1094V34.7353H70.6534Z" fill="#3C4342"/>
<path d="M66.958 47.4471H71.5401V36.9525H66.958V47.4471Z" fill="#6BB8FF"/>
<path d="M66.958 47.4471H69.1752V36.9525H66.958V47.4471Z" fill="#50A3EF"/>
<path d="M71.5401 48.186V47.4471H66.958V48.1862L71.5401 48.186Z" fill="#FEFEFE"/>
<path d="M66.958 37.2483H71.5401V36.3614H66.958V37.2483Z" fill="#FEFEFE"/>
<path d="M71.3902 32.8166C65.7201 33.9923 60.1649 30.3769 58.9824 24.7431C57.8001 19.1087 61.4371 13.5883 67.1074 12.4127C72.7783 11.2385 78.3331 14.8524 79.5162 20.4874C80.6985 26.1217 77.0604 31.6415 71.3902 32.8166ZM77.5581 14.3579C72.9694 9.79815 65.5286 9.7976 60.9397 14.3578C56.3505 18.9181 56.3512 26.3118 60.9397 30.8716C65.5292 35.432 72.9692 35.432 77.5581 30.8716C82.1466 26.3116 82.1476 18.9185 77.5581 14.3579Z" fill="#20304B"/>
<path d="M71.883 32.0749C72.1089 30.4742 72.2255 28.8386 72.2255 27.1747C72.2255 21.7163 70.9687 16.5556 68.7317 11.9727C70.962 12.253 73.1202 13.2597 74.8324 14.9935C78.9172 19.1307 78.917 25.8375 74.8324 29.9741C73.9505 30.8674 72.9503 31.5675 71.883 32.0749Z" fill="#FEFEFE" fill-opacity="0.141176"/>
<path d="M68.3268 32.9618C68.0002 32.9326 67.6767 32.8878 67.3573 32.8282V19.9528C69.1977 17.8132 69.7775 15.3023 68.6241 14.136C68.2208 13.7283 67.6553 13.5347 66.9999 13.5347C66.1127 13.5347 65.0608 13.8894 64.0237 14.5482H62.376C63.6827 13.3865 65.2961 12.54 67.1212 12.155C67.5272 12.0694 67.9332 12.009 68.3365 11.9727C68.4407 11.9826 68.5451 11.9941 68.6492 12.0071C70.8788 16.5675 72.1315 21.7029 72.1315 27.1345C72.1315 28.7903 72.0152 30.4178 71.7901 32.0107C70.6886 32.5334 69.5155 32.8503 68.3268 32.9618Z" fill="#FEFEFE" fill-opacity="0.078431"/>
<path d="M67.2537 32.9617C66.0736 32.7304 64.9513 32.2768 63.9366 31.6354V22.5095C64.8863 22.1229 65.8908 21.4282 66.7926 20.472C66.9543 20.3005 67.1081 20.1256 67.2537 19.948V32.9617ZM61.6514 16.7911H61.3413V15.6996C61.6798 15.2656 62.0508 14.8595 62.452 14.4854H64.0403C63.4914 14.8511 62.9467 15.3093 62.435 15.8519C62.1485 16.1557 61.8868 16.4707 61.6514 16.7911Z" fill="#C0C0C0" fill-opacity="0.2"/>
<path d="M59.2719 26.1624C59.1519 25.7014 59.0527 25.2237 58.9763 24.7314C59.0814 24.723 59.1799 24.7071 59.2719 24.6843V26.1624Z" fill="#6D7472"/>
<path d="M69.2488 33.1096C66.5824 33.1092 63.9151 32.0774 61.8805 30.014C57.8114 25.8871 57.8106 19.1952 61.8805 15.068C63.9152 13.0043 66.5818 11.9727 69.2486 11.9727C71.7801 11.9727 74.3118 12.9025 76.3025 14.7617C74.312 12.9027 71.7804 11.9733 69.2493 11.9733C68.9336 11.9733 68.6183 11.9877 68.3037 12.0166C68.3149 12.0176 68.3259 12.0186 68.3371 12.0197C67.934 12.0561 67.5282 12.1167 67.1223 12.2024C65.298 12.5885 63.6853 13.4371 62.3791 14.6019C61.963 14.973 61.5783 15.3757 61.2273 15.8063C59.28 18.1953 58.3826 21.4276 59.055 24.6979C59.0601 24.7226 59.0653 24.7473 59.0705 24.7719C59.1715 25.2461 59.3025 25.7062 59.461 26.1502C60.2981 28.495 61.9039 30.3959 63.9186 31.6139C64.9708 32.2502 66.1345 32.7 67.3583 32.9295C67.6776 32.9893 68.0009 33.0343 68.3274 33.0635C68.3198 33.0642 68.3119 33.0649 68.3043 33.0656C68.6187 33.0946 68.9346 33.109 69.2502 33.109C71.0677 33.109 72.885 32.6299 74.5024 31.6711C72.8845 32.6302 71.0669 33.1097 69.2488 33.1096ZM76.6173 15.068C76.6133 15.0639 76.6091 15.0598 76.6051 15.0557C76.6091 15.0597 76.6133 15.064 76.6173 15.068Z" fill="#7E8483"/>
<path d="M74.644 31.4836C75.3789 31.0412 76.0709 30.4957 76.701 29.8468C76.071 30.4957 75.3788 31.0413 74.644 31.4836ZM76.6891 15.0714C76.5963 14.9761 76.5023 14.8832 76.4068 14.7924C76.5022 14.8832 76.5964 14.9762 76.6891 15.0714ZM76.4001 14.786C76.3983 14.7844 76.3966 14.7827 76.3948 14.781C76.3967 14.7827 76.3983 14.7843 76.4001 14.786Z" fill="#4B5552"/>
<path d="M69.2019 33.1096C68.8951 33.1096 68.5904 33.0959 68.2883 33.0688C69.4812 32.957 70.6584 32.6391 71.7637 32.1148C72.8312 31.6083 73.8315 30.9094 74.7135 30.0178C78.7988 25.8886 78.799 19.1939 74.7135 15.0642C73.0011 13.3335 70.8425 12.3286 68.6118 12.0488C68.5074 12.0358 68.4027 12.0243 68.298 12.0143C68.3936 12.0057 68.489 11.9985 68.5843 11.9926C68.7978 11.9793 69.0108 11.9727 69.2227 11.9727C74.0704 11.9727 78.4182 15.3979 79.4475 20.3842C80.6043 25.9918 77.1317 31.4875 71.6575 32.8144C71.555 32.8393 71.4515 32.8628 71.3476 32.8847C70.6277 33.0365 69.9094 33.1096 69.2019 33.1096Z" fill="#FEFEFE" fill-opacity="0.290196"/>
<path d="M69.2361 33.1096C68.92 33.1096 68.6038 33.0951 68.2889 33.0661C68.2965 33.0655 68.3044 33.0647 68.3121 33.064C68.6134 33.091 68.9173 33.1047 69.2234 33.1047C69.929 33.1047 70.6455 33.0317 71.3636 32.8799C71.4672 32.8581 71.5705 32.8346 71.6727 32.8097C77.1331 31.4834 80.5968 25.9902 79.443 20.3851C78.4163 15.4011 74.0795 11.9775 69.2441 11.9775C69.0327 11.9775 68.8203 11.9841 68.6073 11.9974C68.5122 12.0033 68.4171 12.0105 68.3217 12.0191C68.3106 12.0181 68.2995 12.017 68.2883 12.016C68.6033 11.9871 68.9191 11.9727 69.2351 11.9727C71.7698 11.9727 74.3048 12.9022 76.2981 14.7613C76.2999 14.763 76.3017 14.7647 76.3035 14.7663C76.3058 14.7685 76.308 14.7706 76.3104 14.7728C76.4087 14.8647 76.5055 14.9588 76.601 15.0553C76.6051 15.0594 76.6092 15.0635 76.6133 15.0676C78.651 17.1315 79.6697 19.8365 79.6697 22.5412C79.6697 25.246 78.6509 27.9508 76.6133 30.0145C75.9645 30.6714 75.2521 31.2238 74.4955 31.6716C72.8759 32.6304 71.056 33.1096 69.2361 33.1096Z" fill="#767B76"/>
<path d="M67.3216 19.9543V16.7787C67.3216 15.5767 66.3528 14.6022 65.1568 14.6022H64.0017C65.0345 13.9498 66.0821 13.5985 66.9656 13.5985C67.6183 13.5985 68.1816 13.7903 68.5831 14.194C69.7318 15.349 69.1544 17.8355 67.3216 19.9543Z" fill="#FEFEFE" fill-opacity="0.211765"/>
<path d="M63.8404 22.4672V16.7789H61.489C61.7312 16.4603 62.0005 16.1469 62.2953 15.8447C62.8218 15.305 63.3822 14.8492 63.9471 14.4854H65.0975C66.2888 14.4854 67.2536 15.4749 67.2536 16.6952V19.9193C67.1038 20.0959 66.9456 20.2699 66.7791 20.4405C65.8512 21.3917 64.8176 22.0826 63.8404 22.4672Z" fill="#565C5B"/>
<path d="M62.3088 23C61.8983 23 61.6084 22.7668 61.2869 22.7668C61.287 22 61.287 21.1415 61.287 20.1886V17C61.2 17 61.6667 17 61.6112 17H64V22.6509C63.404 22.8803 62.8282 23 62.3088 23Z" fill="#FEFEFE"/>
<path d="M59.2487 24.7208C59.2432 24.6969 59.2378 24.6729 59.2324 24.6488C58.5266 21.4678 59.4686 18.3238 61.5128 16V17.4858C61.5128 19.5 61.5 21 61.5 22C61.5 22.1654 61.5 22.5 61.5 22.5C61.3398 23.5477 60.8271 24.4809 59.6586 24.6767C59.531 24.698 59.3945 24.7129 59.2487 24.7208Z" fill="#B8D3FF" fill-opacity="0.3"/>
<path d="M21.1368 57.2025H55.4288V53.5073H21.1368V57.2025Z" fill="#335A9A"/>
<path d="M21.1368 57.2026H55.4288V55.1332H21.1368V57.2026Z" fill="#20304B"/>
<path d="M55.4287 57.2025H57.4981V53.5073H55.4287V57.2025Z" fill="#FEFEFE"/>
<path d="M54.2463 57.2025H54.6898V53.5073H54.2463V57.2025Z" fill="#4282CE"/>
<path d="M21.1369 53.5073L16.1113 55.355L21.1369 57.2025V53.5073Z" fill="#FEFEFE"/>
<path d="M18.1807 56.0201L16.1113 55.4288L18.1807 56.0198V56.0201Z" fill="#554E2B"/>
<path d="M18.1807 56.0201L16.1113 55.3549L18.1807 54.6898V56.0201Z" fill="#4F5A58"/>
<path d="M58.2861 53.8028H57.498V56.9068H58.2861C59.1572 56.9068 59.863 56.379 59.863 55.7277V54.9823C59.863 54.3312 59.1572 53.8028 58.2861 53.8028Z" fill="#CEBB9D"/>
<path d="M58.2861 56.5102H57.498V56.9069H58.2861C59.1572 56.9069 59.863 56.4229 59.863 55.8257V55.4288C59.863 56.0261 59.1572 56.5102 58.2861 56.5102Z" fill="#BCA98E"/>
<path d="M31.4804 54.6899H26.0177C25.8526 54.6899 25.719 54.5575 25.719 54.3944C25.719 54.2309 25.8526 54.0986 26.0177 54.0986H31.4804C31.6454 54.0986 31.7792 54.2309 31.7792 54.3944C31.7792 54.5575 31.6454 54.6899 31.4804 54.6899Z" fill="#BABDBA"/>
<path d="M24.6797 54.6899H23.95C23.7842 54.6899 23.6497 54.5575 23.6497 54.3944C23.6497 54.2309 23.7842 54.0986 23.95 54.0986H24.6797C24.8455 54.0986 24.98 54.2309 24.98 54.3944C24.98 54.5575 24.8455 54.6899 24.6797 54.6899Z" fill="#BABDBA"/>
<path fill-rule="evenodd" clip-rule="evenodd" d="M30.1533 48.1861H0V25.4233H30.1533V48.1861Z" fill="#3B73C5"/>
<path fill-rule="evenodd" clip-rule="evenodd" d="M0.739014 47.447H29.562V45.6733H0.739014V47.447Z" fill="#DBDACF"/>
<path d="M17.5262 24.6952C16.5344 24.8992 15.7075 25.3874 15.2245 26.0319V45.6047L15.2834 46.708C15.4755 46.3894 15.7234 45.7803 16.7104 45.6047H29.4984L29.5621 24.6843L17.5262 24.6952Z" fill="#FCFCFC"/>
<path d="M12.8987 24.6952C13.9005 24.8993 14.7363 25.3878 15.2244 26.0327V46.708C14.8777 46.2499 14.3553 45.8715 13.7237 45.6171H0.803892L0.739014 24.6843L12.8987 24.6952Z" fill="#FEFEFE"/>
<path d="M12.7117 24.6843V45.5901C12.7117 45.5901 14.0994 45.4739 15.2047 46.708L15.2244 26.0116C14.6953 25.3762 13.7931 24.8933 12.7117 24.6843Z" fill="#E9EAE7"/>
<path fill-rule="evenodd" clip-rule="evenodd" d="M5.17334 27.9361H10.4945V27.6405H5.17334V27.9361Z" fill="#D1D0D0"/>
<path fill-rule="evenodd" clip-rule="evenodd" d="M4.58215 28.8229H12.2683V28.6751H4.58215V28.8229Z" fill="#D1D0D0"/>
<path fill-rule="evenodd" clip-rule="evenodd" d="M3.69531 29.1186L12.2683 29.1186V29.2664H3.69531V29.1186Z" fill="#D1D0D0"/>
<path fill-rule="evenodd" clip-rule="evenodd" d="M3.69531 29.7099H12.2683V29.562H3.69531V29.7099Z" fill="#D1D0D0"/>
<path fill-rule="evenodd" clip-rule="evenodd" d="M3.69531 30.0055H12.2683V30.1531L3.69531 30.1533V30.0055Z" fill="#D1D0D0"/>
<path fill-rule="evenodd" clip-rule="evenodd" d="M3.69531 30.5968H12.2683V30.449H3.69531V30.5968Z" fill="#D1D0D0"/>
<path fill-rule="evenodd" clip-rule="evenodd" d="M3.69531 31.0401H12.2683V30.8922H3.69531V31.0401Z" fill="#D1D0D0"/>
<path fill-rule="evenodd" clip-rule="evenodd" d="M3.69531 31.4835H12.2683V31.3357H3.69531V31.4835Z" fill="#D1D0D0"/>
<path fill-rule="evenodd" clip-rule="evenodd" d="M3.69531 32.0748H12.2683V31.7792H3.69531V32.0748Z" fill="#D1D0D0"/>
<path fill-rule="evenodd" clip-rule="evenodd" d="M3.69531 32.5183H7.98181V32.2227H3.69531V32.5183Z" fill="#D1D0D0"/>
<path fill-rule="evenodd" clip-rule="evenodd" d="M4.58215 32.9618H12.2683V32.6661H4.58215V32.9618Z" fill="#D1D0D0"/>
<path fill-rule="evenodd" clip-rule="evenodd" d="M3.69531 33.1099L12.2683 33.1094V33.405H3.69531V33.1099Z" fill="#D1D0D0"/>
<path fill-rule="evenodd" clip-rule="evenodd" d="M3.69531 33.8485H12.2683V33.5529H3.69531V33.8485Z" fill="#D1D0D0"/>
<path fill-rule="evenodd" clip-rule="evenodd" d="M3.69531 33.9963H12.2683V34.2917L3.69531 34.292V33.9963Z" fill="#D1D0D0"/>
<path fill-rule="evenodd" clip-rule="evenodd" d="M3.69531 34.7354H12.2683V34.4398H3.69531V34.7354Z" fill="#D1D0D0"/>
<path fill-rule="evenodd" clip-rule="evenodd" d="M3.69531 35.1788H12.2683V35.031H3.69531V35.1788Z" fill="#D1D0D0"/>
<path fill-rule="evenodd" clip-rule="evenodd" d="M3.69531 35.6223H12.2683V35.4745H3.69531V35.6223Z" fill="#D1D0D0"/>
<path fill-rule="evenodd" clip-rule="evenodd" d="M3.69531 36.0657H12.2683V35.9179H3.69531V36.0657Z" fill="#D1D0D0"/>
<path fill-rule="evenodd" clip-rule="evenodd" d="M3.69531 36.3612H10.6424V36.0656H3.69531V36.3612Z" fill="#D1D0D0"/>
<path fill-rule="evenodd" clip-rule="evenodd" d="M4.58215 36.8047H12.2683V36.5091H4.58215V36.8047Z" fill="#D1D0D0"/>
<path fill-rule="evenodd" clip-rule="evenodd" d="M3.69531 37.3959H12.2683V37.2481H3.69531V37.3959Z" fill="#D1D0D0"/>
<path fill-rule="evenodd" clip-rule="evenodd" d="M3.69531 37.8394H12.2683V37.6916H3.69531V37.8394Z" fill="#D1D0D0"/>
<path fill-rule="evenodd" clip-rule="evenodd" d="M3.69531 38.1351H12.2683V38.4302L3.69531 38.4307V38.1351Z" fill="#D1D0D0"/>
<path fill-rule="evenodd" clip-rule="evenodd" d="M3.69531 38.8742H12.2683V38.5786H3.69531V38.8742Z" fill="#D1D0D0"/>
<path fill-rule="evenodd" clip-rule="evenodd" d="M3.69531 39.3174H12.2683V39.0218H3.69531V39.3174Z" fill="#D1D0D0"/>
<path fill-rule="evenodd" clip-rule="evenodd" d="M3.69531 40.2043H12.2683V39.7609H3.69531V40.2043Z" fill="#D1D0D0"/>
<path fill-rule="evenodd" clip-rule="evenodd" d="M3.69531 39.318L12.2683 39.3176V39.4654H3.69531V39.318Z" fill="#D1D0D0"/>
<path fill-rule="evenodd" clip-rule="evenodd" d="M3.69531 39.9087H12.2683V39.7609H3.69531V39.9087Z" fill="#D1D0D0"/>
<path fill-rule="evenodd" clip-rule="evenodd" d="M3.69531 40.2043H12.2683V40.3521L3.69531 40.3522V40.2043Z" fill="#D1D0D0"/>
<path fill-rule="evenodd" clip-rule="evenodd" d="M3.69531 40.7956H12.2683V40.6478H3.69531V40.7956Z" fill="#D1D0D0"/>
<path fill-rule="evenodd" clip-rule="evenodd" d="M3.69531 41.2391H12.2683V41.0913H3.69531V41.2391Z" fill="#D1D0D0"/>
<path fill-rule="evenodd" clip-rule="evenodd" d="M3.69531 41.8304H12.2683V41.5348H3.69531V41.8304Z" fill="#D1D0D0"/>
<path fill-rule="evenodd" clip-rule="evenodd" d="M3.69531 42.2736H12.2683V41.978H3.69531V42.2736Z" fill="#D1D0D0"/>
<path fill-rule="evenodd" clip-rule="evenodd" d="M19.8065 27.9361H24.9799V27.6405H19.8065V27.9361Z" fill="#D1D0D0"/>
<path fill-rule="evenodd" clip-rule="evenodd" d="M18.7719 28.8229H26.6058V28.6751H18.7719V28.8229Z" fill="#D1D0D0"/>
<path fill-rule="evenodd" clip-rule="evenodd" d="M18.1807 29.1186L26.6058 29.1186V29.2664H18.1807V29.1186Z" fill="#D1D0D0"/>
<path fill-rule="evenodd" clip-rule="evenodd" d="M18.1807 29.7099H26.6058V29.562H18.1807V29.7099Z" fill="#D1D0D0"/>
<path fill-rule="evenodd" clip-rule="evenodd" d="M18.1807 30.0055H26.6058V30.1531L18.1807 30.1533V30.0055Z" fill="#D1D0D0"/>
<path fill-rule="evenodd" clip-rule="evenodd" d="M18.1807 30.5968H26.6058V30.449H18.1807V30.5968Z" fill="#D1D0D0"/>
<path fill-rule="evenodd" clip-rule="evenodd" d="M18.1807 31.0401H26.6058V30.8922H18.1807V31.0401Z" fill="#D1D0D0"/>
<path fill-rule="evenodd" clip-rule="evenodd" d="M18.1807 31.4835H26.6058V31.3357H18.1807V31.4835Z" fill="#D1D0D0"/>
<path fill-rule="evenodd" clip-rule="evenodd" d="M18.1807 32.0748H26.6058V31.7792H18.1807V32.0748Z" fill="#D1D0D0"/>
<path fill-rule="evenodd" clip-rule="evenodd" d="M18.1807 32.5183H22.4672V32.2227H18.1807V32.5183Z" fill="#D1D0D0"/>
<path fill-rule="evenodd" clip-rule="evenodd" d="M18.7719 32.9618H26.6058V32.6661H18.7719V32.9618Z" fill="#D1D0D0"/>
<path fill-rule="evenodd" clip-rule="evenodd" d="M18.1807 33.1099L26.6058 33.1094V33.405H18.1807V33.1099Z" fill="#D1D0D0"/>
<path fill-rule="evenodd" clip-rule="evenodd" d="M18.1807 33.8485H26.6058V33.5529H18.1807V33.8485Z" fill="#D1D0D0"/>
<path fill-rule="evenodd" clip-rule="evenodd" d="M18.1807 33.9963H26.6058V34.2917L18.1807 34.292V33.9963Z" fill="#D1D0D0"/>
<path fill-rule="evenodd" clip-rule="evenodd" d="M18.1807 34.7354H26.6058V34.4398H18.1807V34.7354Z" fill="#D1D0D0"/>
<path fill-rule="evenodd" clip-rule="evenodd" d="M18.1807 35.1788H26.6058V35.031H18.1807V35.1788Z" fill="#D1D0D0"/>
<path fill-rule="evenodd" clip-rule="evenodd" d="M18.1807 35.6223H26.6058V35.4745H18.1807V35.6223Z" fill="#D1D0D0"/>
<path fill-rule="evenodd" clip-rule="evenodd" d="M18.1807 36.0657H26.6058V35.9179H18.1807V36.0657Z" fill="#D1D0D0"/>
<path fill-rule="evenodd" clip-rule="evenodd" d="M18.1807 36.3612H25.1277V36.0656H18.1807V36.3612Z" fill="#D1D0D0"/>
<path fill-rule="evenodd" clip-rule="evenodd" d="M18.7719 36.8047H26.6058V36.5091H18.7719V36.8047Z" fill="#D1D0D0"/>
<path fill-rule="evenodd" clip-rule="evenodd" d="M18.1807 37.3959H26.6058V37.2481H18.1807V37.3959Z" fill="#D1D0D0"/>
<path fill-rule="evenodd" clip-rule="evenodd" d="M18.1807 37.8394H26.6058V37.6916H18.1807V37.8394Z" fill="#D1D0D0"/>
<path fill-rule="evenodd" clip-rule="evenodd" d="M18.1807 38.1351H26.6058V38.4302L18.1807 38.4307V38.1351Z" fill="#D1D0D0"/>
<path fill-rule="evenodd" clip-rule="evenodd" d="M18.1807 38.8742H26.6058V38.5786H18.1807V38.8742Z" fill="#D1D0D0"/>
<path fill-rule="evenodd" clip-rule="evenodd" d="M18.1807 39.3174H26.6058V39.0218H18.1807V39.3174Z" fill="#D1D0D0"/>
<path fill-rule="evenodd" clip-rule="evenodd" d="M18.1807 40.2043H26.6058V39.7609H18.1807V40.2043Z" fill="#D1D0D0"/>
<path fill-rule="evenodd" clip-rule="evenodd" d="M18.1807 39.318L26.6058 39.3176V39.4654H18.1807V39.318Z" fill="#D1D0D0"/>
<path fill-rule="evenodd" clip-rule="evenodd" d="M18.1807 39.9087H26.6058V39.7609H18.1807V39.9087Z" fill="#D1D0D0"/>
<path fill-rule="evenodd" clip-rule="evenodd" d="M18.1807 40.2043H26.6058V40.3521L18.1807 40.3522V40.2043Z" fill="#D1D0D0"/>
<path fill-rule="evenodd" clip-rule="evenodd" d="M18.1807 40.7956H26.6058V40.6478H18.1807V40.7956Z" fill="#D1D0D0"/>
<path fill-rule="evenodd" clip-rule="evenodd" d="M18.1807 41.2391H26.6058V41.0913H18.1807V41.2391Z" fill="#D1D0D0"/>
<path fill-rule="evenodd" clip-rule="evenodd" d="M18.1807 41.8304H26.6058V41.5348H18.1807V41.8304Z" fill="#D1D0D0"/>
<path fill-rule="evenodd" clip-rule="evenodd" d="M18.1807 42.2736H26.6058V41.978H18.1807V42.2736Z" fill="#D1D0D0"/>
</svg>
