<svg width="42" height="44" viewBox="0 0 42 44" fill="none" xmlns="http://www.w3.org/2000/svg">
<path d="M41.9721 14.0934C42.1486 15.086 41.4708 16.0311 40.4587 16.205C39.4466 16.3781 38.4829 15.7142 38.3057 14.7208C37.8149 11.9907 36.3612 9.63077 34.3243 7.95453C32.2859 6.27683 29.6615 5.28206 26.8307 5.28206C23.6134 5.28206 20.7 6.56095 18.5917 8.62867C16.484 10.6964 15.1793 13.5529 15.1793 16.7089C15.1793 18.7489 15.7587 20.7122 16.7745 22.4198C17.7993 24.1406 19.2552 25.597 21.0002 26.6101C23.3081 27.6457 24.9786 29.0167 26.2684 30.8887C27.5017 32.6788 28.3426 34.8875 29.0441 37.6893L29.0642 37.7784C29.2362 38.5555 29.6801 39.2158 30.2826 39.673C30.894 40.1361 31.6693 40.3932 32.4915 40.3537C32.5481 40.3515 32.6047 40.3515 32.6598 40.3537C34.1463 40.3399 35.4958 39.7475 36.4833 38.7929C37.4857 37.8244 38.1121 36.4842 38.1277 35.0007C38.1359 33.9965 38.973 33.1879 39.997 33.196C41.0218 33.204 41.8454 34.0249 41.8372 35.0292C41.8112 37.522 40.7626 39.7694 39.0869 41.3894C37.4351 42.9861 35.1696 43.9757 32.6695 43.9918H32.6658C30.9357 44.0736 29.3033 43.5324 28.0134 42.5551C26.7361 41.5859 25.7963 40.1894 25.4336 38.5468C24.8356 36.1657 24.1511 34.331 23.1845 32.9286C22.2826 31.6198 21.091 30.6535 19.4228 29.9114L19.425 29.907C19.3699 29.8829 19.3163 29.8559 19.2627 29.8259C16.8855 28.4813 14.9186 26.5436 13.5602 24.2604C12.2189 22.0072 11.4556 19.4121 11.4556 16.7089C11.4556 12.545 13.1766 8.77549 15.959 6.04604C18.7413 3.31732 22.5857 1.62939 26.8307 1.62939C30.5581 1.62939 34.019 2.94335 36.7097 5.15788C39.4027 7.37387 41.3241 10.4904 41.9721 14.0934ZM21.2772 14.3264C21.0612 15.1006 20.3388 15.6696 19.4809 15.6696C18.4524 15.6696 17.619 14.8523 17.619 13.8436C17.619 13.5712 17.6801 13.3126 17.7888 13.0804C18.6483 10.8228 20.3425 9.09906 22.4055 8.1291C24.4699 7.15842 26.9022 6.94222 29.2318 7.70182C29.3435 7.72884 29.4515 7.76682 29.5542 7.81284C31.8637 8.65863 33.6027 10.3254 34.5701 12.3551C35.5561 14.4228 35.7393 16.8638 34.9059 19.1879C34.6505 19.9073 33.9802 20.3696 33.2489 20.4069C32.5213 20.4872 31.886 20.8459 31.4429 21.3659C30.9864 21.9005 30.7384 22.6046 30.8061 23.3503C30.8739 24.0902 31.2448 24.7374 31.7907 25.1851C32.3359 25.6321 33.0538 25.8753 33.8142 25.8088H33.8149C33.8454 25.8066 33.9251 25.7935 34.054 25.7708C34.1374 25.7562 34.2156 25.7394 34.2878 25.7204C35.2798 25.4604 36.2994 26.0389 36.5637 27.0118C36.8289 27.9846 36.2398 28.9845 35.2478 29.2446C35.0601 29.2935 34.8747 29.3344 34.6937 29.3665C34.5969 29.3833 34.4733 29.3994 34.3236 29.4147C34.2104 29.4359 34.0934 29.4469 33.9743 29.4469V29.4447C32.2517 29.5542 30.6364 28.9911 29.4053 27.981C28.1854 26.9811 27.3394 25.5379 27.1338 23.8704C27.1093 23.7528 27.0966 23.6315 27.0966 23.5074H27.0988C26.9879 21.818 27.5613 20.2338 28.5913 19.0265C29.377 18.1054 30.4301 17.4014 31.6492 17.0347C31.8302 15.9398 31.6641 14.8487 31.2098 13.8955C30.6274 12.6743 29.5706 11.6766 28.166 11.1916C26.7451 10.7015 25.2593 10.8213 24.0059 11.4107C22.789 11.9826 21.7888 12.9978 21.2772 14.3264Z" fill="white"/>
<path fill-rule="evenodd" clip-rule="evenodd" d="M14.9065 0.478142C15.4598 1.07509 15.415 1.99895 14.8063 2.54165C10.941 5.98801 8.64477 10.9271 8.65374 16.2136C8.66202 21.0264 10.58 25.5444 13.8488 28.9072C14.4164 29.4912 14.3938 30.4158 13.7984 30.9725C13.203 31.5291 12.2602 31.507 11.6926 30.9231C7.90719 27.0288 5.68438 21.7948 5.67479 16.2185L5.67479 16.2185C5.66439 10.0934 8.3252 4.37181 12.8024 0.379916C13.4111 -0.162782 14.3531 -0.118805 14.9065 0.478142Z" fill="white"/>
<path fill-rule="evenodd" clip-rule="evenodd" d="M4.13295 4.60642C4.88856 4.92535 5.23748 5.78463 4.91229 6.52568C3.0021 10.8785 2.49111 15.7155 3.45188 20.3636C3.61532 21.1543 3.09424 21.9252 2.28803 22.0855C1.48181 22.2458 0.695747 21.7347 0.53231 20.944C-0.548995 15.7129 0.0258383 10.2704 2.17598 5.37074C2.50118 4.62969 3.37734 4.28749 4.13295 4.60642Z" fill="white"/>
</svg>
