<svg width="33" height="35" viewBox="0 0 33 35" fill="none" xmlns="http://www.w3.org/2000/svg">
<path fill-rule="evenodd" clip-rule="evenodd" d="M32.7544 27.8637C32.7338 29.8469 31.9131 31.6345 30.6012 32.9231C29.3076 34.1936 27.5338 34.9806 25.5764 34.9933L25.5733 34.9935C24.2187 35.0587 22.9402 34.6281 21.9308 33.8504C20.9305 33.0796 20.1946 31.9685 19.9103 30.6617C19.4427 28.7676 18.9062 27.3083 18.1498 26.1928C17.4435 25.1514 16.5103 24.3831 15.2044 23.7927L15.206 23.7893C15.1631 23.77 15.1207 23.7484 15.0791 23.7246C13.2176 22.655 11.6778 21.1133 10.6137 19.297C9.56388 17.5048 8.9661 15.4401 8.9661 13.2898C8.9661 9.97764 10.3137 6.9787 12.4923 4.80795C14.6709 2.63719 17.6806 1.29444 21.0047 1.29444C23.9232 1.29444 26.6326 2.3396 28.7398 4.10138C30.8482 5.8642 32.3525 8.34319 32.8597 11.2094L32.7544 27.8637ZM16.3831 10.6053C16.214 11.2209 15.6485 11.6735 14.9769 11.6735C14.1718 11.6735 13.519 11.0231 13.519 10.2208C13.519 10.0041 13.5667 9.79861 13.652 9.61399C14.3249 7.8181 15.6517 6.44688 17.2668 5.67514C18.8833 4.90292 20.7873 4.73113 22.6116 5.33486C22.6992 5.35683 22.7837 5.38669 22.8643 5.42368C24.6723 6.09646 26.0339 7.42246 26.7913 9.03662C27.5633 10.6817 27.707 12.6237 27.0545 14.472C26.8542 15.0446 26.3293 15.4123 25.7568 15.4419C25.1874 15.5059 24.69 15.7911 24.3428 16.2049C23.9857 16.6304 23.7913 17.1904 23.8443 17.7836C23.8971 18.3723 24.1879 18.8867 24.6151 19.2428C25.0422 19.5987 25.6042 19.7923 26.1998 19.7394C26.2238 19.7373 26.2864 19.7271 26.3871 19.7093C26.4525 19.6977 26.5137 19.6841 26.5701 19.669C27.3469 19.4623 28.1451 19.9221 28.3526 20.6961C28.5601 21.4701 28.0987 22.2654 27.3219 22.4721C27.175 22.5115 27.0301 22.5441 26.8882 22.5692C26.8125 22.5826 26.7158 22.5955 26.5982 22.6078C26.5097 22.6246 26.4183 22.6334 26.3248 22.6325C24.9758 22.7187 23.7115 22.2708 22.7472 21.4672C21.7925 20.6717 21.1301 19.5236 20.9687 18.1971C20.9498 18.1039 20.9399 18.0074 20.9408 17.9085C20.8544 16.5643 21.3039 15.3045 22.1103 14.3437C22.7251 13.6112 23.5497 13.0514 24.5042 12.7592C24.6461 11.8887 24.5161 11.0205 24.1603 10.2623C23.7044 9.29074 22.8767 8.49684 21.7768 8.11128C20.6646 7.72132 19.5013 7.81652 18.5197 8.2854C17.5672 8.74048 16.7838 9.54789 16.3831 10.6053ZM10.0215 0.302071C10.497 -0.129128 11.2335 -0.0945385 11.6662 0.379279C12.099 0.853097 12.0643 1.58688 11.5887 2.01808C10.064 3.39945 8.85086 5.08272 8.0233 6.95109C7.2067 8.79503 6.76472 10.8145 6.76809 12.8977C6.77126 14.7914 7.1423 16.6311 7.8277 18.3328C8.52425 20.0623 9.5468 21.6462 10.8387 22.9963C11.2815 23.4601 11.2632 24.1939 10.7977 24.6351C10.3323 25.0764 9.59584 25.0581 9.15303 24.5943C7.65846 23.0324 6.47502 21.1986 5.66812 19.1953C4.87672 17.2305 4.44824 15.0991 4.44459 12.8977C4.4406 10.4778 4.95001 8.141 5.89114 6.01596C6.84943 3.85235 8.2548 1.90265 10.0215 0.302071ZM1.7008 4.27105C1.95489 3.68194 2.64035 3.4096 3.23159 3.66277C3.82283 3.91595 4.09614 4.59895 3.84205 5.18806C3.09239 6.92452 2.61762 8.7524 2.42531 10.6046C2.23204 12.4662 2.31973 14.354 2.69552 16.201C2.82129 16.8278 2.41333 17.4376 1.78428 17.5629C1.15522 17.6882 0.543246 17.2817 0.417477 16.6549C-0.00604877 14.5736 -0.105575 12.453 0.110906 10.3686C0.328489 8.27352 0.861254 6.21574 1.7008 4.27105Z" fill="white"/>
</svg>
