<svg width="390" height="384" viewBox="0 0 390 384" fill="none" xmlns="http://www.w3.org/2000/svg">
<circle cx="195" cy="84" r="300" fill="#E4F4FF"/>
<path fill-rule="evenodd" clip-rule="evenodd" d="M194.814 257.336C241.034 249.75 256.359 225.652 256.359 225.652C256.359 225.652 186.04 213.315 147.694 217.335C109.348 221.355 90.8532 225.652 90.8532 225.652L69 248.853C103.32 263.505 148.595 264.922 194.814 257.336Z" fill="#76B7E4"/>
<path fill-rule="evenodd" clip-rule="evenodd" d="M253.612 298.911C253.612 298.911 249.153 303.795 244.526 306.11C239.911 308.435 236.853 310.196 237.942 312.954C239.021 315.711 247.507 314.958 253.612 312.954C259.718 310.949 264.211 307.793 264.611 306.874C265.012 305.955 264.378 299.188 263.655 297.471C262.932 295.755 253.612 298.911 253.612 298.911Z" fill="#F6F6F6" stroke="#191919" stroke-width="0.274484" stroke-linecap="round" stroke-linejoin="round"/>
<path fill-rule="evenodd" clip-rule="evenodd" d="M297.073 282.188C297.073 282.188 298.475 289.83 298.23 294.669C297.996 299.509 296.951 303.596 300.41 304.792C303.857 305.988 308.795 300.915 310.886 291.834C312.977 282.753 311.898 275.388 311.853 274.945C311.809 274.514 306.348 272.587 305.903 272.509C305.47 272.432 297.073 282.188 297.073 282.188Z" fill="#F6F6F6" stroke="#191919" stroke-width="0.274484" stroke-linecap="round" stroke-linejoin="round"/>
<path fill-rule="evenodd" clip-rule="evenodd" d="M238.587 183.269C238.587 183.269 234.65 189.028 238.82 220.071C243.002 251.113 251.398 299.476 251.721 299.797C253.567 301.635 262.664 299.332 265.1 297.87C263.098 269.873 262.219 242.308 260.763 214.345L261.886 214.19C261.886 214.19 265.333 237.513 269.76 250.315C274.175 263.107 295.55 283.196 296.584 283.827C297.629 284.47 301.166 282.233 304.547 279.109C307.917 275.986 307.472 272.188 307.472 272.188C307.472 272.188 287.709 247.392 287.231 242.995C286.753 238.587 284.262 195.308 283.294 189.549C282.327 183.79 282.093 183.303 282.093 183.303L238.587 183.269Z" fill="#191919" stroke="#191919" stroke-width="0.109794" stroke-linecap="round" stroke-linejoin="round"/>
<path fill-rule="evenodd" clip-rule="evenodd" d="M230.914 148.018L229.623 160.422L219.548 193.967L226.12 198.508C226.12 198.508 241.034 167.864 242.557 161.219C244.081 154.586 244.481 149.458 244.481 149.458L230.914 148.018Z" fill="#F6F6F6" stroke="#191919" stroke-width="0.274484" stroke-linecap="round" stroke-linejoin="round"/>
<path fill-rule="evenodd" clip-rule="evenodd" d="M239.922 127.597C239.922 127.597 250.888 119.9 264.823 122.392C282.906 125.626 287.71 133.322 286.442 150.632L279.848 151.43C279.848 151.43 278.802 159.592 280.248 168.717C281.026 173.612 282.061 178.119 282.85 181.242C282.861 181.431 282.917 181.652 283.028 181.929C283.151 182.427 283.273 182.882 283.384 183.291C283.595 185.174 282.372 186.27 281.327 186.846C277.39 188.485 269.471 191.143 259.763 191.032C250.109 190.922 242.558 188.873 238.81 187.61C235.974 186.436 237.164 184.1 237.887 182.062C238.732 179.526 240.712 174.321 241.001 171.951C241.368 169.038 241.368 166.391 241.368 166.391C241.368 166.391 236.708 163.279 236.019 159.592C235.34 155.915 236.619 150.798 236.619 150.798L228.59 149.115C228.59 149.115 229.78 133.688 239.922 127.597Z" fill="#76B7E4"/>
<path fill-rule="evenodd" clip-rule="evenodd" d="M268.815 152.66L279.847 151.43L284.496 150.865C284.496 150.865 283.995 164.62 275.487 176.536C266.969 188.453 257.894 194.621 257.894 194.621C257.894 194.621 258.005 197.899 257.849 198.819C257.693 199.738 257.326 201.1 257.326 201.1C257.326 201.1 259.017 200.901 258.617 202.783C258.216 204.655 256.003 206.737 254.313 207.623C252.622 208.498 251.466 207.114 251.466 207.114C251.466 207.114 250.164 207.003 249.475 206.693C248.796 206.394 248.474 205.873 248.474 205.873C248.474 205.873 246.728 205.774 245.883 204.899C245.038 204.013 244.359 200.502 244.359 200.502C244.359 200.502 237.686 206.172 236.085 206.25C234.472 206.327 234.873 205.308 236.096 203.725C237.319 202.152 242.591 197.501 244.114 195.862C245.638 194.223 253.757 183.657 253.757 183.657L267.936 162.937L268.815 152.66Z" fill="#F6F6F6"/>
<path fill-rule="evenodd" clip-rule="evenodd" d="M237.697 91.0286C230.869 95.3477 230.947 99.2681 231.992 105.348C233.082 111.65 238.798 124.02 246.783 123.311C241.056 137.863 256.548 139.015 259.751 128.151C260.551 125.426 260.718 121.993 260.718 121.993L257.782 110.387C257.782 110.387 261.675 108.416 261.597 104.529C261.519 100.652 258.305 100.885 258.305 100.885C258.75 89.6553 245.671 85.9896 237.697 91.0286Z" fill="#F6F6F6"/>
<path d="M246.181 108.79C246.718 108.725 247.09 108.162 247.014 107.534C246.937 106.906 246.439 106.449 245.902 106.515C245.366 106.58 244.993 107.142 245.07 107.77C245.147 108.398 245.644 108.855 246.181 108.79Z" fill="#191919"/>
<path d="M236.4 110.312C236.937 110.247 237.31 109.685 237.233 109.056C237.156 108.428 236.659 107.972 236.122 108.037C235.585 108.102 235.213 108.664 235.289 109.292C235.366 109.921 235.864 110.377 236.4 110.312Z" fill="#191919"/>
<path d="M240.301 107.851C240.301 107.851 240.49 110.575 240.49 111.816C240.49 113.056 240.345 113.687 240.345 113.687L242.937 113.931" stroke="#191919" stroke-width="0.274484" stroke-linecap="round" stroke-linejoin="round"/>
<path fill-rule="evenodd" clip-rule="evenodd" d="M244.014 116.168L247.718 114.374C247.718 114.374 248.274 116.954 246.472 117.597C244.659 118.228 244.014 116.168 244.014 116.168Z" stroke="#191919" stroke-width="0.274484" stroke-linecap="round" stroke-linejoin="round"/>
<path d="M244.115 103.61C244.115 103.61 245.104 103.388 246.228 103.388C247.351 103.388 247.651 103.455 247.651 103.455" stroke="#191919" stroke-width="0.274484" stroke-linecap="round" stroke-linejoin="round"/>
<path d="M236.831 104.783C236.831 104.783 236.041 104.838 235.04 105.182C234.039 105.525 233.572 105.902 233.572 105.902" stroke="#191919" stroke-width="0.274484" stroke-linecap="round" stroke-linejoin="round"/>
<path d="M257.727 108.139C257.727 108.139 257.326 106.6 257.582 105.038C257.849 103.477 259.117 102.679 259.117 102.679" stroke="#191919" stroke-width="0.274484" stroke-linecap="round" stroke-linejoin="round"/>
<path d="M259.351 105.581L257.583 105.038" stroke="#191919" stroke-width="0.274484" stroke-linecap="round" stroke-linejoin="round"/>
<path d="M243.136 116.567L244.014 116.168" stroke="#191919" stroke-width="0.274484" stroke-linecap="round" stroke-linejoin="round"/>
<path d="M253.323 117.541C252.422 120.531 250.543 121.838 247.974 122.868" stroke="#191919" stroke-width="0.274484" stroke-linecap="round" stroke-linejoin="round"/>
<path d="M247.785 126.446L247.029 124.098" stroke="#191919" stroke-width="0.274484" stroke-linecap="round" stroke-linejoin="round"/>
<path d="M238.776 142.614L237.186 149.348" stroke="#191919" stroke-width="0.274484" stroke-linecap="round" stroke-linejoin="round"/>
<path d="M255.87 144.42C256.527 144.42 257.06 143.854 257.06 143.157C257.06 142.46 256.527 141.895 255.87 141.895C255.213 141.895 254.68 142.46 254.68 143.157C254.68 143.854 255.213 144.42 255.87 144.42Z" fill="#191919"/>
<path d="M247.228 202.019C247.228 202.019 247.484 203.835 247.729 204.455C247.962 205.075 248.474 205.873 248.474 205.873" stroke="#191919" stroke-width="0.274484" stroke-linecap="round" stroke-linejoin="round"/>
<path d="M250.442 202.86C250.442 202.86 250.72 204.676 250.92 205.341C251.121 205.994 251.465 207.113 251.465 207.113" stroke="#191919" stroke-width="0.274484" stroke-linecap="round" stroke-linejoin="round"/>
<path d="M253.79 205.64C253.79 205.64 255.158 204.599 256.003 203.403C256.849 202.196 257.327 201.1 257.327 201.1" stroke="#191919" stroke-width="0.274484" stroke-linecap="round" stroke-linejoin="round"/>
<path d="M243.98 125.416C240.077 144.519 266.39 139.491 264.432 122.326" stroke="#335A9A" stroke-width="0.274484" stroke-linecap="round" stroke-linejoin="round"/>
<path d="M250.72 149.934C251.031 145.892 250.942 145.427 251.287 137.63" stroke="#335A9A" stroke-width="0.274484" stroke-linecap="round" stroke-linejoin="round"/>
<path d="M284.496 150.865C284.496 150.865 283.995 164.62 275.487 176.536C266.969 188.453 257.894 194.621 257.894 194.621C257.894 194.621 258.005 197.899 257.849 198.819C257.693 199.738 257.326 201.1 257.326 201.1C257.326 201.1 259.017 200.901 258.617 202.783C258.216 204.655 256.003 206.737 254.313 207.623C252.622 208.498 251.466 207.114 251.466 207.114C251.466 207.114 250.164 207.003 249.475 206.693C248.796 206.394 248.474 205.873 248.474 205.873C248.474 205.873 246.728 205.774 245.883 204.899C245.038 204.013 244.359 200.502 244.359 200.502C244.359 200.502 237.686 206.172 236.085 206.25C234.472 206.327 234.873 205.308 236.096 203.725C237.319 202.152 242.591 197.501 244.114 195.862C245.638 194.223 253.757 183.657 253.757 183.657L267.936 162.937L268.815 152.66" stroke="#191919" stroke-width="0.274484" stroke-linecap="round" stroke-linejoin="round"/>
<path d="M271.05 163.678L267.936 162.936" stroke="#191919" stroke-width="0.274484" stroke-linecap="round" stroke-linejoin="round"/>
<path d="M232.125 160.865L229.623 160.422" stroke="#191919" stroke-width="0.274484" stroke-linecap="round" stroke-linejoin="round"/>
<path d="M267.558 143.91L267.135 152.526L276.822 151.773" stroke="#191919" stroke-width="0.274484" stroke-linecap="round" stroke-linejoin="round"/>
<path fill-rule="evenodd" clip-rule="evenodd" d="M235.907 87.1194C227.31 94.0853 225.942 110.243 228.678 122.879C229.701 127.63 231.525 131.196 233.905 133.478C235.44 131.196 237.397 129.103 239.922 127.597C239.922 127.597 242.346 125.947 246.372 124.43C246.495 124.064 246.628 123.688 246.784 123.311C238.799 124.02 233.082 111.65 231.992 105.348C231.781 104.075 231.603 102.89 231.525 101.782L231.536 101.959C233.839 101.262 239.9 99.3236 242.669 97.4299C246.116 95.071 248.051 93.0332 248.051 93.0332C248.051 93.0332 247.885 96.8318 249.575 99.7445C251.266 102.668 252.3 100.874 252.3 100.874C252.3 100.874 254.19 105.714 255.08 106.234C255.914 106.721 255.736 103.2 256.548 101.948C256.915 101.428 257.46 101.007 258.305 100.885C258.305 100.885 261.519 100.653 261.597 104.529C261.675 108.416 257.783 110.387 257.783 110.387L257.126 110.908C257.126 110.908 254.958 121.429 254.958 128.627C254.958 135.837 253.512 145.106 259.695 146.79C261.986 147.421 263.632 147.022 264.789 146.291C267.013 146.424 269.026 145.937 270.216 145.206C272.54 143.766 274.309 141.684 274.309 141.684C274.309 141.684 269.816 139.203 269.894 126.401C269.971 113.599 268.648 96.7211 264.266 91.0398C259.896 85.3585 255.113 85.5246 255.113 85.5246C249.141 81.3827 241.457 82.6341 235.907 87.1194Z" fill="#191919"/>
<path d="M248.975 91.0287C248.975 91.0287 250.02 89.2678 251.299 87.9056C252.589 86.5434 253.946 85.9897 253.946 85.9897" stroke="#F6F6F6" stroke-width="0.274484" stroke-linecap="round" stroke-linejoin="round"/>
<path d="M243.748 91.2724C243.748 91.2724 238.366 94.0743 236.597 95.5915C234.829 97.1087 234.273 97.7068 234.273 97.7068" stroke="#F6F6F6" stroke-width="0.274484" stroke-linecap="round" stroke-linejoin="round"/>
<path d="M245.916 88.1939C245.916 88.1939 243.302 87.9946 241.623 88.6701C239.932 89.3457 237.953 90.874 237.953 90.874" stroke="#F6F6F6" stroke-width="0.274484" stroke-linecap="round" stroke-linejoin="round"/>
<path d="M244.225 85.4248C244.225 85.4248 245.838 85.2255 247.117 85.4691C248.407 85.7127 249.174 85.8678 249.174 85.8678" stroke="#F6F6F6" stroke-width="0.274484" stroke-linecap="round" stroke-linejoin="round"/>
<path d="M254.591 92.5127C254.591 92.5127 255.714 94.6722 256.037 95.3146C256.359 95.9458 256.882 96.6325 256.882 96.6325" stroke="#F6F6F6" stroke-width="0.274484" stroke-linecap="round" stroke-linejoin="round"/>
<path d="M258.205 92.3466C258.205 92.3466 260.696 95.9459 261.297 97.4299C261.908 98.9139 262.631 100.032 262.631 100.032" stroke="#F6F6F6" stroke-width="0.274484" stroke-linecap="round" stroke-linejoin="round"/>
<path d="M259.85 122.946C259.85 122.946 259.761 129.591 259.528 132.226C259.305 134.873 259.617 135.837 259.617 135.837" stroke="#F6F6F6" stroke-width="0.274484" stroke-linecap="round" stroke-linejoin="round"/>
<path d="M262.742 118.073L262.665 127.353" stroke="#F6F6F6" stroke-width="0.274484" stroke-linecap="round" stroke-linejoin="round"/>
<path d="M265.945 122.603C265.945 122.603 265.556 125.671 265.878 127.354C266.201 129.026 266.368 129.835 266.368 129.835" stroke="#F6F6F6" stroke-width="0.274484" stroke-linecap="round" stroke-linejoin="round"/>
<path d="M259.028 90.1536C259.028 90.1536 260.051 90.6299 260.774 91.693C261.497 92.7451 261.72 93.3653 261.72 93.3653" stroke="#F6F6F6" stroke-width="0.274484" stroke-linecap="round" stroke-linejoin="round"/>
<path d="M233.95 125.515C232.927 123.876 232.326 121.484 232.193 119.535" stroke="#F6F6F6" stroke-width="0.274484" stroke-linecap="round" stroke-linejoin="round"/>
<path d="M236.274 122.392L235.918 121.074" stroke="#F6F6F6" stroke-width="0.274484" stroke-linecap="round" stroke-linejoin="round"/>
<path d="M278.657 192.395C278.657 192.395 277.567 194.433 276.721 195.352C275.876 196.271 275.354 196.714 275.354 196.714" stroke="#F6F6F6" stroke-width="0.274484" stroke-linecap="round" stroke-linejoin="round"/>
<path d="M279.013 196.348L277.089 198.796" stroke="#F6F6F6" stroke-width="0.274484" stroke-linecap="round" stroke-linejoin="round"/>
<path d="M185.072 148.34C185.116 148.429 184.371 155.838 184.138 158.208L185.072 148.34ZM185.072 148.34C185.038 148.24 181.869 147.244 181.869 143.722C181.869 140.2 184.649 140.643 184.649 140.643L185.072 148.34ZM209.994 134.209C210.172 135.582 210.106 137.099 210.017 138.727C209.694 144.73 208.126 151.485 204.868 156.17C202.477 159.614 199.14 160.002 197.55 159.969" stroke="#191919" stroke-width="0.274484" stroke-linecap="round" stroke-linejoin="round"/>
<path fill-rule="evenodd" clip-rule="evenodd" d="M188.832 311.78C188.832 311.78 188.387 317.782 189.677 323.22C190.956 328.657 196.383 338.58 200.075 338.614C203.779 338.658 207.593 337.418 207.593 333.863C207.593 330.297 203.567 313.374 203.567 313.374L188.832 311.78Z" fill="#F6F6F6" stroke="#191919" stroke-width="0.274484" stroke-linecap="round" stroke-linejoin="round"/>
<path fill-rule="evenodd" clip-rule="evenodd" d="M214.253 304.98C214.253 304.98 214.22 312.456 214.82 313.375C215.421 314.294 224.14 331.493 229.879 330.253C235.628 329.012 235.461 325.214 234.305 321.061C233.137 316.897 228.032 305.091 228.032 305.091L214.253 304.98Z" fill="#F6F6F6" stroke="#191919" stroke-width="0.274484" stroke-linecap="round" stroke-linejoin="round"/>
<path fill-rule="evenodd" clip-rule="evenodd" d="M156.168 216.859C156.168 216.859 153.521 237.414 161.628 244.535C169.747 251.656 188.308 258.544 188.308 258.544C188.308 258.544 187.463 310.816 187.986 312.145C188.508 313.463 191.522 316.465 197.061 316.908C202.61 317.339 204.412 313.541 204.412 313.541L213.854 260.261C213.854 260.261 213.409 304.825 213.776 305.777C214.132 306.741 217.39 310.141 222.295 310.063C227.188 309.975 229.479 306.265 229.479 306.265C229.479 306.265 238.921 256.65 238.198 248.178C237.475 239.695 234.105 233.139 223.34 227.059C212.575 220.968 204.301 214.334 204.301 214.334L156.168 216.859Z" fill="#191919" stroke="#191919" stroke-width="0.274484" stroke-linecap="round" stroke-linejoin="round"/>
<path fill-rule="evenodd" clip-rule="evenodd" d="M170.881 235.864L193.813 248.422L233.427 238.422L243.903 217.291L246.883 210.935L244.937 209.207L241.723 209.894C233.905 211.477 207.525 217.159 207.525 217.159L205.879 217.568C205.234 219.185 204.445 220.636 203.622 222.042L201.086 227.679L200.53 227.823L170.881 235.864Z" fill="#335A9A"/>
<path d="M194.569 246.805L207.714 219.063L245.304 211.222" stroke="#F6F6F6" stroke-width="0.274484" stroke-linecap="round" stroke-linejoin="round"/>
<path fill-rule="evenodd" clip-rule="evenodd" d="M179.956 231.832C181.112 232.928 183.848 235.597 185.138 237.126C186.784 239.086 187.307 240.06 188.419 240.127C189.52 240.182 189.731 239.916 189.954 239.772C189.954 239.772 190.688 240.548 191.655 240.415C192.612 240.282 192.868 239.795 192.868 239.795C192.868 239.795 193.479 239.961 194.057 239.75C194.647 239.54 194.669 239.064 194.669 239.064C194.669 239.064 195.804 238.787 196.137 237.602C196.482 236.428 196.048 234.745 196.048 234.745C196.048 234.745 197.105 233.283 196.282 231.345C195.537 229.584 192.467 224.91 189.598 222.762L179.956 231.832Z" fill="#F6F6F6"/>
<path d="M185.372 233.483C186.462 234.734 189.443 238.333 189.954 239.773" stroke="#191919" stroke-width="0.274484" stroke-linecap="round" stroke-linejoin="round"/>
<path d="M188.086 232.187C188.086 232.187 189.165 233.228 190.689 235.398C192.224 237.58 192.479 238.909 192.813 239.873" stroke="#191919" stroke-width="0.274484" stroke-linecap="round" stroke-linejoin="round"/>
<path d="M190.554 230.647C192.445 232.641 194.224 236.351 194.669 239.064" stroke="#191919" stroke-width="0.274484" stroke-linecap="round" stroke-linejoin="round"/>
<path d="M192.545 229.197C193.813 230.548 195.27 233.062 196.049 234.745" stroke="#191919" stroke-width="0.274484" stroke-linecap="round" stroke-linejoin="round"/>
<path d="M179.956 231.832C181.112 232.928 183.848 235.597 185.138 237.126C186.784 239.086 187.307 240.06 188.419 240.127C189.52 240.182 189.731 239.916 189.954 239.772C189.954 239.772 190.688 240.548 191.655 240.415C192.612 240.282 192.868 239.795 192.868 239.795C192.868 239.795 193.479 239.961 194.057 239.75C194.647 239.54 194.669 239.064 194.669 239.064C194.669 239.064 195.804 238.787 196.137 237.602C196.482 236.428 196.048 234.745 196.048 234.745C196.048 234.745 197.105 233.283 196.282 231.345C195.537 229.584 192.467 224.91 189.598 222.762" stroke="#191919" stroke-width="0.274484" stroke-linecap="round" stroke-linejoin="round"/>
<path fill-rule="evenodd" clip-rule="evenodd" d="M167.778 165.285C167.778 165.285 174.607 159.282 188.742 157.444C202.888 155.605 216.945 158.596 222.328 172.007C227.711 185.407 226.487 202.307 225.854 213.227L210.929 216.427L209.65 195.895C209.65 195.895 207.47 212.806 207.392 215.043C207.314 217.28 204.256 218.886 200.72 220.248C197.183 221.599 190.799 221.644 190.799 221.644L179.789 231.987C179.789 231.987 152.075 222.12 149.106 209.561C146.125 197.002 159.026 170.556 167.778 165.285Z" fill="#76B7E4"/>
<path d="M172.538 186.327L166.433 204.566C166.433 204.566 177.765 212.208 181.702 214.966C185.639 217.723 190.799 221.644 190.799 221.644" stroke="#191919" stroke-width="0.274484" stroke-linecap="round" stroke-linejoin="round"/>
<path d="M212.986 175.363L210.717 188.22L208.838 201.842" stroke="#191919" stroke-width="0.274484" stroke-linecap="round" stroke-linejoin="round"/>
<path d="M180.845 159.038C180.845 159.038 184.004 168.219 191.8 168.385C199.596 168.54 199.496 162.438 199.529 160.722C199.574 159.005 199.251 156.69 199.251 156.69" stroke="#335A9A" stroke-width="0.274484" stroke-linecap="round" stroke-linejoin="round"/>
<path fill-rule="evenodd" clip-rule="evenodd" d="M195.181 193.824L190.354 211.466L229.568 203.138L234.55 186.504L195.181 193.824Z" fill="#335A9A"/>
<path fill-rule="evenodd" clip-rule="evenodd" d="M199.229 196.537L198.395 199.582L202.065 198.807L202.932 195.751L199.229 196.537Z" fill="#F6F6F6"/>
<path fill-rule="evenodd" clip-rule="evenodd" d="M197.751 202.684L196.917 205.729L200.598 204.943L201.454 201.897L197.751 202.684Z" fill="#F6F6F6"/>
<path d="M206.758 196.46L227.288 192.462" stroke="#F6F6F6" stroke-width="0.274484" stroke-linecap="round" stroke-linejoin="round"/>
<path d="M206.024 202.429L226.543 198.431" stroke="#F6F6F6" stroke-width="0.274484" stroke-linecap="round" stroke-linejoin="round"/>
<path fill-rule="evenodd" clip-rule="evenodd" d="M198.762 127.365C210.417 128.162 210.339 132.725 210.017 138.728C209.694 144.73 208.126 151.486 204.868 156.17C202.477 159.614 199.14 160.002 197.55 159.969C198.017 162.283 197.316 166.547 191.1 166.193C184.894 165.827 182.703 158.562 182.703 158.562C182.703 158.562 183.593 158.363 184.138 158.208C184.371 155.838 185.116 148.429 185.072 148.34C185.038 148.241 181.869 147.244 181.869 143.722C181.869 140.2 184.649 140.643 184.649 140.643C185.772 132.504 188.297 126.645 198.762 127.365Z" fill="#F6F6F6"/>
<path fill-rule="evenodd" clip-rule="evenodd" d="M210.062 134.862C207.949 134.984 205.446 134.885 202.855 134.685C203.022 135.095 203.111 135.649 202.811 136.191C202.199 137.255 197.762 135.206 197.762 135.206C197.762 135.206 197.339 136.856 195.115 136.546C193.38 136.313 192.101 135.427 191.612 135.029L191.511 135.051C191.511 135.051 189.287 142.493 189.143 143.401C189.009 144.298 187.319 141.219 184.65 140.643C184.65 140.643 181.869 140.2 181.869 143.722C181.869 147.244 185.039 148.241 185.072 148.34C185.095 148.385 184.939 150.024 184.75 152.006C184.75 152.006 183.059 151.142 181.169 147.222C179.289 143.301 177.877 133.478 182.292 128.594C186.718 123.71 195.671 123.157 198.04 122.47C200.42 121.794 211.118 118.959 212.709 120.609C214.299 122.271 211.363 124.497 211.363 124.497C211.363 124.497 214.71 124.474 215.355 125.87C216 127.276 212.631 128.472 212.586 128.915C212.542 129.358 214.855 130.532 215.077 132.614C215.3 134.696 210.062 134.862 210.062 134.862Z" fill="#191919" stroke="#191919" stroke-width="0.274484" stroke-linecap="round" stroke-linejoin="round"/>
<path d="M201.254 145.096C201.298 147.3 201.409 148.806 201.788 150.976C201.087 151.198 200.042 151.32 199.33 151.142" stroke="#191919" stroke-width="0.274484" stroke-linecap="round" stroke-linejoin="round"/>
<path d="M195.526 146.755C196.008 146.798 196.439 146.378 196.489 145.818C196.539 145.258 196.189 144.77 195.707 144.727C195.225 144.685 194.793 145.104 194.744 145.664C194.694 146.224 195.044 146.713 195.526 146.755Z" fill="#191919"/>
<path d="M193.58 143.035C194.203 142.714 195.371 142.338 196.45 142.072" stroke="#191919" stroke-width="0.274484" stroke-linecap="round" stroke-linejoin="round"/>
<path d="M205.279 142.061C205.413 142.083 205.546 142.105 205.657 142.127C206.38 142.26 206.892 142.449 206.892 142.449" stroke="#191919" stroke-width="0.274484" stroke-linecap="round" stroke-linejoin="round"/>
<path fill-rule="evenodd" clip-rule="evenodd" d="M199.708 154.487C199.708 154.487 197.394 153.424 196.293 152.97C195.192 152.505 194.525 152.128 194.525 152.128C194.525 152.128 194.102 154.587 196.015 155.351C197.917 156.104 199.708 154.487 199.708 154.487Z" fill="#F6F6F6" stroke="#191919" stroke-width="0.274484" stroke-linecap="round" stroke-linejoin="round"/>
<path d="M183.57 142.261C183.57 142.261 184.816 142.958 185.661 144.099C186.495 145.24 186.818 146.779 186.818 146.779" stroke="#191919" stroke-width="0.274484" stroke-linecap="round" stroke-linejoin="round"/>
<path d="M184.15 145.716L185.662 144.099" stroke="#191919" stroke-width="0.274484" stroke-linecap="round" stroke-linejoin="round"/>
<path d="M187.608 152.914C187.608 152.914 188.609 156.115 191.022 158.075C193.424 160.035 197.55 159.969 197.55 159.969" stroke="#191919" stroke-width="0.274484" stroke-linecap="round" stroke-linejoin="round"/>
<path d="M204.586 146.375C205.068 146.418 205.499 145.998 205.548 145.438C205.598 144.878 205.248 144.39 204.766 144.347C204.284 144.305 203.853 144.725 203.803 145.285C203.753 145.845 204.104 146.333 204.586 146.375Z" fill="#191919"/>
<path d="M200.552 154.797L199.707 154.487" stroke="#191919" stroke-width="0.274484" stroke-linecap="round" stroke-linejoin="round"/>
<path d="M176.042 230.514C176.042 230.514 179.734 226.106 183.026 223.305C186.318 220.503 187.953 219.506 187.953 219.506" stroke="#335A9A" stroke-width="0.274484" stroke-linecap="round" stroke-linejoin="round"/>
<path d="M189.409 222.95L186.529 220.503" stroke="#335A9A" stroke-width="0.274484" stroke-linecap="round" stroke-linejoin="round"/>
<path d="M181.102 230.746L177.666 228.653" stroke="#335A9A" stroke-width="0.274484" stroke-linecap="round" stroke-linejoin="round"/>
<path d="M182.636 229.307L179.333 226.848" stroke="#335A9A" stroke-width="0.274484" stroke-linecap="round" stroke-linejoin="round"/>
<path d="M184.382 227.668L180.968 225.199" stroke="#335A9A" stroke-width="0.274484" stroke-linecap="round" stroke-linejoin="round"/>
<path d="M186.083 226.073L182.914 223.404" stroke="#335A9A" stroke-width="0.274484" stroke-linecap="round" stroke-linejoin="round"/>
<path d="M187.807 224.456L184.793 221.843" stroke="#335A9A" stroke-width="0.274484" stroke-linecap="round" stroke-linejoin="round"/>
<path d="M200.509 228.82L193.236 244.701" stroke="#191919" stroke-width="0.274484" stroke-linecap="round" stroke-linejoin="round"/>
<path d="M157.302 206.958C161.45 205.109 163.53 204.644 166.433 204.566" stroke="#191919" stroke-width="0.274484" stroke-linecap="round" stroke-linejoin="round"/>
<path d="M212.629 245.243C212.629 245.243 215.41 248.931 214.887 253.284C214.364 257.647 213.775 263.251 213.552 263.206" stroke="#F6F6F6" stroke-width="0.274484" stroke-linecap="round" stroke-linejoin="round"/>
<path d="M210.061 129.203C207.859 128.362 204.645 127.653 200.541 127.797" stroke="#F6F6F6" stroke-width="0.274484" stroke-linecap="round" stroke-linejoin="round"/>
<path d="M208.516 124.12C206.181 124.098 204.713 124.12 201.966 124.618" stroke="#F6F6F6" stroke-width="0.274484" stroke-linecap="round" stroke-linejoin="round"/>
<path d="M202.922 131.839C201.632 131.33 199.964 130.865 197.951 130.61" stroke="#F6F6F6" stroke-width="0.274484" stroke-linecap="round" stroke-linejoin="round"/>
<path d="M186.462 139.614C186.528 138.584 186.651 137.41 186.895 136.236C187.007 135.682 187.14 135.129 187.307 134.597" stroke="#F6F6F6" stroke-width="0.274484" stroke-linecap="round" stroke-linejoin="round"/>
<path d="M184.594 137.653C184.716 136.125 184.994 134.297 185.539 132.647" stroke="#F6F6F6" stroke-width="0.274484" stroke-linecap="round" stroke-linejoin="round"/>
<path d="M182.525 138.861C182.525 137.997 182.569 137.044 182.669 136.07" stroke="#F6F6F6" stroke-width="0.274484" stroke-linecap="round" stroke-linejoin="round"/>
<path d="M128.02 166.071L131.312 159.205M131.312 159.205C130.389 158.662 129.01 157.532 128.331 155.406C127.23 152.006 129.855 150.267 129.855 150.267L131.312 159.205ZM155.156 138.307C156.145 140.798 156.346 144.088 156.279 148.374C156.112 158.296 154.043 166.314 151.33 168.839C148.616 171.364 144.468 170.235 144.468 170.235" stroke="#191919" stroke-width="0.274484" stroke-linecap="round" stroke-linejoin="round"/>
<path fill-rule="evenodd" clip-rule="evenodd" d="M160.182 190.169C160.182 190.169 158.324 210.967 157.602 218.498C156.879 226.018 157.602 235.852 157.602 235.852C157.602 235.852 161.861 241.699 162.673 244.413C163.474 247.137 161.505 249.695 161.505 249.695C161.505 249.695 161.06 251.5 160.382 251.611C159.692 251.733 158.847 251.456 158.847 251.456C158.847 251.456 158.48 252.132 157.802 252.364C157.134 252.597 156.434 251.943 156.434 251.943C156.434 251.943 155.577 252.453 155.144 252.032C154.71 251.611 154.009 250.548 154.009 250.548C154.009 250.548 152.408 250.083 151.062 248.909C149.717 247.724 146.614 245.276 146.28 239.562C145.946 233.847 144.512 232.286 144.912 222.607C145.313 212.927 146.28 191 146.28 191L160.182 190.169Z" fill="#F6F6F6"/>
<path d="M150.718 243.416C150.718 243.416 152.375 245.52 153.221 247.425C154.066 249.319 154.01 250.548 154.01 250.548" stroke="#191919" stroke-width="0.274484" stroke-linecap="round" stroke-linejoin="round"/>
<path d="M154.744 243.283C154.744 243.283 155.533 245.055 156.011 247.536C156.49 250.016 156.612 251.379 156.612 251.379" stroke="#191919" stroke-width="0.274484" stroke-linecap="round" stroke-linejoin="round"/>
<path d="M157.525 243.183C157.525 243.183 158.648 245.697 158.871 247.58C159.082 249.463 158.948 251.002 158.948 251.002" stroke="#191919" stroke-width="0.274484" stroke-linecap="round" stroke-linejoin="round"/>
<path d="M159.971 242.176C159.971 242.176 160.76 244.546 161.094 246.007C161.416 247.48 161.439 249.075 161.439 249.075" stroke="#191919" stroke-width="0.274484" stroke-linecap="round" stroke-linejoin="round"/>
<path d="M160.182 190.169C160.182 190.169 158.324 210.967 157.602 218.498C156.879 226.018 157.602 235.852 157.602 235.852C157.602 235.852 161.861 241.699 162.673 244.413C163.474 247.137 161.505 249.695 161.505 249.695C161.505 249.695 161.06 251.5 160.382 251.611C159.692 251.733 158.847 251.456 158.847 251.456C158.847 251.456 158.48 252.132 157.802 252.364C157.134 252.597 156.434 251.943 156.434 251.943C156.434 251.943 155.577 252.453 155.144 252.032C154.71 251.611 154.009 250.548 154.009 250.548C154.009 250.548 152.408 250.083 151.062 248.909C149.717 247.724 146.614 245.276 146.28 239.562C145.946 233.847 144.512 232.286 144.912 222.607C145.313 212.927 146.28 191 146.28 191" stroke="#191919" stroke-width="0.274484" stroke-linecap="round" stroke-linejoin="round"/>
<path fill-rule="evenodd" clip-rule="evenodd" d="M173.75 330.783C173.75 330.783 180.301 332.256 187.763 332.301C195.236 332.345 197.372 334.826 195.159 337.583C192.945 340.341 179.455 344.582 172.382 344.937C165.309 345.302 162.54 336.265 162.54 336.265L173.75 330.783Z" fill="#F6F6F6" stroke="#191919" stroke-width="0.274484" stroke-linecap="round" stroke-linejoin="round"/>
<path fill-rule="evenodd" clip-rule="evenodd" d="M149.206 344.328C149.206 344.328 150.129 349.921 158.803 352.247C167.478 354.561 184.149 351.084 186.362 348.005C188.575 344.926 187.808 342.767 185.116 341.837C182.425 340.917 165.921 339.201 162.907 338.082C159.893 336.964 149.206 344.328 149.206 344.328Z" fill="#F6F6F6" stroke="#191919" stroke-width="0.274484" stroke-linecap="round" stroke-linejoin="round"/>
<path fill-rule="evenodd" clip-rule="evenodd" d="M94.0661 223.858C94.0661 223.858 91.8974 241.533 105.076 271.778C118.255 302.023 136.727 332.943 142.032 338.902C147.337 344.86 149.939 346.864 149.939 346.864L164.808 338.58L164.208 337.528C164.208 337.528 166.799 336.587 170.791 334.339C174.795 332.102 175.952 331.183 175.952 331.183C175.952 331.183 148.204 243.682 146.436 235.996C144.668 228.321 144.345 226.239 144.345 226.239L94.0661 223.858Z" fill="#191919" stroke="#191919" stroke-width="0.109794" stroke-linecap="round" stroke-linejoin="round"/>
<path fill-rule="evenodd" clip-rule="evenodd" d="M114.474 165.451C114.474 165.451 130.7 166.414 148.049 163.457C158.503 164.897 161.884 170.611 162.963 177.035C164.041 183.458 162.918 193.292 162.918 193.292C162.918 193.292 159.382 194.931 155.723 195.695C152.075 196.46 149.906 196.736 149.906 196.736L146.448 227.136C146.448 227.136 146.37 231.223 137.295 232.574C128.209 233.936 115.119 234.335 105.232 231.943C95.3567 229.54 91.7423 227.38 92.6208 223.858C93.4994 220.336 100.895 194.222 100.895 194.222L89.9518 189.97L87.6497 188.984L100.094 172.173C100.094 172.173 106.678 165.129 114.474 165.451Z" fill="#335A9A"/>
<path fill-rule="evenodd" clip-rule="evenodd" d="M131.701 200.535C131.701 200.535 132.056 198.719 133.391 198.32C134.726 197.933 145.402 196.017 145.402 196.017C146.269 195.784 147.37 196.482 147.849 197.157C148.082 197.545 148.149 197.755 148.16 198.221C148.216 200.136 145.335 223.282 145.335 223.282C145.335 223.282 145.202 224.412 144.123 224.91C143.222 225.32 134.503 226.616 131.879 227.004C131.823 227.015 131.767 227.015 131.701 227.037L131.067 227.125C130.867 227.136 130.7 227.125 130.555 227.092C130.555 227.092 128.475 226.948 128.609 225.276C128.553 224.855 128.631 224.467 128.631 224.467L131.701 200.535Z" fill="#76B7E4" stroke="#191919" stroke-width="0.274484" stroke-linecap="round" stroke-linejoin="round"/>
<path fill-rule="evenodd" clip-rule="evenodd" d="M91.4863 190.568L87.2269 198.929C87.2269 198.929 81.7664 208.609 91.086 212.684C100.406 216.76 122.737 225.73 122.737 225.73C122.737 225.73 129.198 226.86 134.948 226.051C140.687 225.254 141.476 222.629 141.476 222.629C141.476 222.629 142.477 222.219 142.577 221.356C142.677 220.492 142.155 219.849 142.155 219.849C142.811 218.997 142.844 217.513 141.71 217.313C141.143 217.214 141.432 215.63 139.185 215.552C136.939 215.475 134.981 216.073 133.258 216.051C131.534 216.029 129.754 215.719 129.754 215.719L130.511 209.871C130.511 209.871 123.86 216.394 123.093 216.195C122.337 215.995 102.263 202.905 102.263 202.905L106.689 196.471L91.4863 190.568Z" fill="#F6F6F6"/>
<path d="M131.312 218.764C132.29 218.819 133.736 218.83 135.571 218.598C139.108 218.155 141.376 217.235 141.376 217.235" stroke="#191919" stroke-width="0.274484" stroke-linecap="round" stroke-linejoin="round"/>
<path d="M131.355 221.566C134.703 221.654 140.597 220.979 142.221 219.761" stroke="#191919" stroke-width="0.274484" stroke-linecap="round" stroke-linejoin="round"/>
<path d="M131.256 223.914C135.092 224.179 138.073 223.559 141.543 222.54" stroke="#191919" stroke-width="0.274484" stroke-linecap="round" stroke-linejoin="round"/>
<path d="M116.864 185.263L109.279 197.08L100.872 194.278" stroke="#191919" stroke-width="0.274484" stroke-linecap="round" stroke-linejoin="round"/>
<path d="M151.752 185.474L150.24 194.688" stroke="#191919" stroke-width="0.274484" stroke-linecap="round" stroke-linejoin="round"/>
<path d="M125.807 165.539C124.272 176.259 130.545 180.39 136.517 180.29C145.336 180.146 148.361 172.427 146.537 164.797" stroke="#ADE0FF" stroke-width="0.274484" stroke-linecap="round" stroke-linejoin="round"/>
<path fill-rule="evenodd" clip-rule="evenodd" d="M145.691 132.16C155.222 133.822 156.535 138.44 156.279 148.374C156.012 158.296 154.043 166.315 151.33 168.84C148.616 171.365 144.468 170.235 144.468 170.235C144.957 175.318 139.486 178.342 134.815 177.467C134.804 177.467 134.793 177.456 134.77 177.456C134.715 177.445 134.659 177.433 134.604 177.422C134.559 177.411 134.526 177.4 134.481 177.4C126.496 175.606 128.02 166.071 128.02 166.071L131.312 159.205C130.389 158.662 129.01 157.532 128.331 155.406C127.23 152.006 129.855 150.267 129.855 150.267C123.616 139.093 134.403 130.211 145.691 132.16Z" fill="#F6F6F6"/>
<path d="M130.455 151.884C130.455 151.884 132.012 151.906 132.735 153.955C133.446 156.004 131.901 157.576 131.901 157.576" stroke="#191919" stroke-width="0.274484" stroke-linecap="round" stroke-linejoin="round"/>
<path d="M130.566 155.284L132.735 153.955" stroke="#191919" stroke-width="0.274484" stroke-linecap="round" stroke-linejoin="round"/>
<path d="M141.977 153.434C141.977 153.434 142.177 151.452 143.901 151.297C145.636 151.142 145.614 152.847 145.614 152.847" stroke="#191919" stroke-width="0.274484" stroke-linecap="round" stroke-linejoin="round"/>
<path d="M150.84 152.671C150.84 152.671 151.04 150.688 152.764 150.533C154.488 150.389 154.465 152.084 154.465 152.084" stroke="#191919" stroke-width="0.274484" stroke-linecap="round" stroke-linejoin="round"/>
<path d="M148.838 151.341C148.838 151.341 149.138 154.243 150.039 156.27C150.94 158.285 148.86 158.529 148.86 158.529" stroke="#191919" stroke-width="0.274484" stroke-linecap="round" stroke-linejoin="round"/>
<path fill-rule="evenodd" clip-rule="evenodd" d="M149.16 162.261C148.671 162.151 148.104 161.984 147.503 161.73C145.957 161.076 144.289 159.769 144.289 159.769C144.289 159.769 143.177 162.516 145.979 164.1C146.346 164.31 146.691 164.432 147.014 164.498L149.16 162.261Z" stroke="#191919" stroke-width="0.274484" stroke-linecap="round" stroke-linejoin="round"/>
<path d="M144.468 170.235C141.966 169.548 139.286 168.463 136.661 165.439" stroke="#191919" stroke-width="0.274484" stroke-linecap="round" stroke-linejoin="round"/>
<path fill-rule="evenodd" clip-rule="evenodd" d="M155.556 139.303C152.776 138.694 143.19 136.867 139.175 139.569C134.448 142.747 135.939 148.373 136.328 149.935C136.728 151.507 135.549 152.46 135.104 153.202C135.104 153.202 133.403 148.894 129.855 150.267C129.855 150.267 128.432 151.208 128.12 153.058V153.069V153.08C128.109 153.146 128.098 153.213 128.087 153.29V153.301C128.076 153.401 128.065 153.512 128.065 153.623C128.065 153.722 128.054 153.822 128.065 153.933V153.944C128.065 154.099 128.076 154.265 128.109 154.442V154.453C128.12 154.52 128.131 154.597 128.143 154.675V154.686V154.697V154.708L128.154 154.719V154.73V154.741V154.752V154.763L128.165 154.774V154.785V154.797V154.808V154.819L128.176 154.83V154.841V154.852V154.863L128.187 154.874V154.885V154.896V154.907V154.918L128.198 154.929V154.941V154.952V154.963L128.209 154.974V154.985V154.996V155.007L128.22 155.018V155.029V155.04V155.051L128.231 155.062V155.073V155.084L128.243 155.096V155.107V155.118V155.129L128.254 155.14V155.151V155.162V155.173V155.184L128.265 155.195V155.206V155.217L128.276 155.228V155.24V155.251L128.287 155.262V155.273V155.284L128.298 155.295V155.306V155.317L128.309 155.328V155.339V155.35L128.32 155.361V155.372V155.384V155.395L128.332 155.406L128.354 155.483V155.505L128.365 155.527L128.387 155.572V155.594L128.398 155.605L128.409 155.649L128.421 155.694H128.432L128.454 155.771L128.465 155.793L128.476 155.815L128.498 155.882V155.893L128.532 155.97L128.543 155.982L128.576 156.059V156.07V156.081L128.598 156.114L128.61 156.159L128.621 156.17L128.643 156.225L128.654 156.247L128.665 156.269L128.687 156.303L128.699 156.325V156.336L128.721 156.38L128.732 156.413L128.743 156.425L128.765 156.48L128.776 156.502L128.788 156.513L128.81 156.546L128.821 156.58V156.591L128.865 156.657L128.877 156.69L128.899 156.724L128.91 156.746L128.921 156.757L128.932 156.79L128.954 156.823L128.977 156.856L128.988 156.89L128.999 156.901L129.01 156.923L129.032 156.945L129.043 156.967L129.054 156.978L129.066 157.011L129.088 157.045L129.11 157.078L129.132 157.111V157.122L129.143 157.133L129.166 157.167L129.188 157.189V157.2L129.21 157.222L129.232 157.255V157.266L129.244 157.288L129.266 157.31L129.277 157.333L129.288 157.344L129.31 157.377L129.332 157.399L129.355 157.432L129.377 157.454V157.466L129.388 157.488L129.41 157.51L129.421 157.532L129.433 157.543L129.455 157.565L129.477 157.598C130.089 158.385 130.778 158.894 131.312 159.204L129.577 162.826C128.788 162.25 127.453 161.153 127.231 160.157C126.919 158.717 127.353 157.432 127.353 157.432C127.353 157.432 123.249 153.944 124.561 150.544C124.017 150.466 123.26 150.189 123.216 149.137C123.149 147.476 124.55 146.236 124.55 146.236C124.55 146.236 121.837 145.582 122.715 140.444C123.583 135.305 127.675 136.413 128.054 134.209C128.421 132.016 130.345 128.705 134.782 129.447C139.219 130.189 141.088 129.646 142.2 128.14C143.312 126.634 146.682 125.637 148.45 127.176C150.229 128.727 152.131 130.776 153.788 130.776C155.456 130.776 158.492 131.208 159.015 135.349C159.538 139.48 155.556 139.303 155.556 139.303Z" fill="#191919" stroke="#191919" stroke-width="0.274484" stroke-linecap="round" stroke-linejoin="round"/>
<path d="M141.144 148.706C141.144 148.706 141.499 148.141 142.923 147.642C144.335 147.144 145.192 147.31 145.192 147.31" stroke="#191919" stroke-width="0.274484" stroke-linecap="round" stroke-linejoin="round"/>
<path d="M151.174 146.967C151.174 146.967 152.519 146.701 153.442 146.945C154.365 147.177 154.71 147.509 154.71 147.509" stroke="#191919" stroke-width="0.274484" stroke-linecap="round" stroke-linejoin="round"/>
<path d="M142.554 172.239L143.355 169.991" stroke="#191919" stroke-width="0.274484" stroke-linecap="round" stroke-linejoin="round"/>
<path d="M97.8245 200.313L102.317 202.805" stroke="#191919" stroke-width="0.274484" stroke-linecap="round" stroke-linejoin="round"/>
<path d="M91.5532 190.468L87.2938 198.83C87.2938 198.83 81.8333 208.509 91.1529 212.595C100.472 216.671 122.793 225.641 122.793 225.641C122.793 225.641 129.265 226.76 135.015 225.963C140.754 225.165 141.543 222.541 141.543 222.541C141.543 222.541 142.544 222.12 142.644 221.256C142.744 220.403 142.222 219.761 142.222 219.761C142.878 218.897 142.911 217.424 141.777 217.214C141.209 217.114 141.499 215.541 139.252 215.464C136.995 215.375 135.048 215.973 133.325 215.962C131.601 215.94 129.821 215.619 129.821 215.619L130.466 210.237C130.466 210.237 123.927 216.294 123.16 216.095C122.404 215.896 102.319 202.805 102.319 202.805L106.756 196.371" stroke="#191919" stroke-width="0.274484" stroke-linecap="round" stroke-linejoin="round"/>
<path d="M133.292 237.225L129.277 244.911C129.277 244.911 145.347 297.87 151.13 309.387C156.913 320.916 162.618 334.671 162.618 334.671" stroke="#F6F6F6" stroke-width="0.274484" stroke-linecap="round" stroke-linejoin="round"/>
<path d="M145.747 197.279L134.381 199.594C134.381 199.594 133.347 199.738 133.091 201.343C132.824 202.938 132.29 207.434 132.29 207.434L131.545 214.279" stroke="#335A9A" stroke-width="0.274484" stroke-linecap="round" stroke-linejoin="round"/>
<path d="M137.807 135.892C137.807 135.892 138.852 134.331 140.776 133.932C142.711 133.533 143.957 134.453 143.957 134.453" stroke="#F6F6F6" stroke-width="0.274484" stroke-linecap="round" stroke-linejoin="round"/>
<path d="M132.88 139.724C132.079 140.787 131.779 141.872 131.779 143.068" stroke="#F6F6F6" stroke-width="0.274484" stroke-linecap="round" stroke-linejoin="round"/>
<path d="M127.897 142.902C127.063 144.486 127.207 146.247 127.897 147.421" stroke="#F6F6F6" stroke-width="0.274484" stroke-linecap="round" stroke-linejoin="round"/>
<path d="M147.303 131.108C148.727 130.92 150.506 131.994 150.395 133.555" stroke="#F6F6F6" stroke-width="0.274484" stroke-linecap="round" stroke-linejoin="round"/>
<path d="M135.126 204.17C135.555 204.678 136.377 204.637 136.962 204.077C137.547 203.518 137.673 202.652 137.244 202.144C136.815 201.636 135.994 201.678 135.409 202.237C134.824 202.797 134.697 203.662 135.126 204.17Z" fill="#191919"/>
<path d="M101.25 234.324C101.25 234.324 102.329 235.564 103.664 236.528C104.987 237.491 105.743 238.045 105.743 238.045" stroke="#F6F6F6" stroke-width="0.274484" stroke-linecap="round" stroke-linejoin="round"/>
<path d="M102.54 239.783L105.12 241.146" stroke="#F6F6F6" stroke-width="0.274484" stroke-linecap="round" stroke-linejoin="round"/>
<path fill-rule="evenodd" clip-rule="evenodd" d="M137.852 113.355C141.355 113.344 149.218 112.791 152.521 108.316C156.814 102.48 152.399 96.079 143.279 95.8353C122.06 95.2816 121.96 111.495 133.648 113.178L135.561 117.364L137.852 113.355Z" fill="#D4EFFF" stroke="#191919" stroke-width="0.274484" stroke-linecap="round" stroke-linejoin="round"/>
<path fill-rule="evenodd" clip-rule="evenodd" d="M134.426 104.529C135.038 104.529 135.527 105.038 135.527 105.659C135.527 106.279 135.038 106.777 134.426 106.777C133.815 106.777 133.314 106.279 133.314 105.659C133.314 105.038 133.815 104.529 134.426 104.529ZM146.148 102.79C146.76 102.79 147.249 103.3 147.249 103.92C147.249 104.54 146.76 105.05 146.148 105.05C145.536 105.05 145.036 104.54 145.036 103.92C145.036 103.3 145.536 102.79 146.148 102.79ZM140.176 103.765C140.788 103.765 141.277 104.263 141.277 104.894C141.277 105.515 140.788 106.013 140.176 106.013C139.564 106.013 139.064 105.515 139.064 104.894C139.064 104.263 139.564 103.765 140.176 103.765Z" fill="#191919"/>
<path fill-rule="evenodd" clip-rule="evenodd" d="M307.25 113.92C311.554 108.084 307.127 101.683 298.008 101.439C283.951 101.062 279.169 108.062 280.937 113.322L278.546 117.641L283.517 116.833C284.763 117.796 286.409 118.494 288.377 118.782C294.416 119.037 303.357 119.214 307.25 113.92Z" fill="#D4EFFF" stroke="#191919" stroke-width="0.274484" stroke-linecap="round" stroke-linejoin="round"/>
<path fill-rule="evenodd" clip-rule="evenodd" d="M289.156 110.132C289.768 110.132 290.268 110.631 290.268 111.251C290.268 111.882 289.768 112.381 289.156 112.381C288.544 112.381 288.055 111.882 288.055 111.251C288.055 110.631 288.544 110.132 289.156 110.132ZM300.878 108.394C301.489 108.394 301.99 108.903 301.99 109.523C301.99 110.144 301.489 110.642 300.878 110.642C300.266 110.642 299.777 110.144 299.777 109.523C299.777 108.903 300.266 108.394 300.878 108.394ZM294.906 109.368C295.517 109.368 296.018 109.867 296.018 110.487C296.018 111.107 295.517 111.616 294.906 111.616C294.294 111.616 293.793 111.107 293.793 110.487C293.793 109.867 294.294 109.368 294.906 109.368Z" fill="#191919"/>
</svg>
