<svg width="316" height="80" viewBox="0 0 316 80" fill="none" xmlns="http://www.w3.org/2000/svg">
<path d="M273.594 37.3778C272.686 37.3778 272.202 37.8022 272.202 38.7133V63.8255C272.202 75.4731 276.924 79.84 289.155 79.84H314.04C314.95 79.84 315.372 79.4156 315.372 78.5062V72.5612C315.372 71.6517 314.95 71.2273 314.04 71.2273H289.516C283.282 71.2273 281.466 69.3462 281.466 62.9161V38.7133C281.466 37.8022 281.041 37.3778 280.133 37.3778H273.594Z" fill="#4972BF"/>
<mask id="mask0_623_1057" style="mask-type:luminance" maskUnits="userSpaceOnUse" x="134" y="37" width="89" height="43">
<path d="M151.527 37.3778C139.298 37.3778 134.574 41.7448 134.574 53.3923V63.8255C134.574 75.4731 139.298 79.84 151.527 79.84H170.236C182.528 79.84 186.979 75.4646 186.979 63.8188V53.3839C186.979 51.592 187.145 50.4198 186.914 48.9613C186.409 50.2564 186.144 51.5313 186.144 53.7527V54.3994H177.927V63.1586C177.927 69.528 176.11 71.4092 169.873 71.4092H151.89C145.653 71.4092 143.838 69.528 143.838 63.1586V54.0609C143.838 47.6898 145.653 45.8103 151.89 45.8103H169.873C173.481 45.8103 175.609 46.4385 176.762 48.2035C177.335 44.2491 178.715 41.3776 181.072 39.4122C178.445 38.0043 174.888 37.3778 170.236 37.3778H151.527ZM194.846 37.3778C182.617 37.3778 177.897 41.7448 177.897 53.3923V63.8255C177.897 69.3344 178.952 73.2146 181.359 75.7745V63.2462H186.977V63.1586V62.1279H221.187C222.093 62.1279 222.519 61.7035 222.519 60.7941V56.001C222.519 55.0916 222.093 54.6655 221.187 54.6655H186.977V54.0609C186.977 47.6898 188.732 45.8103 195.029 45.8103H221.488C222.396 45.8103 222.88 45.3859 222.88 44.4748V38.7133C222.88 37.8022 222.396 37.3778 221.488 37.3778H194.846ZM184.227 77.9049C186.836 79.2438 190.329 79.84 194.846 79.84H221.488C222.396 79.84 222.88 79.4156 222.88 78.5062V72.7431C222.88 71.8336 222.396 71.4092 221.488 71.4092H195.029C191.785 71.4092 189.746 70.909 188.532 69.555C187.912 73.2921 186.532 76.0238 184.227 77.9049Z" fill="white"/>
</mask>
<g mask="url(#mask0_623_1057)">
<path d="M171.305 59.3525L208.998 -13.8739L211.125 -12.9729L171.305 59.3525Z" fill="#00A3E8"/>
<path d="M171.305 59.3524L210.77 -13.1228L212.512 -12.3161L171.305 59.3524Z" fill="#00A3E8"/>
<path d="M171.305 59.3525L212.164 -12.4778L213.875 -11.6189L171.305 59.3525Z" fill="#00A3E7"/>
<path d="M171.305 59.3525L213.532 -11.7906L215.213 -10.8778L171.305 59.3525Z" fill="#00A4E6"/>
<path d="M171.305 59.3524L214.877 -11.0598L216.523 -10.0931L171.305 59.3524Z" fill="#00A4E5"/>
<path d="M171.305 59.3525L216.193 -10.2867L217.807 -9.26781L171.305 59.3525Z" fill="#00A4E4"/>
<path d="M171.305 59.3524L217.484 -9.47162L219.063 -8.40218L171.305 59.3524Z" fill="#00A5E3"/>
<path d="M171.305 59.3524L218.747 -8.61606L220.288 -7.49443L171.305 59.3524Z" fill="#00A5E2"/>
<path d="M171.305 59.3524L219.98 -7.71841L221.487 -6.54626L171.305 59.3524Z" fill="#00A6E1"/>
<path d="M171.305 59.3525L221.186 -6.78033L222.653 -5.55933L171.305 59.3525Z" fill="#00A6E0"/>
<path d="M171.305 59.3524L222.359 -5.80356L223.79 -4.53203L171.305 59.3524Z" fill="#00A7DF"/>
<path d="M171.305 59.3524L223.504 -4.78635L224.894 -3.46766L171.305 59.3524Z" fill="#00A7DE"/>
<path d="M171.305 59.3524L224.615 -3.73038L225.966 -2.36454L171.305 59.3524Z" fill="#00A7DE"/>
<path d="M171.305 59.3525L225.696 -2.63736L227.005 -1.22436L171.305 59.3525Z" fill="#00A8DC"/>
<path d="M171.305 59.3525L226.743 -1.50729L228.011 -0.0471369L171.305 59.3525Z" fill="#00A8DB"/>
<path d="M171.305 59.3525L227.757 -0.340179L228.982 1.16544L171.305 59.3525Z" fill="#00A9DA"/>
<path d="M171.305 59.3524L228.737 0.863953L229.92 2.41168L171.305 59.3524Z" fill="#00A9DA"/>
<path d="M171.305 59.3524L229.683 2.10178L230.821 3.69328L171.305 59.3524Z" fill="#00AAD9"/>
<path d="M171.305 59.3524L230.593 3.375L231.687 5.00861L171.305 59.3524Z" fill="#00AAD7"/>
<path d="M171.305 59.3524L231.468 4.68188L232.516 6.35761L171.305 59.3524Z" fill="#00ABD7"/>
<path d="M171.305 59.3524L232.307 6.02246L233.309 7.73691L171.305 59.3524Z" fill="#00ABD6"/>
<path d="M171.305 59.3524L233.107 7.39337L234.064 9.14824L171.305 59.3524Z" fill="#00ACD4"/>
<path d="M171.305 59.3524L233.872 8.79623L234.782 10.5898L171.305 59.3524Z" fill="#00ACD3"/>
<path d="M171.305 59.3524L234.598 10.2311L235.459 12.0601L171.305 59.3524Z" fill="#00ADD3"/>
<path d="M171.305 59.3524L235.288 11.693L236.099 13.559L171.305 59.3524Z" fill="#00ADD2"/>
<path d="M171.305 59.3524L235.938 13.1851L236.701 15.0848L171.305 59.3524Z" fill="#00AED0"/>
<path d="M171.305 59.3524L236.548 14.7059L237.263 16.6393L171.305 59.3524Z" fill="#00AFCF"/>
<path d="M171.305 59.3525L237.12 16.252L237.785 18.2174L171.305 59.3525Z" fill="#00AFCF"/>
<path d="M171.305 59.3524L237.653 17.8249L238.268 19.8223L171.305 59.3524Z" fill="#00AFCD"/>
<path d="M171.305 59.3524L238.145 19.4215L238.71 21.4492L171.305 59.3524Z" fill="#00B0CC"/>
<path d="M171.305 59.3524L238.597 21.0433L239.112 23.0996L171.305 59.3524Z" fill="#00B0CC"/>
<path d="M171.305 59.3524L239.008 22.6887L239.472 24.772L171.305 59.3524Z" fill="#00B1CB"/>
<path d="M171.305 59.3524L239.379 24.356L239.791 26.4646L171.305 59.3524Z" fill="#01B2C9"/>
<path d="M171.305 59.3524L239.709 26.0435L240.068 28.1773L171.305 59.3524Z" fill="#04B2C8"/>
<path d="M171.305 59.3524L239.998 27.7513L240.305 29.9103L171.305 59.3524Z" fill="#06B3C8"/>
<path d="M171.305 59.3525L240.245 29.4775L240.5 31.6601L171.305 59.3525Z" fill="#0BB3C6"/>
<path d="M171.305 59.3525L240.45 31.2223L240.655 33.4251L171.305 59.3525Z" fill="#0EB4C5"/>
<path d="M171.305 59.3524L240.613 32.9855L240.766 35.2069L171.305 59.3524Z" fill="#12B5C4"/>
<path d="M171.305 59.3524L240.736 34.7623L240.837 37.0039L171.305 59.3524Z" fill="#14B5C3"/>
<path d="M171.305 59.3525L240.816 36.5559L240.863 38.8127L171.305 59.3525Z" fill="#1AB6C2"/>
<path d="M171.305 59.3524L240.855 38.3613L240.85 40.6349L171.305 59.3524Z" fill="#1FB6C1"/>
<path d="M171.305 59.3525L240.852 40.1802L240.794 42.469L171.305 59.3525Z" fill="#23B7C0"/>
<path d="M171.305 59.3524L240.806 42.0109L240.697 44.3114L171.305 59.3524Z" fill="#29B7BF"/>
<path d="M171.305 59.3525L240.719 43.8517L240.557 46.1657L171.305 59.3525Z" fill="#2FB8BE"/>
<path d="M171.305 59.3524L240.589 45.7025L240.376 48.0249L171.305 59.3524Z" fill="#35B9BC"/>
<path d="M171.305 59.3524L240.418 47.5601L240.152 49.8926L171.305 59.3524Z" fill="#38B9BC"/>
<path d="M171.305 59.3524L240.206 49.4261L239.888 51.7654L171.305 59.3524Z" fill="#3DBABA"/>
<path d="M171.305 59.3524L239.952 51.2972L239.582 53.6432L171.305 59.3524Z" fill="#43BAB9"/>
<path d="M171.305 59.3525L239.656 53.175L239.236 55.5244L171.305 59.3525Z" fill="#46BBB8"/>
<path d="M171.305 59.3524L239.32 55.0545L238.85 57.4073L171.305 59.3524Z" fill="#4BBBB7"/>
<path d="M171.305 59.3524L238.944 56.9374L238.421 59.2935L171.305 59.3524Z" fill="#4FBCB6"/>
<path d="M171.305 59.3525L238.525 58.822L237.952 61.1781L171.305 59.3525Z" fill="#53BDB4"/>
<path d="M171.305 59.3524L238.066 60.7065L237.443 63.0609L171.305 59.3524Z" fill="#55BDB4"/>
<path d="M171.305 59.3524L237.567 62.5894L236.895 64.9421L171.305 59.3524Z" fill="#58BEB2"/>
<path d="M171.305 59.3524L237.029 64.4722L236.306 66.8199L171.305 59.3524Z" fill="#5CBEB1"/>
<path d="M171.305 59.3524L236.451 66.3501L235.679 68.6927L171.305 59.3524Z" fill="#5FBFB0"/>
<path d="M171.305 59.3524L235.832 68.2245L235.012 70.5621L171.305 59.3524Z" fill="#61BFAF"/>
<path d="M171.305 59.3524L235.177 70.0939L234.308 72.4231L171.305 59.3524Z" fill="#64C0AD"/>
<path d="M171.305 59.3524L234.482 71.9566L233.565 74.2756L171.305 59.3524Z" fill="#68C1AC"/>
<path d="M171.305 59.3524L233.749 73.8108L232.786 76.1198L171.305 59.3524Z" fill="#69C1AB"/>
<path d="M171.305 59.3524L232.978 75.6583L231.968 77.9538L171.305 59.3524Z" fill="#6CC2AA"/>
<path d="M171.305 59.3524L232.171 77.494L231.115 79.776L171.305 59.3524Z" fill="#6FC2A8"/>
<path d="M171.305 59.3524L231.325 79.3196L230.224 81.5865L171.305 59.3524Z" fill="#72C3A7"/>
<path d="M171.305 59.3524L230.445 81.1334L229.3 83.3851L171.305 59.3524Z" fill="#74C3A6"/>
<path d="M171.305 59.3524L229.528 82.9338L228.34 85.1669L171.305 59.3524Z" fill="#76C4A5"/>
<path d="M171.305 59.3524L228.579 84.7206L227.347 86.9336L171.305 59.3524Z" fill="#79C5A3"/>
<path d="M171.305 59.3524L227.592 86.4907L226.318 88.6851L171.305 59.3524Z" fill="#7CC5A2"/>
<path d="M171.305 59.3524L226.573 88.2456L225.257 90.4181L171.305 59.3524Z" fill="#7DC6A1"/>
<path d="M171.305 59.3524L225.519 89.9836L224.163 92.1325L171.305 59.3524Z" fill="#80C6A0"/>
<path d="M171.305 59.3524L224.433 91.7014L223.036 93.8268L171.305 59.3524Z" fill="#83C79E"/>
<path d="M171.305 59.3524L223.317 93.4007L221.88 95.4991L171.305 59.3524Z" fill="#84C79D"/>
<path d="M171.305 59.3524L222.167 95.0798L220.693 97.1513L171.305 59.3524Z" fill="#87C89C"/>
<path d="M171.305 59.3524L220.987 96.737L219.476 98.7815L171.305 59.3524Z" fill="#89C99A"/>
<path d="M171.305 59.3524L219.779 98.3723L218.23 100.387L171.305 59.3524Z" fill="#8CC999"/>
<path d="M171.305 59.3524L218.54 99.984L216.956 101.966L171.305 59.3524Z" fill="#8CC999"/>
<path d="M171.305 59.3524L217.272 101.57L215.653 103.522L171.305 59.3524Z" fill="#8DCA98"/>
<path d="M171.305 59.3524L215.978 103.132L214.326 105.05L171.305 59.3524Z" fill="#8ECA97"/>
<path d="M171.305 59.3524L214.657 104.666L212.971 106.55L171.305 59.3524Z" fill="#8ECA97"/>
<path d="M171.305 59.3524L213.308 106.173L211.592 108.022L171.305 59.3524Z" fill="#8FCA97"/>
<path d="M171.305 59.3524L211.935 107.654L210.189 109.466L171.305 59.3524Z" fill="#91CB96"/>
<path d="M171.305 59.3524L210.538 109.104L208.761 110.879L171.305 59.3524Z" fill="#91CB96"/>
<path d="M171.305 59.3524L209.116 110.523L207.311 112.261L171.305 59.3524Z" fill="#92CB95"/>
<path d="M171.305 59.3524L207.672 111.914L205.84 113.61L171.305 59.3524Z" fill="#93CB94"/>
<path d="M171.305 59.3524L206.206 113.272L204.347 114.929L171.305 59.3524Z" fill="#94CC93"/>
<path d="M171.305 59.3524L204.719 114.597L202.836 116.212L171.305 59.3524Z" fill="#94CC93"/>
<path d="M171.305 59.3524L203.212 115.889L201.305 117.462L171.305 59.3524Z" fill="#96CC93"/>
<path d="M171.305 59.3524L201.686 117.147L199.755 118.676L171.305 59.3524Z" fill="#97CC92"/>
<path d="M171.305 59.3524L200.141 118.37L198.19 119.855L171.305 59.3524Z" fill="#97CC92"/>
<path d="M171.305 59.3524L198.58 119.559L196.606 120.997L171.305 59.3524Z" fill="#98CD91"/>
<path d="M171.305 59.3524L197.001 120.709L195.009 122.104L171.305 59.3524Z" fill="#99CD90"/>
<path d="M171.305 59.3524L195.408 121.824L193.397 123.17L171.305 59.3524Z" fill="#9ACD8F"/>
<path d="M171.305 59.3524L193.799 122.9L191.772 124.199L171.305 59.3524Z" fill="#9ACD8F"/>
<path d="M171.305 59.3524L192.177 123.939L190.134 125.189L171.305 59.3524Z" fill="#9BCE8F"/>
<path d="M171.305 59.3524L190.543 124.94L188.485 126.139L171.305 59.3524Z" fill="#9DCE8E"/>
<path d="M171.305 59.3524L188.895 125.9L186.826 127.05L171.305 59.3524Z" fill="#9DCE8E"/>
<path d="M171.305 59.3524L187.24 126.819L185.157 127.919L171.305 59.3524Z" fill="#9ECE8D"/>
<path d="M171.305 59.3524L185.574 127.698L183.479 128.747L171.305 59.3524Z" fill="#9FCF8C"/>
<path d="M171.305 59.3524L183.898 128.537L181.795 129.532L171.305 59.3524Z" fill="#9FCF8C"/>
<path d="M171.305 59.3524L182.215 129.334L180.104 130.277L171.305 59.3524Z" fill="#A0CF8B"/>
<path d="M171.305 59.3524L180.527 130.088L178.408 130.979L171.305 59.3524Z" fill="#A1CF8A"/>
<path d="M171.305 59.3524L178.833 130.8L176.708 131.636L171.305 59.3524Z" fill="#A2D08A"/>
<path d="M171.305 59.3524L177.133 131.469L175.005 132.25L171.305 59.3524Z" fill="#A2D08A"/>
<path d="M171.305 59.3524L175.431 132.094L173.299 132.821L171.305 59.3524Z" fill="#A3D089"/>
<path d="M171.305 59.3524L173.724 132.677L171.591 133.347L171.305 59.3524Z" fill="#A4D188"/>
<path d="M171.305 59.3524L172.018 133.214L169.885 133.828L171.305 59.3524Z" fill="#A4D188"/>
<path d="M171.305 59.3524L170.312 133.706L168.179 134.266L171.305 59.3524Z" fill="#A6D187"/>
<path d="M171.305 59.3524L168.606 134.154L166.474 134.659L171.305 59.3524Z" fill="#A7D186"/>
<path d="M171.305 59.3524L166.901 134.558L164.773 135.004L171.305 59.3524Z" fill="#A7D186"/>
<path d="M171.305 59.3524L165.198 134.915L163.075 135.305L171.305 59.3524Z" fill="#A8D285"/>
<path d="M171.305 59.3524L163.501 135.226L161.382 135.56L171.305 59.3524Z" fill="#A9D284"/>
<path d="M171.305 59.3524L161.806 135.494L159.696 135.77L171.305 59.3524Z" fill="#AAD284"/>
<path d="M171.305 59.3524L160.118 135.715L158.017 135.932L171.305 59.3524Z" fill="#AAD284"/>
<path d="M171.305 59.3524L158.437 135.888L156.344 136.05L171.305 59.3524Z" fill="#ABD283"/>
<path d="M171.305 59.3524L156.763 136.018L154.682 136.121L171.305 59.3524Z" fill="#ACD382"/>
<path d="M171.305 59.3524L155.099 136.1L153.03 136.146L171.305 59.3524Z" fill="#ACD382"/>
<path d="M171.305 59.3524L153.443 136.136L151.387 136.124L171.305 59.3524Z" fill="#ADD381"/>
<path d="M171.305 59.3524L151.799 136.126L149.758 136.055L171.305 59.3524Z" fill="#AED380"/>
<path d="M171.305 59.3524L150.167 136.07L148.141 135.942L171.305 59.3524Z" fill="#AFD47F"/>
<path d="M171.305 59.3524L148.546 135.967L146.539 135.78L171.305 59.3524Z" fill="#AFD47F"/>
<path d="M171.305 59.3524L146.941 135.819L144.952 135.575L171.305 59.3524Z" fill="#B0D47E"/>
<path d="M171.305 59.3524L145.349 135.624L143.379 135.322L171.305 59.3524Z" fill="#B1D47D"/>
<path d="M171.305 59.3524L143.774 135.383L141.824 135.024L171.305 59.3524Z" fill="#B1D47D"/>
<path d="M171.305 59.3524L142.214 135.097L140.288 134.681L171.305 59.3524Z" fill="#B2D57C"/>
<path d="M171.305 59.3524L140.673 134.765L138.77 134.292L171.305 59.3524Z" fill="#B3D57C"/>
<path d="M171.305 59.3524L139.15 134.386L137.27 133.859L171.305 59.3524Z" fill="#B3D57C"/>
<path d="M171.305 59.3524L137.647 133.963L135.791 133.379L171.305 59.3524Z" fill="#B4D57B"/>
<path d="M171.305 59.3524L136.162 133.497L134.333 132.855L171.305 59.3524Z" fill="#B5D67A"/>
<path d="M171.305 59.3524L134.7 132.983L132.9 132.287L171.305 59.3524Z" fill="#B6D679"/>
<path d="M171.305 59.3524L133.259 132.427L131.488 131.676L171.305 59.3524Z" fill="#B6D679"/>
<path d="M171.305 59.3524L131.842 131.826L130.101 131.021L171.305 59.3524Z" fill="#B7D678"/>
<path d="M171.305 59.3524L130.449 131.183L128.738 130.322L171.305 59.3524Z" fill="#B8D777"/>
<path d="M171.305 59.3524L129.08 130.494L127.399 129.581L171.305 59.3524Z" fill="#B8D777"/>
<path d="M171.305 59.3524L127.736 129.763L126.09 128.798L171.305 59.3524Z" fill="#B9D776"/>
<path d="M171.305 59.3524L126.419 128.99L124.806 127.973L171.305 59.3524Z" fill="#BAD775"/>
<path d="M171.305 59.3524L125.128 128.177L123.55 127.105L171.305 59.3524Z" fill="#BAD775"/>
<path d="M171.305 59.3524L123.866 127.319L122.323 126.198L171.305 59.3524Z" fill="#BBD874"/>
<path d="M171.305 59.3524L122.632 126.422L121.126 125.249L171.305 59.3524Z" fill="#BCD873"/>
<path d="M171.305 59.3524L121.427 125.485L119.959 124.263L171.305 59.3524Z" fill="#BDD872"/>
<path d="M171.305 59.3524L120.254 124.507L118.823 123.235L171.305 59.3524Z" fill="#BDD872"/>
<path d="M171.305 59.3524L119.109 123.49L117.719 122.171L171.305 59.3524Z" fill="#BED971"/>
<path d="M171.305 59.3524L117.996 122.435L116.646 121.068L171.305 59.3524Z" fill="#BFD970"/>
<path d="M171.305 59.3524L116.917 121.342L115.607 119.928L171.305 59.3524Z" fill="#BFD970"/>
<path d="M171.305 59.3524L115.869 120.211L114.602 118.752L171.305 59.3524Z" fill="#C0D96F"/>
<path d="M171.305 59.3524L114.854 119.043L113.63 117.539L171.305 59.3524Z" fill="#C1DA6E"/>
<path d="M171.305 59.3524L113.874 117.839L112.692 116.292L171.305 59.3524Z" fill="#C2DA6D"/>
<path d="M171.305 59.3524L112.929 116.601L111.791 115.01L171.305 59.3524Z" fill="#C2DA6D"/>
<path d="M171.305 59.3524L112.018 115.328L110.926 113.695L171.305 59.3524Z" fill="#C3DA6C"/>
<path d="M171.305 59.3524L111.144 114.021L110.097 112.347L171.305 59.3524Z" fill="#C4DA6B"/>
<path d="M171.305 59.3524L110.305 112.682L109.303 110.966L171.305 59.3524Z" fill="#C4DA6B"/>
<path d="M171.305 59.3524L109.505 111.31L108.549 109.557L171.305 59.3524Z" fill="#C5DB6A"/>
<path d="M171.305 59.3524L108.74 109.907L107.831 108.115L171.305 59.3524Z" fill="#C6DB69"/>
<path d="M171.305 59.3524L108.013 108.474L107.152 106.645L171.305 59.3524Z" fill="#C6DB69"/>
<path d="M171.305 59.3524L107.325 107.01L106.511 105.146L171.305 59.3524Z" fill="#C7DB68"/>
<path d="M171.305 59.3524L106.674 105.518L105.911 103.618L171.305 59.3524Z" fill="#C8DC67"/>
<path d="M171.305 59.3524L106.064 103.999L105.348 102.066L171.305 59.3524Z" fill="#C9DC66"/>
<path d="M171.305 59.3524L105.491 102.451L104.827 100.486L171.305 59.3524Z" fill="#C9DC66"/>
<path d="M171.305 59.3524L104.96 100.88L104.345 98.8826L171.305 59.3524Z" fill="#CADC65"/>
<path d="M171.305 59.3524L104.467 99.2817L103.902 97.254L171.305 59.3524Z" fill="#CBDD64"/>
<path d="M171.305 59.3524L104.015 97.6599L103.501 95.6036L171.305 59.3524Z" fill="#CBDD64"/>
<path d="M171.305 59.3524L103.603 96.0162L103.141 93.9312L171.305 59.3524Z" fill="#CBDD63"/>
<path d="M171.305 59.3524L103.233 94.3489L102.822 92.2386L171.305 59.3524Z" fill="#CCDD62"/>
<path d="M171.305 59.3524L102.904 92.6614L102.542 90.5259L171.305 59.3524Z" fill="#CDDE61"/>
<path d="M171.305 59.3524L102.615 90.9537L102.307 88.7946L171.305 59.3524Z" fill="#CDDE61"/>
<path d="M171.305 59.3524L102.368 89.2257L102.11 87.0448L171.305 59.3524Z" fill="#CEDE60"/>
<path d="M171.305 59.3524L102.163 87.481L101.958 85.2781L171.305 59.3524Z" fill="#CFDE5F"/>
<path d="M171.305 59.3524L102 85.7194L101.847 83.4963L171.305 59.3524Z" fill="#CFDE5F"/>
<path d="M171.305 59.3524L101.877 83.9409L101.776 81.701L171.305 59.3524Z" fill="#D0DE5E"/>
<path d="M171.305 59.3524L101.796 82.149L101.749 79.8905L171.305 59.3524Z" fill="#D1DF5C"/>
<path d="M171.305 59.3524L101.757 80.3419L101.762 78.0683L171.305 59.3524Z" fill="#D1DF5C"/>
<path d="M171.305 59.3524L101.761 78.523L101.818 76.236L171.305 59.3524Z" fill="#D2DF5B"/>
<path d="M171.305 59.3524L101.806 76.6924L101.916 74.3918L171.305 59.3524Z" fill="#D3DF5A"/>
<path d="M171.305 59.3524L101.894 74.8516L102.055 72.5393L171.305 59.3524Z" fill="#D4E059"/>
<path d="M171.305 59.3524L102.023 73.0007L102.237 70.6783L171.305 59.3524Z" fill="#D4E059"/>
<path d="M171.305 59.3524L102.195 71.1431L102.458 68.8106L171.305 59.3524Z" fill="#D4E058"/>
<path d="M171.305 59.3524L102.406 69.2771L102.724 66.9378L171.305 59.3524Z" fill="#D5E057"/>
<path d="M171.305 59.3524L102.66 67.406L103.028 65.06L171.305 59.3524Z" fill="#D5E057"/>
<path d="M171.305 59.3524L102.954 65.5299L103.376 63.1788L171.305 59.3524Z" fill="#D6E156"/>
<path d="M171.305 59.3524L103.292 63.6487L103.763 61.296L171.305 59.3524Z" fill="#D7E154"/>
<path d="M171.305 59.3524L103.669 61.7658L104.192 59.4114L171.305 59.3524Z" fill="#D7E154"/>
<path d="M171.305 59.3524L104.087 59.8829L104.661 57.5268L171.305 59.3524Z" fill="#D8E153"/>
<path d="M171.305 59.3524L104.546 57.9984L105.17 55.6423L171.305 59.3524Z" fill="#D9E252"/>
<path d="M171.305 59.3524L105.044 56.1138L105.718 53.7611L171.305 59.3524Z" fill="#DAE251"/>
<path d="M171.305 59.3525L105.583 54.2327L106.306 51.8833L171.305 59.3525Z" fill="#DAE251"/>
<path d="M171.305 59.3524L106.162 52.3531L106.933 50.0105L171.305 59.3524Z" fill="#DBE250"/>
<path d="M171.305 59.3524L106.779 50.4787L107.601 48.1428L171.305 59.3524Z" fill="#DCE24E"/>
<path d="M171.305 59.3524L107.436 48.6093L108.305 46.2818L171.305 59.3524Z" fill="#DCE24E"/>
<path d="M171.305 59.3525L108.13 46.7467L109.046 44.4276L171.305 59.3525Z" fill="#DCE34D"/>
<path d="M171.305 59.3524L108.863 44.8924L109.826 42.5834L171.305 59.3524Z" fill="#DDE34C"/>
<path d="M171.305 59.3525L109.635 43.0466L110.643 40.7495L171.305 59.3525Z" fill="#DEE34A"/>
<path d="M171.305 59.3524L110.442 41.2092L111.497 38.9272L171.305 59.3524Z" fill="#DEE34A"/>
<path d="M171.305 59.3524L111.287 39.3836L112.386 37.1168L171.305 59.3524Z" fill="#DFE449"/>
<path d="M171.305 59.3524L112.166 37.5698L113.313 35.3198L171.305 59.3524Z" fill="#E0E447"/>
<path d="M171.305 59.3525L113.082 35.7695L114.273 33.5363L171.305 59.3525Z" fill="#E0E447"/>
<path d="M171.305 59.3524L114.034 33.9826L115.266 31.7696L171.305 59.3524Z" fill="#E1E446"/>
<path d="M171.305 59.3524L115.021 32.2125L116.295 30.0198L171.305 59.3524Z" fill="#E2E544"/>
<path d="M171.305 59.3524L116.039 30.4577L117.356 28.2868L171.305 59.3524Z" fill="#E2E544"/>
<path d="M171.305 59.3524L117.093 28.7213L118.45 26.5724L171.305 59.3524Z" fill="#E3E543"/>
<path d="M171.305 59.3524L118.177 27.0018L119.576 24.8781L171.305 59.3524Z" fill="#E3E541"/>
<path d="M171.305 59.3524L119.295 25.3025L120.733 23.2041L171.305 59.3524Z" fill="#E4E53F"/>
<path d="M171.305 59.3525L120.445 23.6234L121.919 21.5519L171.305 59.3525Z" fill="#E4E53F"/>
<path d="M171.305 59.3525L121.624 21.9662L123.136 19.9234L171.305 59.3525Z" fill="#E5E63E"/>
<path d="M171.305 59.3524L122.834 20.3326L124.382 18.3184L171.305 59.3524Z" fill="#E6E63C"/>
<path d="M171.305 59.3524L124.073 18.7209L125.656 16.737L171.305 59.3524Z" fill="#E6E63C"/>
<path d="M171.305 59.3525L125.34 17.1344L126.959 15.1825L171.305 59.3525Z" fill="#E7E63B"/>
<path d="M171.305 59.3525L126.635 15.5732L128.287 13.6533L171.305 59.3525Z" fill="#E8E739"/>
<path d="M171.305 59.3525L127.956 14.0373L129.64 12.1528L171.305 59.3525Z" fill="#E8E739"/>
<path d="M171.305 59.3524L129.304 12.53L131.02 10.6808L171.305 59.3524Z" fill="#E9E737"/>
<path d="M171.305 59.3524L130.677 11.0496L132.424 9.23749L171.305 59.3524Z" fill="#E9E736"/>
<path d="M171.305 59.3525L132.074 9.5996L133.851 7.82452L171.305 59.3525Z" fill="#EAE734"/>
<path d="M171.305 59.3525L133.496 8.17987L135.302 6.44183L171.305 59.3525Z" fill="#EAE734"/>
<path d="M171.305 59.3525L134.94 6.79045L136.773 5.09283L171.305 59.3525Z" fill="#EBE831"/>
<path d="M171.305 59.3525L136.406 5.43304L138.265 3.77585L171.305 59.3525Z" fill="#ECE82F"/>
<path d="M171.305 59.3525L137.892 4.10761L139.777 2.49084L171.305 59.3525Z" fill="#ECE82F"/>
<path d="M171.305 59.3524L139.4 2.81419L141.308 1.24289L171.305 59.3524Z" fill="#EDE82D"/>
<path d="M171.305 59.3524L140.926 1.55614L142.858 0.026947L171.305 59.3524Z" fill="#EDE92B"/>
<path d="M171.305 59.3525L142.471 0.333466L144.423 -1.15195L171.305 59.3525Z" fill="#EEE928"/>
<path d="M171.305 59.3525L144.033 -0.853855L146.006 -2.29379L171.305 59.3525Z" fill="#EEE928"/>
<path d="M171.305 59.3525L145.611 -2.0058L147.603 -3.39859L171.305 59.3525Z" fill="#EFE926"/>
<path d="M171.305 59.3524L147.205 -3.12071L149.215 -4.46634L171.305 59.3524Z" fill="#F0EA22"/>
<path d="M171.305 59.3525L148.814 -4.19686L150.841 -5.49533L171.305 59.3525Z" fill="#F0EA22"/>
<path d="M171.305 59.3524L150.436 -5.23602L152.478 -6.48566L171.305 59.3524Z" fill="#F1EA1E"/>
<path d="M171.305 59.3524L152.07 -6.23469L154.127 -7.43549L171.305 59.3524Z" fill="#F2EA1A"/>
<path d="M171.305 59.3524L153.715 -7.19636L155.786 -8.34494L171.305 59.3524Z" fill="#F2EA1A"/>
<path d="M171.305 59.3525L155.373 -8.11587L157.456 -9.21561L171.305 59.3525Z" fill="#F2EA16"/>
<path d="M171.305 59.3524L157.039 -8.995L159.133 -10.0425L171.305 59.3524Z" fill="#F3EB11"/>
<path d="M171.305 59.3525L158.715 -9.83368L160.818 -10.829L171.305 59.3525Z" fill="#F4EB0D"/>
<path d="M171.305 59.3524L160.396 -10.6303L162.507 -11.5734L171.305 59.3524Z" fill="#F4EB0D"/>
<path d="M171.305 59.3524L162.085 -11.3848L164.203 -12.274L171.305 59.3524Z" fill="#F5EB0A"/>
<path d="M171.305 59.3524L163.78 -12.0955L165.904 -12.9325L171.305 59.3524Z" fill="#F5EC06"/>
<path d="M171.305 59.3525L165.479 -12.7658L167.607 -13.5472L171.305 59.3525Z" fill="#F5EC06"/>
<path d="M171.305 59.3525L167.182 -13.3906L169.313 -14.1181L171.305 59.3525Z" fill="#F6EC03"/>
<path d="M171.305 59.3525L168.886 -13.9716L171.02 -14.6436L171.305 59.3525Z" fill="#F6EC02"/>
<path d="M171.305 59.3524L170.594 -14.5089L172.728 -15.1253L171.305 59.3524Z" fill="#F7EC01"/>
<path d="M171.305 59.3524L172.301 -15.0023L174.434 -15.5631L171.305 59.3524Z" fill="#F7EC01"/>
<path d="M171.305 59.3524L174.007 -15.4503L176.138 -15.9539L171.305 59.3524Z" fill="#F8ED01"/>
<path d="M171.305 59.3524L175.711 -15.8528L177.839 -16.3008L171.305 59.3524Z" fill="#F8ED01"/>
<path d="M171.305 59.3525L177.414 -16.2115L179.537 -16.6022L171.305 59.3525Z" fill="#F8ED01"/>
<path d="M171.305 59.3524L179.112 -16.5231L181.23 -16.8566L171.305 59.3524Z" fill="#F9ED00"/>
<path d="M171.305 59.3524L180.806 -16.7892L182.916 -17.0654L171.305 59.3524Z" fill="#FAED00"/>
<path d="M171.305 59.3525L182.494 -17.0098L184.595 -17.2287L171.305 59.3525Z" fill="#FAED00"/>
<path d="M171.305 59.3524L184.175 -17.185L186.268 -17.3466L171.305 59.3524Z" fill="#FAEE00"/>
<path d="M171.305 59.3524L185.849 -17.3147L187.93 -17.4174L171.305 59.3524Z" fill="#FBEE00"/>
<path d="M171.305 59.3525L187.514 -17.3955L189.583 -17.4409L171.305 59.3525Z" fill="#FBEE00"/>
<path d="M171.305 59.3524L189.169 -17.4326L191.224 -17.4191L171.305 59.3524Z" fill="#FBEE00"/>
<path d="M171.305 59.3524L190.813 -17.4225L192.854 -17.3517L171.305 59.3524Z" fill="#FCEF00"/>
<path d="M171.305 59.3523L192.446 -17.3653L194.47 -17.2373L171.305 59.3523Z" fill="#FDEF00"/>
<path d="M171.305 59.3524L194.064 -17.2641L196.073 -17.0772L171.305 59.3524Z" fill="#FDEF00"/>
<path d="M171.305 59.3525L195.671 -17.1142L197.66 -16.8717L171.305 59.3525Z" fill="#FDEF00"/>
<path d="M171.305 59.3524L197.263 -16.9206L199.232 -16.6191L171.305 59.3524Z" fill="#FEEF00"/>
<path d="M171.305 59.3524L198.838 -16.6797L200.788 -16.321L171.305 59.3524Z" fill="#FEEF00"/>
<path d="M171.305 59.3524L200.398 -16.3918L202.325 -15.9775L171.305 59.3524Z" fill="#FEF000"/>
<path d="M171.305 59.3524L201.94 -16.06L203.843 -15.5884L171.305 59.3524Z" fill="#FFF000"/>
<path d="M171.305 59.3524L203.463 -15.6827L205.342 -15.1539L171.305 59.3524Z" fill="#FFF000"/>
<path d="M171.305 59.3524L204.966 -15.26L206.822 -14.6756L171.305 59.3524Z" fill="#FFF000"/>
<path d="M171.305 59.3524L206.45 -14.7918L208.277 -14.1518L171.305 59.3524Z" fill="#FFF000"/>
<path d="M171.305 59.3524L207.913 -14.2798L209.353 -13.7224L171.305 59.3524Z" fill="#00A2E9"/>
</g>
<path d="M241.951 37.3778C229.72 37.3778 224.998 41.7448 224.998 53.3923V78.5062C224.998 79.4156 225.482 79.84 226.39 79.84H232.929C233.839 79.84 234.262 79.4156 234.262 78.5062V62.7342H268.289C269.198 62.7342 269.622 62.3098 269.622 61.4004V56.6073C269.622 55.6979 269.198 55.3813 268.289 55.3813H234.262V54.0609C234.262 47.6898 236.078 45.8103 242.314 45.8103H268.591C269.501 45.8103 269.985 45.3859 269.985 44.4748V38.7133C269.985 37.8022 269.501 37.3778 268.591 37.3778H241.951Z" fill="#4972BF"/>
<path d="M93.2584 37.3778C92.349 37.3778 91.8649 37.8022 91.8649 38.7133V44.6567C91.8649 45.5678 92.349 46.0528 93.2584 46.0528H112.269V78.5062C112.269 79.4156 112.694 79.84 113.602 79.84H120.201C121.109 79.84 121.531 79.4156 121.531 78.5062V46.0528H133.518C134.608 41.6976 136.961 38.9222 140.891 37.4014C140.784 37.3862 140.668 37.3778 140.545 37.3778H93.2584Z" fill="#4972BF"/>
<path d="M102.79 4.42761C100.352 4.42761 99.4932 5.39094 98.841 8.00641L93.914 27.7563C93.7845 28.2733 93.9997 28.5125 94.5141 28.5125H98.0173C98.5317 28.5125 98.8326 28.2733 98.962 27.7563L103.442 9.79665C103.502 9.55582 103.597 9.45139 103.803 9.45139H104.113C104.353 9.45139 104.472 9.52045 104.491 9.7276L107.582 25.1408C108.097 27.6182 108.834 28.5125 111.136 28.5125H112.785C115.086 28.5125 116.27 27.6182 118.023 25.1408L128.805 9.7276C128.926 9.52045 129.08 9.45139 129.319 9.45139H129.628C129.835 9.45139 129.879 9.55582 129.818 9.79665L125.337 27.7563C125.209 28.2733 125.389 28.5125 125.903 28.5125H129.407C129.923 28.5125 130.257 28.2733 130.385 27.7563L135.314 8.00641C135.966 5.39094 135.588 4.42761 133.184 4.42761H129.509C127.483 4.42761 126.683 4.87559 125.216 7.04308L113.953 23.5594C113.79 23.8003 113.635 23.8676 113.395 23.8676H112.982C112.741 23.8676 112.622 23.8003 112.578 23.5594L109.556 7.04308C109.169 4.87559 108.594 4.42761 106.533 4.42761H102.79ZM160.323 9.62318C159.912 9.62318 159.636 9.76128 159.379 10.1048L147.807 24.1438C147.497 24.1438 147.403 23.9721 147.18 23.3523L142.86 10.1048C142.774 9.76128 142.569 9.62318 142.155 9.62318H138.207C137.726 9.62318 137.416 10.0358 137.546 10.4838L142.818 26.5185C143.127 27.4818 143.539 27.8944 144.646 27.9971L141.977 31.2661C141.533 31.81 140.95 32.0576 140.029 32.0576H135.226C134.819 32.0576 134.555 32.2698 134.455 32.6774L133.75 35.4983C133.648 35.9059 133.802 36.1164 134.214 36.1164H139.392C142.345 36.1164 144.114 35.3585 145.403 33.7771L164.402 10.4838C164.753 10.0358 164.65 9.62318 164.17 9.62318H160.323Z" fill="#4972BF"/>
<path d="M78.7161 49.4952C77.0435 56.3799 73.5235 62.9077 68.1577 68.2851C60.3612 76.0945 50.1425 80 39.9254 80C29.7083 80 19.4895 76.0945 11.6947 68.2851C3.89823 60.4741 0.001681 50.2362 0 40C0 37.6506 0.206765 35.3013 0.621971 32.9856C3.07118 32.4567 5.47501 31.6803 7.82 30.7069C10.1734 29.7301 12.4528 28.5344 14.6297 27.118C12.5806 31.1532 11.5569 35.5775 11.5569 40C11.5569 47.2721 14.3271 54.5459 19.866 60.0968C25.4066 65.6461 32.6668 68.4215 39.9254 68.4215C47.1856 68.4215 54.4441 65.6461 59.9847 60.0968C65.3437 54.7278 71.8408 51.181 78.7161 49.4952Z" fill="#4972BF"/>
<path fill-rule="evenodd" clip-rule="evenodd" d="M35.2606 14.2882C39.1269 13.5826 42.9814 13.751 46.8242 14.7918C50.482 15.9741 53.2775 20.3309 55.2107 27.8624C61.3614 28.723 64.7167 30.6834 65.2765 33.7434C65.6413 35.2171 65.8732 36.6856 65.9775 38.1491C65.653 36.5728 64.4562 35.372 62.3852 34.5501C60.0923 33.7502 58.023 33.2719 56.1772 33.1136C56.9303 40.9195 56.4025 48.0687 54.5954 54.5611C52.7766 60.3175 50.3072 63.8424 47.189 65.1341C43.321 66.2153 39.5522 66.4545 35.8792 65.8499C37.9569 65.5669 39.7018 64.3358 41.1155 62.1582C45.429 55.3038 47.0763 45.5661 46.0593 32.9468C38.2561 33.4453 30.9472 35.0335 24.1358 37.7096C17.5479 40.5356 14.3507 43.3144 14.5423 46.0461C14.0699 43.9948 13.8329 42.0294 13.8346 40.1499C14.4263 38.2013 15.951 36.4532 18.412 34.9055C21.305 33.0512 25.494 31.3705 30.9791 29.8632C35.1513 28.7314 39.9018 27.9803 45.2289 27.6081C44.422 23.322 42.8839 19.728 40.6146 16.8246C38.9235 14.8996 37.1383 14.0542 35.2606 14.2882Z" fill="#4972BF"/>
<path fill-rule="evenodd" clip-rule="evenodd" d="M63.7081 46.2667C63.103 42.6896 61.5161 39.0434 58.9492 35.3282C59.0366 38.2417 59.0803 39.7002 59.0803 39.7002C62.9534 46.3475 63.6207 51.5633 61.0841 55.3442C61.8439 54.263 62.4255 53.3401 62.829 52.5788C63.7417 50.8896 64.0359 48.7861 63.7081 46.2667Z" fill="#4972BF"/>
<path fill-rule="evenodd" clip-rule="evenodd" d="M55.2982 18.8725C56.095 19.4518 56.8733 20.0885 57.6281 20.784C57.3642 21.5891 56.9036 22.4059 56.2463 23.2329C55.8596 22.2847 55.3368 21.3213 54.6779 20.3411C55.0141 19.8729 55.2208 19.3845 55.2982 18.8725Z" fill="#4972BF"/>
<path fill-rule="evenodd" clip-rule="evenodd" d="M22.8062 59.7449C23.4701 60.3293 24.2434 60.9288 25.1226 61.5418C27.439 60.8008 33.3628 55.1135 42.8941 44.4798C42.8941 44.4798 42.9613 42.863 43.0941 39.6295C31.5961 52.3633 24.8334 59.0678 22.8062 59.7449Z" fill="#4972BF"/>
<path fill-rule="evenodd" clip-rule="evenodd" d="M18.6272 24.9219C19.2441 24.0562 19.8325 23.3102 20.3906 22.687C24.6115 18.5323 31.3002 18.6266 40.455 22.9683C40.455 22.9683 40.7912 24.0832 41.4636 26.313C36.1281 23.2984 31.3439 21.7473 27.1112 21.6631C23.3407 21.6311 20.5116 22.7174 18.6272 24.9219Z" fill="#4972BF"/>
<path fill-rule="evenodd" clip-rule="evenodd" d="M54.1282 18.0692C53.049 17.372 51.953 16.769 50.8401 16.2587C52.0773 17.0604 53.049 17.9597 53.7551 18.9568C53.9433 18.6873 54.0677 18.3909 54.1282 18.0692Z" fill="#4972BF"/>
<path fill-rule="evenodd" clip-rule="evenodd" d="M64.362 30.7962C63.4509 28.3458 62.1599 26.0419 60.4873 23.8845C60.1158 25.0752 59.5073 26.1732 58.66 27.182C61.5362 27.918 63.4357 29.1239 64.362 30.7962Z" fill="#4972BF"/>
<path fill-rule="evenodd" clip-rule="evenodd" d="M63.8107 50.5865C65.1639 46.329 63.9334 41.2732 60.1176 35.4158C63.888 36.3202 65.8632 37.8072 66.0448 39.8821C66.0885 43.434 65.3438 47.0027 63.8107 50.5865Z" fill="#4972BF"/>
<path fill-rule="evenodd" clip-rule="evenodd" d="M57.8095 59.0813C60.3898 56.5854 60.6806 52.5502 58.6853 46.974C56.9808 56.5786 54.155 62.271 50.2097 64.0546C53.022 62.8521 55.5553 61.1949 57.8095 59.0813Z" fill="#4972BF"/>
<path fill-rule="evenodd" clip-rule="evenodd" d="M36.5482 63.2024C39.5673 60.0598 41.598 54.6032 42.6402 46.8342C32.9257 57.0469 27.4305 62.175 26.153 62.2172C27.723 63.2209 29.5822 64.0933 31.7305 64.8377C33.4065 65.2705 35.0135 64.7265 36.5482 63.2024Z" fill="#4972BF"/>
<path fill-rule="evenodd" clip-rule="evenodd" d="M15.2064 48.3634C16.2974 51.506 17.7951 54.2276 19.698 56.5332C21.0378 56.4035 28.1081 49.2442 40.9105 35.0554C31.3171 36.502 23.9829 38.8582 18.9113 42.1237C15.6905 44.1649 14.4567 46.2448 15.2064 48.3634Z" fill="#4972BF"/>
<path fill-rule="evenodd" clip-rule="evenodd" d="M24.2568 22.7864C28.7282 22.3553 33.778 23.6521 39.4059 26.6801C24.2215 29.2299 15.7106 33.2146 13.8716 38.6341C14.0212 35.2979 14.8835 31.9565 16.4553 28.6085C17.948 25.225 20.5485 23.2849 24.2568 22.7864Z" fill="#4972BF"/>
<path fill-rule="evenodd" clip-rule="evenodd" d="M32.3121 15.0107C29.8781 15.6945 27.296 16.9846 24.5627 18.8809C28.0659 16.838 32.5777 16.673 38.0981 18.3841C36.4541 15.9353 34.526 14.812 32.3121 15.0107Z" fill="#4972BF"/>
<path d="M11.6947 11.7149C19.4895 3.90552 29.7083 0 39.9254 0C50.1425 0 60.3613 3.90552 68.1577 11.7149C75.9525 19.5259 79.8507 29.7638 79.8507 40C79.8507 42.3494 79.644 44.6988 79.2338 47.0195L79.2254 47.0111C76.7795 47.5433 74.3757 48.3197 72.0307 49.2931C69.679 50.2699 67.3979 51.4656 65.221 52.882C67.2701 48.8468 68.2939 44.4226 68.2939 40C68.2939 32.7279 65.5236 25.4541 59.9847 19.9032C54.4458 14.3539 47.1856 11.5785 39.9254 11.5785C32.6668 11.5785 25.4066 14.3539 19.866 19.9032C14.5087 25.2722 8.01163 28.819 1.1498 30.4964L1.13635 30.5048C2.80726 23.6201 6.32727 17.0923 11.6947 11.7149Z" fill="#4972BF"/>
</svg>
