<svg width="168" height="206" viewBox="0 0 168 206" fill="none" xmlns="http://www.w3.org/2000/svg">
<path fill-rule="evenodd" clip-rule="evenodd" d="M94.2132 205.473C134.358 205.473 166.902 198.854 166.902 190.689C166.902 182.524 134.358 175.904 94.2132 175.904C54.0685 175.904 21.5247 182.524 21.5247 190.689C21.5247 198.854 54.0685 205.473 94.2132 205.473Z" fill="#332C2B" fill-opacity="0.109804"/>
<path fill-rule="evenodd" clip-rule="evenodd" d="M83.9061 6.79379C42.9082 6.79379 9.67285 37.8977 9.67285 73.9855C9.67285 110.073 42.9082 120.266 83.9061 120.266C124.904 120.266 158.139 110.073 158.139 73.9855C158.139 37.8977 124.904 6.79379 83.9061 6.79379Z" fill="#FEFEFE"/>
<path fill-rule="evenodd" clip-rule="evenodd" d="M8.36475 73.9855C8.36475 55.4367 16.9561 38.1863 30.8233 25.6345C44.4658 13.2861 63.2176 5.48563 83.9061 5.48563C104.595 5.48563 123.346 13.2861 136.989 25.6345C150.856 38.1863 159.448 55.4367 159.448 73.9855C159.448 73.8578 158.139 73.7299 158.138 73.6024C157.904 37.6777 124.759 6.79374 83.9061 6.79374C43.1245 6.79374 10.0238 37.5703 9.67564 73.4147C9.67385 73.6048 8.36475 73.7951 8.36475 73.9855ZM138.282 175.123C138.499 174.464 138.7 173.76 138.886 173.011C138.91 172.912 138.897 172.812 138.855 172.727C138.638 172.219 138.356 171.792 138.009 171.445C137.653 171.09 137.232 170.821 136.745 170.64C136.529 170.56 136.289 170.669 136.208 170.885C136.196 170.918 136.188 170.951 136.185 170.984L136.184 170.983L136.022 172.36C135.947 172.296 135.872 172.233 135.797 172.171L136.223 170.646C136.272 170.468 136.198 170.272 136.032 170.175C135.486 169.853 134.9 169.583 134.275 169.364C133.654 169.146 132.996 168.978 132.3 168.86C132.077 168.817 131.859 168.961 131.812 169.184L131.548 170.423C131.356 170.408 131.164 170.399 130.973 170.399L131.312 169.612C131.403 169.4 131.305 169.154 131.092 169.063C131.079 169.057 131.065 169.052 131.052 169.048C130.515 168.839 129.992 168.651 129.485 168.483L129.485 168.481C128.982 168.314 128.492 168.168 128.016 168.043C127.793 167.984 127.565 168.118 127.506 168.341L127.501 168.361C127.224 169.374 126.995 170.437 126.813 171.552L126.812 171.56C123.163 173.647 120.207 178.358 119.372 184.148L138.282 175.123ZM132.256 141.739C133.994 147.324 137.803 160.615 138.826 169.395C137.164 166.984 133.578 165.873 128.068 166.061C123.431 156.366 119.055 143.321 117.352 137.85C114.568 128.906 117.429 128.25 121.545 129.324C125.66 130.398 129.472 132.795 132.256 141.739ZM44.3705 149.447C59.4954 196.065 66.7445 172.261 55.4785 137.539C52.3321 127.841 49.3084 128.852 46.241 132.14C43.1736 135.428 41.224 139.749 44.3705 149.447ZM49.4602 167.433C46.9309 161.079 44.2649 153.353 43.1288 149.851C41.4819 144.775 41.176 141.063 41.6879 138.165C42.2189 135.158 43.5994 133.058 45.2855 131.251C47.1577 129.244 49.0942 127.959 51.2695 128.738C53.1752 129.42 55.003 131.842 56.7201 137.135C57.8626 140.656 59.8494 147.159 61.6955 154.314L49.4602 167.433ZM130.697 167.524C130.938 167.611 131.163 167.694 131.369 167.773C131.714 167.576 132.127 167.497 132.545 167.578C132.936 167.645 133.3 167.721 133.638 167.807C133.98 167.894 134.335 168.003 134.704 168.132C135.066 168.259 135.409 168.397 135.73 168.545C136.04 168.689 136.352 168.852 136.667 169.036C136.084 168.611 135.364 168.266 134.507 168C133.326 167.634 131.903 167.422 130.237 167.362C130.392 167.415 130.545 167.469 130.697 167.524ZM127.045 166.957L127.095 166.929C127.002 166.824 126.925 166.704 126.868 166.572C124.981 162.62 123.148 158.154 121.521 153.871C119.1 147.496 117.124 141.512 116.105 138.238C114.567 133.297 114.688 130.516 115.824 129.038C115.852 129.001 115.881 128.967 115.912 128.934C117.225 127.346 119.389 127.414 121.872 128.062C124.132 128.652 126.315 129.611 128.33 131.666C130.283 133.658 132.043 136.663 133.502 141.35C134.55 144.717 136.342 150.851 137.827 157.103C138.833 161.337 139.705 165.649 140.124 169.247C140.202 169.928 139.74 170.547 139.079 170.677C139.258 170.872 139.422 171.082 139.569 171.305C139.753 171.584 139.916 171.888 140.056 172.216L140.055 172.217C140.127 172.38 140.175 172.552 140.194 172.728C140.211 172.889 140.205 173.055 140.174 173.222C140.168 173.255 140.161 173.289 140.153 173.322C140.047 173.748 139.947 174.127 139.852 174.458C139.803 174.631 139.751 174.806 139.697 174.982C140.557 176.591 141.178 178.46 141.511 180.488L118.079 183.964C118.515 180.944 119.497 178.195 120.846 175.913C122.146 173.714 123.791 171.938 125.626 170.753C125.695 170.371 125.767 170.003 125.844 169.648C125.95 169.155 126.075 168.642 126.219 168.112L126.234 168.044L126.235 168.045L126.244 168.009C126.365 167.546 126.661 167.178 127.04 166.957L127.042 166.959L127.045 166.957Z" fill="black" fill-opacity="0.109804"/>
<path fill-rule="evenodd" clip-rule="evenodd" d="M87.2162 15.6795C52.3377 15.6795 24.063 42.1408 24.063 72.8422C24.063 103.544 52.3377 104.623 87.2162 104.623C122.095 104.623 150.369 103.544 150.369 72.8422C150.369 42.1408 122.095 15.6795 87.2162 15.6795Z" fill="#0C295C"/>
<path fill-rule="evenodd" clip-rule="evenodd" d="M87.2162 15.6795C52.3377 15.6795 24.063 42.1408 24.063 72.8422C24.063 73.2998 24.0702 73.7499 24.0827 74.1945C27.2058 45.8948 54.1506 22.5204 86.9312 22.5204C121.217 22.5204 149.12 48.0903 150.058 78.122C150.263 76.4667 150.369 74.7103 150.369 72.8422C150.369 42.1408 122.095 15.6795 87.2162 15.6795Z" fill="black" fill-opacity="0.141176"/>
<path fill-rule="evenodd" clip-rule="evenodd" d="M165.637 87.6557C162.027 91.1179 157.749 93.7725 152.802 95.6197C151.796 80.2059 152.314 66.0473 154.357 53.1439C159.103 55.091 162.863 57.0264 165.637 58.9502C167.651 68.5915 167.651 78.1599 165.637 87.6557Z" fill="#446AB1"/>
<path fill-rule="evenodd" clip-rule="evenodd" d="M2.18123 87.6557C5.79108 91.1179 10.0692 93.7725 15.0156 95.6197C16.0217 80.2059 15.5037 66.0473 13.4614 53.1439C8.71477 55.091 4.95468 57.0264 2.18123 58.9502C0.166803 68.5915 0.166803 78.1599 2.18123 87.6557Z" fill="#446AB1"/>
<path fill-rule="evenodd" clip-rule="evenodd" d="M106.068 2.74041C108.618 9.634 109.893 13.0808 109.893 13.0808C92.7913 9.20826 75.0405 9.20826 57.9392 13.0808C59.5992 6.18724 60.4291 2.74041 60.4291 2.74041C76.4169 -0.590473 91.6299 -0.590473 106.068 2.74041Z" fill="#18386E"/>
<path fill-rule="evenodd" clip-rule="evenodd" d="M106.068 2.74041C108.618 9.634 109.893 13.0808 109.893 13.0808C108.541 12.7748 107.186 12.493 105.827 12.2354L102.932 4.40753C90.5377 1.54817 77.4786 1.54817 63.7545 4.40753L61.8631 12.2625C60.5517 12.5129 59.2436 12.7854 57.9392 13.0808C59.5992 6.18724 60.4291 2.74041 60.4291 2.74041C76.4169 -0.590473 91.6299 -0.590473 106.068 2.74041Z" fill="#446AB1"/>
<path fill-rule="evenodd" clip-rule="evenodd" d="M50.5887 172.751C50.0455 170.538 49.5726 168.215 49.2054 165.942C48.1725 159.548 47.9757 153.547 48.1725 148.382C48.3693 143.218 48.9595 138.889 49.8207 135.348C50.6819 131.807 51.8141 129.052 53.1421 127.429C54.4702 125.806 55.994 125.314 58.9694 125.019C61.9447 124.724 66.3714 124.626 70.8474 124.527C75.3233 124.429 79.8484 124.33 84.3736 124.232C88.8987 124.33 93.4238 124.429 97.8998 124.527C102.376 124.626 106.802 124.724 109.778 125.019C112.753 125.314 114.277 125.806 115.605 127.429C116.933 129.052 118.065 131.807 118.926 135.348C119.788 138.889 120.378 143.218 120.575 148.382C120.771 153.547 120.575 159.548 119.542 165.942C119.216 167.956 118.808 170.01 118.341 171.992C116.584 172.894 114.356 173.247 111.657 173.053C110.336 161.877 107.693 151.028 103.727 140.506L67.2344 140.54C63.2667 149.712 60.1828 160.836 57.9825 173.913C55.5627 174.117 52.5912 173.734 50.5887 172.751Z" fill="#FEFEFE"/>
<path fill-rule="evenodd" clip-rule="evenodd" d="M87.2165 16.9877C70.2315 16.9877 54.8511 23.3786 43.6739 33.4955C32.3728 43.7246 25.3713 57.7636 25.3713 72.8423C25.3713 87.5168 32.1082 95.1047 42.9999 99.0192C54.2148 103.05 69.891 103.315 87.2165 103.315C104.542 103.315 120.218 103.05 131.433 99.0192C142.325 95.1047 149.062 87.5168 149.062 72.8423C149.062 57.7635 142.06 43.7246 130.759 33.4955C119.582 23.3786 104.201 16.9877 87.2165 16.9877ZM87.2165 15.6796C52.3379 15.6796 24.0632 42.1409 24.0632 72.8423C24.0632 103.544 52.3379 104.623 87.2165 104.623C122.095 104.623 150.37 103.544 150.37 72.8423C150.37 42.1409 122.095 15.6796 87.2165 15.6796Z" fill="#446AB1"/>
<path fill-rule="evenodd" clip-rule="evenodd" d="M84.6688 188.863C80.734 188.863 76.799 188.863 72.6674 188.617C68.5358 188.371 64.2074 187.879 61.0595 187.387C57.9115 186.895 55.9441 186.403 54.0259 182.764C52.7895 180.418 51.5736 176.764 50.5889 172.751C51.8082 173.531 55.7175 173.941 57.9827 173.913C60.183 160.836 63.2669 149.712 67.2345 140.54H105.894C109.86 151.062 112.503 161.911 113.824 173.087C116.523 173.281 116.584 172.894 118.341 171.992C117.326 176.301 116.036 180.271 114.722 182.764C112.803 186.403 110.836 186.895 107.688 187.387C104.54 187.879 100.212 188.371 96.08 188.617C91.9484 188.863 88.6037 188.863 84.6688 188.863Z" fill="#446AB1"/>
<path fill-rule="evenodd" clip-rule="evenodd" d="M84.6686 188.863C80.7338 188.863 76.7989 188.863 72.6672 188.617C68.5356 188.371 64.2072 187.879 61.0593 187.387C57.9114 186.895 55.944 186.403 54.0257 182.764C52.7893 180.418 51.5735 176.764 50.5887 172.751C50.0455 170.538 49.5726 168.215 49.2054 165.942C48.1725 159.548 47.9757 153.547 48.1725 148.382C48.3693 143.218 48.9595 138.889 49.8207 135.348C50.6819 131.807 51.8141 129.052 53.1421 127.429C54.4702 125.806 55.994 125.314 58.9694 125.019C61.9447 124.724 66.3714 124.626 70.8474 124.527C75.3233 124.429 79.8484 124.33 84.3736 124.232C88.8987 124.33 93.4238 124.429 97.8998 124.527C102.376 124.626 106.802 124.724 109.778 125.019C112.753 125.314 114.277 125.806 115.605 127.429C116.933 129.052 118.065 131.807 118.926 135.348C119.788 138.889 120.378 143.218 120.575 148.382C120.771 153.547 120.575 159.548 119.542 165.942C119.216 167.956 118.808 170.01 118.341 171.992C117.326 176.301 116.035 180.271 114.721 182.764C112.803 186.403 110.836 186.895 107.688 187.387C104.54 187.879 100.211 188.371 96.0799 188.617C91.9482 188.863 88.6036 188.863 84.6686 188.863C66.0652 188.863 57.0455 188.805 57.0455 157.836C57.0455 126.866 66.0652 128.544 84.6686 128.544C103.272 128.544 115.31 127.973 115.31 157.015C115.31 186.058 103.272 188.863 84.6686 188.863Z" fill="black" fill-opacity="0.109804"/>
<path d="M95.9132 175.117C95.0654 175.74 94.1341 176.268 93.1416 176.679C91.6213 177.309 89.9658 177.664 88.2557 177.664C84.7026 177.664 81.4852 176.223 79.1564 173.894C76.8277 171.566 75.3872 168.348 75.3872 164.795C75.3872 161.242 76.8277 158.025 79.1564 155.696C81.4852 153.367 84.7026 151.927 88.2557 151.927C91.8089 151.927 95.0263 153.367 97.3548 155.696C99.6836 158.025 101.124 161.242 101.124 164.795C101.124 165.481 101.104 165.925 100.992 166.629L97.1862 166.627H90.763C90.1981 167.399 89.6279 167.9 88.2557 167.9C86.8834 167.9 85.1507 166.51 85.1507 164.795C85.1507 163.08 86.8834 161.69 88.2557 161.69C89.6279 161.69 90.1981 162.192 90.763 162.964H97.172C96.8086 161.185 95.9266 159.595 94.6909 158.36C93.0444 156.713 90.7689 155.695 88.2557 155.695C85.7426 155.695 83.4671 156.713 81.8204 158.36C80.1737 160.006 79.155 162.282 79.155 164.795C79.155 167.308 80.1737 169.584 81.8204 171.23C83.4671 172.877 85.7426 173.896 88.2557 173.896C89.4773 173.896 90.6486 173.647 91.714 173.206C92.7999 172.756 93.7861 172.105 94.6142 171.312L94.6909 171.23C95.4264 170.495 96.6193 170.495 97.3548 171.23L100.509 174.385C101.245 175.12 101.245 176.313 100.509 177.049C99.7738 177.784 98.5809 177.784 97.8454 177.049L95.9132 175.117Z" fill="#FEFEFE"/>
<path fill-rule="evenodd" clip-rule="evenodd" d="M0.789062 77.3762C0.99226 80.8121 1.45619 84.2386 2.1811 87.6556C5.79096 91.1178 10.0691 93.7724 15.0154 95.6196L15.0155 95.6189C25.9923 114.357 52.6983 120.266 83.9061 120.266C115.119 120.266 141.828 114.355 152.802 95.6106L152.802 95.6196C157.749 93.7724 162.027 91.1178 165.637 87.6556C166.36 84.2446 166.824 80.8242 167.028 77.3944L152.305 79.6422C146.959 99.5957 136.623 113.624 83.9079 113.624C31.3871 113.624 21.8559 103.324 15.5105 79.6422L0.789062 77.3762Z" fill="black" fill-opacity="0.109804"/>
<path fill-rule="evenodd" clip-rule="evenodd" d="M38.4201 41.0981C40.265 43.5798 46.2017 42.1256 51.68 37.8503C57.1582 33.5748 60.1037 28.0972 58.2587 25.6155C56.4137 23.1338 50.4772 24.5879 44.9988 28.8633C39.5205 33.1387 36.5752 38.6164 38.4201 41.0981Z" fill="#FEFEFE" fill-opacity="0.270588"/>
<path d="M127.624 200.836C133.392 201.668 139.048 195.546 140.258 187.162C141.468 178.778 137.773 171.306 132.005 170.474C126.238 169.642 120.581 175.764 119.372 184.148C118.162 192.532 121.857 200.004 127.624 200.836Z" fill="#FEFEFE"/>
<path fill-rule="evenodd" clip-rule="evenodd" d="M124.03 173.902C121.755 176.365 120.043 179.978 119.44 184.158C118.837 188.338 119.457 192.287 120.944 195.293C122.43 198.299 124.78 200.355 127.634 200.767C130.489 201.179 133.324 199.871 135.6 197.408C137.875 194.945 139.587 191.332 140.19 187.152C140.793 182.972 140.173 179.022 138.686 176.017C137.2 173.01 134.85 170.954 131.996 170.543C129.141 170.131 126.306 171.439 124.03 173.902ZM123.929 173.808C126.225 171.322 129.102 169.985 132.015 170.406C134.928 170.826 137.31 172.922 138.81 175.955C140.311 178.989 140.933 182.968 140.327 187.172C139.72 191.376 137.998 195.016 135.701 197.502C133.405 199.988 130.527 201.325 127.615 200.904C124.702 200.484 122.32 198.388 120.82 195.355C119.319 192.321 118.697 188.342 119.303 184.138C119.91 179.934 121.632 176.294 123.929 173.808Z" fill="#FEFEFE"/>
<path d="M128.515 194.666C131.938 195.16 135.296 191.526 136.014 186.549C136.732 181.573 134.539 177.138 131.115 176.644C127.692 176.15 124.334 179.784 123.616 184.761C122.898 189.737 125.091 194.172 128.515 194.666Z" fill="#A1A1A1"/>
<path d="M73.0151 203.253C80.358 202.103 85.2478 194.386 83.9369 186.017C82.6261 177.648 75.6108 171.796 68.268 172.947C60.9252 174.097 56.0353 181.813 57.3462 190.182C58.6571 198.551 65.6723 204.403 73.0151 203.253Z" fill="#FEFEFE"/>
<path fill-rule="evenodd" clip-rule="evenodd" d="M68.2803 173.024C60.9892 174.166 56.1178 181.834 57.4236 190.17C58.7293 198.506 65.7122 204.318 73.0032 203.176C80.2942 202.034 85.1657 194.365 83.8599 186.029C82.5542 177.693 75.5713 171.882 68.2803 173.024ZM57.2692 190.194C55.9532 181.793 60.8615 174.028 68.2561 172.869C75.6507 171.711 82.6982 177.603 84.0143 186.005C85.3303 194.407 80.422 202.172 73.0274 203.33C65.6328 204.489 58.5852 198.596 57.2692 190.194Z" fill="#FEFEFE"/>
<path d="M72.1285 197.592C76.7284 196.872 79.7916 192.038 78.9704 186.795C78.1492 181.553 73.7546 177.887 69.1547 178.607C64.5549 179.328 61.4916 184.162 62.3128 189.404C63.134 194.647 67.5286 198.313 72.1285 197.592Z" fill="#A1A1A1"/>
<path fill-rule="evenodd" clip-rule="evenodd" d="M130.227 170.433C126.104 170.371 122.203 170.624 118.525 171.192C117.309 171.38 116.117 171.603 114.949 171.86C114.555 172.26 114.18 172.668 113.824 173.087C113.646 173.297 113.472 173.509 113.303 173.724C111.562 175.936 110.336 178.399 109.624 181.111C109.125 183.012 108.879 185.037 108.885 187.183C108.892 189.437 109.178 191.825 109.742 194.349C110.913 195.374 112.323 196.293 113.971 197.106C117.456 198.825 122.007 200.068 127.624 200.836C125.736 200.563 124.069 199.579 122.724 198.083C119.963 195.012 118.558 189.786 119.372 184.148C120.457 176.629 125.117 170.93 130.227 170.433Z" fill="#FEFEFE"/>
<path fill-rule="evenodd" clip-rule="evenodd" d="M62.7053 200.106C59.9789 197.742 57.985 194.261 57.3461 190.182C56.2801 183.377 59.3142 177.003 64.4333 174.24C59.7868 176.666 56.4657 181.078 55.4411 186.259C54.4145 191.449 55.4282 194.235 58.815 198.25C59.0419 198.519 59.2778 198.782 59.5225 199.039C61.5445 200.537 65.5829 202.896 69.6755 203.304C67.1205 202.983 64.7141 201.847 62.7053 200.106Z" fill="#FEFEFE"/>
<path fill-rule="evenodd" clip-rule="evenodd" d="M66.358 196.162C68.8275 194.34 70.3387 191.512 70.4942 188.467C70.5018 188.317 70.5061 188.167 70.5072 188.016C70.5074 187.98 70.5075 187.944 70.5074 187.907C70.4952 184.652 68.931 181.597 66.2964 179.684C64.7542 180.659 63.5554 182.177 62.8588 183.989C62.436 185.088 62.1981 186.296 62.1807 187.555C62.1724 188.161 62.2151 188.78 62.3128 189.404C62.7651 192.291 64.3009 194.7 66.358 196.162Z" fill="#757475"/>
<path fill-rule="evenodd" clip-rule="evenodd" d="M123.616 184.76C123.22 187.501 123.708 190.078 124.798 191.922C128.178 188.495 128.636 183.146 125.889 179.193C124.764 180.627 123.933 182.563 123.616 184.76Z" fill="#757475"/>
<path fill-rule="evenodd" clip-rule="evenodd" d="M122.724 198.083C121.074 196.247 119.908 193.642 119.411 190.639C119.908 193.642 121.074 196.247 122.724 198.083ZM124.592 197.431C122.043 195.759 120.316 193.495 119.411 190.639C119.287 191.571 119.245 192.427 119.283 193.21C119.294 195.745 117.511 196.4 113.933 195.174C111.544 194.196 109.969 191.511 109.209 187.118C109.108 186.532 109.021 185.916 108.949 185.27C108.904 185.896 108.883 186.534 108.885 187.183C108.892 189.437 109.178 191.825 109.742 194.349C110.913 195.374 112.323 196.293 113.971 197.106C117.456 198.825 122.007 200.068 127.624 200.836C129.446 201.098 131.257 200.667 132.92 199.69C134.984 198.478 136.821 196.424 138.168 193.812C134.31 198.819 129.784 200.025 124.592 197.431Z" fill="#DCDDDD"/>
<path fill-rule="evenodd" clip-rule="evenodd" d="M60.8494 198.183C60.4354 197.672 60.0492 197.13 59.6945 196.559C60.0493 197.13 60.4354 197.672 60.8494 198.183ZM80.1729 199.362C74.3349 203.814 66.116 203.317 60.8575 198.193C60.8559 198.191 60.8542 198.189 60.8526 198.187C60.8515 198.186 60.8505 198.184 60.8494 198.183C60.4313 197.665 60.0458 197.122 59.6945 196.559C59.6448 196.479 59.5958 196.399 59.5473 196.318C59.546 196.316 59.5445 196.313 59.5432 196.311C58.974 195.361 58.5014 194.354 58.1336 193.305C58.1333 193.304 58.1329 193.303 58.1326 193.302C58.1317 193.3 58.1309 193.297 58.13 193.295C58.13 193.295 57.2457 193.099 55.4771 192.708C55.8812 194.062 56.582 195.338 57.596 196.714C57.9615 197.211 58.3676 197.72 58.8151 198.25C59.042 198.519 59.2779 198.782 59.5225 199.039C61.5446 200.537 65.5829 202.896 69.6756 203.304C70.7681 203.441 71.8878 203.429 73.0152 203.253C75.8329 202.811 78.2893 201.403 80.1729 199.362Z" fill="#DCDDDD"/>
<path fill-rule="evenodd" clip-rule="evenodd" d="M62.1614 154.992C61.2706 151.186 60.1234 146.285 58.7198 140.289C58.3437 141.696 58.0313 143.272 57.7822 145.035C58.9114 148.886 60.177 153.466 61.3095 158.133C62.2083 161.838 63.0232 165.597 63.6193 169.09C61.7189 169.794 59.9167 171.225 58.2127 173.382C58.4104 174.406 58.6333 175.362 58.8815 176.254C59.0196 176.249 59.1574 176.312 59.2419 176.434L60.01 177.54C60.1085 177.439 60.2082 177.338 60.3093 177.239L59.1 176.031C58.9658 175.897 58.9366 175.683 59.0415 175.515C59.2644 175.157 59.5567 174.789 59.9181 174.411C60.2722 174.041 60.691 173.663 61.1744 173.278C61.348 173.141 61.6011 173.162 61.7482 173.331L63.1756 174.965C63.3374 174.863 63.5011 174.763 63.6667 174.665L62.1665 173.519C62.1494 173.508 62.133 173.494 62.1174 173.48C61.9496 173.321 61.942 173.056 62.1006 172.888C62.4621 172.505 62.8428 172.165 63.2425 171.869C63.643 171.573 64.0602 171.323 64.4943 171.12C64.6549 171.045 64.8519 171.079 64.978 171.217C65.4809 171.766 65.9434 172.285 66.3652 172.774C66.3652 172.774 65.7378 170.153 64.483 164.911C64.483 164.911 63.7091 161.604 62.1614 154.992Z" fill="#332C2B" fill-opacity="0.109804"/>
<path fill-rule="evenodd" clip-rule="evenodd" d="M57.7823 145.035C58.0314 143.272 58.3438 141.696 58.7199 140.289C57.1663 133.733 55.1753 129.621 52.747 127.954C52.2943 128.603 51.8667 129.388 51.4675 130.294C52.7906 131.171 54.1231 133.361 55.4785 137.539C55.9509 138.995 56.5664 140.956 57.255 143.255C57.4266 143.829 57.6027 144.423 57.7823 145.035Z" fill="#C9CACA"/>
<path fill-rule="evenodd" clip-rule="evenodd" d="M58.0635 181.958C59.5571 183.539 61.0306 184.614 62.484 185.185C62.5853 184.774 62.7111 184.375 62.8596 183.988C63.5562 182.177 64.755 180.658 66.2972 179.684C67.1532 179.143 68.1151 178.769 69.1555 178.606C69.8503 178.498 70.5403 178.489 71.2141 178.57C70.9902 176.949 70.0085 175.074 68.2689 172.946C66.8969 173.161 65.6105 173.605 64.4342 174.24C64.4339 174.24 64.4336 174.24 64.4333 174.24C63.6907 174.641 62.9918 175.118 62.3431 175.661L62.3422 175.662M62.3352 175.668L62.332 175.671L62.2553 175.735L62.255 175.736L62.1777 175.802L62.1762 175.803L62.1021 175.868L62.0999 175.87M61.7979 176.144C61.7002 176.236 61.6038 176.329 61.5088 176.423C61.6039 176.329 61.7002 176.236 61.7979 176.144ZM61.0037 176.954C60.8902 177.08 60.7789 177.208 60.6698 177.339C60.7789 177.208 60.8903 177.08 61.0037 176.954ZM60.6008 177.422C60.5579 177.474 60.5154 177.526 60.4732 177.579C60.5154 177.526 60.5579 177.474 60.6008 177.422ZM60.026 178.17C59.9894 178.221 59.953 178.272 59.9171 178.324C59.953 178.272 59.9894 178.221 60.026 178.17ZM59.7841 178.518C59.7481 178.571 59.7123 178.625 59.677 178.679C59.7123 178.625 59.7481 178.571 59.7841 178.518ZM58.7039 180.41C58.6791 180.462 58.6547 180.514 58.6305 180.566C58.6547 180.514 58.6792 180.462 58.7039 180.41ZM58.5112 180.829C58.4881 180.881 58.4653 180.933 58.4427 180.986C58.4653 180.933 58.4881 180.881 58.5112 180.829ZM58.3976 181.092C58.3757 181.144 58.3541 181.197 58.3327 181.249C58.3541 181.197 58.3757 181.144 58.3976 181.092ZM58.0827 181.904L58.0824 181.905L58.0821 181.906L58.0818 181.907L58.0817 181.907L58.0824 181.905L58.0821 181.906L58.0824 181.905M58.0817 181.907L58.0815 181.908L58.0812 181.908L58.0811 181.909L58.0817 181.907ZM58.0811 181.909L58.0809 181.909L58.0805 181.91L58.0802 181.911L58.0799 181.912L58.0796 181.913L58.0793 181.914L58.079 181.915L58.0787 181.915L58.0784 181.916L58.078 181.917L58.0777 181.918L58.0774 181.919L58.0771 181.92L58.0768 181.921L58.0765 181.921L58.0762 181.922L58.0759 181.923L58.0756 181.924L58.0753 181.925L58.0749 181.926L58.0746 181.927L58.0743 181.928M58.0741 181.928L58.074 181.929L58.0737 181.929L58.0735 181.93L58.0741 181.928ZM58.0735 181.93L58.0734 181.93L58.0731 181.931L58.0728 181.932L58.0725 181.933L58.0722 181.934L58.0719 181.935L58.0715 181.936L58.0712 181.936L58.0709 181.937L58.0706 181.938M58.0704 181.939L58.0703 181.939L58.07 181.94L58.0698 181.941L58.0704 181.939ZM58.0698 181.941L58.0697 181.941L58.0694 181.942L58.0691 181.942L58.0698 181.941ZM58.0691 181.942L58.0691 181.943L58.0688 181.943L58.0685 181.944L58.0682 181.945L58.0679 181.946L58.0678 181.946L58.0675 181.947L58.0672 181.948L58.0669 181.949L58.0666 181.949L58.0663 181.95L58.066 181.951L58.0657 181.952L58.0654 181.953L58.0661 181.951M58.0654 181.953V181.953L58.0651 181.954L58.0647 181.955L58.0644 181.956L58.0641 181.956L58.0647 181.955L58.0654 181.953ZM58.0641 181.956V181.957L58.0638 181.957L58.0635 181.958L58.0641 181.956ZM58.0805 181.91L58.0802 181.911L58.0805 181.91ZM58.0799 181.912L58.0796 181.913L58.0799 181.912ZM58.0793 181.914L58.079 181.915L58.0793 181.914ZM58.0787 181.915L58.0784 181.916L58.0787 181.915ZM58.078 181.917L58.0777 181.918L58.078 181.917ZM58.0774 181.919L58.0771 181.92L58.0774 181.919ZM58.0768 181.921L58.0765 181.921L58.0768 181.921ZM58.0762 181.922L58.0759 181.923L58.0762 181.922ZM58.0756 181.924L58.0753 181.925L58.0756 181.924ZM58.0749 181.926L58.0746 181.927L58.0749 181.926ZM58.0731 181.931L58.0728 181.932L58.0731 181.931ZM58.0725 181.933L58.0722 181.934L58.0725 181.933ZM58.0719 181.935L58.0715 181.936L58.0719 181.935ZM58.0712 181.936L58.0709 181.937L58.0712 181.936ZM58.0688 181.943L58.0685 181.944L58.0688 181.943ZM58.0675 181.947L58.0672 181.948L58.0675 181.947ZM58.0669 181.949L58.0666 181.949L58.0669 181.949ZM58.0663 181.95L58.066 181.951L58.0663 181.95ZM61.0068 176.951C61.0518 176.901 61.0971 176.851 61.1428 176.802L61.0068 176.951ZM62.3352 175.668L62.368 175.64C62.9932 175.119 63.6662 174.658 64.3826 174.267C64.1406 174.394 63.9022 174.527 63.6676 174.665C63.502 174.762 63.3383 174.862 63.1765 174.965C62.1376 175.623 61.1779 176.387 60.3102 177.239C60.2091 177.338 60.1094 177.438 60.0109 177.54C59.8265 177.73 59.6465 177.924 59.4711 178.122C58.4849 179.237 57.6433 180.477 56.9702 181.812C56.9702 181.812 57.3346 181.861 58.0635 181.958M58.0805 181.91L58.0811 181.909L58.0805 181.91Z" fill="#332C2B" fill-opacity="0.109804"/>
<path fill-rule="evenodd" clip-rule="evenodd" d="M59.242 176.434L63.8923 183.131L63.8911 183.132C63.9496 183.217 63.9772 183.323 63.9604 183.432C63.9256 183.66 63.7129 183.816 63.4855 183.781C62.4442 183.62 61.383 183.113 60.3024 182.259C59.2492 181.426 58.1723 180.261 57.0721 178.764C56.9729 178.629 56.9613 178.44 57.0577 178.291C57.2446 177.999 57.4676 177.693 57.7265 177.372C57.9807 177.058 58.2657 176.733 58.5814 176.399C58.6042 176.373 58.6306 176.349 58.6605 176.328C58.8503 176.197 59.1107 176.244 59.242 176.434ZM44.3705 149.447C46.2768 155.323 51.0169 168.888 55.5404 177.509C58.0006 172.981 60.6937 170.174 63.6195 169.09C61.6736 157.688 57.3962 143.449 55.4785 137.539C52.3321 127.841 49.3084 128.852 46.241 132.14C43.1736 135.428 41.2241 139.749 44.3705 149.447ZM61.7484 173.331L67.3973 179.8C67.5109 179.916 67.55 180.094 67.4827 180.253C67.2705 180.757 66.9714 181.15 66.5852 181.431C66.2059 181.707 65.7516 181.868 65.2231 181.912C65.0972 181.93 64.9649 181.891 64.8683 181.794L59.1001 176.031C58.9659 175.897 58.9368 175.683 59.0416 175.515C59.2646 175.157 59.5568 174.789 59.9183 174.411C60.2723 174.041 60.6911 173.663 61.1745 173.278C61.3481 173.141 61.6012 173.162 61.7484 173.331ZM68.6764 175.738C69.4935 176.971 69.8203 177.887 69.6571 178.488C69.6448 178.547 69.6192 178.605 69.5796 178.657C69.4393 178.84 69.1769 178.875 68.9938 178.735L62.1666 173.519C62.1495 173.508 62.1332 173.494 62.1175 173.48C61.9497 173.321 61.9421 173.056 62.1007 172.888C62.4622 172.505 62.8429 172.165 63.2427 171.869C63.6431 171.573 64.0603 171.323 64.4942 171.119L64.4944 171.12C64.655 171.045 64.8521 171.079 64.9781 171.217C66.6692 173.063 67.9021 174.57 68.6764 175.738Z" fill="#FEFEFE"/>
<path fill-rule="evenodd" clip-rule="evenodd" d="M42.9861 143.744C45.3082 139.866 47.4774 137.55 49.4935 136.795C52.3982 135.708 54.9854 137.861 57.2551 143.255C56.5665 140.956 55.9509 138.995 55.4785 137.539C54.1232 133.361 52.7907 131.171 51.4676 130.294C49.7191 129.134 47.9872 130.268 46.2411 132.14C43.8534 134.7 42.1431 137.885 42.9861 143.744Z" fill="#332C2B" fill-opacity="0.109804"/>
<path fill-rule="evenodd" clip-rule="evenodd" d="M131.115 176.643C133.81 177.032 135.743 179.864 136.093 183.48C137.142 180.177 137.952 177.536 138.525 175.555C137.025 172.769 134.75 170.87 132.005 170.474C131.41 170.388 130.815 170.376 130.227 170.433C127.063 170.386 124.029 170.524 121.127 170.847C123.217 171.351 124.729 171.841 125.664 172.319C125.169 174.691 125.161 177.094 125.64 179.525C125.721 179.412 125.804 179.301 125.889 179.193C127.311 177.379 129.203 176.368 131.115 176.643Z" fill="#332C2B" fill-opacity="0.109804"/>
<path fill-rule="evenodd" clip-rule="evenodd" d="M129.859 178.364L131.812 169.184C131.86 168.961 132.077 168.818 132.3 168.86C132.996 168.978 133.655 169.146 134.275 169.364C134.9 169.583 135.486 169.854 136.032 170.175C136.198 170.272 136.272 170.468 136.223 170.646L133.907 178.943C133.881 179.034 133.828 179.11 133.758 179.163C133.029 179.723 132.34 179.965 131.689 179.888C131.026 179.81 130.439 179.412 129.927 178.693C129.857 178.594 129.836 178.474 129.859 178.364ZM132.256 141.739C133.994 147.324 137.803 160.615 138.826 169.395C137.164 166.984 133.578 165.873 128.068 166.061C123.431 156.366 119.055 143.321 117.352 137.85C114.568 128.906 117.429 128.25 121.545 129.324C125.661 130.398 129.472 132.795 132.256 141.739ZM135.177 179.539L136.184 170.983L136.185 170.984C136.189 170.951 136.196 170.918 136.208 170.885C136.289 170.67 136.529 170.56 136.745 170.64C137.232 170.821 137.653 171.09 138.009 171.445C138.356 171.792 138.638 172.219 138.855 172.727C138.897 172.812 138.91 172.912 138.886 173.011C138.514 174.507 138.082 175.823 137.591 176.96C137.096 178.102 136.542 179.06 135.929 179.833C135.844 179.95 135.699 180.019 135.545 180.001C135.315 179.975 135.151 179.768 135.177 179.539ZM126.504 176.964C126.438 176.463 126.405 175.858 126.407 175.15C126.406 175.131 126.406 175.112 126.407 175.092C126.494 173.861 126.63 172.681 126.814 171.552C126.995 170.437 127.224 169.374 127.501 168.361L127.506 168.341C127.565 168.118 127.793 167.985 128.016 168.043C128.492 168.168 128.982 168.314 129.486 168.481L129.485 168.483C129.993 168.651 130.515 168.839 131.052 169.048C131.065 169.052 131.079 169.057 131.093 169.063C131.305 169.154 131.403 169.4 131.312 169.612L127.6 178.233C127.561 178.323 127.49 178.4 127.394 178.445C127.185 178.544 126.936 178.454 126.838 178.246C126.687 177.928 126.576 177.5 126.504 176.964Z" fill="#FEFEFE"/>
<path fill-rule="evenodd" clip-rule="evenodd" d="M117.66 129.198C125.802 132.032 131.172 137.91 133.772 146.832C133.193 144.811 132.667 143.059 132.256 141.739C129.472 132.795 125.66 130.398 121.545 129.324C119.993 128.919 118.62 128.76 117.66 129.198Z" fill="#DCDDDD"/>
<path fill-rule="evenodd" clip-rule="evenodd" d="M130.803 65.7037C125.454 60.996 117.411 61.0977 112.183 65.9392C111.123 66.921 109.467 66.8575 108.486 65.7974C107.504 64.7372 107.567 63.082 108.627 62.1002C115.824 55.4353 126.897 55.2953 134.26 61.776C135.344 62.7307 135.45 64.3838 134.495 65.4684C133.54 66.553 131.887 66.6584 130.803 65.7037ZM63.65 67.9834C58.3012 63.2756 50.2581 63.3773 45.0301 68.2188C43.97 69.2006 42.3147 69.1371 41.3329 68.077C40.3512 67.0168 40.4147 65.3616 41.4748 64.3798C48.6717 57.7149 59.7439 57.5749 67.107 64.0556C68.1917 65.0103 68.297 66.6634 67.3424 67.748C66.3878 68.8326 64.7346 68.938 63.65 67.9834ZM96.0652 73.0011C97.51 73.0158 98.6694 74.199 98.6547 75.6438C98.6298 78.0837 98.6011 80.2503 98.0854 82.0603C97.4963 84.1279 96.3307 85.6152 94.4966 86.9364C90.6879 89.6799 85.5513 89.6798 81.7427 86.9364L83.2718 84.8136L81.7427 86.9364C77.6449 83.9846 77.3498 79.235 77.6744 75.5475C77.8011 74.1082 79.0707 73.0441 80.51 73.1708C81.9493 73.2975 83.0134 74.567 82.8867 76.0063C82.5928 79.3449 83.1081 81.4714 84.801 82.6908L84.801 82.6908C86.783 84.1185 89.4562 84.1186 91.4383 82.6908L91.4383 82.6908C92.4996 81.9263 92.8436 81.3623 93.0533 80.6265C93.3363 79.6332 93.3955 78.2444 93.4225 75.5906C93.4372 74.1458 94.6204 72.9864 96.0652 73.0011Z" fill="#8AB2FC"/>
<path fill-rule="evenodd" clip-rule="evenodd" d="M131.375 167.77C133.28 168.436 135.764 168.978 138.826 169.395C137.164 166.984 133.578 165.873 128.068 166.061C128.643 166.534 129.396 166.969 130.326 167.365C130.553 167.462 130.79 167.556 131.037 167.648C131.046 167.651 131.056 167.655 131.065 167.658C131.166 167.696 131.27 167.733 131.375 167.77Z" fill="#B6B6B7"/>
<path fill-rule="evenodd" clip-rule="evenodd" d="M58.2129 173.382C58.1529 173.458 58.0931 173.535 58.0333 173.613C57.9573 173.712 57.8816 173.812 57.806 173.914C57.8027 173.918 57.7994 173.923 57.7962 173.927C57.5192 174.301 57.245 174.694 56.9734 175.106C56.4873 175.845 56.0096 176.645 55.5405 177.509C56.3813 176.781 57.1691 176.076 57.9039 175.392C58.1123 175.198 58.3164 175.006 58.5163 174.815C59.1019 174.257 59.6509 173.714 60.1633 173.186C61.6049 171.701 62.757 170.336 63.6196 169.09C62.6227 169.459 61.6528 170.029 60.71 170.798C59.8555 171.495 59.0231 172.357 58.2129 173.382Z" fill="#B6B6B7"/>
</svg>
