<svg width="201" height="233" viewBox="0 0 201 233" fill="none" xmlns="http://www.w3.org/2000/svg">
<path fill-rule="evenodd" clip-rule="evenodd" d="M110.859 232.719C151.004 232.719 183.548 226.1 183.548 217.935C183.548 209.77 151.004 203.151 110.859 203.151C70.7147 203.151 38.1709 209.77 38.1709 217.935C38.1709 226.1 70.7147 232.719 110.859 232.719Z" fill="#332C2B" fill-opacity="0.109804"/>
<path fill-rule="evenodd" clip-rule="evenodd" d="M88.61 7.33908C47.7566 10.7775 17.2469 44.5592 20.2734 80.5199C23.3001 116.481 57.2731 123.849 98.1266 120.411C138.98 116.973 171.244 104.029 168.217 68.0684C165.19 32.1077 129.464 3.90072 88.61 7.33908Z" fill="#FEFEFE"/>
<path fill-rule="evenodd" clip-rule="evenodd" d="M51.4592 134.915C39.5717 134.761 1.24562 135.304 2.27743 142.708C3.30924 150.111 40.0387 153.021 51.9261 153.174C63.8136 153.328 66.8799 147.065 66.23 142.403C65.5802 137.74 63.3465 135.068 51.4592 134.915ZM168.871 68.0685C168.871 68.4297 168.578 68.7226 168.217 68.7226C167.868 68.7226 167.583 68.4492 167.564 68.1049C166.062 50.3209 156.471 34.4497 142.2 23.4453C127.908 12.4241 108.923 6.28563 88.6638 7.99074L88.6624 7.99079C68.4058 9.69597 50.716 18.921 38.467 32.1757C26.2318 45.4155 19.4275 62.6744 20.925 80.4662C20.9265 80.4842 20.9271 80.5022 20.9272 80.5199C20.9276 80.8812 20.6347 81.1741 20.2735 81.1741C19.9216 81.1741 19.6348 80.8963 19.62 80.5481C18.0995 62.3884 25.0359 44.7861 37.5064 31.2917C49.9626 17.8128 67.9426 8.43044 88.5262 6.69046C88.5443 6.68811 88.5627 6.68657 88.5813 6.68583C109.166 4.95969 128.462 11.2049 142.997 22.4131C157.547 33.6328 167.328 49.8268 168.866 67.9841C168.869 68.0117 168.871 68.0398 168.871 68.0685ZM152.12 112.471C162.609 106.875 196.902 89.7532 199.386 96.8034C201.87 103.854 170.581 123.309 160.093 128.905C149.604 134.502 144.004 130.348 142.439 125.907C140.875 121.467 141.632 118.068 152.12 112.471ZM148.673 191.304C148.649 190.171 148.962 188.351 149.301 186.504C149.64 184.657 150.007 182.782 150.466 180.848C150.925 178.913 151.477 176.919 151.894 175.497C152.31 174.074 152.592 173.224 152.918 172.733C153.244 172.242 153.614 172.111 155.269 172.097C156.925 172.082 159.867 172.186 162.694 172.578C165.522 172.97 168.235 173.651 170.192 174.153C172.148 174.656 173.347 174.98 173.946 175.143C174.546 175.305 174.546 175.305 173.171 179.458C171.795 183.611 169.045 191.917 167.599 196.065C166.153 200.213 166.011 200.202 165.51 200.236C165.009 200.269 164.149 200.347 162.983 200.197C161.817 200.047 160.346 199.669 158.721 199.094C157.097 198.52 155.32 197.75 153.744 196.757C152.168 195.763 150.793 194.546 149.925 193.714C149.058 192.882 148.697 192.437 148.673 191.304ZM109.002 196.792C107.933 196.416 106.106 196.145 104.245 195.892C102.385 195.639 100.489 195.403 98.5081 195.236C96.5269 195.069 94.4597 194.971 92.9783 194.924C91.497 194.876 90.6012 194.878 90.0334 195.035C89.4654 195.192 89.2251 195.502 88.6955 197.071C88.1658 198.64 87.3469 201.467 86.8377 204.276C86.3287 207.085 86.1297 209.875 85.9974 211.891C85.8652 213.907 85.7997 215.147 85.767 215.767C85.7342 216.387 85.7342 216.387 90.1091 216.375C94.4838 216.363 103.234 216.339 107.625 216.258C112.017 216.177 112.051 216.04 112.239 215.574C112.428 215.108 112.77 214.315 112.991 213.161C113.211 212.006 113.311 210.49 113.272 208.768C113.232 207.045 113.055 205.117 112.602 203.31C112.149 201.502 111.421 199.816 110.902 198.733C110.382 197.649 110.071 197.168 109.002 196.792ZM16.1496 135.343C28.1255 133.674 44.425 133.521 51.4745 133.612C57.6703 133.692 61.4067 134.462 63.7281 135.849C66.2872 137.378 67.1459 139.519 67.5229 142.224C67.5892 142.7 67.6211 143.198 67.6144 143.715C67.586 145.922 66.8193 148.284 64.9618 150.248C63.1653 152.147 60.3614 153.654 56.2378 154.229C54.943 154.409 53.5044 154.498 51.9108 154.477C44.6227 154.383 28.0652 153.261 15.9927 150.716C7.76828 148.982 1.4825 146.459 0.984638 142.886C0.96202 142.724 0.951887 142.553 0.954173 142.375C0.980685 140.32 2.8199 138.779 5.85718 137.64C8.47249 136.659 12.0735 135.911 16.1496 135.343ZM151.507 111.322C157.729 108.002 172.282 100.648 183.683 96.6315C187.572 95.2614 191.116 94.2708 193.883 93.9418C197.101 93.5592 199.44 94.0839 200.408 95.8993C200.494 96.0598 200.564 96.2165 200.618 96.369C201.816 99.7694 197.391 104.898 190.882 110.216C181.325 118.023 167.135 126.625 160.706 130.055C159.296 130.807 157.977 131.39 156.746 131.823C152.818 133.208 149.635 133.158 147.169 132.296C144.619 131.405 142.853 129.658 141.813 127.71C141.568 127.25 141.366 126.792 141.208 126.342C140.301 123.767 140.08 121.472 141.651 118.938C143.077 116.638 146.042 114.237 151.507 111.322ZM147.37 191.329C147.356 190.678 147.433 189.874 147.558 188.993L147.559 188.988L147.558 188.988C147.673 188.177 147.842 187.23 148.018 186.269C148.189 185.343 148.366 184.406 148.561 183.448C148.77 182.423 148.981 181.446 149.194 180.546C149.389 179.726 149.62 178.824 149.859 177.927C150.123 176.938 150.399 175.962 150.642 175.134C150.856 174.403 151.037 173.813 151.213 173.326C151.415 172.769 151.61 172.343 151.829 172.013C152.167 171.503 152.53 171.18 153.242 170.979C153.7 170.85 154.306 170.802 155.259 170.794C156.236 170.785 157.615 170.814 159.12 170.912C160.309 170.989 161.599 171.108 162.873 171.285C164.306 171.483 165.73 171.76 167.051 172.052C168.335 172.335 169.52 172.636 170.514 172.891C171.744 173.207 172.467 173.396 172.91 173.514C173.774 173.743 174.085 173.827 174.284 173.88C176.221 174.405 176.221 174.405 174.412 179.867C173.88 181.473 173.085 183.874 171.648 188.177C170.604 191.302 169.552 194.423 168.83 196.494C167.107 201.437 166.762 201.46 165.604 201.538L165.485 201.546C164.929 201.585 164.042 201.647 162.819 201.49C162.174 201.407 161.457 201.264 160.688 201.065C159.923 200.867 159.116 200.619 158.287 200.326C157.395 200.011 156.444 199.631 155.48 199.178C154.645 198.786 153.822 198.347 153.049 197.86C152.215 197.334 151.431 196.747 150.741 196.181C150.052 195.616 149.468 195.083 149.021 194.654C148.507 194.162 148.136 193.771 147.848 193.26C147.536 192.706 147.387 192.127 147.37 191.329ZM107.145 195.008C108.023 195.164 108.812 195.342 109.431 195.56C110.189 195.827 110.695 196.149 111.123 196.618C111.505 197.036 111.763 197.516 112.077 198.171C112.351 198.743 112.679 199.47 112.993 200.28C113.318 201.116 113.632 202.044 113.869 202.993C114.095 203.893 114.256 204.81 114.366 205.712C114.489 206.718 114.552 207.751 114.575 208.742C114.595 209.653 114.58 210.495 114.532 211.25C114.481 212.049 114.394 212.774 114.273 213.406C114.043 214.609 113.705 215.44 113.493 215.96L113.448 216.071L113.446 216.071C113.012 217.145 112.876 217.465 107.646 217.561C103.269 217.642 94.5387 217.666 90.1444 217.678L90.1091 217.678C84.3792 217.694 84.3588 217.694 84.4629 215.722L84.4642 215.691C84.4988 215.042 84.5669 213.752 84.6944 211.809C84.7601 210.808 84.8431 209.609 84.9784 208.253C85.1105 206.93 85.292 205.498 85.5551 204.046C85.7832 202.787 86.0723 201.525 86.3707 200.367C86.7582 198.864 87.1565 197.553 87.4589 196.657C87.7624 195.758 87.9979 195.198 88.2668 194.798C88.68 194.183 89.0992 193.94 89.6859 193.778C90.0755 193.671 90.5405 193.617 91.1275 193.6C91.6391 193.585 92.256 193.596 93.0192 193.621C93.8753 193.648 94.8873 193.69 95.9158 193.748C96.8462 193.8 97.7763 193.862 98.6153 193.933C99.5995 194.016 100.585 194.118 101.57 194.233C102.458 194.337 103.423 194.463 104.419 194.599C105.401 194.733 106.36 194.868 107.145 195.008Z" fill="black" fill-opacity="0.109804"/>
<path fill-rule="evenodd" clip-rule="evenodd" d="M88.8313 17.7954C54.0756 20.7206 28.1198 49.46 30.6947 80.0532C33.2695 110.646 61.5351 109.351 96.2908 106.425C131.046 103.5 159.131 100.053 156.556 69.4602C153.981 38.867 123.587 14.8702 88.8313 17.7954Z" fill="#0C295C"/>
<path fill-rule="evenodd" clip-rule="evenodd" d="M88.8313 17.7954C54.0757 20.7206 28.1199 49.46 30.6947 80.0532C30.7331 80.5093 30.7781 80.9572 30.8278 81.3991C31.5664 52.9372 56.4559 27.3854 89.1211 24.6361C123.286 21.7607 153.235 44.9004 156.689 74.7475C156.754 73.081 156.713 71.3218 156.556 69.4602C153.981 38.867 123.587 14.8703 88.8313 17.7954Z" fill="black" fill-opacity="0.141176"/>
<path fill-rule="evenodd" clip-rule="evenodd" d="M176.834 81.0618C173.527 84.8144 169.487 87.8185 164.713 90.0741C162.418 74.7989 161.746 60.6468 162.699 47.6176C167.593 49.1597 171.502 50.773 174.427 52.4574C177.243 61.8957 178.045 71.4305 176.834 81.0618Z" fill="#446AB1"/>
<path fill-rule="evenodd" clip-rule="evenodd" d="M13.9545 94.7703C17.8421 97.9175 22.3278 100.204 27.4116 101.63C27.1215 86.1859 25.4179 72.1207 22.3006 59.4341C17.7339 61.7724 14.1494 64.0163 11.5471 66.1659C10.3483 75.9422 11.1508 85.477 13.9545 94.7703Z" fill="#446AB1"/>
<path fill-rule="evenodd" clip-rule="evenodd" d="M110.354 1.44148C113.473 8.09689 115.032 11.4246 115.032 11.4246C97.6665 8.99996 79.9782 10.4887 63.262 15.7818C64.3379 8.77329 64.8759 5.26904 64.8759 5.26904C80.528 0.609023 95.6874 -0.666883 110.354 1.44148Z" fill="#18386E"/>
<path fill-rule="evenodd" clip-rule="evenodd" d="M110.354 1.44148C113.473 8.09689 115.032 11.4246 115.032 11.4246C113.66 11.233 112.286 11.066 110.91 10.9232L107.369 3.36572C94.7784 1.55592 81.7653 2.65113 68.3294 6.65138L67.1034 14.6374C65.8176 14.9968 64.537 15.3781 63.262 15.7818C64.3379 8.77329 64.8759 5.26904 64.8759 5.26904C80.528 0.609023 95.6874 -0.666883 110.354 1.44148Z" fill="#446AB1"/>
<path fill-rule="evenodd" clip-rule="evenodd" d="M82.502 182.23C81.3595 180.258 80.2538 178.161 79.2635 176.082C76.4778 170.235 74.6051 164.531 73.3447 159.518C72.0843 154.506 71.4361 150.186 71.269 146.545C71.1019 142.904 71.4156 139.943 72.2348 138.012C73.054 136.082 74.3786 135.182 77.1516 134.064C79.9245 132.946 84.1458 131.609 88.4143 130.259C92.6828 128.908 96.9985 127.544 101.314 126.18C105.685 125.004 110.056 123.829 114.38 122.667C118.703 121.506 122.98 120.358 125.919 119.806C128.857 119.255 130.458 119.299 132.188 120.484C133.918 121.67 135.778 123.996 137.598 127.153C139.418 130.311 141.2 134.299 142.838 139.201C144.476 144.103 145.971 149.918 146.774 156.345C147.027 158.37 147.211 160.456 147.319 162.489C145.885 163.847 143.846 164.812 141.201 165.383C136.798 155.027 131.216 145.356 124.457 136.369L87.3505 147.217C86.1161 157.134 86.2776 168.677 87.8352 181.845C85.6689 182.508 83.8912 182.636 82.502 182.23Z" fill="#FEFEFE"/>
<path fill-rule="evenodd" clip-rule="evenodd" d="M152.12 112.471C162.609 106.875 196.902 89.753 199.386 96.8032C201.87 103.853 170.581 123.309 160.093 128.905C149.604 134.502 144.004 130.347 142.439 125.907C140.875 121.467 141.631 118.068 152.12 112.471Z" fill="#FEFEFE"/>
<path fill-rule="evenodd" clip-rule="evenodd" d="M51.4593 134.915C39.5718 134.761 1.24571 135.304 2.27752 142.708C3.30933 150.111 40.0388 153.021 51.9262 153.174C63.8137 153.328 66.88 147.066 66.2302 142.403C65.5803 137.74 63.3466 135.068 51.4593 134.915Z" fill="#FEFEFE"/>
<path fill-rule="evenodd" clip-rule="evenodd" d="M148.673 191.304C148.649 190.171 148.961 188.351 149.301 186.504C149.64 184.657 150.007 182.783 150.466 180.848C150.925 178.914 151.477 176.919 151.894 175.497C152.31 174.074 152.592 173.224 152.918 172.733C153.244 172.242 153.614 172.111 155.269 172.097C156.925 172.083 159.867 172.186 162.694 172.578C165.522 172.97 168.235 173.651 170.192 174.153C172.148 174.656 173.347 174.981 173.947 175.143C174.546 175.305 174.546 175.305 173.171 179.458C171.795 183.611 169.045 191.917 167.599 196.065C166.153 200.213 166.011 200.202 165.51 200.236C165.009 200.269 164.149 200.347 162.983 200.197C161.817 200.047 160.345 199.669 158.721 199.094C157.097 198.52 155.32 197.75 153.744 196.757C152.168 195.763 150.793 194.546 149.925 193.714C149.058 192.882 148.697 192.437 148.673 191.304Z" fill="#FEFEFE"/>
<path fill-rule="evenodd" clip-rule="evenodd" d="M109.002 196.792C107.933 196.416 106.106 196.145 104.245 195.892C102.385 195.638 100.489 195.403 98.5081 195.236C96.5269 195.069 94.4597 194.971 92.9783 194.924C91.4969 194.876 90.6013 194.878 90.0334 195.035C89.4654 195.192 89.2251 195.502 88.6955 197.071C88.1659 198.64 87.3468 201.467 86.8378 204.276C86.3288 207.085 86.1297 209.875 85.9975 211.891C85.8652 213.907 85.7997 215.147 85.767 215.767C85.7342 216.387 85.7342 216.387 90.109 216.375C94.4838 216.363 103.234 216.339 107.625 216.258C112.017 216.177 112.051 216.04 112.239 215.574C112.428 215.108 112.77 214.315 112.991 213.161C113.211 212.006 113.311 210.49 113.272 208.768C113.232 207.045 113.055 205.117 112.602 203.31C112.149 201.502 111.421 199.816 110.902 198.733C110.382 197.649 110.071 197.168 109.002 196.792Z" fill="#FEFEFE"/>
<path fill-rule="evenodd" clip-rule="evenodd" d="M88.8313 17.7954C54.0756 20.7206 28.1198 49.46 30.6947 80.0532C33.2695 110.646 61.5351 109.351 96.2908 106.425C131.046 103.5 159.131 100.053 156.556 69.4602C153.981 38.867 123.587 14.8702 88.8313 17.7954ZM88.9383 19.0984C71.8997 20.5325 57.023 28.2889 46.7247 39.4328C36.4543 50.5465 30.742 65.0262 31.9977 79.9459V79.946C33.2279 94.5639 40.5785 101.559 51.7621 104.547C63.2858 107.625 78.9248 106.575 96.1835 105.122C113.445 103.67 129.041 102.091 139.881 97.1328C150.407 92.3183 156.484 84.1914 155.253 69.5675C153.998 54.6498 145.946 41.3302 133.964 32.0906C121.948 22.8245 105.982 17.6639 88.9386 19.0984H88.9383Z" fill="#446AB1"/>
<path fill-rule="evenodd" clip-rule="evenodd" d="M119.734 188.131C115.957 189.235 112.18 190.339 108.145 191.262C104.111 192.186 99.8181 192.928 96.6587 193.339C93.4992 193.751 91.4728 193.831 88.6102 190.875C86.7653 188.971 84.5731 185.805 82.5017 182.23C83.8909 182.636 85.6686 182.508 87.8349 181.845C86.2774 168.677 86.1158 157.134 87.3502 147.217L124.456 136.369C131.216 145.355 136.797 155.027 141.201 165.382C143.846 164.812 145.885 163.847 147.319 162.489C147.554 166.909 147.429 171.082 146.867 173.843C146.047 177.875 144.297 178.899 141.414 180.255C138.53 181.61 134.514 183.297 130.617 184.692C126.721 186.088 123.51 187.026 119.734 188.131Z" fill="#446AB1"/>
<path fill-rule="evenodd" clip-rule="evenodd" d="M119.734 188.131C115.957 189.235 112.18 190.339 108.146 191.263C104.111 192.186 99.8184 192.928 96.659 193.34C93.4995 193.751 91.4731 193.831 88.6106 190.876C86.7656 188.971 84.5734 185.805 82.502 182.23C81.3596 180.258 80.2539 178.161 79.2636 176.082C76.4778 170.235 74.6051 164.531 73.3447 159.518C72.0843 154.506 71.4362 150.186 71.269 146.545C71.1019 142.904 71.4157 139.943 72.2348 138.012C73.054 136.082 74.3786 135.182 77.1516 134.064C79.9246 132.946 84.1458 131.609 88.4143 130.259C92.6828 128.908 96.9986 127.544 101.314 126.18C105.685 125.004 110.056 123.829 114.38 122.667C118.704 121.506 122.98 120.358 125.919 119.806C128.857 119.255 130.458 119.299 132.188 120.484C133.918 121.67 135.778 123.996 137.598 127.153C139.418 130.311 141.2 134.299 142.838 139.201C144.476 144.103 145.971 149.918 146.774 156.345C147.027 158.37 147.211 160.456 147.319 162.489C147.554 166.909 147.429 171.082 146.868 173.843C146.048 177.875 144.297 178.899 141.414 180.255C138.531 181.61 134.514 183.297 130.618 184.693C126.721 186.088 123.511 187.027 119.734 188.131C101.878 193.351 90.188 196.806 81.4975 167.08C72.8069 137.355 84.9516 135.456 102.808 130.236C120.664 125.016 132.057 121.089 140.207 148.965C148.356 176.84 137.59 182.91 119.734 188.131Z" fill="black" fill-opacity="0.109804"/>
<path d="M121.596 172.769C120.957 173.605 120.211 174.374 119.374 175.047C118.092 176.078 116.602 176.883 114.961 177.363C111.55 178.36 108.058 177.88 105.17 176.298C102.281 174.717 99.9955 172.033 98.9983 168.622C98.0013 165.212 98.4811 161.72 100.063 158.831C101.645 155.942 104.328 153.657 107.739 152.66C111.149 151.663 114.641 152.143 117.53 153.724C120.419 155.306 122.704 157.99 123.701 161.4C123.894 162.059 123.999 162.49 124.089 163.197L120.435 164.263L114.27 166.066C113.945 166.965 113.21 167.703 112.221 167.991C110.575 168.473 108.851 167.528 108.37 165.883C107.888 164.237 108.833 162.512 110.478 162.031C111.467 161.742 112.484 161.967 113.242 162.55L119.394 160.751C118.546 159.146 117.253 157.868 115.721 157.029C113.678 155.91 111.208 155.571 108.796 156.276C106.384 156.982 104.486 158.598 103.367 160.64C102.249 162.683 101.91 165.153 102.615 167.565C103.32 169.977 104.936 171.876 106.979 172.994C109.021 174.112 111.491 174.451 113.904 173.746C115.076 173.403 116.13 172.836 117.029 172.114C117.945 171.377 118.709 170.476 119.282 169.482L119.332 169.382C119.832 168.47 120.977 168.135 121.889 168.635L125.802 170.777C126.714 171.277 127.049 172.422 126.55 173.334C126.05 174.246 124.905 174.581 123.993 174.082L121.596 172.769Z" fill="#FEFEFE"/>
<path fill-rule="evenodd" clip-rule="evenodd" d="M152.12 112.471C155.83 110.492 162.519 107.071 169.724 103.787C155.226 110.999 155.255 113.949 157.468 118.508C158.893 121.446 160.548 126.076 166.566 125.223C164.02 126.737 161.785 128.002 160.092 128.905C149.604 134.502 144.004 130.347 142.439 125.907C140.875 121.467 141.632 118.068 152.12 112.471Z" fill="black" fill-opacity="0.109804"/>
<path fill-rule="evenodd" clip-rule="evenodd" d="M51.4593 134.915C47.2548 134.86 39.7421 134.894 31.834 135.286C48.0246 135.034 49.3537 137.667 49.4823 142.733C49.5651 145.997 50.2223 150.87 44.4848 152.877C47.4416 153.053 50.0085 153.15 51.9263 153.174C63.8137 153.328 66.8801 147.065 66.2302 142.403C65.5803 137.74 63.3467 135.068 51.4593 134.915Z" fill="black" fill-opacity="0.109804"/>
<path fill-rule="evenodd" clip-rule="evenodd" d="M109.002 196.791C107.933 196.416 106.106 196.145 104.245 195.892C102.384 195.638 100.489 195.402 98.5081 195.236C96.5269 195.069 94.4597 194.971 92.9783 194.923C92.8458 194.919 92.718 194.915 92.5947 194.912C103.531 197.431 107.727 198.37 108.883 202.045C110.604 211.016 108.926 215.868 106.408 216.278C106.842 216.272 107.25 216.265 107.625 216.258C112.017 216.177 112.051 216.039 112.239 215.574C112.428 215.108 112.77 214.315 112.991 213.16C113.211 212.006 113.311 210.49 113.272 208.768C113.232 207.045 113.055 205.117 112.602 203.309C112.149 201.502 111.421 199.816 110.902 198.733C110.382 197.649 110.071 197.168 109.002 196.791Z" fill="black" fill-opacity="0.109804"/>
<path fill-rule="evenodd" clip-rule="evenodd" d="M148.673 191.303C148.649 190.171 148.962 188.351 149.301 186.504C149.641 184.657 150.007 182.782 150.466 180.848C150.926 178.913 151.477 176.919 151.894 175.496C151.931 175.369 151.967 175.247 152.002 175.128C150.986 186.305 150.399 190.079 154.274 192.795C161.45 196.959 166.823 197.179 167.997 194.914C167.856 195.324 167.722 195.71 167.599 196.065C166.153 200.212 166.011 200.202 165.51 200.236C165.009 200.269 164.149 200.347 162.983 200.197C161.817 200.047 160.346 199.668 158.721 199.094C157.097 198.52 155.32 197.75 153.744 196.757C152.168 195.763 150.793 194.546 149.925 193.714C149.058 192.882 148.697 192.436 148.673 191.303Z" fill="black" fill-opacity="0.109804"/>
<path fill-rule="evenodd" clip-rule="evenodd" d="M11.7053 84.6438C12.196 88.0506 12.9456 91.4261 13.9546 94.7703C17.8421 97.9175 22.3278 100.204 27.4116 101.63V101.629C39.9213 119.38 67.0287 123.029 98.1265 120.411C129.229 117.794 155.349 109.664 164.712 90.0651L164.713 90.074C169.487 87.8185 173.527 84.8144 176.834 81.0617C177.269 77.602 177.444 74.1548 177.36 70.72L162.878 74.1947C159.223 94.5262 150.101 109.372 97.5713 113.793C45.2356 118.198 34.8741 108.733 26.565 85.6672L11.7053 84.6438Z" fill="black" fill-opacity="0.109804"/>
<path fill-rule="evenodd" clip-rule="evenodd" d="M53.2771 46.273C55.9859 46.987 61.699 48.4929 73.7167 51.6605L73.5194 52.4089C74.0859 53.0972 74.5813 54.2321 73.6952 55.7136L73.6939 55.714L73.6937 55.714L73.6935 55.7141L73.6933 55.7141L73.6933 55.7141L73.6933 55.7141C73.6933 55.7141 73.6933 55.7141 73.1832 53.6843L73.6933 55.7141C73.6928 55.7143 73.6923 55.7144 73.6918 55.7145L49.5717 61.7745C48.4506 62.0561 47.3135 61.3757 47.0318 60.2546C46.7502 59.1336 47.4307 57.9964 48.5517 57.7148L64.7873 53.6357C57.9707 51.839 54.2438 50.8567 52.2103 50.3207C50.8559 49.9637 50.2527 49.8047 49.988 49.7349C49.8714 49.7042 49.8205 49.6908 49.8002 49.6854C49.7992 49.6852 49.7981 49.6849 49.7971 49.6846C49.7971 49.6846 49.7971 49.6846 49.7971 49.6846C49.7971 49.6846 49.7971 49.6846 49.7971 49.6846L49.7971 49.6846L49.7969 49.6846L49.7944 49.6839L49.7935 49.6837C49.7894 49.6826 49.7886 49.6824 49.7891 49.6825L49.7845 49.6813C49.7825 49.6808 48.2954 47.1321 50.8329 45.6289C50.8415 45.6311 50.8511 45.6336 50.8522 45.6339L50.8569 45.6351L50.8578 45.6353L50.8601 45.6359C50.8747 45.6398 50.9225 45.6524 51.0548 45.6873C51.3195 45.757 51.9228 45.916 53.2771 46.273ZM50.8625 45.6433C50.8533 45.6782 50.7931 45.9066 50.3992 47.4006L50.8625 45.6433C50.8625 45.6433 50.8625 45.6433 50.8625 45.6433ZM49.7971 49.6846L50.2713 47.8858C49.8097 49.6369 49.7975 49.6834 49.7971 49.6846C49.7971 49.6846 49.7971 49.6846 49.7971 49.6846Z" fill="#8AB2FC"/>
<path fill-rule="evenodd" clip-rule="evenodd" d="M42.3385 47.217C44.385 49.5352 50.1788 47.5883 55.2792 42.8685C60.3797 38.1487 62.8552 32.4433 60.8087 30.1251C58.7621 27.8069 52.9684 29.7538 47.868 34.4736C42.7675 39.1934 40.2919 44.8987 42.3385 47.217Z" fill="#FEFEFE" fill-opacity="0.270588"/>
<path fill-rule="evenodd" clip-rule="evenodd" d="M134.709 42.6553C135.028 43.7663 134.386 44.9255 133.275 45.2445C126.715 47.128 121.95 48.4962 118.489 49.4899C125.429 50.5575 129.531 51.1885 131.955 51.5614L135.45 52.0991L135.45 52.0992L135.451 52.0992L135.451 52.0992C135.451 52.0992 135.451 52.0992 135.195 53.7607L135.451 52.0992C136.593 52.275 137.377 53.3436 137.201 54.4861C137.025 55.6286 135.956 56.4122 134.814 56.2364L135.025 54.8627C134.814 56.2364 134.814 56.2364 134.814 56.2364L134.814 56.2364L134.814 56.2363L131.318 55.6986C127.954 55.1811 121.359 54.1665 108.431 52.1777L108.528 51.5499C107.062 50.0861 108.164 48.0997 108.165 48.0993L108.169 48.0982C108.169 48.0982 108.169 48.0983 108.169 48.0982L108.169 48.0981L108.17 48.098L108.17 48.0978L108.171 48.0976L108.171 48.0976L108.171 48.0975L108.171 48.0975L108.172 48.0975C108.172 48.0973 108.173 48.0971 108.173 48.0969L108.184 48.094C108.209 48.0868 108.272 48.0685 108.426 48.0244C108.734 47.936 109.403 47.744 110.846 47.3295C113.733 46.5005 119.72 44.7815 132.12 41.2212C133.231 40.9022 134.39 41.5443 134.709 42.6553ZM108.172 48.0975C108.172 48.0975 108.172 48.0975 108.172 48.0975C108.172 48.0978 108.179 48.1251 108.749 50.1091L108.172 48.0975ZM109.326 52.121L109.326 52.121L109.325 52.1212" fill="#8AB2FC"/>
<path fill-rule="evenodd" clip-rule="evenodd" d="M102.688 60.3255C104.349 78.0094 101.027 85.5921 94.1275 86.2109C84.0838 87.1116 80.6652 77.096 78.9521 62.4795C86.8787 61.9319 94.7924 61.2137 102.688 60.3255Z" fill="#8AB2FC"/>
<path fill-rule="evenodd" clip-rule="evenodd" d="M104.008 58.7015C104.444 59.0559 104.719 59.5706 104.772 60.1299C105.61 69.0596 105.231 75.7465 103.59 80.3679C102.759 82.7091 101.572 84.6119 99.9697 85.9825C98.3493 87.3687 96.425 88.1062 94.3144 88.2955C91.4292 88.5543 88.8824 88.0337 86.6946 86.7399C84.5278 85.4584 82.8708 83.5121 81.5827 81.1742C79.0458 76.5699 77.7325 70.0536 76.8734 62.7231C76.8067 62.1546 76.9759 61.5836 77.3414 61.1431C77.7068 60.7026 78.2368 60.431 78.8079 60.3916C86.7044 59.8461 94.5882 59.1306 102.454 58.2457C103.012 58.1829 103.572 58.3472 104.008 58.7015ZM81.304 64.4106C82.1482 70.6804 83.3518 75.7112 85.2489 79.1542C86.285 81.0347 87.4729 82.337 88.8254 83.1369C90.1569 83.9244 91.8039 84.318 93.9405 84.1264C95.2795 84.0063 96.3576 83.564 97.2486 82.8017C98.1579 82.0239 98.9913 80.8097 99.6454 78.9674C100.865 75.5325 101.345 70.2467 100.783 62.6419C94.3007 63.3457 87.8068 63.9353 81.304 64.4106Z" fill="#8AB2FC"/>
</svg>
