<svg width="182" height="226" viewBox="0 0 182 226" fill="none" xmlns="http://www.w3.org/2000/svg">
<path fill-rule="evenodd" clip-rule="evenodd" d="M83.4247 225.074C123.569 225.074 156.113 218.455 156.113 210.29C156.113 202.125 123.569 195.506 83.4247 195.506C43.2799 195.506 10.7361 202.125 10.7361 210.29C10.7361 218.455 43.2799 225.074 83.4247 225.074Z" fill="#332C2B" fill-opacity="0.109804"/>
<path fill-rule="evenodd" clip-rule="evenodd" d="M97.8324 191.017C98.4143 190.81 99.1936 190.633 100.076 190.474C100.95 190.316 101.871 190.182 102.79 190.055C103.77 189.919 104.729 189.791 105.633 189.682C106.611 189.566 107.593 189.461 108.579 189.375C109.426 189.301 110.352 189.237 111.27 189.183C112.298 189.122 113.31 189.077 114.165 189.048C114.921 189.021 115.532 189.008 116.037 189.022C116.601 189.037 117.047 189.087 117.417 189.188C117.947 189.332 118.325 189.549 118.694 190.095C118.949 190.471 119.177 191.013 119.476 191.89C119.779 192.781 120.179 194.085 120.569 195.579C120.868 196.728 121.159 197.983 121.39 199.237C121.655 200.677 121.84 202.103 121.975 203.422C122.113 204.765 122.199 205.965 122.268 206.969C122.333 207.927 122.386 208.759 122.427 209.438C122.463 210.034 122.49 210.527 122.509 210.856C122.605 212.58 122.605 212.58 117.126 212.58C112.832 212.58 104.245 212.58 99.593 212.507C94.5305 212.428 94.415 212.144 94.0274 211.192L94.0246 211.185C94.0166 211.166 94.0093 211.146 94.0026 211.126L93.986 211.085C93.7745 210.57 93.4362 209.746 93.2095 208.578C93.0891 207.957 93.0016 207.244 92.9493 206.459C92.8994 205.71 92.8822 204.873 92.9003 203.969C92.9198 202.996 92.9792 201.976 93.0998 200.969C93.2067 200.078 93.363 199.171 93.5835 198.28C93.8157 197.342 94.1238 196.424 94.4425 195.596C94.7714 194.74 95.0861 194.034 95.3409 193.498C95.6386 192.873 95.8847 192.413 96.2533 192.007C96.6498 191.57 97.1218 191.269 97.8324 191.017ZM98.1798 192.002C99.2476 191.623 101.073 191.347 102.934 191.089C104.794 190.831 106.688 190.589 108.669 190.417C110.65 190.245 112.717 190.142 114.198 190.09C115.679 190.038 116.575 190.038 117.143 190.193C117.712 190.348 117.953 190.658 118.487 192.226C119.021 193.793 119.847 196.618 120.364 199.425C120.881 202.233 121.087 205.023 121.225 207.038C121.363 209.053 121.432 210.293 121.466 210.913C121.501 211.534 121.501 211.534 117.126 211.534C112.751 211.534 104.001 211.534 99.6093 211.465C95.2173 211.396 95.1829 211.258 94.9934 210.793C94.8039 210.328 94.4594 209.536 94.2355 208.382C94.0116 207.228 93.9082 205.712 93.9427 203.99C93.9772 202.267 94.1494 200.338 94.5973 198.53C95.0451 196.721 95.7685 195.033 96.2851 193.948C96.8019 192.863 97.1119 192.381 98.1798 192.002ZM9.74174 77.7679C9.76072 78.0245 9.78142 78.2796 9.80392 78.5334C7.95233 78.2484 8.05937 77.9934 9.74174 77.7679ZM9.74174 77.7679C23.6284 75.9058 144.845 76.0474 157.91 77.8588C158.011 76.5259 158.063 75.1548 158.063 73.7433C158.063 37.6554 124.827 6.55157 83.8294 6.55157C42.8315 6.55157 9.59609 37.6554 9.59609 73.7433C9.59609 75.1227 9.64565 76.4636 9.74174 77.7679ZM157.91 77.8588C159.396 78.0647 159.483 78.2924 157.854 78.5411C157.874 78.3148 157.893 78.0873 157.91 77.8588ZM132.934 121.959C143.405 116.331 177.646 99.1033 180.151 106.146C182.657 113.188 151.428 132.74 140.956 138.369C130.485 143.997 124.872 139.86 123.294 135.425C121.716 130.99 122.462 127.588 132.934 121.959ZM44.0395 142.844C39.9384 153.808 26.0205 189.141 21.4201 188.073C16.8196 187.005 29.4459 151.373 33.547 140.409C37.648 129.445 40.6969 128.118 43.5943 128.791C46.4917 129.463 48.1405 131.88 44.0395 142.844ZM70.7666 191.672C69.6988 191.293 67.873 191.018 66.0129 190.759C64.1527 190.501 62.2581 190.26 60.2773 190.088C58.2966 189.915 56.2298 189.812 54.7485 189.76C53.2673 189.709 52.3716 189.709 51.8032 189.864C51.2348 190.019 50.9937 190.329 50.4597 191.896C49.9258 193.463 49.0991 196.288 48.5823 199.096C48.0656 201.903 47.859 204.693 47.7211 206.708C47.5834 208.724 47.5145 209.964 47.4801 210.584C47.4456 211.204 47.4456 211.204 51.8204 211.204C56.1953 211.204 64.945 211.204 69.3371 211.135C73.7291 211.066 73.7636 210.928 73.953 210.463C74.1425 209.998 74.487 209.206 74.7109 208.052C74.9348 206.898 75.0382 205.382 75.0037 203.66C74.9692 201.937 74.797 200.008 74.3492 198.2C73.9014 196.391 73.178 194.703 72.6613 193.618C72.1445 192.533 71.8345 192.051 70.7666 191.672ZM30.9213 25.5856C44.5174 13.279 63.2073 5.50513 83.8294 5.50513C104.451 5.50513 123.141 13.279 136.737 25.5856C150.551 38.0888 159.109 55.2704 159.109 73.7433C159.109 74.5375 159.09 75.3662 159.052 76.2274C159.033 76.668 159.008 77.1096 158.978 77.552C159.677 77.7014 160.059 77.8583 160.084 78.0227C160.205 78.8133 159.541 79.3416 158.01 79.5753C157.438 79.661 156.906 79.2676 156.82 78.6964C156.803 78.5818 156.805 78.4689 156.824 78.3607L156.84 78.177C150.265 77.7464 117.032 77.5032 83.7568 77.4778C50.7422 77.4527 17.7615 77.6498 10.8168 78.0987L10.8463 78.4435C10.8959 79.0192 10.4695 79.5262 9.89384 79.5758C9.79416 79.5844 9.69657 79.5787 9.60301 79.5604C7.99127 79.3044 7.29175 78.762 7.41399 77.967C7.44211 77.7842 7.87897 77.6116 8.67211 77.4487C8.64671 77.0543 8.62472 76.646 8.60631 76.2235C8.56879 75.3635 8.54964 74.5362 8.54964 73.7433C8.54964 55.2704 17.1078 38.0888 30.9213 25.5856ZM132.439 121.039C138.64 117.706 153.149 110.32 164.538 106.268C168.405 104.892 171.926 103.895 174.67 103.56C177.777 103.181 180.028 103.66 180.943 105.361C181.017 105.5 181.082 105.646 181.136 105.798C182.298 109.064 177.935 114.11 171.524 119.38C161.996 127.214 147.856 135.846 141.451 139.288C140.065 140.033 138.758 140.615 137.528 141.052C133.67 142.425 130.547 142.388 128.129 141.552C125.641 140.691 123.917 138.998 122.901 137.107C122.666 136.67 122.469 136.222 122.309 135.772C121.42 133.273 121.197 131.046 122.708 128.592C124.103 126.326 127.029 123.947 132.439 121.039ZM45.0165 143.208C42.4706 150.014 36.1484 166.193 30.6005 177.287C26.9925 184.501 23.532 189.635 21.1871 189.091C21.1121 189.073 21.0325 189.049 20.9489 189.018C19.7336 188.563 19.2815 187.009 19.4032 184.673C19.5033 182.751 19.9561 180.176 20.644 177.212C23.3694 165.469 29.8454 147.329 32.57 140.045C34.6798 134.404 36.5523 131.21 38.2903 129.492C40.2524 127.553 42.0583 127.362 43.8273 127.773C45.684 128.204 47.1406 129.193 47.4756 131.827C47.7572 134.043 47.132 137.552 45.0165 143.208ZM68.8709 190.144C69.7529 190.304 70.5323 190.48 71.1141 190.687C71.8246 190.939 72.2967 191.241 72.6932 191.677C73.0617 192.083 73.3078 192.544 73.6055 193.169C73.8603 193.704 74.1751 194.411 74.5039 195.266C74.8227 196.095 75.1307 197.013 75.363 197.951C75.5835 198.841 75.7398 199.748 75.8466 200.64C75.9672 201.646 76.0266 202.667 76.0461 203.639C76.0642 204.544 76.047 205.38 75.9971 206.13C75.9448 206.914 75.8573 207.628 75.7369 208.248C75.5101 209.417 75.1718 210.241 74.9604 210.756L74.9437 210.796C74.937 210.816 74.9298 210.836 74.9218 210.856L74.919 210.863C74.5315 211.815 74.4161 212.098 69.3534 212.177C64.7015 212.25 56.1141 212.25 51.8204 212.25C46.3418 212.25 46.3418 212.25 46.4377 210.527C46.456 210.197 46.4836 209.702 46.5195 209.108C46.5607 208.429 46.6133 207.597 46.6788 206.639C46.7474 205.636 46.8336 204.435 46.9713 203.093C47.1068 201.773 47.2914 200.347 47.5563 198.907C47.7871 197.654 48.0779 196.398 48.3774 195.25C48.767 193.756 49.1671 192.452 49.4705 191.561C49.7692 190.684 49.9976 190.142 50.252 189.766C50.6214 189.22 50.9991 189.003 51.5293 188.858C51.9 188.757 52.3453 188.707 52.909 188.692C53.4146 188.678 54.0254 188.692 54.7812 188.718C55.6365 188.748 56.6481 188.792 57.6764 188.853C58.5949 188.907 59.5208 188.972 60.3672 189.045C61.3539 189.131 62.3358 189.236 63.313 189.353C64.2171 189.461 65.1762 189.589 66.1559 189.725C67.0752 189.853 67.9962 189.986 68.8709 190.144Z" fill="black" fill-opacity="0.109804"/>
<path fill-rule="evenodd" clip-rule="evenodd" d="M83.8292 6.55154C42.8313 6.55154 9.59595 37.6554 9.59595 73.7433C9.59595 109.831 42.8313 120.023 83.8292 120.023C124.827 120.023 158.062 109.831 158.062 73.7433C158.062 37.6554 124.827 6.55154 83.8292 6.55154Z" fill="#FEFEFE"/>
<path fill-rule="evenodd" clip-rule="evenodd" d="M83.1728 16.9895C48.2942 16.9895 20.0195 43.4508 20.0195 74.1522C20.0195 104.854 48.2942 105.933 83.1728 105.933C118.051 105.933 146.326 104.854 146.326 74.1522C146.326 43.4508 118.051 16.9895 83.1728 16.9895Z" fill="#0C295C"/>
<path fill-rule="evenodd" clip-rule="evenodd" d="M83.1728 16.9895C48.2942 16.9895 20.0195 43.4508 20.0195 74.1522C20.0195 74.6098 20.0268 75.0599 20.0393 75.5045C23.1624 47.2048 50.1071 23.8304 82.8878 23.8304C117.174 23.8304 145.076 49.4003 146.015 79.432C146.219 77.7767 146.326 76.0203 146.326 74.1522C146.326 43.4508 118.051 16.9895 83.1728 16.9895Z" fill="black" fill-opacity="0.141176"/>
<path fill-rule="evenodd" clip-rule="evenodd" d="M165.56 87.4134C161.95 90.8756 157.672 93.5302 152.725 95.3774C151.719 79.9636 152.237 65.805 154.28 52.9016C159.026 54.8487 162.786 56.7841 165.56 58.7079C167.574 68.3492 167.574 77.9176 165.56 87.4134Z" fill="#446AB1"/>
<path fill-rule="evenodd" clip-rule="evenodd" d="M2.10433 87.4134C5.71418 90.8756 9.99233 93.5302 14.9387 95.3774C15.9448 79.9636 15.4268 65.805 13.3845 52.9016C8.63786 54.8487 4.87778 56.7841 2.10433 58.7079C0.0898991 68.3492 0.0898991 77.9176 2.10433 87.4134Z" fill="#446AB1"/>
<path fill-rule="evenodd" clip-rule="evenodd" d="M105.991 2.49817C108.541 9.39175 109.816 12.8385 109.816 12.8385C92.7144 8.96601 74.9636 8.96601 57.8623 12.8385C59.5222 5.94498 60.3522 2.49817 60.3522 2.49817C76.34 -0.832722 91.553 -0.832722 105.991 2.49817Z" fill="#18386E"/>
<path fill-rule="evenodd" clip-rule="evenodd" d="M105.991 2.49817C108.541 9.39175 109.816 12.8385 109.816 12.8385C108.464 12.5325 107.109 12.2508 105.75 11.9932L102.855 4.16529C90.4608 1.30593 77.4017 1.30593 63.6776 4.16529L61.7862 12.0203C60.4748 12.2706 59.1667 12.5432 57.8623 12.8385C59.5222 5.94498 60.3522 2.49817 60.3522 2.49817C76.34 -0.832722 91.553 -0.832722 105.991 2.49817Z" fill="#446AB1"/>
<path fill-rule="evenodd" clip-rule="evenodd" d="M50.5118 172.509C49.9687 170.295 49.4957 167.973 49.1285 165.7C48.0956 159.305 47.8988 153.305 48.0956 148.14C48.2924 142.976 48.8826 138.647 49.7438 135.106C50.605 131.564 51.7372 128.81 53.0653 127.187C54.3933 125.564 55.9171 125.072 58.8925 124.777C61.8678 124.482 66.2945 124.383 70.7705 124.285C75.2464 124.187 79.7715 124.088 84.2966 123.99C88.8218 124.088 93.3469 124.187 97.8228 124.285C102.299 124.383 106.726 124.482 109.701 124.777C112.676 125.072 114.2 125.564 115.528 127.187C116.856 128.81 117.988 131.564 118.849 135.106C119.711 138.647 120.301 142.976 120.498 148.14C120.694 153.305 120.498 159.305 119.465 165.7C119.139 167.714 118.731 169.768 118.264 171.75C116.507 172.651 114.279 173.005 111.58 172.81C110.259 161.635 107.616 150.786 103.65 140.264H64.9905C61.0229 149.436 57.939 160.56 55.7387 173.636C53.4734 173.665 51.7312 173.289 50.5118 172.509Z" fill="#FEFEFE"/>
<path fill-rule="evenodd" clip-rule="evenodd" d="M44.0395 142.844C39.9385 153.808 26.0205 189.141 21.4201 188.073C16.8197 187.005 29.446 151.373 33.547 140.409C37.648 129.445 40.6969 128.118 43.5943 128.791C46.4917 129.463 48.1405 131.88 44.0395 142.844Z" fill="#FEFEFE"/>
<path fill-rule="evenodd" clip-rule="evenodd" d="M132.934 121.959C143.405 116.331 177.646 99.1033 180.151 106.146C182.657 113.188 151.428 132.74 140.956 138.369C130.485 143.997 124.872 139.86 123.294 135.425C121.716 130.989 122.462 127.588 132.934 121.959Z" fill="#FEFEFE"/>
<path fill-rule="evenodd" clip-rule="evenodd" d="M98.1796 192.002C99.2474 191.623 101.073 191.347 102.933 191.089C104.794 190.83 106.688 190.589 108.669 190.417C110.65 190.245 112.716 190.141 114.198 190.09C115.679 190.038 116.575 190.038 117.143 190.193C117.711 190.348 117.953 190.658 118.486 192.226C119.02 193.793 119.847 196.618 120.364 199.425C120.881 202.233 121.087 205.023 121.225 207.038C121.363 209.053 121.432 210.293 121.466 210.913C121.501 211.534 121.501 211.534 117.126 211.534C112.751 211.534 104.001 211.534 99.6091 211.465C95.2171 211.396 95.1827 211.258 94.9932 210.793C94.8037 210.328 94.4592 209.536 94.2353 208.382C94.0114 207.228 93.9081 205.712 93.9425 203.989C93.977 202.267 94.1492 200.338 94.5971 198.53C95.0449 196.721 95.7683 195.033 96.2849 193.948C96.8017 192.863 97.1117 192.381 98.1796 192.002Z" fill="#FEFEFE"/>
<path fill-rule="evenodd" clip-rule="evenodd" d="M70.7665 191.672C69.6987 191.293 67.873 191.018 66.0128 190.759C64.1526 190.501 62.258 190.26 60.2773 190.088C58.2965 189.915 56.2297 189.812 54.7484 189.76C53.2672 189.709 52.3715 189.709 51.8031 189.864C51.2348 190.019 50.9936 190.329 50.4597 191.896C49.9257 193.463 49.099 196.288 48.5823 199.096C48.0656 201.903 47.8589 204.693 47.7211 206.708C47.5833 208.724 47.5144 209.964 47.48 210.584C47.4455 211.204 47.4455 211.204 51.8204 211.204C56.1952 211.204 64.9449 211.204 69.337 211.135C73.729 211.066 73.7635 210.928 73.953 210.463C74.1424 209.998 74.4869 209.206 74.7108 208.052C74.9347 206.898 75.0381 205.382 75.0036 203.66C74.9692 201.937 74.7969 200.008 74.3491 198.2C73.9013 196.391 73.1779 194.703 72.6612 193.618C72.1444 192.533 71.8344 192.051 70.7665 191.672Z" fill="#FEFEFE"/>
<path fill-rule="evenodd" clip-rule="evenodd" d="M83.1728 18.2976C66.1878 18.2976 50.8074 24.6885 39.6302 34.8054C28.3291 45.0345 21.3276 59.0735 21.3276 74.1522C21.3276 88.8267 28.0645 96.4146 38.9562 100.329C50.1711 104.36 65.8473 104.625 83.1728 104.625C100.498 104.625 116.174 104.36 127.389 100.329C138.281 96.4146 145.018 88.8267 145.018 74.1522C145.018 59.0734 138.016 45.0345 126.715 34.8054C115.538 24.6885 100.158 18.2976 83.1728 18.2976ZM83.1728 16.9895C48.2942 16.9895 20.0195 43.4508 20.0195 74.1522C20.0195 104.854 48.2942 105.933 83.1728 105.933C118.051 105.933 146.326 104.854 146.326 74.1522C146.326 43.4508 118.051 16.9895 83.1728 16.9895Z" fill="#446AB1"/>
<path fill-rule="evenodd" clip-rule="evenodd" d="M50.8759 54.4794C56.7741 54.4794 61.5555 59.2608 61.5555 65.159C61.5555 71.0572 56.7741 75.8386 50.8759 75.8386C44.9777 75.8386 40.1963 71.0572 40.1963 65.159C40.1963 59.2608 44.9777 54.4794 50.8759 54.4794ZM77.4605 85.7103C76.1963 84.0004 75.3987 81.9531 75.215 79.7672L75.2168 79.7671L75.215 79.7468C75.1078 78.3076 76.1876 77.0538 77.6268 76.9466C80.9171 76.6926 83.9964 76.3171 86.8645 75.8203C89.7055 75.3281 92.3413 74.7158 94.7715 73.9833L94.7722 73.9857L94.8532 73.9628C96.2473 73.596 97.6749 74.4287 98.0417 75.8228C98.606 77.9512 98.5473 80.1427 97.9364 82.1627C97.3266 84.1793 96.1589 86.0367 94.5044 87.5005C92.8527 88.962 90.8646 89.8941 88.782 90.2548C86.7041 90.6147 84.5226 90.4059 82.4786 89.5865C80.4398 88.7692 78.7183 87.4112 77.4605 85.7103ZM118.018 52.2523C123.916 52.2523 128.697 57.0337 128.697 62.9319C128.697 68.8301 123.916 73.6115 118.018 73.6115C112.119 73.6115 107.338 68.8301 107.338 62.9319C107.338 57.0337 112.119 52.2523 118.018 52.2523Z" fill="#8AB2FC"/>
<path d="M50.876 54.4009C53.8468 54.4009 56.5363 55.6051 58.4832 57.5519C60.4299 59.4986 61.6341 62.1883 61.6341 65.159C61.6341 68.1297 60.4299 70.8193 58.4832 72.7661C56.5363 74.7129 53.8468 75.9171 50.876 75.9171C47.9053 75.9171 45.2157 74.7129 43.2689 72.7662C41.3221 70.8193 40.1179 68.1297 40.1179 65.159C40.1179 62.1883 41.3221 59.4986 43.2689 57.5519C45.2157 55.6051 47.9053 54.4009 50.876 54.4009ZM58.3722 57.6629C56.4538 55.7445 53.8034 54.5579 50.876 54.5579C47.9486 54.5579 45.2982 55.7445 43.3799 57.6629C41.4615 59.5812 40.2749 62.2316 40.2749 65.159C40.2749 68.0864 41.4615 70.7368 43.3799 72.6552C45.2982 74.5735 47.9486 75.7601 50.876 75.7601C53.8034 75.7601 56.4538 74.5735 58.3722 72.6551C60.2905 70.7368 61.4771 68.0864 61.4771 65.159C61.4771 62.2316 60.2905 59.5812 58.3722 57.6629Z" fill="#446AB1"/>
<path d="M118.018 52.1738C120.988 52.1738 123.678 53.3779 125.625 55.3247C127.572 57.2715 128.776 59.9612 128.776 62.9319C128.776 65.9026 127.572 68.5922 125.625 70.539C123.678 72.4858 120.988 73.69 118.018 73.69C115.047 73.69 112.357 72.4858 110.41 70.539C108.464 68.5922 107.26 65.9026 107.26 62.9319C107.26 59.9612 108.464 57.2715 110.41 55.3247C112.357 53.3779 115.047 52.1738 118.018 52.1738ZM125.514 55.4357C123.595 53.5173 120.945 52.3307 118.018 52.3307C115.09 52.3307 112.44 53.5173 110.521 55.4357C108.603 57.3541 107.416 60.0045 107.416 62.9319C107.416 65.8593 108.603 68.5097 110.521 70.428C112.44 72.3464 115.09 73.533 118.018 73.533C120.945 73.533 123.595 72.3463 125.514 70.428C127.432 68.5096 128.619 65.8593 128.619 62.9319C128.619 60.0045 127.432 57.3541 125.514 55.4357Z" fill="#446AB1"/>
<path fill-rule="evenodd" clip-rule="evenodd" d="M84.5919 188.62C80.657 188.62 76.7221 188.62 72.5905 188.375C68.4589 188.129 64.1305 187.637 60.9826 187.145C57.8346 186.653 55.8672 186.161 53.949 182.521C52.7126 180.176 51.4967 176.522 50.512 172.509C51.7313 173.289 53.4736 173.665 55.7388 173.636C57.9391 160.56 61.0231 149.436 64.9907 140.264H103.65C107.616 150.786 110.259 161.635 111.58 172.81C114.279 173.005 116.507 172.651 118.264 171.75C117.249 176.058 115.959 180.028 114.645 182.521C112.726 186.161 110.759 186.653 107.611 187.145C104.463 187.637 100.135 188.129 96.0031 188.375C91.8715 188.62 88.5268 188.62 84.5919 188.62Z" fill="#446AB1"/>
<path fill-rule="evenodd" clip-rule="evenodd" d="M84.5917 188.62C80.6569 188.62 76.722 188.62 72.5904 188.375C68.4587 188.129 64.1303 187.637 60.9824 187.145C57.8345 186.653 55.8671 186.161 53.9488 182.521C52.7124 180.176 51.4966 176.522 50.5118 172.509C49.9687 170.295 49.4957 167.973 49.1285 165.7C48.0956 159.305 47.8988 153.305 48.0956 148.14C48.2924 142.976 48.8826 138.647 49.7438 135.106C50.605 131.564 51.7372 128.81 53.0653 127.187C54.3933 125.564 55.9171 125.072 58.8925 124.777C61.8678 124.482 66.2945 124.383 70.7705 124.285C75.2464 124.187 79.7715 124.088 84.2966 123.99C88.8218 124.088 93.3469 124.187 97.8228 124.285C102.299 124.383 106.726 124.482 109.701 124.777C112.676 125.072 114.2 125.564 115.528 127.187C116.856 128.81 117.988 131.564 118.849 135.106C119.711 138.647 120.301 142.976 120.498 148.14C120.694 153.305 120.498 159.305 119.465 165.7C119.139 167.714 118.731 169.768 118.264 171.75C117.249 176.058 115.958 180.028 114.645 182.521C112.726 186.161 110.759 186.653 107.611 187.145C104.463 187.637 100.135 188.129 96.003 188.375C91.8713 188.62 88.5267 188.62 84.5917 188.62C65.9883 188.62 53.7987 188.656 53.7987 157.686C53.7987 126.717 65.9883 128.302 84.5917 128.302C103.195 128.302 115.233 127.731 115.233 156.773C115.233 185.815 103.195 188.62 84.5917 188.62Z" fill="black" fill-opacity="0.109804"/>
<path d="M90.6896 174.399C89.8418 175.022 88.9105 175.55 87.918 175.962C86.3977 176.591 84.7421 176.946 83.0321 176.946C79.4789 176.946 76.2616 175.505 73.9328 173.177C71.6041 170.848 70.1636 167.631 70.1636 164.077C70.1636 160.524 71.6041 157.307 73.9328 154.978C76.2616 152.65 79.4789 151.209 83.0321 151.209C86.5853 151.209 89.8026 152.65 92.1312 154.978C94.4599 157.307 95.9005 160.524 95.9005 164.077C95.9005 164.764 95.8806 165.207 95.7684 165.911L91.9625 165.909H85.5393C84.9745 166.681 84.0619 167.182 83.032 167.182C81.3173 167.182 79.9271 165.792 79.9271 164.077C79.9271 162.363 81.3173 160.973 83.032 160.973C84.0619 160.973 84.9745 161.474 85.5393 162.246H91.9483C91.585 160.467 90.703 158.878 89.4673 157.642C87.8208 155.996 85.5452 154.977 83.0321 154.977C80.5189 154.977 78.2434 155.996 76.5967 157.642C74.9501 159.289 73.9314 161.564 73.9314 164.077C73.9314 166.591 74.9501 168.866 76.5967 170.513C78.2434 172.159 80.5189 173.178 83.0321 173.178C84.2537 173.178 85.4249 172.929 86.4904 172.488C87.5762 172.039 88.5625 171.388 89.3906 170.594L89.4673 170.513C90.2028 169.777 91.3957 169.777 92.1312 170.513L95.2857 173.667C96.0212 174.403 96.0212 175.596 95.2857 176.331C94.5502 177.067 93.3572 177.067 92.6218 176.331L90.6896 174.399Z" fill="#FEFEFE"/>
<path fill-rule="evenodd" clip-rule="evenodd" d="M132.934 121.959C136.637 119.968 143.315 116.527 150.51 113.221C136.035 120.478 136.072 123.427 138.299 127.979C139.734 130.913 141.403 135.538 147.419 134.667C144.877 136.188 142.646 137.461 140.956 138.369C130.485 143.997 124.872 139.86 123.294 135.425C121.716 130.99 122.462 127.588 132.934 121.959Z" fill="black" fill-opacity="0.109804"/>
<path fill-rule="evenodd" clip-rule="evenodd" d="M44.0393 142.844C39.9383 153.808 26.0203 189.141 21.4199 188.073C21.1418 188.008 20.9279 187.815 20.77 187.511C24.0814 184.194 29.8649 171.792 35.0141 157.756C41.235 140.8 46.0961 132.915 41.0148 130.808C40.1478 130.449 39.3534 130.412 38.6011 130.681C40.4058 128.65 42.0223 128.426 43.5941 128.791C46.4915 129.463 48.1404 131.88 44.0393 142.844Z" fill="black" fill-opacity="0.109804"/>
<path fill-rule="evenodd" clip-rule="evenodd" d="M70.7664 191.672C69.6986 191.293 67.8728 191.018 66.0127 190.759C64.1525 190.501 62.2579 190.26 60.2771 190.087C58.2964 189.915 56.2296 189.812 54.7483 189.76C54.6158 189.756 54.488 189.751 54.3647 189.748C65.294 192.297 69.4874 193.247 70.6336 196.925C72.3301 205.901 70.6386 210.749 68.1195 211.151C68.5533 211.146 68.9613 211.141 69.3369 211.135C73.7289 211.066 73.7634 210.928 73.9528 210.463C74.1423 209.998 74.4868 209.206 74.7107 208.052C74.9346 206.898 75.038 205.382 75.0035 203.66C74.9691 201.937 74.7968 200.008 74.349 198.2C73.9012 196.391 73.1778 194.703 72.6611 193.618C72.1443 192.533 71.8343 192.051 70.7664 191.672Z" fill="black" fill-opacity="0.109804"/>
<path fill-rule="evenodd" clip-rule="evenodd" d="M98.1796 192.002C99.2474 191.623 101.073 191.347 102.933 191.089C104.794 190.83 106.688 190.589 108.669 190.417C110.65 190.245 112.716 190.141 114.198 190.09C114.33 190.085 114.458 190.081 114.581 190.077C103.652 192.626 99.8842 193.255 98.5243 197.788C96.8278 205.909 98.3074 211.078 100.827 211.481C100.393 211.476 99.9847 211.47 99.6091 211.465C95.2171 211.396 95.1826 211.258 94.9932 210.793C94.8037 210.328 94.4592 209.536 94.2353 208.382C94.0114 207.228 93.9081 205.712 93.9425 203.989C93.977 202.267 94.1492 200.338 94.597 198.53C95.0449 196.721 95.7682 195.033 96.2849 193.948C96.8017 192.863 97.1117 192.381 98.1796 192.002Z" fill="black" fill-opacity="0.109804"/>
<path fill-rule="evenodd" clip-rule="evenodd" d="M0.712158 77.134C0.915356 80.5699 1.37929 83.9964 2.1042 87.4134C5.71405 90.8756 9.99221 93.5302 14.9385 95.3774L14.9386 95.3767C25.9154 114.114 52.6214 120.023 83.8292 120.023C115.042 120.023 141.751 114.113 152.725 95.3684L152.725 95.3774C157.672 93.5302 161.95 90.8756 165.56 87.4134C166.283 84.0024 166.747 80.582 166.951 77.1522L152.228 79.4C146.882 99.3535 136.546 113.382 83.831 113.382C31.3102 113.382 21.779 103.081 15.4336 79.4L0.712158 77.134Z" fill="black" fill-opacity="0.109804"/>
<path fill-rule="evenodd" clip-rule="evenodd" d="M34.3764 42.4081C36.2213 44.8898 42.158 43.4356 47.6363 39.1603C53.1145 34.8848 56.06 29.4072 54.215 26.9255C52.37 24.4438 46.4335 25.8979 40.9551 30.1733C35.4768 34.4487 32.5315 39.9264 34.3764 42.4081Z" fill="#FEFEFE" fill-opacity="0.270588"/>
</svg>
