<svg width="39" height="9" viewBox="0 0 39 9" fill="none" xmlns="http://www.w3.org/2000/svg">
<path d="M8.69995 4.29999C8.69995 6.50913 6.90909 8.29999 4.69995 8.29999C2.49081 8.29999 0.699951 6.50913 0.699951 4.29999C0.699951 2.09085 2.49081 0.299988 4.69995 0.299988C6.90909 0.299988 8.69995 2.09085 8.69995 4.29999Z" fill="#89D4FF"/>
<path d="M23.7 4.29999C23.7 6.50913 21.9091 8.29999 19.7 8.29999C17.4908 8.29999 15.7 6.50913 15.7 4.29999C15.7 2.09085 17.4908 0.299988 19.7 0.299988C21.9091 0.299988 23.7 2.09085 23.7 4.29999Z" fill="#89D4FF"/>
<path d="M38.7 4.29999C38.7 6.50913 36.9091 8.29999 34.7 8.29999C32.4908 8.29999 30.7 6.50913 30.7 4.29999C30.7 2.09085 32.4908 0.299988 34.7 0.299988C36.9091 0.299988 38.7 2.09085 38.7 4.29999Z" fill="#89D4FF"/>
</svg>
