<svg width="20" height="20" viewBox="0 0 20 20" fill="none" xmlns="http://www.w3.org/2000/svg">
<path d="M7.36901 3.96035C5.27822 6.30737 3.84337 9.67928 3.71013 9.997L0 8.40841L4.15084 4.25757C4.63254 3.77587 5.32947 3.56064 6.0059 3.69388L7.36901 3.96035ZM9.39831 14.8755C9.39831 14.8755 13.2314 13.2869 15.435 11.0834C20.9694 5.54894 20.047 1.22388 19.7498 0.250224C18.7761 -0.0572453 14.4511 -0.969404 8.91661 4.56504C6.71308 6.76857 5.12449 10.6017 5.12449 10.6017L9.39831 14.8755ZM16.0396 12.631C13.6926 14.7218 10.3207 16.1566 10.003 16.2899L11.5916 20L15.7424 15.8492C16.2241 15.3675 16.4394 14.6705 16.3061 13.9941L16.0396 12.631ZM7.17428 15.9004C7.17428 16.7511 6.82582 17.5197 6.27237 18.0732C5.06299 19.2826 0 20 0 20C0 20 0.717428 14.937 1.92681 13.7276C2.48025 13.1742 3.24893 12.8257 4.09959 12.8257C5.80092 12.8257 7.17428 14.1991 7.17428 15.9004ZM11.2739 6.67633C11.2739 5.54894 12.1963 4.62654 13.3237 4.62654C14.4511 4.62654 15.3735 5.54894 15.3735 6.67633C15.3735 7.80372 14.4511 8.72613 13.3237 8.72613C12.1963 8.72613 11.2739 7.80372 11.2739 6.67633Z" fill="#3B73C5"/>
</svg>
