<svg width="44" height="44" viewBox="0 0 44 44" fill="none" xmlns="http://www.w3.org/2000/svg">
<path fill-rule="evenodd" clip-rule="evenodd" d="M3.45098 44C1.54506 44 0 42.4549 0 40.549V3.45098C0 1.54506 1.54506 0 3.45098 0H40.549C42.4549 0 44 1.54506 44 3.45098V30.2738C44 30.543 43.8814 30.7843 43.6938 30.9481L31.099 43.7349C30.9262 43.9097 30.699 43.9971 30.472 43.9975C30.4713 43.9975 30.4708 43.998 30.4708 43.9987C30.4708 43.9994 30.4702 44 30.4695 44H3.45098ZM43.1114 30.2738C42.3817 30.9752 41.4855 31.321 40.3964 31.3243C38.2615 31.3243 36.5209 31.3243 35.1744 31.3243C33.2685 31.3243 31.7247 32.8695 31.7247 34.7754C31.7247 38.2809 31.7247 40.0755 31.7247 40.1592C31.7247 40.1626 31.7247 40.164 31.7247 40.1674C31.7198 41.3225 31.2396 42.365 30.4708 43.1071L43.1114 30.2738ZM21.4141 32.5085C20.0939 32.5085 18.9261 33.4962 18.9261 34.7088V35.5171C18.9261 36.7746 20.0939 37.7176 21.4141 37.7176C22.8359 37.7176 23.9022 36.7746 23.9022 35.5171V34.7088C23.9022 33.4962 22.8359 32.5085 21.4141 32.5085ZM32.1282 15.7129C32.1282 10.5038 27.3043 6.28244 21.4141 6.28244C17.5044 6.28244 14.0513 8.16849 12.2235 10.9528C11.5127 12.0308 11.919 13.333 13.0868 13.9617C14.3052 14.5902 15.8287 14.2312 16.5396 13.1532C17.5044 11.6713 19.3324 10.6833 21.4141 10.6833C24.6133 10.6833 27.2028 12.8839 27.2028 15.7129C27.2028 18.4972 24.6133 20.7425 21.4141 20.7425C20.0939 20.7425 18.9261 21.7754 18.9261 22.9431C18.9261 22.9438 18.9261 22.9445 18.9261 22.9452C18.9261 23.0134 18.9261 23.0545 18.9261 23.1227V27.793C18.9261 29.0505 20.0939 29.9934 21.4141 29.9934C22.8359 29.9934 23.9022 29.0505 23.9022 27.793V27.6778C23.9022 26.0442 25.0801 24.686 26.5522 23.9778C29.8774 22.3783 32.1282 19.2764 32.1282 15.7129Z" fill="white"/>
</svg>
