<svg width="47" height="45" viewBox="0 0 47 45" fill="none" xmlns="http://www.w3.org/2000/svg">
<path fill-rule="evenodd" clip-rule="evenodd" d="M18.3821 42.1178C18.6438 42.1178 18.8922 42.2255 19.0873 42.3999C20.2996 43.4839 21.8068 44 23.4789 44C25.1513 44 26.6583 43.4838 27.8708 42.3999C28.0659 42.2255 28.3143 42.1178 28.5759 42.1178H44.8613C45.4644 42.1178 45.9581 41.6341 45.9581 41.0426V14.8047C45.9581 14.2132 45.4644 13.7295 44.8613 13.7295C44.5323 13.7295 44.2656 13.9962 44.2655 14.3252L44.2623 36.1721C44.2592 37.0672 43.5188 37.7931 42.6059 37.7931C39.11 37.7881 35.8336 38.1825 32.7769 38.9764C29.7609 39.7599 26.9602 40.937 24.3753 42.5072C23.8538 42.8354 23.165 42.8622 22.6037 42.5199C20.0131 40.9432 17.2053 39.7619 14.1811 38.9764C11.1668 38.1935 7.93895 37.7991 4.49768 37.7931C4.44969 37.7971 4.40119 37.7994 4.35219 37.7994C3.43566 37.7994 2.69243 37.0707 2.69243 36.1721V14.3252C2.69243 13.9962 2.42573 13.7295 2.09673 13.7295C1.49362 13.7295 1 14.2132 1 14.8047V41.0426C1 41.6339 1.49362 42.1178 2.09673 42.1178H18.3821Z" fill="white" stroke="white" stroke-width="0.97774" stroke-miterlimit="22.9256"/>
<path d="M42.1171 35.1929C42.1171 35.4602 41.8979 35.6866 41.6167 35.692C35.4923 35.8107 30.0048 37.1204 25.1647 39.6315C24.7998 39.8208 24.3829 39.5514 24.3829 39.1831V14.7597C25.1165 14.3368 25.8665 13.9437 26.6329 13.5802C26.7791 13.5108 26.9743 13.5209 27.1527 13.6315C28.4446 14.4334 29.9755 14.8972 31.615 14.8972C34.7647 14.8972 37.511 13.1865 38.9367 10.6558C39.0395 10.4734 39.2051 10.3694 39.3673 10.3579C40.1138 10.3049 40.871 10.2708 41.639 10.2559C41.8981 10.2509 42.1171 10.4623 42.1171 10.7348V35.1929ZM22.5751 14.7595V39.1831C22.5751 39.5514 22.1582 39.8208 21.7933 39.6315C16.9532 37.1204 11.4659 35.8107 5.3415 35.692C5.06027 35.6866 4.84115 35.4602 4.84115 35.1929V10.7348C4.84115 10.4623 5.06014 10.2509 5.31922 10.2559C6.08652 10.2707 6.84298 10.3047 7.58867 10.3576C7.75086 10.3692 7.91645 10.4731 8.01921 10.6556C9.44488 13.1863 12.1912 14.8972 15.3412 14.8972C16.9812 14.8972 18.5122 14.4332 19.8044 13.631C19.9827 13.5203 20.1778 13.5103 20.324 13.5796C21.0907 13.9432 21.8411 14.3365 22.5751 14.7595Z" fill="white" stroke="white" stroke-width="0.97774"/>
<path d="M25.7618 5.49252C26.0024 4.34676 26.5827 3.32338 27.3929 2.52903C28.4747 1.46844 29.9692 0.813058 31.617 0.813058C33.2645 0.813058 34.759 1.46845 35.841 2.52899L35.8411 2.52907C36.7294 3.40026 37.3417 4.54696 37.5323 5.82853C37.6151 5.70599 37.7159 5.59665 37.831 5.50431C37.5877 4.26934 36.9696 3.16423 36.0952 2.30683C34.9501 1.18439 33.3675 0.48887 31.617 0.48887C29.8662 0.48887 28.2836 1.1844 27.1385 2.30683L25.7618 5.49252ZM25.7618 5.49252C25.7179 5.45539 25.6695 5.42077 25.6166 5.38914C25.561 5.35595 25.5048 5.32417 25.4481 5.29379C25.7175 4.14382 26.3141 3.11527 27.1384 2.3069L25.7618 5.49252ZM19.8197 2.30683C20.6441 3.11523 21.2407 4.14382 21.5101 5.29385C21.4535 5.32418 21.3974 5.35591 21.3419 5.38904C21.2889 5.42068 21.2405 5.45531 21.1966 5.49246C20.9559 4.34669 20.3754 3.32334 19.5652 2.52903C18.4834 1.46844 16.989 0.813058 15.3412 0.813058C13.6937 0.813058 12.1992 1.46845 11.1172 2.52899L11.1171 2.52907C10.2288 3.40023 9.61653 4.54687 9.4259 5.82837C9.34309 5.70586 9.24225 5.59654 9.12721 5.50422C9.37046 4.26929 9.98861 3.16421 10.8629 2.30683C12.0081 1.18439 13.5907 0.48887 15.3412 0.48887C17.092 0.48887 18.6746 1.1844 19.8197 2.30683ZM19.5653 10.8386C20.5391 9.88403 21.1811 8.59842 21.2999 7.1669C21.4047 7.24628 21.5179 7.30331 21.6348 7.34141C21.4791 8.78667 20.8156 10.0845 19.8197 11.0611C18.6746 12.1835 17.092 12.879 15.3412 12.879C13.5907 12.879 12.0081 12.1835 10.8629 11.0611C9.9899 10.205 9.37229 9.10189 9.12829 7.86905C9.24327 7.77665 9.344 7.66728 9.4267 7.54477C9.61824 8.82422 10.23 9.96886 11.1171 10.8386C12.1992 11.8994 13.6937 12.5548 15.3412 12.5548C16.989 12.5548 18.4835 11.8995 19.5653 10.8386ZM7.23075 6.15977H8.05409C8.04135 6.33282 8.03487 6.50758 8.03487 6.68382C8.03487 6.86252 8.04153 7.03968 8.05462 7.21508L7.72027 7.21712L7.22746 7.21411C6.95787 7.21246 6.74049 6.99289 6.74155 6.7233L6.74185 6.64677C6.7429 6.3775 6.96148 6.15977 7.23075 6.15977ZM27.1385 11.0611C26.1426 10.0845 25.4791 8.78668 25.3234 7.34142C25.4404 7.30331 25.5537 7.24625 25.6586 7.1668C25.7773 8.59832 26.419 9.88398 27.3929 10.8386C28.4747 11.8995 29.9692 12.5548 31.617 12.5548C33.2645 12.5548 34.759 11.8994 35.841 10.8386C36.7282 9.96883 37.34 8.82413 37.5315 7.5446C37.6142 7.66714 37.7149 7.77654 37.8299 7.86896C37.5859 9.10184 36.9683 10.2049 36.0952 11.0611C34.9501 12.1835 33.3675 12.879 31.617 12.879C29.8662 12.879 28.2836 12.1835 27.1385 11.0611ZM39.2349 7.21714L38.9035 7.21508C38.9166 7.03968 38.9233 6.86252 38.9233 6.68382C38.9233 6.50758 38.9168 6.33282 38.9041 6.15977H39.7274C39.9967 6.15977 40.2153 6.3775 40.2163 6.64677L40.2166 6.72329C40.2177 6.99289 40.0003 7.21246 39.7307 7.21411L39.2409 7.21714H39.2349ZM23.4792 6.10287C23.1939 6.10287 22.9084 6.14516 22.6334 6.2301C22.6263 6.11941 22.6167 6.00941 22.6046 5.90015C22.89 5.81921 23.1846 5.77868 23.4792 5.77868C23.7736 5.77868 24.0682 5.8192 24.3536 5.90011C24.3414 6.00937 24.3318 6.11937 24.3248 6.23005C24.0498 6.14515 23.7644 6.10287 23.4792 6.10287Z" fill="white" stroke="white" stroke-width="0.97774"/>
</svg>
