<svg width="390" height="384" viewBox="0 0 390 384" fill="none" xmlns="http://www.w3.org/2000/svg">
<circle cx="195" cy="84" r="300" fill="#E4F4FF"/>
<path fill-rule="evenodd" clip-rule="evenodd" d="M84.9045 245.549C70.4046 272.039 63.8796 291.069 65.3328 302.635C66.7132 311.041 72.4483 316.909 82.5385 320.241C103.313 324.77 128.749 320.751 158.846 308.186C172.253 302.936 178.957 300.31 178.957 300.31C180.108 289.388 179.465 281.885 177.029 277.801L139.006 287.447L103.277 267.717L119.098 263.343C118.199 262.472 117.325 261.673 116.477 260.947C110.471 259.361 103.192 256.197 94.6418 251.453C91.0542 249.454 87.8094 247.486 84.9045 245.549ZM141.291 257.208L150.773 254.587L158.556 237.77L166.789 236.006C166.756 235.91 166.724 235.812 166.692 235.712C164.624 235.379 162.506 235.056 160.338 234.744C158.505 240.622 149.549 243.85 133.471 244.428C132.871 245.119 132.242 245.823 131.583 246.54C136.115 250.706 139.351 254.262 141.291 257.208ZM190.673 274.34C197.342 275.721 205.186 279.134 214.205 284.582C220.229 280.224 223.603 273.085 223.146 265.664C222.725 258.825 219.103 252.623 213.439 248.886L202.358 271.376L190.673 274.34Z" fill="#191919"/>
<path fill-rule="evenodd" clip-rule="evenodd" d="M160.165 234.744L160.327 234.767C162.49 235.08 164.604 235.403 166.667 235.737L166.784 235.756L166.82 235.868C166.851 235.967 166.883 236.063 166.916 236.158L166.986 236.363L158.655 238.154L150.894 254.975L141.215 257.659L141.138 257.542C139.215 254.613 136 251.068 131.484 246.903L131.342 246.773L131.472 246.631C132.128 245.915 132.755 245.211 133.352 244.521L133.407 244.458L133.49 244.455C141.502 244.166 147.722 243.215 152.162 241.61C154.925 240.612 156.984 239.365 158.36 237.877L158.387 237.818L158.421 237.811C159.225 236.925 159.788 235.954 160.116 234.901L160.165 234.744ZM157.909 238.855C156.52 240.085 154.644 241.123 152.292 241.973C147.814 243.592 141.575 244.544 133.587 244.837C133.044 245.464 132.476 246.102 131.885 246.75C136.278 250.812 139.446 254.3 141.381 257.213L150.62 254.652L157.909 238.855ZM159.043 237.677C159.667 236.906 160.131 236.071 160.432 235.172C162.476 235.468 164.476 235.774 166.43 236.089L159.043 237.677ZM84.9806 245.493L85.155 245.609C88.048 247.544 91.2804 249.511 94.8556 251.509C103.378 256.251 110.623 259.409 116.594 260.99L116.636 261.002L116.67 261.03C117.518 261.76 118.393 262.562 119.293 263.436L119.534 263.671L103.881 268.011L139.045 287.488L177.041 277.819L177.114 277.943C178.35 280.021 179.122 282.952 179.444 286.72C179.766 290.49 179.638 295.112 179.063 300.584L179.051 300.701L178.942 300.743L178.872 300.564C178.942 300.743 178.942 300.743 178.942 300.743L178.942 300.743L173.927 302.714C170.584 304.027 165.569 305.997 158.882 308.623C128.841 321.203 103.425 325.238 82.6473 320.695L82.6375 320.693L82.628 320.689C72.5144 317.34 66.7265 311.422 65.3348 302.921L65.3343 302.918L65.3338 302.914C64.6036 297.084 65.8792 289.398 69.1369 279.867C72.3959 270.333 77.6447 258.935 84.88 245.677L84.9806 245.493ZM178.693 300.427C179.256 295.021 179.378 290.464 179.061 286.753C178.748 283.089 178.009 280.265 176.857 278.264L138.993 287.899L102.871 267.891L118.784 263.479C117.985 262.711 117.208 262.002 116.453 261.352C110.448 259.756 103.185 256.585 94.669 251.846L94.6689 251.846L94.6687 251.846C91.1576 249.883 87.9745 247.95 85.1164 246.046C77.9389 259.215 72.7344 270.53 69.5002 279.992C66.2503 289.5 64.996 297.119 65.7144 302.862C67.0774 311.179 72.7286 317.003 82.7389 320.32C103.407 324.837 128.735 320.83 158.736 308.267L158.738 308.266L158.74 308.265C165.428 305.638 170.443 303.668 173.787 302.355L178.693 300.427ZM213.195 248.827L213.376 248.948C219.077 252.72 222.722 258.981 223.146 265.885C223.606 273.376 220.21 280.583 214.148 284.982L214.045 285.057L213.936 284.991C204.948 279.545 197.144 276.142 190.521 274.767L189.704 274.597L202.084 271.447L213.195 248.827ZM213.346 249.39L202.35 271.777L191.397 274.564C197.877 276.045 205.42 279.391 214.025 284.595C219.917 280.266 223.212 273.226 222.762 265.909C222.35 259.199 218.842 253.108 213.346 249.39Z" fill="#191919"/>
<path fill-rule="evenodd" clip-rule="evenodd" d="M161.62 108.515C160.918 127.364 156.579 138.838 148.604 142.935C146.865 143.783 144.965 144.282 142.905 144.432C143.352 147.008 142.449 149.633 140.506 151.4C138.563 153.167 135.848 153.832 133.3 153.167C127.575 151.559 123.721 147.91 121.738 142.219C122.415 142.072 123.203 141.912 124.102 141.74L124.069 134.263C125.274 136.055 125.684 135.664 125.078 128.113C122.276 125.014 117.834 122.883 121.919 117.233C124.923 114.48 129.601 118.592 130.614 120.688L134.184 109.287C136.386 109.856 139.732 112.314 142.577 111.794C146.798 111.022 141.162 109.375 147.083 110.404C154.709 111.729 149.31 109.13 153.332 108.454C154.572 108.258 158.183 108.609 161.62 108.515Z" fill="#FEFEFE"/>
<path fill-rule="evenodd" clip-rule="evenodd" d="M153.564 108.57C152.589 108.736 152.286 109.004 152.174 109.207C152.114 109.315 152.089 109.435 152.076 109.582C152.072 109.634 152.069 109.683 152.067 109.735C152.065 109.761 152.064 109.787 152.062 109.815C152.057 109.895 152.05 109.985 152.034 110.075C151.999 110.262 151.92 110.463 151.722 110.621C151.534 110.769 151.274 110.852 150.936 110.889C150.263 110.962 149.137 110.868 147.238 110.534C145.752 110.273 145.033 110.191 144.705 110.21C144.701 110.211 144.697 110.211 144.694 110.211C144.694 110.213 144.695 110.214 144.696 110.216C144.763 110.384 144.913 110.754 144.687 111.112C144.567 111.302 144.362 111.457 144.074 111.588C143.784 111.718 143.386 111.835 142.848 111.934C141.339 112.213 139.726 111.691 138.259 111.064C137.761 110.851 137.268 110.621 136.798 110.401C136.574 110.296 136.355 110.194 136.144 110.097C135.588 109.843 135.078 109.625 134.621 109.48L130.928 121.401L130.61 120.736C130.135 119.741 128.762 118.218 127.138 117.289C125.521 116.365 123.775 116.087 122.42 117.323C121.432 118.71 120.977 119.857 120.871 120.836C120.765 121.815 121.004 122.654 121.453 123.43C121.905 124.213 122.569 124.929 123.311 125.656C123.517 125.858 123.731 126.063 123.947 126.269C124.496 126.793 125.06 127.332 125.567 127.899L125.632 127.972L125.64 128.069C125.791 129.973 125.879 131.43 125.907 132.516C125.935 133.594 125.905 134.332 125.808 134.781C125.762 134.997 125.689 135.204 125.551 135.337C125.473 135.411 125.374 135.462 125.258 135.472C125.148 135.482 125.048 135.451 124.967 135.411C124.851 135.354 124.741 135.26 124.638 135.152L124.668 142.06L124.433 142.106C123.677 142.252 123.001 142.39 122.404 142.518C124.381 147.987 128.115 151.491 133.624 153.056C136.069 153.7 138.673 153.054 140.536 151.341C142.4 149.628 143.268 147.082 142.838 144.583L142.784 144.268L143.102 144.245C145.12 144.097 146.977 143.604 148.674 142.768C152.564 140.747 155.594 136.895 157.74 131.158C159.864 125.481 161.114 117.979 161.479 108.642C159.904 108.674 158.311 108.618 156.946 108.57L156.817 108.566C156.074 108.54 155.406 108.517 154.846 108.514C154.282 108.51 153.847 108.525 153.564 108.57ZM156.961 107.992C158.418 108.043 160.116 108.102 161.771 108.056L162.079 108.048L162.068 108.356C161.717 117.869 160.459 125.541 158.281 131.362C156.103 137.184 152.996 141.176 148.937 143.283L148.934 143.285L148.931 143.286C147.251 144.114 145.424 144.617 143.455 144.797C143.796 147.388 142.858 149.993 140.926 151.768C138.918 153.615 136.11 154.31 133.474 153.615L133.471 153.614L133.469 153.614C127.67 151.967 123.757 148.22 121.749 142.399L121.643 142.091L121.96 142.021C122.578 141.886 123.288 141.74 124.089 141.583L124.053 133.327L124.586 134.128C124.734 134.35 124.864 134.531 124.979 134.665C125.067 134.769 125.135 134.832 125.181 134.866C125.182 134.864 125.183 134.862 125.184 134.86C125.203 134.816 125.224 134.75 125.244 134.659C125.324 134.285 125.357 133.61 125.33 132.531C125.302 131.479 125.218 130.065 125.072 128.213C124.599 127.692 124.084 127.2 123.566 126.704C123.346 126.494 123.125 126.284 122.907 126.07C122.16 125.338 121.447 124.576 120.953 123.72C120.454 122.857 120.175 121.896 120.297 120.774C120.418 119.658 120.932 118.41 121.968 116.961L121.985 116.937L122.007 116.917C123.643 115.401 125.716 115.81 127.424 116.786C128.848 117.601 130.103 118.852 130.791 119.893L134.235 108.774L134.502 108.843C135.077 108.994 135.717 109.266 136.383 109.57C136.604 109.671 136.828 109.776 137.054 109.882C137.519 110.099 137.996 110.322 138.485 110.532C139.944 111.155 141.417 111.61 142.744 111.365C143.258 111.27 143.605 111.164 143.836 111.06C144.069 110.955 144.162 110.86 144.199 110.802C144.26 110.706 144.23 110.625 144.149 110.406C144.145 110.394 144.14 110.382 144.135 110.369C144.117 110.319 144.093 110.251 144.083 110.179C144.072 110.105 144.071 109.998 144.129 109.893C144.188 109.784 144.284 109.722 144.376 109.687C144.464 109.654 144.564 109.639 144.67 109.632C145.08 109.608 145.873 109.707 147.338 109.964C149.239 110.298 150.292 110.377 150.873 110.313C151.162 110.282 151.298 110.218 151.363 110.167C151.418 110.123 151.448 110.069 151.466 109.97C151.476 109.917 151.481 109.856 151.486 109.78C151.487 109.76 151.488 109.738 151.489 109.715C151.492 109.658 151.496 109.594 151.501 109.532C151.517 109.353 151.551 109.138 151.669 108.925C151.912 108.487 152.44 108.174 153.469 107.999L153.47 107.999L153.472 107.998C153.807 107.945 154.284 107.931 154.85 107.935C155.419 107.939 156.096 107.961 156.837 107.987L156.961 107.992Z" fill="#FEFEFE"/>
<path fill-rule="evenodd" clip-rule="evenodd" d="M131.505 246.69C141.53 256.025 145.133 262.299 142.313 265.512C143.173 270.518 142.476 272.905 140.224 272.675C139.592 274.194 138.467 274.646 136.85 274.031C135.729 275.61 134.194 275.556 132.244 273.869C130.536 274.731 129.001 274.442 127.638 273C123.558 267.916 119.877 263.949 116.593 261.097C122.602 255.833 127.572 251.031 131.505 246.69Z" fill="#FEFEFE"/>
<path fill-rule="evenodd" clip-rule="evenodd" d="M131.505 246.69C141.53 256.025 145.133 262.299 142.313 265.512C143.173 270.518 142.476 272.905 140.224 272.675C139.592 274.194 138.467 274.646 136.85 274.031C135.729 275.61 134.194 275.556 132.244 273.869C130.536 274.731 129.001 274.442 127.638 273C123.558 267.916 119.877 263.949 116.593 261.097C122.602 255.833 127.572 251.031 131.505 246.69ZM141.888 265.129C144.422 262.241 140.972 256.365 131.537 247.504C129.66 249.556 127.554 251.71 125.219 253.965C122.868 256.237 120.281 258.615 117.461 261.097C118.971 262.444 120.561 264.017 122.231 265.817C124.074 267.803 126.018 270.07 128.062 272.615C128.655 273.238 129.273 273.611 129.914 273.732C130.556 273.853 131.248 273.726 131.99 273.352L132.326 273.182L132.614 273.431C132.801 273.592 132.98 273.736 133.15 273.859C133.834 274.358 134.434 274.605 134.948 274.601C135.413 274.596 135.836 274.369 136.216 273.918C136.278 273.845 136.336 273.77 136.389 273.695L136.643 273.337L137.051 273.492C137.722 273.747 138.271 273.79 138.697 273.619C139.111 273.452 139.446 273.063 139.701 272.451L139.865 272.059L140.28 272.102C140.471 272.121 140.647 272.117 140.807 272.089C141.14 272.03 141.406 271.85 141.602 271.551C141.837 271.192 141.99 270.665 142.059 269.973C142.167 268.887 142.065 267.432 141.752 265.609L141.705 265.337L141.888 265.129Z" fill="#191919"/>
<path fill-rule="evenodd" clip-rule="evenodd" d="M189.837 231.058C192.181 216.225 191.056 195.366 186.46 168.481C183.062 155.224 174.259 146.36 160.05 141.891C157.381 141.321 154.702 140.875 152.011 140.555C151.008 141.465 149.929 142.22 148.773 142.818C147.034 143.671 145.135 144.173 143.074 144.323C143.522 146.916 142.618 149.557 140.675 151.335C138.733 153.113 136.018 153.783 133.469 153.113C127.745 151.495 123.892 147.823 121.908 142.097C118.866 142.756 115.81 143.566 112.743 144.527C95.8505 149.956 83.2201 162.83 74.8507 183.151C67.2268 200.27 64.5578 214.731 66.8436 226.534C69.28 234.216 78.5129 242.515 94.5422 251.43C103.117 256.178 110.416 259.346 116.44 260.933C123.552 254.794 129.233 249.282 133.482 244.397C149.606 243.819 158.588 240.588 160.426 234.704C160.731 226.757 162.159 220.865 164.71 217.028C164.939 226.078 165.667 232.391 166.895 235.967L189.837 231.058Z" fill="#335A9A"/>
<path fill-rule="evenodd" clip-rule="evenodd" d="M151.875 140.555L151.962 140.566C154.65 140.887 157.327 141.333 159.994 141.905L160.002 141.907L160.011 141.909C174.233 146.399 183.063 155.312 186.468 168.645L186.47 168.653L186.471 168.661C191.054 195.563 192.18 216.454 189.838 231.324L189.818 231.455L166.65 236.429L166.595 236.267C165.389 232.743 164.669 226.612 164.423 217.895C162.118 221.695 160.81 227.372 160.52 234.949L160.519 234.974L160.511 234.999C159.569 238.025 156.805 240.336 152.303 241.962C147.815 243.582 141.563 244.535 133.557 244.828C129.319 249.708 123.667 255.207 116.603 261.326L116.526 261.392L116.428 261.366C110.401 259.773 103.109 256.596 94.5535 251.842L94.5532 251.842C86.556 247.378 80.2465 243.065 75.6299 238.901C71.0148 234.739 68.0791 230.714 66.8502 226.826L66.8468 226.816L66.8447 226.805C64.5554 214.943 67.2318 200.435 74.8391 183.293C83.1986 162.928 95.8263 149.999 112.732 144.547L112.733 144.546L112.734 144.546C115.797 143.583 118.849 142.772 121.888 142.111L122.054 142.075L122.11 142.236C124.068 147.906 127.862 151.533 133.505 153.134C135.982 153.786 138.62 153.133 140.508 151.399C142.396 149.665 143.275 147.088 142.839 144.559L142.803 144.35L143.015 144.334C145.046 144.185 146.915 143.689 148.624 142.848C149.76 142.259 150.822 141.513 151.81 140.615L151.875 140.555ZM152.003 140.959C151.01 141.853 149.942 142.599 148.799 143.191L148.797 143.192L148.795 143.193C147.098 144.029 145.249 144.532 143.252 144.702C143.627 147.293 142.701 149.908 140.768 151.683C138.783 153.506 136.009 154.193 133.405 153.506L133.403 153.506L133.401 153.505C127.687 151.884 123.817 148.218 121.803 142.524C118.831 143.175 115.847 143.972 112.85 144.914C96.0765 150.323 83.5217 163.153 75.194 183.442L75.193 183.445L75.1919 183.447C67.6016 200.55 64.9561 214.97 67.2205 226.721C68.4225 230.514 71.3024 234.479 75.8874 238.615C80.4751 242.753 86.7577 247.05 94.7403 251.505C103.235 256.225 110.463 259.377 116.428 260.968C123.478 254.856 129.108 249.371 133.322 244.512L133.376 244.449L133.46 244.446C141.489 244.157 147.723 243.205 152.173 241.599C156.612 239.996 159.239 237.756 160.136 234.908C160.443 226.958 161.869 221.03 164.439 217.152L164.776 216.643L164.791 217.254C165.016 226.171 165.724 232.405 166.904 235.98L189.478 231.133C191.783 216.336 190.659 195.54 186.093 168.733C182.724 155.549 174.005 146.733 159.904 142.28C157.281 141.718 154.647 141.277 152.003 140.959Z" fill="#335A9A"/>
<path fill-rule="evenodd" clip-rule="evenodd" d="M177.241 277.733C179.66 281.833 180.298 289.367 179.155 300.336C190.399 301.493 201.525 304.169 212.535 308.362C216.64 309.977 220.605 309.188 224.43 305.996C226.923 302.885 227.053 299.182 224.821 294.888C221.965 290.421 218.412 286.972 214.162 284.541C205.205 279.07 197.415 275.643 190.791 274.257L177.241 277.733Z" fill="#FEFEFE"/>
<path fill-rule="evenodd" clip-rule="evenodd" d="M190.569 274.257L190.656 274.275C197.391 275.661 205.285 279.079 214.332 284.51C218.673 286.951 222.298 290.413 225.206 294.886L225.215 294.901L225.223 294.916C226.37 297.085 226.925 299.132 226.857 301.051C226.788 302.975 226.093 304.742 224.788 306.342L224.764 306.372L224.734 306.397C220.787 309.634 216.646 310.46 212.359 308.804C201.291 304.66 190.108 302.016 178.809 300.873L178.424 300.834L178.465 300.452C179.039 295.032 179.165 290.474 178.846 286.774C178.526 283.068 177.764 280.252 176.587 278.29L176.322 277.849L190.569 274.257ZM190.586 275.043L177.502 278.342C178.616 280.408 179.312 283.206 179.614 286.708C179.931 290.385 179.815 294.868 179.271 300.15C190.509 301.321 201.63 303.967 212.633 308.087L212.635 308.088L212.637 308.089C216.616 309.627 220.458 308.897 224.213 305.83C225.406 304.356 226.024 302.756 226.086 301.024C226.148 299.278 225.646 297.368 224.549 295.288C221.703 290.915 218.169 287.547 213.948 285.174L213.943 285.172L213.938 285.169C204.967 279.783 197.185 276.416 190.586 275.043Z" fill="#191919"/>
<path fill-rule="evenodd" clip-rule="evenodd" d="M138.982 287.581L103.269 267.889L119.083 263.523C121.714 266.067 124.568 269.229 127.647 273.011C129.027 274.449 130.581 274.738 132.311 273.877C134.285 275.561 135.84 275.615 136.975 274.039C138.612 274.653 139.75 274.202 140.391 272.686C142.671 272.916 143.376 270.533 142.506 265.538C144.087 263.762 143.673 261.049 141.266 257.4L150.743 254.784L158.523 237.999L220.951 224.636L224.106 227.357L202.305 271.541L138.982 287.581Z" fill="#3B73C5"/>
<path fill-rule="evenodd" clip-rule="evenodd" d="M220.895 224.442C220.954 224.43 221.016 224.445 221.062 224.485L224.219 227.209C224.285 227.266 224.305 227.361 224.266 227.44L202.452 271.676C202.427 271.726 202.381 271.763 202.326 271.777L138.964 287.837C138.917 287.849 138.867 287.842 138.824 287.819L103.089 268.103C103.02 268.065 102.981 267.989 102.991 267.912C103 267.834 103.055 267.77 103.13 267.749L118.955 263.378C119.02 263.36 119.091 263.378 119.14 263.426C121.778 265.978 124.637 269.148 127.719 272.935C128.387 273.63 129.085 274.035 129.812 274.17C130.54 274.306 131.319 274.174 132.155 273.758C132.224 273.723 132.308 273.734 132.366 273.784C133.341 274.616 134.183 275.018 134.896 275.043C135.593 275.067 136.211 274.732 136.752 273.98C136.802 273.91 136.894 273.882 136.976 273.912C137.769 274.21 138.411 274.238 138.92 274.036C139.427 273.835 139.842 273.391 140.149 272.662C140.182 272.585 140.262 272.537 140.346 272.546C140.882 272.6 141.303 272.499 141.63 272.264C141.958 272.027 142.214 271.636 142.382 271.066C142.722 269.919 142.688 268.109 142.253 265.614C142.243 265.556 142.26 265.497 142.299 265.453C143.046 264.614 143.328 263.55 143.129 262.239C142.928 260.92 142.238 259.355 141.041 257.539C141.008 257.488 141 257.423 141.022 257.365C141.044 257.308 141.092 257.264 141.151 257.248L150.548 254.652L158.296 237.928C158.321 237.873 158.371 237.834 158.43 237.821L220.895 224.442ZM158.605 238.177L150.86 254.895C150.836 254.946 150.791 254.984 150.737 254.999L141.507 257.548C142.632 259.295 143.305 260.841 143.509 262.181C143.718 263.551 143.437 264.711 142.648 265.638C143.07 268.098 143.113 269.952 142.752 271.175C142.568 271.798 142.274 272.274 141.855 272.575C141.468 272.855 140.994 272.971 140.448 272.94C140.118 273.66 139.66 274.157 139.062 274.394C138.466 274.63 137.766 274.595 136.977 274.322C136.399 275.071 135.7 275.456 134.883 275.427C134.068 275.399 133.176 274.96 132.213 274.158C131.359 274.56 130.534 274.696 129.742 274.549C128.915 274.395 128.146 273.937 127.436 273.195C127.432 273.192 127.429 273.188 127.425 273.184C124.379 269.44 121.555 266.305 118.951 263.778L103.688 267.994L138.944 287.445L202.145 271.426L223.855 227.403L220.883 224.838L158.605 238.177Z" fill="#3B73C5"/>
<path d="M142.093 125.393C142.981 125.393 143.701 124.468 143.701 123.326C143.701 122.184 142.981 121.258 142.093 121.258C141.205 121.258 140.485 122.184 140.485 123.326C140.485 124.468 141.205 125.393 142.093 125.393Z" fill="#191919"/>
<path fill-rule="evenodd" clip-rule="evenodd" d="M142.093 121.652C141.446 121.652 140.857 122.359 140.857 123.326C140.857 124.293 141.446 125 142.093 125C142.74 125 143.329 124.293 143.329 123.326C143.329 122.359 142.74 121.652 142.093 121.652ZM140.485 123.326C140.485 122.226 141.169 121.258 142.093 121.258C143.017 121.258 143.701 122.226 143.701 123.326C143.701 124.426 143.017 125.393 142.093 125.393C141.169 125.393 140.485 124.426 140.485 123.326Z" fill="#191919"/>
<path d="M155.877 123.556C156.511 123.556 157.025 122.836 157.025 121.948C157.025 121.059 156.511 120.339 155.877 120.339C155.242 120.339 154.728 121.059 154.728 121.948C154.728 122.836 155.242 123.556 155.877 123.556Z" fill="#191919"/>
<path fill-rule="evenodd" clip-rule="evenodd" d="M154.958 121.042C154.771 121.268 154.65 121.587 154.65 121.948C154.65 122.308 154.771 122.627 154.958 122.853C155.146 123.079 155.391 123.203 155.647 123.203C155.903 123.203 156.148 123.079 156.335 122.853C156.523 122.627 156.644 122.308 156.644 121.948C156.644 121.587 156.523 121.268 156.335 121.042C156.148 120.816 155.903 120.692 155.647 120.692C155.391 120.692 155.146 120.816 154.958 121.042ZM154.656 120.828C154.898 120.535 155.247 120.339 155.647 120.339C156.047 120.339 156.395 120.535 156.638 120.828C156.881 121.12 157.025 121.517 157.025 121.948C157.025 122.378 156.881 122.775 156.638 123.067C156.395 123.36 156.047 123.556 155.647 123.556C155.247 123.556 154.898 123.36 154.656 123.067C154.413 122.775 154.269 122.378 154.269 121.948C154.269 121.517 154.413 121.12 154.656 120.828Z" fill="#191919"/>
<path fill-rule="evenodd" clip-rule="evenodd" d="M144.702 118.948C143.164 118.491 141.42 118.46 139.46 118.871C139.304 118.904 139.149 118.812 139.114 118.667C139.079 118.521 139.177 118.377 139.333 118.344C141.371 117.916 143.222 117.941 144.878 118.433C145.031 118.479 145.115 118.631 145.066 118.773C145.017 118.915 144.854 118.994 144.702 118.948Z" fill="#191919"/>
<path fill-rule="evenodd" clip-rule="evenodd" d="M158.087 116.902C156.665 116.757 155.216 116.976 153.738 117.564C153.587 117.624 153.42 117.535 153.367 117.364C153.313 117.194 153.393 117.007 153.544 116.947C155.094 116.33 156.627 116.096 158.14 116.25C158.3 116.267 158.417 116.426 158.403 116.606C158.388 116.786 158.247 116.918 158.087 116.902Z" fill="#191919"/>
<path fill-rule="evenodd" clip-rule="evenodd" d="M149.502 121.72C149.656 121.7 149.797 121.814 149.816 121.973C150.228 125.404 150.536 127.977 150.742 129.692C150.844 130.549 150.921 131.193 150.973 131.621L151.05 132.264L151.05 132.265C151.05 132.265 151.05 132.265 150.77 132.3L151.05 132.265C151.06 132.346 151.036 132.427 150.984 132.49C150.933 132.552 150.858 132.589 150.779 132.592C149.283 132.643 148.16 132.681 147.412 132.706C147.038 132.719 146.757 132.729 146.57 132.735L146.29 132.745L146.29 132.745C146.289 132.745 146.289 132.745 146.28 132.453C146.271 132.162 146.271 132.162 146.271 132.162L146.271 132.162L146.271 132.162L146.552 132.153C146.739 132.146 147.019 132.137 147.393 132.124C148.089 132.1 149.109 132.066 150.452 132.02L150.413 131.693C150.361 131.264 150.284 130.621 150.182 129.763C149.976 128.048 149.668 125.475 149.256 122.045C149.237 121.885 149.347 121.74 149.502 121.72ZM146.28 132.453L146.271 132.162C146.115 132.167 145.993 132.302 145.998 132.463C146.003 132.624 146.134 132.75 146.29 132.745L146.28 132.453Z" fill="#191919"/>
<path fill-rule="evenodd" clip-rule="evenodd" d="M141.702 136.365C142.473 137.751 143.871 138.595 145.376 138.549C146.882 138.502 148.235 137.572 148.934 136.14C148.916 136.14 148.897 136.141 148.878 136.141C148.537 136.151 148.027 136.167 147.347 136.188C146.066 136.227 144.184 136.286 141.702 136.365ZM149.427 135.505C149.434 135.506 149.453 135.51 149.465 135.513C149.543 135.537 149.609 135.597 149.645 135.677C149.681 135.757 149.684 135.849 149.653 135.932C148.949 137.844 147.276 139.117 145.392 139.175C143.509 139.233 141.773 138.065 140.972 136.2C140.93 136.104 140.936 135.992 140.987 135.902C141.037 135.812 141.126 135.756 141.222 135.753C143.935 135.667 145.971 135.603 147.331 135.562C148.011 135.541 148.521 135.525 148.863 135.515C149.034 135.51 149.163 135.507 149.249 135.504C149.292 135.503 149.326 135.502 149.348 135.502C149.36 135.502 149.369 135.502 149.376 135.501C149.38 135.501 149.384 135.501 149.388 135.501C149.39 135.501 149.394 135.502 149.399 135.502C149.401 135.502 149.406 135.502 149.412 135.503C149.416 135.503 149.423 135.504 149.427 135.505Z" fill="#191919"/>
<path fill-rule="evenodd" clip-rule="evenodd" d="M122.584 118.688C122.638 118.541 122.802 118.465 122.949 118.519C124.558 119.107 125.804 119.989 126.667 121.173C127.53 122.357 127.996 123.823 128.08 125.555C128.087 125.712 127.966 125.845 127.809 125.853C127.652 125.86 127.518 125.739 127.511 125.583C127.431 123.937 126.991 122.584 126.206 121.507C125.421 120.43 124.277 119.609 122.753 119.052C122.606 118.998 122.53 118.835 122.584 118.688Z" fill="#191919"/>
<path fill-rule="evenodd" clip-rule="evenodd" d="M126.701 121.105C126.703 121.275 126.577 121.415 126.421 121.417C125.789 121.424 125.292 121.593 124.908 121.902C124.524 122.212 124.23 122.682 124.037 123.341C123.99 123.503 123.83 123.593 123.682 123.541C123.533 123.489 123.451 123.315 123.498 123.153C123.718 122.4 124.072 121.809 124.572 121.406C125.071 121.002 125.693 120.807 126.415 120.799C126.572 120.797 126.699 120.934 126.701 121.105Z" fill="#191919"/>
<path fill-rule="evenodd" clip-rule="evenodd" d="M129.646 132.303C129.795 132.248 129.96 132.325 130.014 132.475C131.514 136.613 133.461 139.626 135.837 141.547C138.208 143.462 141.027 144.307 144.313 144.073C144.471 144.062 144.608 144.182 144.619 144.342C144.63 144.501 144.511 144.64 144.353 144.651C140.936 144.894 137.971 144.013 135.479 141.999C132.993 139.991 130.997 136.872 129.476 132.675C129.421 132.524 129.498 132.358 129.646 132.303Z" fill="#191919"/>
<path fill-rule="evenodd" clip-rule="evenodd" d="M123.246 153.044C120.705 150.722 118.799 147.545 117.512 143.534L118.258 143.312C119.515 147.232 121.362 150.286 123.783 152.499C126.2 154.707 129.209 156.094 132.826 156.652C138.393 157.295 142.486 155.898 145.206 152.533C147.063 149.406 147.788 146.483 147.425 143.751L148.199 143.656C148.589 146.597 147.797 149.693 145.869 152.929L145.856 152.952L145.839 152.973C142.908 156.615 138.504 158.066 132.726 157.397L132.718 157.396L132.711 157.395C128.95 156.816 125.79 155.368 123.246 153.044Z" fill="#ADE0FF"/>
<path fill-rule="evenodd" clip-rule="evenodd" d="M109.701 258.908C116.117 251.407 122.576 245.342 129.078 240.717L129.42 241.195C128.943 241.533 128.467 241.88 127.992 242.234C129.413 243.816 130.821 245.08 132.214 246.031L131.882 246.516C130.431 245.525 128.977 244.214 127.52 242.588C126.697 243.21 125.875 243.855 125.054 244.523C127.34 246.34 128.866 247.827 129.594 248.981L129.096 249.294C128.415 248.214 126.925 246.752 124.589 244.904C123.702 245.635 122.817 246.393 121.932 247.179C123.942 248.401 125.631 249.854 126.996 251.538L126.538 251.907C125.186 250.238 123.499 248.798 121.473 247.588C120.628 248.347 119.784 249.13 118.941 249.939C120.29 251.364 121.931 252.637 123.866 253.758L123.57 254.266C121.595 253.122 119.91 251.816 118.517 250.347C117.677 251.161 116.837 251.999 115.997 252.863C118.009 254.344 119.809 255.619 121.395 256.69L121.065 257.176C119.454 256.089 117.627 254.793 115.585 253.289C114.753 254.153 113.922 255.041 113.091 255.953C115.435 257.294 117.312 258.32 118.723 259.031L118.457 259.555C117.011 258.826 115.087 257.773 112.687 256.399C111.84 257.337 110.994 258.3 110.148 259.289L109.701 258.908Z" fill="#ADE0FF"/>
<path fill-rule="evenodd" clip-rule="evenodd" d="M170.05 169.052C170.258 169.099 170.388 169.306 170.34 169.513C168.057 179.441 166.499 189.963 165.667 201.079C165.652 201.292 165.466 201.451 165.254 201.435C165.042 201.419 164.882 201.234 164.898 201.022C165.733 189.87 167.296 179.31 169.588 169.341C169.636 169.133 169.843 169.004 170.05 169.052ZM105.072 186.751C105.273 186.824 105.376 187.045 105.303 187.245C101.526 197.59 98.1703 207.307 95.2349 216.399C107.997 224.805 120.786 234.06 133.602 244.164C133.769 244.296 133.798 244.538 133.666 244.705C133.534 244.872 133.291 244.901 133.124 244.769C120.274 234.638 107.452 225.362 94.6583 216.942C90.7723 216.869 85.8704 218.272 79.9341 221.203C79.7432 221.297 79.5119 221.219 79.4175 221.028C79.3231 220.838 79.4014 220.607 79.5923 220.512C85.4881 217.601 90.4627 216.137 94.4985 216.169C97.4379 207.065 100.798 197.336 104.578 186.981C104.651 186.781 104.872 186.678 105.072 186.751Z" fill="#191919"/>
<path fill-rule="evenodd" clip-rule="evenodd" d="M137.135 256.834C137.221 256.772 137.341 256.792 137.403 256.878C139.676 260.032 141.313 262.763 142.307 265.07C142.349 265.167 142.304 265.28 142.207 265.322C142.109 265.364 141.996 265.319 141.954 265.222C140.975 262.95 139.356 260.244 137.091 257.102C137.029 257.016 137.049 256.896 137.135 256.834ZM133.696 258.652C133.782 258.59 133.902 258.61 133.964 258.696C137.933 264.249 140.045 268.737 140.248 272.145C140.254 272.251 140.174 272.342 140.068 272.348C139.962 272.354 139.871 272.274 139.865 272.168C139.668 268.874 137.614 264.463 133.651 258.919C133.589 258.833 133.609 258.713 133.696 258.652ZM129.582 261.341C129.661 261.271 129.782 261.277 129.853 261.356C132.611 264.432 134.582 266.98 135.757 268.996C136.345 270.004 136.738 270.888 136.93 271.643C137.121 272.398 137.116 273.045 136.879 273.563C136.835 273.66 136.721 273.702 136.625 273.658C136.528 273.614 136.486 273.501 136.53 273.404C136.716 272.995 136.737 272.447 136.557 271.738C136.378 271.03 136.003 270.181 135.425 269.189C134.269 267.206 132.319 264.681 129.567 261.612C129.496 261.533 129.503 261.412 129.582 261.341ZM124.925 263.263C125.002 263.191 125.124 263.195 125.196 263.272C127.542 265.779 129.338 267.888 130.581 269.597C131.818 271.298 132.528 272.631 132.665 273.579C132.68 273.683 132.607 273.781 132.502 273.796C132.397 273.811 132.299 273.738 132.284 273.633C132.162 272.788 131.507 271.523 130.27 269.823C129.041 268.131 127.257 266.035 124.916 263.534C124.843 263.457 124.847 263.335 124.925 263.263Z" fill="#191919"/>
<path fill-rule="evenodd" clip-rule="evenodd" d="M106.362 278.165C106.398 278.005 106.555 277.904 106.713 277.94C113.714 279.527 118.704 280.647 121.685 281.299C124.084 281.082 126.158 280.904 127.907 280.763C128.068 280.75 128.21 280.872 128.223 281.036C128.236 281.199 128.115 281.343 127.953 281.356C126.196 281.497 124.11 281.677 121.695 281.895C121.693 281.895 121.691 281.895 121.689 281.895C116.348 282.377 109.396 283.047 100.835 283.904C100.674 283.92 100.53 283.801 100.514 283.638C100.498 283.474 100.616 283.329 100.777 283.313C108.355 282.554 114.673 281.942 119.731 281.477C116.692 280.804 112.31 279.818 106.585 278.52C106.426 278.484 106.326 278.325 106.362 278.165Z" fill="#B0B0B0"/>
<path fill-rule="evenodd" clip-rule="evenodd" d="M141.044 275.34C142.948 271.015 145.805 264.528 149.614 255.879L150.133 256.12C146.325 264.769 143.468 271.256 141.564 275.581L138.707 282.068L138.707 282.068C138.707 282.068 138.707 282.068 138.447 281.947C138.187 281.827 138.187 281.827 138.188 281.827L138.188 281.826L141.044 275.34Z" fill="#454545"/>
<path fill-rule="evenodd" clip-rule="evenodd" d="M222.838 227.399C222.995 227.366 223.148 227.467 223.181 227.623C223.213 227.779 223.113 227.932 222.956 227.964L222.897 227.682L222.838 227.399ZM161.77 240.633L222.956 227.964C222.956 227.964 222.956 227.964 222.897 227.682C222.838 227.399 222.838 227.399 222.838 227.399L161.359 240.128L161.299 240.265L161.565 240.381C161.299 240.265 161.299 240.265 161.299 240.265L161.295 240.275C161.292 240.282 161.287 240.293 161.281 240.307C161.268 240.336 161.249 240.378 161.224 240.435C161.174 240.549 161.098 240.72 160.996 240.948C160.793 241.405 160.487 242.092 160.074 243.009C159.249 244.844 157.999 247.604 156.3 251.302C152.901 258.699 147.704 269.852 140.513 284.871C140.444 285.015 140.505 285.187 140.65 285.256C140.794 285.325 140.967 285.264 141.036 285.12C148.228 270.098 153.426 258.943 156.827 251.543C158.527 247.843 159.778 245.082 160.603 243.245C161.016 242.327 161.323 241.64 161.526 241.183C161.628 240.954 161.704 240.782 161.754 240.668C161.76 240.656 161.765 240.644 161.77 240.633Z" fill="#F6F6F6"/>
<path fill-rule="evenodd" clip-rule="evenodd" d="M125.381 127.977C122.595 124.867 118.178 122.727 122.24 117.057C125.227 114.293 129.879 118.42 130.886 120.524L134.436 109.081C136.625 109.652 139.953 112.119 142.782 111.597C146.979 110.823 141.374 109.17 147.262 110.202C154.846 111.532 149.477 108.923 153.476 108.245C156.463 107.77 173.289 110.512 167.961 102.335C167.076 100.977 166.472 100.745 165.455 99.2376C170.819 96.421 170.95 93.3755 164.651 92.8556C167.331 87.8297 167.769 85.9053 159.869 86.4205C151.53 86.9643 130.303 92.305 124.769 95.5607C111.539 103.346 115.732 120.709 122.639 131.362C125.11 135.173 126.217 138.493 125.381 127.977Z" fill="#454545"/>
<path fill-rule="evenodd" clip-rule="evenodd" d="M161.8 107.934C161.96 107.94 162.084 108.074 162.078 108.234C161.627 120.454 159.67 129.64 156.177 135.757L156.177 135.757C154.888 138.014 153.388 139.858 151.673 141.281C151.551 141.383 151.368 141.366 151.266 141.243C151.164 141.121 151.181 140.938 151.304 140.836C152.956 139.465 154.415 137.678 155.675 135.47C159.099 129.474 161.05 120.399 161.501 108.212C161.507 108.053 161.641 107.928 161.8 107.934ZM124.229 132.519C124.389 132.517 124.52 132.644 124.522 132.804L124.632 141.641C124.634 141.801 124.506 141.932 124.347 141.934C124.187 141.936 124.056 141.808 124.054 141.648L123.944 132.811C123.942 132.651 124.07 132.521 124.229 132.519Z" fill="#454545"/>
<path d="M225.111 128.618C218.147 122.094 219.668 109.186 228.508 99.7873C237.348 90.3883 250.16 88.0573 257.124 94.581C264.088 101.105 262.567 114.013 253.727 123.412C244.887 132.811 232.075 135.142 225.111 128.618Z" fill="#3B73C5"/>
<path fill-rule="evenodd" clip-rule="evenodd" d="M261.162 107.896C260.553 113.069 257.983 118.609 253.588 123.282C249.193 127.954 243.815 130.865 238.681 131.799C233.546 132.733 228.669 131.69 225.241 128.479C221.814 125.268 220.462 120.476 221.072 115.303C221.682 110.13 224.252 104.59 228.647 99.9175C233.042 95.2446 238.419 92.3344 243.553 91.4003C248.688 90.4661 253.566 91.5088 256.993 94.7197C260.421 97.9306 261.772 102.723 261.162 107.896ZM261.541 107.94C262.161 102.679 260.791 97.7551 257.254 94.4423C253.718 91.1295 248.708 90.0759 243.485 91.026C238.263 91.9762 232.814 94.931 228.369 99.6572C223.924 104.383 221.313 109.997 220.693 115.259C220.073 120.52 221.444 125.444 224.98 128.757C228.517 132.069 233.527 133.123 238.749 132.173C243.972 131.223 249.42 128.268 253.865 123.542C258.311 118.816 260.921 113.202 261.541 107.94Z" fill="#3B73C5"/>
<path fill-rule="evenodd" clip-rule="evenodd" d="M257.395 94.6252C254.532 91.9577 250.683 90.7745 246.528 90.9514C249.847 91.1008 252.885 92.2265 255.224 94.4056C261.796 100.529 260.36 112.644 252.018 121.466C243.675 130.289 231.585 132.476 225.013 126.353C222.415 123.933 221.07 120.576 220.906 116.856C220.715 121.457 222.135 125.668 225.274 128.593C232.261 135.104 245.116 132.778 253.986 123.397C262.856 114.017 264.383 101.136 257.395 94.6252Z" fill="#FEFEFE"/>
<path fill-rule="evenodd" clip-rule="evenodd" d="M246.299 90.9516C250.504 90.7726 254.413 91.9698 257.326 94.6839C260.882 97.9966 262.26 102.92 261.636 108.181C261.013 113.442 258.389 119.055 253.92 123.78C249.452 128.506 243.975 131.46 238.725 132.41C233.476 133.36 228.439 132.307 224.884 128.994C221.69 126.018 220.254 121.741 220.447 117.087C220.452 116.984 220.537 116.903 220.641 116.903C220.744 116.903 220.83 116.984 220.834 117.087C220.996 120.772 222.328 124.084 224.887 126.469C228.124 129.485 232.73 130.465 237.581 129.587C242.432 128.709 247.513 125.974 251.666 121.582C255.82 117.19 258.248 111.984 258.824 107.123C259.4 102.262 258.123 97.7606 254.887 94.745C252.582 92.5978 249.585 91.4843 246.299 91.3364C246.195 91.3317 246.114 91.2468 246.114 91.1438C246.114 91.0407 246.196 90.956 246.299 90.9516ZM250.028 91.5638C251.938 92.1329 253.68 93.0927 255.151 94.4639C258.498 97.5826 259.795 102.217 259.208 107.168C258.622 112.119 256.153 117.4 251.948 121.846C247.744 126.292 242.591 129.072 237.651 129.966C232.71 130.86 227.969 129.869 224.622 126.75C222.905 125.15 221.728 123.15 221.068 120.913C221.592 123.951 222.941 126.657 225.149 128.713C228.593 131.923 233.495 132.965 238.656 132.031C243.817 131.097 249.221 128.188 253.638 123.516C258.056 118.845 260.639 113.307 261.252 108.136C261.864 102.965 260.506 98.1746 257.062 94.965C255.111 93.1478 252.694 92.026 250.028 91.5638Z" fill="#3B73C5"/>
<path fill-rule="evenodd" clip-rule="evenodd" d="M235.671 111.15C233.18 109.301 230.721 107.41 228.297 105.478C228.297 105.478 228.062 106.466 227.592 108.441C227.592 108.441 227.502 106.821 227.322 103.581C230.422 103.114 231.972 102.88 231.972 102.88C230.096 103.703 229.158 104.114 229.158 104.114C234.06 107.851 236.511 109.72 236.511 109.72C236.051 110.072 235.749 110.585 235.671 111.15Z" fill="#FEFEFE"/>
<path fill-rule="evenodd" clip-rule="evenodd" d="M240.327 112.211C240.327 112.211 244.415 112.877 252.592 114.21C252.592 114.21 248.435 113.739 240.122 112.798C239.989 113.086 239.81 113.338 239.577 113.553C238.725 114.339 237.398 114.63 236.645 114.091C235.891 113.535 235.891 112.193 236.443 111.243C236.995 110.293 238.023 109.712 239.13 109.724C239.13 109.724 242.02 105.545 247.799 97.1878C246.704 97.0079 245.303 97.1786 243.595 97.6998C243.595 97.6998 246.03 96.5165 250.9 94.1504C250.9 94.1504 250.997 96.3099 251.192 100.629C250.931 98.9842 250.332 97.8668 249.394 97.276C249.394 97.276 246.288 101.657 240.077 110.42C240.397 110.748 240.506 111.475 240.327 112.211ZM238.786 111.342C238.462 111.101 237.944 111.242 237.628 111.657C237.313 112.072 237.32 112.605 237.644 112.846C237.968 113.088 238.486 112.947 238.802 112.531C239.117 112.116 239.11 111.584 238.786 111.342Z" fill="#FEFEFE"/>
<path fill-rule="evenodd" clip-rule="evenodd" d="M234.215 253.677L286.043 237.041L327.905 260.996L275.794 275.204L234.215 253.677ZM234.215 253.677L275.794 275.204L327.905 260.996C327.889 262.322 328.092 264.049 327.693 265.334L327.804 269.443L274.556 284.365L233.754 262.589L234.215 253.677Z" fill="#FEFEFE"/>
<path fill-rule="evenodd" clip-rule="evenodd" d="M285.974 237.055C286.051 237.03 286.135 237.039 286.205 237.079L328.218 260.742C328.31 260.794 328.366 260.891 328.365 260.996C328.361 261.316 328.371 261.663 328.381 262.028L328.383 262.074C328.393 262.423 328.403 262.787 328.403 263.151C328.402 263.889 328.355 264.651 328.153 265.317L328.263 269.329C328.266 269.461 328.179 269.579 328.051 269.614L274.611 284.355C274.54 284.374 274.464 284.366 274.398 284.332L233.45 262.821C233.35 262.768 233.29 262.663 233.296 262.551L233.758 253.747C233.764 253.627 233.844 253.524 233.959 253.488L285.974 237.055ZM234.312 254.221L275.644 275.283C275.709 275.316 275.783 275.324 275.852 275.305L327.787 261.368C327.79 261.588 327.796 261.815 327.803 262.044L327.804 262.088C327.814 262.439 327.825 262.795 327.824 263.15C327.823 263.892 327.773 264.6 327.587 265.192C327.577 265.222 327.573 265.254 327.574 265.286L327.678 269.12L274.567 283.77L233.883 262.398L234.312 254.221ZM327.32 260.897L275.809 274.721L234.804 253.825L286.029 237.641L327.32 260.897Z" fill="#191919"/>
<path fill-rule="evenodd" clip-rule="evenodd" d="M227.785 243.867L279.866 227.393L321.932 251.115L269.567 265.184L227.785 243.867ZM227.785 243.867L269.567 265.184L321.932 251.115C321.916 252.428 322.12 254.138 321.719 255.411L321.83 259.48L268.323 274.257L227.322 252.693L227.785 243.867Z" fill="#FEFEFE"/>
<path fill-rule="evenodd" clip-rule="evenodd" d="M280.001 226.947C280.078 226.922 280.161 226.931 280.232 226.971L322.245 250.864C322.337 250.916 322.393 251.014 322.392 251.12C322.388 251.444 322.397 251.794 322.408 252.162L322.409 252.209C322.42 252.561 322.43 252.929 322.43 253.296C322.428 254.042 322.382 254.811 322.18 255.484L322.29 259.535C322.293 259.668 322.206 259.787 322.078 259.823L268.638 274.706C268.567 274.726 268.491 274.718 268.425 274.683L227.476 252.963C227.377 252.91 227.317 252.804 227.323 252.691L227.785 243.801C227.791 243.68 227.871 243.576 227.986 243.54L280.001 226.947ZM228.339 244.279L269.671 265.546C269.735 265.579 269.809 265.587 269.879 265.568L321.814 251.496C321.817 251.718 321.823 251.948 321.83 252.179L321.831 252.224C321.841 252.578 321.851 252.938 321.851 253.295C321.85 254.045 321.8 254.76 321.614 255.357C321.604 255.388 321.6 255.42 321.6 255.452L321.705 259.324L268.594 274.116L227.91 252.536L228.339 244.279ZM321.347 251.021L269.836 264.979L228.831 243.88L280.056 227.539L321.347 251.021Z" fill="#191919"/>
<path fill-rule="evenodd" clip-rule="evenodd" d="M227.325 233.759L279.406 217.285L321.473 241.007L269.108 255.076L227.325 233.759ZM227.325 233.759L269.108 255.076L321.473 241.007C321.457 242.32 321.661 244.03 321.26 245.303L321.371 249.372L267.863 264.149L226.863 242.585L227.325 233.759Z" fill="#FEFEFE"/>
<path fill-rule="evenodd" clip-rule="evenodd" d="M279.287 217.298C279.364 217.274 279.447 217.283 279.517 217.322L321.327 240.985C321.418 241.037 321.474 241.134 321.473 241.239C321.469 241.56 321.479 241.906 321.489 242.271L321.491 242.317C321.501 242.666 321.511 243.031 321.511 243.394C321.51 244.133 321.463 244.894 321.263 245.561L321.371 249.573C321.375 249.705 321.288 249.822 321.161 249.858L267.979 264.598C267.908 264.618 267.832 264.61 267.767 264.575L227.016 243.064C226.917 243.012 226.857 242.907 226.863 242.795L227.323 233.991C227.329 233.871 227.409 233.768 227.523 233.731L279.287 217.298ZM227.875 234.464L269.007 255.527C269.071 255.559 269.145 255.567 269.214 255.548L320.898 241.611C320.901 241.831 320.907 242.059 320.914 242.288L320.915 242.332C320.925 242.683 320.935 243.039 320.935 243.393C320.934 244.135 320.884 244.844 320.699 245.435C320.689 245.466 320.685 245.497 320.686 245.529L320.79 249.364L267.935 264.013L227.448 242.641L227.875 234.464ZM320.433 241.141L269.171 254.964L228.364 234.068L279.342 217.884L320.433 241.141Z" fill="#191919"/>
<path fill-rule="evenodd" clip-rule="evenodd" d="M297.149 251.504C297.191 251.663 297.098 251.826 296.942 251.868L275.473 257.707C275.317 257.749 275.157 257.655 275.115 257.497C275.073 257.338 275.166 257.175 275.322 257.133L296.79 251.295C296.946 251.252 297.107 251.346 297.149 251.504Z" fill="#ADE0FF"/>
<path fill-rule="evenodd" clip-rule="evenodd" d="M311.852 257.477C311.893 257.636 311.802 257.799 311.65 257.841L290.628 263.679C290.476 263.722 290.318 263.628 290.277 263.469C290.236 263.311 290.327 263.148 290.48 263.106L311.501 257.267C311.654 257.225 311.811 257.319 311.852 257.477Z" fill="#ADE0FF"/>
<path fill-rule="evenodd" clip-rule="evenodd" d="M306.798 270.326C306.839 270.474 306.748 270.625 306.595 270.664L285.574 276.085C285.421 276.125 285.264 276.038 285.223 275.891C285.182 275.743 285.273 275.592 285.426 275.553L306.447 270.131C306.6 270.092 306.757 270.179 306.798 270.326Z" fill="#ADE0FF"/>
<path fill-rule="evenodd" clip-rule="evenodd" d="M302.663 252.425C302.704 252.584 302.611 252.747 302.455 252.789L289.255 256.328C289.099 256.37 288.94 256.275 288.899 256.116C288.858 255.957 288.951 255.795 289.107 255.753L302.307 252.213C302.463 252.171 302.622 252.266 302.663 252.425Z" fill="#ADE0FF"/>
<path fill-rule="evenodd" clip-rule="evenodd" d="M302.204 262.533C302.245 262.692 302.152 262.855 301.996 262.897L288.795 266.437C288.64 266.478 288.48 266.383 288.439 266.224C288.398 266.065 288.491 265.903 288.647 265.861L301.848 262.321C302.003 262.279 302.163 262.374 302.204 262.533Z" fill="#ADE0FF"/>
<path fill-rule="evenodd" clip-rule="evenodd" d="M303.122 273.56C303.163 273.719 303.07 273.882 302.914 273.924L289.714 277.463C289.558 277.505 289.399 277.41 289.358 277.251C289.317 277.092 289.41 276.93 289.566 276.888L302.766 273.348C302.922 273.306 303.081 273.401 303.122 273.56Z" fill="#ADE0FF"/>
<path fill-rule="evenodd" clip-rule="evenodd" d="M230.572 238.572C230.647 238.432 230.822 238.379 230.963 238.453L254.277 250.744C254.418 250.818 254.471 250.992 254.396 251.132C254.322 251.272 254.146 251.325 254.005 251.251L230.692 238.96C230.551 238.886 230.498 238.712 230.572 238.572Z" fill="#ADE0FF"/>
<path fill-rule="evenodd" clip-rule="evenodd" d="M240.68 255.572C240.755 255.432 240.93 255.379 241.071 255.453L264.385 267.744C264.526 267.818 264.579 267.992 264.504 268.132C264.429 268.272 264.254 268.325 264.113 268.251L240.8 255.96C240.659 255.886 240.605 255.712 240.68 255.572Z" fill="#ADE0FF"/>
<path fill-rule="evenodd" clip-rule="evenodd" d="M237.005 261.545C237.079 261.405 237.255 261.352 237.396 261.426L260.709 273.717C260.85 273.791 260.903 273.965 260.829 274.105C260.754 274.245 260.579 274.298 260.438 274.224L237.124 261.933C236.983 261.859 236.93 261.685 237.005 261.545Z" fill="#ADE0FF"/>
<path fill-rule="evenodd" clip-rule="evenodd" d="M232.87 241.791C232.946 241.648 233.123 241.594 233.266 241.67L246.004 248.437C246.147 248.513 246.201 248.69 246.125 248.832C246.049 248.975 245.872 249.029 245.729 248.953L232.991 242.186C232.848 242.11 232.794 241.933 232.87 241.791Z" fill="#ADE0FF"/>
<path fill-rule="evenodd" clip-rule="evenodd" d="M232.409 252.348C232.483 252.215 232.654 252.164 232.792 252.235L245.091 258.579C245.229 258.65 245.281 258.816 245.207 258.95C245.134 259.083 244.963 259.134 244.825 259.063L232.526 252.719C232.388 252.648 232.336 252.482 232.409 252.348Z" fill="#ADE0FF"/>
<path fill-rule="evenodd" clip-rule="evenodd" d="M253.556 240.38C253.643 240.257 253.823 240.22 253.96 240.298L260.266 243.905C260.403 243.983 260.444 244.146 260.357 244.27C260.271 244.393 260.09 244.43 259.953 244.351L253.647 240.745C253.51 240.667 253.47 240.504 253.556 240.38Z" fill="#191919"/>
<path fill-rule="evenodd" clip-rule="evenodd" d="M254.471 236.259C254.554 236.126 254.732 236.082 254.87 236.162L268.991 244.329C269.129 244.409 269.174 244.581 269.092 244.715C269.009 244.848 268.831 244.892 268.693 244.812L254.572 236.645C254.434 236.566 254.389 236.393 254.471 236.259Z" fill="#191919"/>
<path fill-rule="evenodd" clip-rule="evenodd" d="M262.744 233.502C262.828 233.366 263.004 233.325 263.137 233.41L275.891 241.558C276.024 241.643 276.065 241.823 275.981 241.959C275.897 242.095 275.721 242.136 275.587 242.051L262.834 233.903C262.7 233.818 262.66 233.638 262.744 233.502Z" fill="#2E4C7A"/>
<path fill-rule="evenodd" clip-rule="evenodd" d="M263.663 228.904C263.749 228.771 263.928 228.731 264.063 228.815L285.997 242.487C286.132 242.571 286.173 242.748 286.087 242.881C286.002 243.014 285.823 243.054 285.688 242.97L263.754 229.298C263.618 229.214 263.578 229.038 263.663 228.904Z" fill="#2E4C7A"/>
<path fill-rule="evenodd" clip-rule="evenodd" d="M278.964 222.339L273.268 224.077L302.161 240.717L308.187 239.144L278.964 222.339Z" fill="#2E4C7A"/>
<path fill-rule="evenodd" clip-rule="evenodd" d="M278.765 222.351C278.841 222.328 278.924 222.337 278.994 222.377L308.5 239.078C308.602 239.136 308.659 239.25 308.643 239.365C308.627 239.48 308.543 239.575 308.429 239.604L302.344 241.167C302.271 241.186 302.192 241.176 302.127 241.138L272.954 224.601C272.853 224.544 272.797 224.434 272.81 224.32C272.823 224.207 272.903 224.112 273.014 224.079L278.765 222.351ZM273.824 224.434L302.313 240.583L307.595 239.226L278.814 222.935L273.824 224.434Z" fill="#2E4C7A"/>
<path fill-rule="evenodd" clip-rule="evenodd" d="M267.664 259.321C268.156 258.476 268.468 257.186 268.573 255.419L269.133 255.452C269.026 257.244 268.709 258.631 268.157 259.585C268.021 259.879 267.921 260.392 267.879 261.156C267.836 261.92 267.852 262.906 267.928 264.115L267.368 264.149C267.292 262.929 267.275 261.92 267.319 261.126C267.362 260.341 267.467 259.735 267.653 259.342L267.658 259.331L267.664 259.321Z" fill="#191919"/>
<path fill-rule="evenodd" clip-rule="evenodd" d="M268.552 270.715C268.344 269.515 268.674 267.618 269.485 265.068L270.051 265.236C269.238 267.794 268.952 269.577 269.138 270.63L269.14 270.64L269.141 270.651C269.269 271.952 269.15 273.156 268.777 274.257L268.213 274.079C268.557 273.065 268.672 271.946 268.552 270.715Z" fill="#191919"/>
<path fill-rule="evenodd" clip-rule="evenodd" d="M274.417 284.365C273.89 280.644 274.263 277.571 275.575 275.176L276.024 275.47C274.795 277.714 274.419 280.639 274.934 284.278L274.417 284.365Z" fill="#191919"/>
<path fill-rule="evenodd" clip-rule="evenodd" d="M95.9129 125.857C101.944 122.257 105.508 116.949 104.467 111.953C102.948 104.663 92.3349 100.713 80.7619 103.132C69.1896 105.551 61.0397 113.422 62.5592 120.713C64.0784 128.003 74.6915 131.952 86.2638 129.534C87.7485 129.224 89.1199 128.843 90.479 128.366L95.8831 134.123L95.9129 125.857Z" fill="#335A9A"/>
<path fill-rule="evenodd" clip-rule="evenodd" d="M96.2199 103.455C100.552 105.065 103.677 107.924 104.462 111.688C105.529 116.808 101.906 122.153 95.9364 125.762L95.9073 133.836C95.9068 133.954 95.8346 134.06 95.7249 134.103C95.6152 134.146 95.4903 134.118 95.4095 134.032L90.1483 128.432C88.8384 128.883 87.5135 129.246 86.0855 129.544L86.0267 129.262L86.0855 129.544C86.0855 129.544 86.0855 129.544 86.0855 129.544C80.2707 130.759 74.6837 130.378 70.3476 128.766C66.0157 127.155 62.8909 124.296 62.106 120.533L62.3879 120.474L62.106 120.533C61.321 116.769 63.0419 112.898 66.3684 109.688C69.6981 106.475 74.6665 103.89 80.4813 102.676L80.5401 102.958L80.4813 102.676C86.2965 101.462 91.8837 101.842 96.2199 103.455ZM96.0193 103.995C91.7998 102.426 86.3247 102.044 80.599 103.24C74.8736 104.436 70.0083 106.977 66.7681 110.103C63.5247 113.233 61.9396 116.915 62.6698 120.415L62.388 120.474L62.6698 120.415C63.3998 123.915 66.3244 126.655 70.5481 128.225C74.7676 129.794 80.2425 130.176 85.9679 128.98L85.9679 128.98C87.4366 128.674 88.7921 128.298 90.135 127.827C90.2425 127.789 90.3621 127.819 90.44 127.902L95.334 133.111L95.3611 125.598C95.3615 125.497 95.4148 125.403 95.5016 125.351C101.477 121.788 104.898 116.601 103.898 111.805C103.168 108.305 100.243 105.565 96.0193 103.995Z" fill="#335A9A"/>
<path d="M84.8465 120.33C84.5251 120.061 84.4877 119.588 84.7626 119.274C85.0375 118.96 85.5213 118.924 85.8427 119.192L90.5958 123.157C90.9172 123.426 90.9546 123.899 90.6797 124.213C90.4048 124.527 89.921 124.563 89.5996 124.295L84.8465 120.33ZM84.7862 111.741C83.8067 110.89 82.4975 110.576 81.1724 110.758C79.8203 110.943 78.4517 111.642 77.3886 112.809L77.387 112.81C76.3239 113.978 75.7725 115.386 75.7407 116.719C75.7096 118.026 76.1798 119.261 77.1586 120.113C78.1373 120.963 79.4468 121.276 80.7721 121.095C82.1244 120.909 83.4931 120.211 84.556 119.044L84.5591 119.041C85.6211 117.874 86.1721 116.466 86.2038 115.134C86.2349 113.826 85.7647 112.591 84.7862 111.741ZM85.4281 111.045C86.623 112.086 87.1973 113.58 87.1601 115.152C87.1231 116.702 86.4912 118.329 85.2732 119.666L85.2663 119.673C84.0488 121.007 82.4705 121.807 80.9032 122.022C79.307 122.241 77.72 121.855 76.5214 120.813L76.5189 120.81C75.3224 119.768 74.7472 118.274 74.7844 116.7C74.8214 115.151 75.4538 113.523 76.6718 112.186L76.6752 112.183C77.8935 110.847 79.4731 110.046 81.0413 109.831C82.6375 109.612 84.2248 109.998 85.4231 111.04L85.4281 111.045Z" fill="#ADE0FF"/>
<path fill-rule="evenodd" clip-rule="evenodd" d="M146.19 200.925L174.44 195.787L164.141 229.808L136.495 235.918L146.19 200.925Z" fill="#FEFEFE"/>
<path d="M146.149 200.641L174.39 195.505C174.546 195.477 174.695 195.581 174.723 195.737C174.731 195.783 174.727 195.828 174.715 195.87L164.416 229.891C164.383 230.003 164.288 230.078 164.179 230.093L136.557 236.198C136.403 236.232 136.25 236.135 136.216 235.98C136.205 235.933 136.207 235.886 136.219 235.842L145.914 200.849C145.945 200.736 146.04 200.657 146.149 200.641ZM174.03 196.153L146.418 201.175L136.899 235.536L163.914 229.565L174.03 196.153Z" fill="#191919"/>
<path d="M149.085 207.079C148.927 207.07 148.807 206.933 148.816 206.775C148.826 206.617 148.963 206.497 149.121 206.506C151.097 206.634 151.728 206.454 152.356 206.275C152.992 206.093 153.627 205.912 155.431 206.006C155.44 206.007 155.504 205.979 155.633 205.936C156.188 205.751 157.424 205.341 159.324 205.361C160.117 205.369 160.396 205.19 160.713 204.985C161.263 204.628 161.915 204.207 164.556 204.303C164.598 204.305 164.724 204.246 164.897 204.165C165.365 203.946 166.107 203.598 167.309 203.598C167.468 203.598 167.597 203.727 167.597 203.886C167.597 204.044 167.468 204.173 167.309 204.173C166.231 204.173 165.561 204.487 165.14 204.684C164.894 204.799 164.715 204.883 164.536 204.876C162.076 204.787 161.506 205.154 161.025 205.465C160.629 205.721 160.283 205.944 159.32 205.934C157.514 205.915 156.34 206.305 155.813 206.48C155.62 206.544 155.498 206.584 155.402 206.579C153.695 206.49 153.105 206.658 152.513 206.827C151.839 207.02 151.16 207.214 149.085 207.079Z" fill="#191919"/>
<path d="M146.846 213.417C146.688 213.407 146.568 213.271 146.578 213.113C146.587 212.954 146.724 212.834 146.882 212.844C148.858 212.972 149.489 212.792 150.117 212.612C150.753 212.431 151.388 212.249 153.192 212.344C153.201 212.345 153.265 212.316 153.394 212.273C153.949 212.089 155.186 211.678 157.086 211.699C157.878 211.707 158.157 211.527 158.474 211.322C159.025 210.966 159.676 210.545 162.317 210.641C162.36 210.642 162.486 210.584 162.659 210.503C163.126 210.284 163.869 209.936 165.071 209.936C165.229 209.936 165.358 210.065 165.358 210.223C165.358 210.382 165.229 210.511 165.071 210.511C163.992 210.511 163.322 210.825 162.901 211.022C162.655 211.137 162.477 211.221 162.297 211.214C159.837 211.124 159.267 211.492 158.787 211.803C158.39 212.059 158.044 212.282 157.081 212.272C155.275 212.252 154.101 212.642 153.574 212.817C153.381 212.881 153.259 212.922 153.163 212.917C151.456 212.828 150.866 212.996 150.274 213.165C149.6 213.358 148.922 213.551 146.846 213.417Z" fill="#191919"/>
<path d="M144.608 219.755C144.449 219.745 144.329 219.608 144.339 219.45C144.349 219.292 144.485 219.172 144.643 219.182C146.62 219.309 147.251 219.129 147.879 218.95C148.515 218.769 149.149 218.587 150.953 218.682C150.962 218.682 151.026 218.654 151.155 218.611C151.71 218.427 152.947 218.016 154.847 218.036C155.639 218.045 155.918 217.865 156.235 217.66C156.786 217.303 157.438 216.882 160.079 216.979C160.121 216.98 160.247 216.921 160.42 216.84C160.887 216.622 161.63 216.273 162.832 216.273C162.991 216.273 163.119 216.402 163.119 216.561C163.119 216.72 162.991 216.849 162.832 216.849C161.753 216.849 161.084 217.162 160.663 217.359C160.417 217.475 160.238 217.558 160.058 217.552C157.598 217.462 157.029 217.83 156.548 218.141C156.151 218.396 155.805 218.62 154.842 218.609C153.036 218.59 151.862 218.98 151.335 219.155C151.143 219.219 151.02 219.26 150.924 219.255C149.217 219.165 148.627 219.334 148.036 219.503C147.361 219.695 146.683 219.889 144.608 219.755Z" fill="#191919"/>
<path d="M143.362 226.191C143.204 226.182 143.084 226.045 143.093 225.887C143.103 225.729 143.24 225.609 143.398 225.618C145.374 225.746 146.005 225.566 146.633 225.387C147.269 225.205 147.904 225.024 149.708 225.119C149.717 225.119 149.781 225.091 149.91 225.048C150.465 224.864 151.701 224.453 153.601 224.473C153.759 224.474 153.886 224.604 153.885 224.762C153.884 224.92 153.755 225.047 153.597 225.046C151.791 225.027 150.616 225.417 150.089 225.592C149.897 225.656 149.774 225.697 149.679 225.692C147.972 225.602 147.382 225.771 146.79 225.939C146.115 226.132 145.437 226.326 143.362 226.191Z" fill="#191919"/>
<path fill-rule="evenodd" clip-rule="evenodd" d="M176.261 174.741L204.512 169.602L194.212 203.624L166.566 209.734L176.261 174.741Z" fill="#FEFEFE"/>
<path d="M176.221 174.457L204.461 169.32C204.617 169.293 204.766 169.396 204.794 169.552C204.802 169.598 204.799 169.643 204.786 169.685L194.487 203.707C194.454 203.818 194.359 203.894 194.251 203.909L166.629 210.013C166.474 210.047 166.321 209.95 166.287 209.796C166.277 209.748 166.279 209.701 166.291 209.657L175.985 174.664C176.016 174.551 176.112 174.473 176.221 174.457ZM204.101 169.968L176.49 174.99L166.97 209.351L193.985 203.38L204.101 169.968Z" fill="#191919"/>
<path d="M179.156 180.895C178.998 180.885 178.878 180.748 178.888 180.59C178.897 180.432 179.034 180.312 179.192 180.322C181.168 180.449 181.799 180.269 182.427 180.09C183.064 179.908 183.698 179.727 185.502 179.822C185.511 179.822 185.575 179.794 185.704 179.751C186.259 179.567 187.496 179.156 189.396 179.176C190.188 179.185 190.467 179.005 190.784 178.8C191.335 178.443 191.986 178.022 194.627 178.119C194.67 178.12 194.796 178.061 194.969 177.98C195.436 177.762 196.179 177.413 197.381 177.413C197.539 177.413 197.668 177.542 197.668 177.701C197.668 177.86 197.539 177.989 197.381 177.989C196.302 177.989 195.632 178.302 195.211 178.499C194.966 178.615 194.787 178.698 194.607 178.692C192.147 178.602 191.577 178.97 191.097 179.28C190.7 179.536 190.354 179.76 189.391 179.749C187.585 179.73 186.411 180.12 185.884 180.295C185.692 180.359 185.569 180.4 185.473 180.395C183.766 180.305 183.176 180.474 182.585 180.642C181.91 180.835 181.232 181.029 179.156 180.895Z" fill="#191919"/>
<path d="M176.918 187.232C176.76 187.223 176.64 187.086 176.649 186.928C176.659 186.77 176.796 186.65 176.954 186.659C178.93 186.787 179.561 186.607 180.189 186.428C180.825 186.246 181.46 186.065 183.264 186.159C183.273 186.16 183.337 186.132 183.466 186.089C184.021 185.904 185.257 185.494 187.157 185.514C187.95 185.522 188.229 185.343 188.546 185.138C189.096 184.781 189.748 184.36 192.389 184.456C192.431 184.458 192.557 184.399 192.73 184.318C193.198 184.099 193.94 183.751 195.142 183.751C195.301 183.751 195.43 183.88 195.43 184.039C195.43 184.197 195.301 184.326 195.142 184.326C194.064 184.326 193.394 184.64 192.973 184.837C192.727 184.952 192.548 185.036 192.369 185.029C189.909 184.94 189.339 185.307 188.858 185.618C188.462 185.874 188.116 186.097 187.153 186.087C185.347 186.068 184.173 186.458 183.646 186.633C183.453 186.697 183.331 186.737 183.235 186.732C181.528 186.643 180.938 186.811 180.346 186.98C179.672 187.173 178.994 187.367 176.918 187.232Z" fill="#191919"/>
<path d="M174.678 193.57C174.52 193.56 174.4 193.424 174.41 193.266C174.419 193.107 174.556 192.987 174.714 192.997C176.69 193.125 177.321 192.945 177.949 192.765C178.585 192.584 179.22 192.402 181.024 192.497C181.033 192.498 181.097 192.469 181.226 192.426C181.781 192.242 183.018 191.831 184.918 191.852C185.71 191.86 185.989 191.68 186.306 191.475C186.857 191.119 187.508 190.698 190.149 190.794C190.192 190.795 190.318 190.737 190.491 190.656C190.958 190.437 191.701 190.089 192.903 190.089C193.061 190.089 193.19 190.218 193.19 190.376C193.19 190.535 193.061 190.664 192.903 190.664C191.824 190.664 191.154 190.978 190.733 191.175C190.487 191.29 190.309 191.374 190.129 191.367C187.669 191.277 187.099 191.645 186.619 191.956C186.222 192.212 185.876 192.435 184.913 192.425C183.107 192.405 181.933 192.795 181.406 192.97C181.214 193.034 181.091 193.075 180.995 193.07C179.288 192.981 178.698 193.149 178.106 193.318C177.432 193.511 176.754 193.704 174.678 193.57Z" fill="#191919"/>
<path d="M173.433 200.007C173.275 199.997 173.155 199.86 173.165 199.702C173.174 199.544 173.311 199.424 173.469 199.434C175.445 199.561 176.076 199.381 176.704 199.202C177.34 199.021 177.975 198.839 179.779 198.934C179.788 198.934 179.852 198.906 179.981 198.863C180.536 198.679 181.773 198.268 183.672 198.288C183.83 198.29 183.958 198.419 183.957 198.577C183.956 198.735 183.826 198.863 183.668 198.861C181.862 198.842 180.688 199.232 180.161 199.407C179.968 199.471 179.846 199.512 179.75 199.507C178.043 199.417 177.453 199.586 176.861 199.755C176.187 199.947 175.509 200.141 173.433 200.007Z" fill="#191919"/>
<path fill-rule="evenodd" clip-rule="evenodd" d="M188.213 187.777L216.463 182.639L206.164 216.66L178.518 222.77L188.213 187.777Z" fill="#FEFEFE"/>
<path d="M188.172 187.493L216.413 182.357C216.568 182.329 216.717 182.433 216.745 182.589C216.753 182.634 216.75 182.68 216.737 182.722L206.439 216.743C206.405 216.855 206.31 216.93 206.202 216.945L178.58 223.05C178.425 223.084 178.272 222.987 178.238 222.832C178.228 222.785 178.23 222.738 178.242 222.694L187.936 187.701C187.968 187.588 188.063 187.509 188.172 187.493ZM216.052 183.005L188.441 188.027L178.921 222.388L205.937 216.417L216.052 183.005Z" fill="#191919"/>
<path d="M191.109 193.931C190.95 193.921 190.83 193.785 190.84 193.627C190.85 193.469 190.986 193.348 191.144 193.358C193.121 193.486 193.751 193.306 194.38 193.126C195.016 192.945 195.65 192.764 197.454 192.858C197.463 192.859 197.527 192.83 197.656 192.788C198.211 192.603 199.448 192.192 201.348 192.213C202.14 192.221 202.419 192.042 202.736 191.836C203.287 191.48 203.939 191.059 206.58 191.155C206.622 191.157 206.748 191.098 206.921 191.017C207.388 190.798 208.131 190.45 209.333 190.45C209.492 190.45 209.62 190.579 209.62 190.738C209.62 190.896 209.492 191.025 209.333 191.025C208.254 191.025 207.585 191.339 207.164 191.536C206.918 191.651 206.739 191.735 206.559 191.728C204.099 191.639 203.53 192.006 203.049 192.317C202.652 192.573 202.306 192.796 201.343 192.786C199.537 192.767 198.363 193.157 197.836 193.332C197.644 193.396 197.521 193.436 197.425 193.431C195.718 193.342 195.128 193.51 194.537 193.679C193.862 193.872 193.184 194.065 191.109 193.931Z" fill="#191919"/>
<path d="M188.869 200.269C188.711 200.259 188.591 200.123 188.601 199.964C188.61 199.806 188.747 199.686 188.905 199.696C190.881 199.824 191.512 199.644 192.14 199.464C192.776 199.283 193.411 199.101 195.215 199.196C195.224 199.196 195.288 199.168 195.417 199.125C195.972 198.941 197.209 198.53 199.108 198.551C199.901 198.559 200.18 198.379 200.497 198.174C201.048 197.818 201.699 197.397 204.34 197.493C204.383 197.494 204.509 197.436 204.682 197.355C205.149 197.136 205.892 196.788 207.094 196.788C207.252 196.788 207.381 196.917 207.381 197.075C207.381 197.234 207.252 197.363 207.094 197.363C206.015 197.363 205.345 197.677 204.924 197.874C204.678 197.989 204.499 198.073 204.32 198.066C201.86 197.976 201.29 198.344 200.81 198.655C200.413 198.91 200.067 199.134 199.104 199.124C197.298 199.104 196.124 199.494 195.597 199.669C195.404 199.733 195.282 199.774 195.186 199.769C193.479 199.68 192.889 199.848 192.297 200.017C191.623 200.21 190.945 200.403 188.869 200.269Z" fill="#191919"/>
<path d="M186.63 206.607C186.472 206.597 186.352 206.46 186.362 206.302C186.372 206.144 186.508 206.024 186.666 206.034C188.642 206.161 189.273 205.981 189.901 205.802C190.538 205.62 191.172 205.439 192.976 205.534C192.985 205.534 193.049 205.506 193.178 205.463C193.733 205.279 194.97 204.868 196.87 204.888C197.662 204.897 197.941 204.717 198.258 204.512C198.809 204.155 199.461 203.734 202.102 203.831C202.144 203.832 202.27 203.773 202.443 203.692C202.91 203.473 203.653 203.125 204.855 203.125C205.014 203.125 205.142 203.254 205.142 203.413C205.142 203.572 205.014 203.701 204.855 203.701C203.776 203.701 203.107 204.014 202.686 204.211C202.44 204.327 202.261 204.41 202.081 204.404C199.621 204.314 199.052 204.682 198.571 204.992C198.174 205.248 197.828 205.472 196.865 205.461C195.059 205.442 193.885 205.832 193.358 206.007C193.166 206.071 193.043 206.112 192.947 206.107C191.24 206.017 190.65 206.186 190.059 206.355C189.384 206.547 188.706 206.741 186.63 206.607Z" fill="#191919"/>
<path d="M185.385 213.043C185.227 213.034 185.107 212.897 185.116 212.739C185.126 212.581 185.263 212.461 185.421 212.47C187.397 212.598 188.028 212.418 188.656 212.239C189.292 212.057 189.927 211.876 191.731 211.97C191.74 211.971 191.804 211.943 191.933 211.9C192.488 211.715 193.724 211.305 195.624 211.325C195.782 211.326 195.909 211.456 195.908 211.614C195.907 211.772 195.778 211.899 195.62 211.898C193.814 211.879 192.639 212.269 192.112 212.444C191.92 212.508 191.797 212.548 191.702 212.543C189.995 212.454 189.405 212.622 188.813 212.791C188.138 212.984 187.46 213.178 185.385 213.043Z" fill="#191919"/>
<path fill-rule="evenodd" clip-rule="evenodd" d="M237.824 160.234L266.074 155.095L255.774 189.117L228.129 195.227L237.824 160.234Z" fill="#FEFEFE"/>
<path d="M237.783 159.95L266.024 154.814C266.179 154.786 266.328 154.889 266.356 155.045C266.364 155.091 266.361 155.137 266.349 155.178L256.05 189.2C256.016 189.311 255.921 189.387 255.813 189.402L228.191 195.507C228.037 195.541 227.883 195.443 227.85 195.289C227.839 195.241 227.841 195.194 227.853 195.151L237.548 160.157C237.579 160.044 237.674 159.966 237.783 159.95ZM265.663 155.462L238.052 160.483L228.533 194.844L255.548 188.874L265.663 155.462Z" fill="#191919"/>
<path d="M240.719 166.388C240.561 166.378 240.441 166.241 240.45 166.083C240.46 165.925 240.597 165.805 240.755 165.815C242.731 165.942 243.362 165.762 243.99 165.583C244.626 165.401 245.261 165.22 247.065 165.315C247.074 165.315 247.138 165.287 247.267 165.244C247.822 165.06 249.058 164.649 250.958 164.669C251.751 164.678 252.029 164.498 252.347 164.293C252.897 163.936 253.549 163.515 256.19 163.612C256.232 163.613 256.358 163.554 256.531 163.473C256.998 163.255 257.741 162.906 258.943 162.906C259.102 162.906 259.231 163.035 259.231 163.194C259.231 163.353 259.102 163.482 258.943 163.482C257.864 163.482 257.195 163.795 256.774 163.992C256.528 164.108 256.349 164.191 256.17 164.185C253.709 164.095 253.14 164.463 252.659 164.774C252.263 165.029 251.917 165.253 250.954 165.242C249.148 165.223 247.973 165.613 247.446 165.788C247.254 165.852 247.131 165.893 247.036 165.888C245.329 165.798 244.739 165.967 244.147 166.136C243.472 166.328 242.794 166.522 240.719 166.388Z" fill="#191919"/>
<path d="M238.48 172.725C238.322 172.716 238.202 172.579 238.211 172.421C238.221 172.263 238.358 172.143 238.516 172.152C240.492 172.28 241.123 172.1 241.751 171.921C242.387 171.739 243.022 171.558 244.826 171.652C244.835 171.653 244.899 171.625 245.028 171.582C245.583 171.397 246.819 170.987 248.719 171.007C249.512 171.015 249.791 170.836 250.108 170.631C250.658 170.274 251.31 169.853 253.951 169.949C253.993 169.951 254.119 169.892 254.292 169.811C254.76 169.592 255.502 169.244 256.704 169.244C256.863 169.244 256.992 169.373 256.992 169.532C256.992 169.691 256.863 169.819 256.704 169.819C255.626 169.819 254.956 170.133 254.535 170.33C254.289 170.445 254.11 170.529 253.931 170.522C251.471 170.433 250.901 170.8 250.42 171.111C250.024 171.367 249.678 171.59 248.715 171.58C246.909 171.561 245.735 171.951 245.208 172.126C245.015 172.19 244.893 172.23 244.797 172.225C243.09 172.136 242.5 172.305 241.908 172.473C241.234 172.666 240.556 172.86 238.48 172.725Z" fill="#191919"/>
<path d="M236.241 179.063C236.083 179.053 235.963 178.917 235.973 178.759C235.982 178.601 236.119 178.48 236.277 178.49C238.253 178.618 238.884 178.438 239.512 178.258C240.148 178.077 240.783 177.896 242.587 177.99C242.596 177.991 242.66 177.962 242.789 177.92C243.344 177.735 244.581 177.324 246.481 177.345C247.273 177.353 247.552 177.174 247.869 176.968C248.42 176.612 249.071 176.191 251.712 176.287C251.755 176.288 251.881 176.23 252.054 176.149C252.521 175.93 253.264 175.582 254.466 175.582C254.624 175.582 254.753 175.711 254.753 175.869C254.753 176.028 254.624 176.157 254.466 176.157C253.387 176.157 252.717 176.471 252.296 176.668C252.05 176.783 251.872 176.867 251.692 176.86C249.232 176.77 248.662 177.138 248.182 177.449C247.785 177.705 247.439 177.928 246.476 177.918C244.67 177.899 243.496 178.289 242.969 178.464C242.777 178.527 242.654 178.568 242.558 178.563C240.851 178.474 240.261 178.642 239.669 178.811C238.995 179.004 238.317 179.197 236.241 179.063Z" fill="#191919"/>
<path d="M234.996 185.5C234.838 185.49 234.717 185.353 234.727 185.195C234.737 185.037 234.873 184.917 235.031 184.927C237.008 185.054 237.639 184.874 238.267 184.695C238.903 184.514 239.537 184.332 241.342 184.427C241.351 184.427 241.414 184.399 241.543 184.356C242.098 184.172 243.335 183.761 245.235 183.781C245.393 183.783 245.52 183.912 245.519 184.07C245.518 184.228 245.388 184.356 245.23 184.354C243.424 184.335 242.25 184.725 241.723 184.9C241.531 184.964 241.408 185.005 241.313 185C239.606 184.91 239.015 185.079 238.424 185.248C237.749 185.44 237.071 185.634 234.996 185.5Z" fill="#191919"/>
<path d="M309.074 155.842L297.916 187.099L297.795 187.147C294.91 188.308 291.818 188.541 288.903 187.929C285.988 187.317 283.25 185.859 281.075 183.636L280.981 183.54C282.133 172.207 283.311 160.876 284.48 149.545L284.891 149.878C286.031 150.799 287.814 151.739 290.024 152.589C292.175 153.416 294.729 154.156 297.49 154.71C299.668 155.148 301.756 155.425 303.648 155.551C305.608 155.68 307.352 155.647 308.766 155.461L309.232 155.399L309.074 155.842ZM297.461 186.662L308.376 156.084C307.015 156.226 305.398 156.242 303.613 156.124C301.701 155.997 299.588 155.716 297.378 155.272C294.584 154.711 292 153.962 289.82 153.124C287.8 152.348 286.123 151.493 284.944 150.64L281.579 183.33C283.657 185.416 286.256 186.787 289.02 187.367C291.786 187.948 294.718 187.738 297.461 186.662Z" fill="#191919"/>
<path d="M299.571 142.293C301.599 142.69 303.431 143.225 304.842 143.794C306.297 144.38 307.324 145.019 307.688 145.603C308.158 146.122 308.597 146.69 309.004 147.305C309.407 147.915 309.78 148.571 310.12 149.274C310.345 149.523 310.514 149.772 310.622 150.019C310.715 150.234 310.763 150.447 310.761 150.656C311.485 151.151 312.05 151.651 312.425 152.141C312.838 152.679 313.029 153.214 312.963 153.727L312.945 153.834C312.723 154.933 311.307 155.664 309.103 155.993C307.002 156.307 304.145 156.273 300.925 155.859C299.784 155.712 298.595 155.517 297.377 155.272C293.29 154.451 289.651 153.228 287.071 151.914C284.399 150.554 282.831 149.059 283 147.751C283.076 147.156 283.483 146.667 284.164 146.286C284.788 145.938 285.653 145.677 286.707 145.508C286.765 145.407 286.836 145.31 286.921 145.22C287.036 145.097 287.175 144.982 287.337 144.877C287.849 144.362 288.384 143.897 288.941 143.484C289.494 143.074 290.071 142.713 290.671 142.403C291.152 141.944 292.33 141.703 293.923 141.692C295.478 141.681 297.455 141.877 299.571 142.293ZM304.628 144.327C303.25 143.771 301.455 143.248 299.461 142.856C297.377 142.448 295.44 142.254 293.925 142.264C292.446 142.275 291.397 142.468 291.052 142.833L290.966 142.924H290.91C290.349 143.216 289.806 143.556 289.283 143.944C288.741 144.346 288.221 144.799 287.723 145.303L287.699 145.327L287.671 145.345C287.54 145.427 287.429 145.517 287.341 145.61C287.289 145.667 287.245 145.725 287.21 145.784L287.138 145.934L287.131 145.942L287.086 146.031L286.938 146.054C285.883 146.212 285.033 146.458 284.443 146.787C283.926 147.076 283.62 147.423 283.568 147.823C283.434 148.863 284.882 150.155 287.331 151.402C289.872 152.696 293.459 153.901 297.49 154.71C298.692 154.952 299.868 155.145 300.997 155.29C304.162 155.698 306.964 155.731 309.02 155.425C310.974 155.133 312.216 154.554 312.384 153.721L312.394 153.654C312.44 153.299 312.289 152.906 311.969 152.489C311.609 152.02 311.043 151.531 310.304 151.04L310.148 150.936L310.183 150.73C310.2 150.58 310.17 150.418 310.096 150.248C310.01 150.052 309.866 149.844 309.669 149.631L309.641 149.6L309.622 149.561C309.288 148.868 308.922 148.221 308.525 147.622C308.155 147.062 307.756 146.542 307.33 146.064H307.294L307.21 145.923C306.927 145.442 305.991 144.876 304.628 144.327Z" fill="#191919"/>
<path d="M305.94 146.74C306.097 146.716 306.243 146.823 306.267 146.98C306.291 147.136 306.184 147.282 306.028 147.306C305.185 147.437 304.068 147.462 302.78 147.377C301.543 147.295 300.145 147.112 298.681 146.825C297.203 146.535 295.827 146.172 294.642 145.775C293.407 145.362 292.378 144.911 291.653 144.468C291.518 144.386 291.476 144.209 291.558 144.074C291.641 143.939 291.817 143.896 291.952 143.979C292.641 144.4 293.63 144.832 294.824 145.231C295.983 145.619 297.333 145.975 298.791 146.261C300.234 146.544 301.606 146.724 302.816 146.804C304.067 146.887 305.142 146.864 305.94 146.74Z" fill="#191919"/>
<path d="M297.253 146.514C297.096 146.487 296.992 146.338 297.019 146.182C297.046 146.026 297.195 145.921 297.351 145.948L297.967 146.061L298.589 146.183L299.24 146.317L299.884 146.459C300.039 146.494 300.136 146.647 300.101 146.802C300.066 146.956 299.913 147.053 299.758 147.019L299.12 146.879L298.477 146.744L297.862 146.625L297.253 146.514Z" fill="#191919"/>
<path d="M310.183 150.729C310.211 150.573 310.36 150.468 310.516 150.496C310.672 150.523 310.777 150.672 310.75 150.828L310.733 150.911C310.521 151.85 309.254 152.458 307.311 152.703C305.45 152.937 302.934 152.858 300.136 152.434C299.503 152.338 298.84 152.221 298.153 152.083C294.861 151.422 291.928 150.437 289.849 149.378C287.68 148.274 286.407 147.051 286.545 145.974C286.551 145.916 286.563 145.858 286.578 145.801C286.592 145.748 286.612 145.692 286.636 145.636C286.697 145.49 286.865 145.421 287.011 145.483C287.156 145.544 287.225 145.712 287.164 145.858L287.133 145.95C287.125 145.979 287.118 146.011 287.115 146.043C287.009 146.854 288.162 147.874 290.11 148.866C292.149 149.904 295.029 150.872 298.265 151.522C298.915 151.652 299.569 151.767 300.221 151.866C302.973 152.283 305.434 152.362 307.242 152.134C308.933 151.921 310.021 151.462 310.173 150.787L310.183 150.729Z" fill="#191919"/>
<path fill-rule="evenodd" clip-rule="evenodd" d="M281.877 168.114C282.351 159.508 282.864 155.11 283.416 154.92C290.296 159.681 298.548 161.468 308.172 160.282C306.69 164.761 305.276 168.972 303.929 172.916C294.727 174.56 287.377 172.959 281.877 168.114Z" fill="#3B73C5"/>
<path d="M281.592 168.083C281.828 163.779 282.075 160.527 282.331 158.329C282.602 156.01 282.932 154.782 283.322 154.648C283.419 154.615 283.522 154.637 283.596 154.697C286.999 157.048 290.743 158.666 294.825 159.551C298.919 160.437 303.357 160.586 308.137 159.996C308.294 159.977 308.438 160.089 308.457 160.247C308.462 160.29 308.458 160.333 308.445 160.372C307.739 162.504 307.015 164.676 306.275 166.88C305.552 169.034 304.86 171.079 304.201 173.008C304.166 173.111 304.079 173.181 303.98 173.199C299.342 174.027 295.166 174.037 291.454 173.229C287.73 172.418 284.474 170.785 281.687 168.33C281.614 168.266 281.582 168.173 281.592 168.083ZM282.902 158.394C282.649 160.567 282.405 163.766 282.171 167.99C284.861 170.328 287.996 171.888 291.575 172.667C295.169 173.45 299.215 173.448 303.712 172.662C304.384 170.694 305.056 168.707 305.731 166.698C306.362 164.819 307.037 162.795 307.757 160.62C303.084 161.154 298.732 160.985 294.704 160.112C290.615 159.227 286.858 157.616 283.435 155.282C283.287 155.582 283.109 156.619 282.902 158.394Z" fill="#3B73C5"/>
</svg>
