<svg width="321" height="161" viewBox="0 0 321 161" fill="none" xmlns="http://www.w3.org/2000/svg">
<path fill-rule="evenodd" clip-rule="evenodd" d="M160.319 32.4495H308.703C313.822 32.4495 318.01 36.6429 318.01 41.7681V117.734C318.01 122.859 313.822 127.053 308.703 127.053H160.319C155.2 127.053 151.012 122.859 151.012 117.734V41.7681C151.012 36.6429 155.2 32.4495 160.319 32.4495Z" fill="#9AD7F6" fill-opacity="0.4"/>
<path d="M160.452 29.9535H160.5V35.2129H160.452C159.651 35.2129 158.88 35.3569 158.166 35.6201V53.6836L153.773 57.6258V102.126L158.166 106.068V124.132C158.88 124.395 159.651 124.539 160.452 124.539H160.5V129.799H160.452C157.168 129.799 154.184 128.455 152.023 126.291C149.862 124.127 148.52 121.14 148.52 117.852V41.9001C148.52 38.6124 149.862 35.6248 152.023 33.461C154.184 31.2971 157.168 29.9535 160.452 29.9535ZM311.106 102.126V57.6258L315.499 53.6836V41.9001C315.499 40.0639 314.746 38.3919 313.535 37.1791C312.324 35.9664 310.654 35.2129 308.82 35.2129H308.771V29.9535H308.82C312.103 29.9535 315.088 31.2971 317.249 33.461C319.41 35.6248 320.752 38.6124 320.752 41.9001V117.852C320.752 121.14 319.41 124.127 317.249 126.291C315.088 128.455 312.103 129.799 308.82 129.799H308.771V124.539H308.82C310.654 124.539 312.324 123.786 313.535 122.573C314.746 121.36 315.499 119.688 315.499 117.852V106.068L311.106 102.126Z" fill="#446AB1"/>
<path d="M185.235 65.8766C184.576 65.8766 184.067 65.6969 183.707 65.3375C183.348 64.963 183.168 64.4314 183.168 63.7424V57.587L184.022 59.856L178.855 52.42C178.6 52.0606 178.488 51.6637 178.518 51.2294C178.563 50.7801 178.743 50.4056 179.057 50.1061C179.387 49.7916 179.851 49.6343 180.45 49.6343C180.869 49.6343 181.251 49.7392 181.596 49.9488C181.94 50.1435 182.262 50.4805 182.562 50.9598L185.707 55.5876H184.898L188.043 50.9373C188.358 50.4581 188.68 50.1211 189.009 49.9264C189.339 49.7317 189.728 49.6343 190.177 49.6343C190.746 49.6343 191.188 49.7766 191.503 50.0612C191.817 50.3457 191.982 50.7052 191.997 51.1395C192.027 51.5738 191.892 52.0156 191.593 52.4649L186.471 59.856L187.302 57.587V63.7424C187.302 65.1652 186.613 65.8766 185.235 65.8766ZM197.268 65.9216C196.04 65.9216 194.969 65.6894 194.056 65.2251C193.142 64.7609 192.431 64.0944 191.921 63.2257C191.412 62.3571 191.158 61.3312 191.158 60.148C191.158 59.2494 191.3 58.4482 191.584 57.7442C191.869 57.0254 192.281 56.4188 192.82 55.9246C193.359 55.4154 194.003 55.0335 194.752 54.7789C195.501 54.5093 196.34 54.3745 197.268 54.3745C198.496 54.3745 199.567 54.6066 200.481 55.0709C201.394 55.5352 202.098 56.2016 202.592 57.0703C203.102 57.924 203.356 58.9499 203.356 60.148C203.356 61.0316 203.214 61.8329 202.929 62.5518C202.645 63.2707 202.233 63.8847 201.694 64.3939C201.17 64.8882 200.526 65.2701 199.762 65.5396C199.013 65.7943 198.182 65.9216 197.268 65.9216ZM197.268 62.9786C197.673 62.9786 198.032 62.8813 198.347 62.6866C198.661 62.4769 198.901 62.1699 199.065 61.7655C199.245 61.3462 199.335 60.807 199.335 60.148C199.335 59.1446 199.14 58.4257 198.751 57.9914C198.361 57.5421 197.867 57.3174 197.268 57.3174C196.864 57.3174 196.504 57.4148 196.19 57.6095C195.875 57.8042 195.628 58.1112 195.449 58.5305C195.269 58.9349 195.179 59.4741 195.179 60.148C195.179 61.1365 195.374 61.8554 195.763 62.3047C196.152 62.754 196.654 62.9786 197.268 62.9786ZM209.322 65.9216C208.364 65.9216 207.577 65.7493 206.963 65.4049C206.349 65.0454 205.885 64.5137 205.57 63.8098C205.271 63.1059 205.121 62.2148 205.121 61.1365V56.4188C205.121 55.7598 205.293 55.2656 205.638 54.9361C205.982 54.5916 206.477 54.4194 207.121 54.4194C207.765 54.4194 208.259 54.5916 208.603 54.9361C208.948 55.2656 209.12 55.7598 209.12 56.4188V61.2488C209.12 61.788 209.232 62.1923 209.457 62.4619C209.682 62.7315 210.034 62.8663 210.513 62.8663C211.052 62.8663 211.494 62.6716 211.838 62.2822C212.183 61.8928 212.355 61.3761 212.355 60.7321V56.4188C212.355 55.7598 212.527 55.2656 212.872 54.9361C213.216 54.5916 213.71 54.4194 214.354 54.4194C214.998 54.4194 215.493 54.5916 215.837 54.9361C216.181 55.2656 216.354 55.7598 216.354 56.4188V63.8548C216.354 65.2027 215.71 65.8766 214.422 65.8766C213.793 65.8766 213.306 65.7044 212.961 65.3599C212.617 65.0155 212.445 64.5137 212.445 63.8548V62.5518L212.804 63.6526C212.475 64.3864 212.01 64.9481 211.411 65.3375C210.827 65.7269 210.131 65.9216 209.322 65.9216ZM220.725 65.8766C220.066 65.8766 219.557 65.7044 219.197 65.3599C218.853 65.0155 218.681 64.5137 218.681 63.8548V56.4188C218.681 55.7748 218.846 55.2806 219.175 54.9361C219.519 54.5916 220.006 54.4194 220.635 54.4194C221.264 54.4194 221.744 54.5916 222.073 54.9361C222.402 55.2806 222.567 55.7748 222.567 56.4188V57.3399H222.343C222.492 56.4413 222.874 55.7299 223.488 55.2057C224.117 54.6815 224.896 54.4044 225.825 54.3745C226.259 54.3595 226.581 54.4718 226.791 54.7115C227.015 54.9361 227.135 55.3629 227.15 55.992C227.15 56.5311 227.038 56.958 226.813 57.2725C226.588 57.587 226.162 57.7742 225.533 57.8341L225.016 57.879C224.222 57.9539 223.646 58.1786 223.286 58.553C222.927 58.9124 222.747 59.4516 222.747 60.1705V63.8548C222.747 64.5137 222.575 65.0155 222.23 65.3599C221.886 65.7044 221.384 65.8766 220.725 65.8766ZM237.186 65.8766C236.527 65.8766 236.018 65.6969 235.658 65.3375C235.299 64.963 235.119 64.4463 235.119 63.7874V51.9258C235.119 51.2518 235.299 50.7351 235.658 50.3757C236.033 50.0162 236.549 49.8365 237.208 49.8365H242.735C244.532 49.8365 245.917 50.3008 246.891 51.2294C247.879 52.1429 248.374 53.4085 248.374 55.026C248.374 56.6435 247.879 57.9165 246.891 58.845C245.917 59.7586 244.532 60.2154 242.735 60.2154H239.253V63.7874C239.253 64.4463 239.08 64.963 238.736 65.3375C238.392 65.6969 237.875 65.8766 237.186 65.8766ZM239.253 57.0478H242.016C242.795 57.0478 243.394 56.8831 243.813 56.5536C244.232 56.2091 244.442 55.6999 244.442 55.026C244.442 54.337 244.232 53.8278 243.813 53.4983C243.394 53.1689 242.795 53.0041 242.016 53.0041H239.253V57.0478ZM255.011 65.9216C253.782 65.9216 252.712 65.6894 251.798 65.2251C250.884 64.7609 250.173 64.0944 249.664 63.2257C249.155 62.3571 248.9 61.3312 248.9 60.148C248.9 59.2494 249.042 58.4482 249.327 57.7442C249.611 57.0254 250.023 56.4188 250.562 55.9246C251.102 55.4154 251.746 55.0335 252.494 54.7789C253.243 54.5093 254.082 54.3745 255.011 54.3745C256.239 54.3745 257.31 54.6066 258.223 55.0709C259.137 55.5352 259.841 56.2016 260.335 57.0703C260.844 57.924 261.099 58.9499 261.099 60.148C261.099 61.0316 260.956 61.8329 260.672 62.5518C260.387 63.2707 259.975 63.8847 259.436 64.3939C258.912 64.8882 258.268 65.2701 257.504 65.5396C256.755 65.7943 255.924 65.9216 255.011 65.9216ZM255.011 62.9786C255.415 62.9786 255.774 62.8813 256.089 62.6866C256.403 62.4769 256.643 62.1699 256.808 61.7655C256.987 61.3462 257.077 60.807 257.077 60.148C257.077 59.1446 256.883 58.4257 256.493 57.9914C256.104 57.5421 255.61 57.3174 255.011 57.3174C254.606 57.3174 254.247 57.4148 253.932 57.6095C253.618 57.8042 253.371 58.1112 253.191 58.5305C253.011 58.9349 252.921 59.4741 252.921 60.148C252.921 61.1365 253.116 61.8554 253.505 62.3047C253.895 62.754 254.397 62.9786 255.011 62.9786ZM264.908 65.8766C264.279 65.8766 263.792 65.6894 263.448 65.315C263.103 64.9406 262.931 64.4014 262.931 63.6975V56.5985C262.931 55.8946 263.103 55.3555 263.448 54.981C263.792 54.6066 264.279 54.4194 264.908 54.4194C265.552 54.4194 266.046 54.6066 266.391 54.981C266.75 55.3555 266.93 55.8946 266.93 56.5985V63.6975C266.93 64.4014 266.757 64.9406 266.413 65.315C266.069 65.6894 265.567 65.8766 264.908 65.8766ZM264.908 52.8244C264.204 52.8244 263.657 52.6596 263.268 52.3302C262.893 52.0007 262.706 51.5214 262.706 50.8924C262.706 50.2783 262.893 49.8066 263.268 49.4771C263.657 49.1476 264.204 48.9828 264.908 48.9828C265.642 48.9828 266.196 49.1476 266.57 49.4771C266.945 49.8066 267.132 50.2783 267.132 50.8924C267.132 51.5214 266.945 52.0007 266.57 52.3302C266.196 52.6596 265.642 52.8244 264.908 52.8244ZM271.226 65.8766C270.597 65.8766 270.11 65.7044 269.766 65.3599C269.421 65.0155 269.249 64.5137 269.249 63.8548V56.4188C269.249 55.7748 269.414 55.2806 269.743 54.9361C270.088 54.5916 270.575 54.4194 271.204 54.4194C271.833 54.4194 272.312 54.5916 272.641 54.9361C272.971 55.2806 273.136 55.7748 273.136 56.4188V57.4747L272.889 56.5536C273.248 55.8497 273.757 55.3105 274.416 54.9361C275.09 54.5617 275.854 54.3745 276.708 54.3745C277.591 54.3745 278.318 54.5467 278.887 54.8912C279.456 55.2207 279.883 55.7449 280.167 56.4637C280.452 57.1676 280.594 58.0588 280.594 59.1371V63.8548C280.594 64.5137 280.422 65.0155 280.077 65.3599C279.733 65.7044 279.239 65.8766 278.595 65.8766C277.951 65.8766 277.457 65.7044 277.112 65.3599C276.768 65.0155 276.595 64.5137 276.595 63.8548V59.2943C276.595 58.6204 276.476 58.1411 276.236 57.8566C276.011 57.572 275.674 57.4297 275.225 57.4297C274.626 57.4297 274.147 57.6244 273.787 58.0138C273.428 58.3882 273.248 58.8975 273.248 59.5415V63.8548C273.248 65.2027 272.574 65.8766 271.226 65.8766ZM288.669 65.9216C287.546 65.9216 286.617 65.7493 285.883 65.4049C285.165 65.0604 284.625 64.5437 284.266 63.8548C283.907 63.1509 283.727 62.2747 283.727 61.2263V57.5645H282.963C282.484 57.5645 282.109 57.4372 281.84 57.1826C281.585 56.928 281.458 56.5611 281.458 56.0818C281.458 55.6026 281.585 55.2431 281.84 55.0035C282.109 54.7489 282.484 54.6216 282.963 54.6216H283.727V53.2288C283.727 52.5698 283.899 52.0681 284.243 51.7236C284.588 51.3791 285.082 51.2069 285.726 51.2069C286.37 51.2069 286.864 51.3791 287.209 51.7236C287.553 52.0681 287.726 52.5698 287.726 53.2288V54.6216H289.568C290.062 54.6216 290.436 54.7489 290.691 55.0035C290.961 55.2431 291.095 55.6026 291.095 56.0818C291.095 56.5611 290.961 56.928 290.691 57.1826C290.436 57.4372 290.062 57.5645 289.568 57.5645H287.726V61.0916C287.726 61.6457 287.853 62.0576 288.107 62.3271C288.377 62.5817 288.796 62.709 289.366 62.709C289.575 62.709 289.777 62.6866 289.972 62.6416C290.167 62.5967 290.347 62.5743 290.511 62.5743C290.751 62.5593 290.946 62.6342 291.095 62.7989C291.245 62.9487 291.32 63.3006 291.32 63.8548C291.32 64.3041 291.253 64.686 291.118 65.0005C290.983 65.3 290.743 65.5172 290.399 65.652C290.189 65.7269 289.905 65.7868 289.545 65.8317C289.186 65.8916 288.894 65.9216 288.669 65.9216Z" fill="#8AB2FC"/>
<rect x="215.915" y="81.0897" width="38.6899" height="31.2016" rx="3.74419" fill="#446AB1"/>
<path d="M59.7072 161C88.5119 161 111.863 156.244 111.863 150.377C111.863 144.51 88.5119 139.754 59.7072 139.754C30.9025 139.754 7.55176 144.51 7.55176 150.377C7.55176 156.244 30.9025 161 59.7072 161Z" fill="#B6B6B7"/>
<path fill-rule="evenodd" clip-rule="evenodd" d="M69.981 136.592C70.398 136.444 70.9563 136.317 71.5881 136.203C72.215 136.09 72.8747 135.994 73.5332 135.903C74.235 135.806 74.9224 135.714 75.5703 135.637C76.2703 135.553 76.9737 135.478 77.6804 135.416C78.287 135.364 78.9504 135.318 79.6086 135.279C80.345 135.235 81.07 135.203 81.6826 135.182C82.2243 135.163 82.6615 135.154 83.0238 135.163C83.4277 135.174 83.747 135.21 84.0125 135.282C84.3924 135.386 84.6631 135.541 84.9277 135.932C85.1101 136.201 85.2734 136.59 85.4876 137.217C85.7049 137.855 85.9916 138.789 86.2705 139.858C86.4853 140.681 86.6935 141.579 86.8589 142.477C87.0488 143.508 87.1809 144.528 87.278 145.473C87.3766 146.434 87.4385 147.294 87.4876 148.012C87.5347 148.699 87.5723 149.294 87.6017 149.78C87.6275 150.207 87.6472 150.56 87.6603 150.795C87.7289 152.03 87.7289 152.03 83.8038 152.03C80.7277 152.03 74.5752 152.03 71.2424 151.977C67.6153 151.921 67.5328 151.718 67.2551 151.036L67.253 151.031C67.2472 151.017 67.242 151.003 67.2372 150.989L67.2254 150.959C67.074 150.591 66.8315 150.001 66.6692 149.164C66.5827 148.72 66.5202 148.209 66.4825 147.648C66.4467 147.111 66.4346 146.512 66.4476 145.865C66.4616 145.168 66.5041 144.438 66.5903 143.717C66.6671 143.079 66.779 142.43 66.9371 141.792C67.1034 141.12 67.324 140.463 67.5525 139.87C67.788 139.258 68.0135 138.752 68.1961 138.369C68.4095 137.921 68.5857 137.591 68.8497 137.301C69.1338 136.988 69.4718 136.772 69.981 136.592ZM70.2298 137.297C70.9951 137.026 72.303 136.828 73.6358 136.644C74.9685 136.459 76.3258 136.286 77.7451 136.163C79.164 136.039 80.6448 135.965 81.706 135.928C82.7671 135.891 83.409 135.891 83.8162 136.002C84.2234 136.113 84.3961 136.335 84.7787 137.457C85.1614 138.579 85.7537 140.602 86.1239 142.612C86.4941 144.622 86.6419 146.619 86.7408 148.062C86.8394 149.505 86.8889 150.393 86.9135 150.837C86.9381 151.281 86.9381 151.281 83.8038 151.281C80.6694 151.281 74.4007 151.281 71.2543 151.231C68.1075 151.182 68.0829 151.083 67.947 150.75C67.8113 150.417 67.5646 149.85 67.4041 149.024C67.2436 148.198 67.1696 147.113 67.1945 145.879C67.219 144.646 67.3425 143.265 67.6633 141.97C67.984 140.676 68.5023 139.467 68.8725 138.69C69.2427 137.913 69.4648 137.568 70.2298 137.297ZM6.86896 55.5128C6.88262 55.6965 6.89714 55.8794 6.91353 56.061C5.58685 55.8569 5.66366 55.6744 6.86896 55.5128ZM6.86896 55.5128C16.8179 54.1797 103.663 54.281 113.024 55.578C113.096 54.6237 113.133 53.6421 113.133 52.6314C113.133 26.795 89.3214 4.52643 59.9486 4.52643C30.5759 4.52643 6.76453 26.795 6.76453 52.6314C6.76453 53.6191 6.80008 54.5791 6.86896 55.5128ZM113.024 55.578C114.088 55.7253 114.151 55.8884 112.983 56.0664C112.998 55.9045 113.011 55.7414 113.024 55.578ZM95.1291 87.1509C102.632 83.1213 127.163 70.7875 128.958 75.8297C130.753 80.8716 108.379 94.8694 100.877 98.8991C93.3748 102.929 89.3535 99.9671 88.2229 96.7916C87.0922 93.6162 87.6269 91.1806 95.1291 87.1509ZM31.4414 102.103C28.5031 109.953 18.5317 135.249 15.2356 134.484C11.9399 133.72 20.986 108.209 23.924 100.359C26.8623 92.51 29.0466 91.5606 31.1225 92.0418C33.1984 92.5233 34.3794 94.2536 31.4414 102.103ZM50.5899 137.061C49.825 136.79 48.5168 136.592 47.184 136.407C45.8513 136.222 44.4939 136.05 43.075 135.926C41.6558 135.803 40.175 135.729 39.1138 135.692C38.0526 135.655 37.4109 135.655 37.0036 135.766C36.5964 135.877 36.4237 136.099 36.0411 137.221C35.6587 138.343 35.0664 140.366 34.6962 142.376C34.326 144.386 34.1779 146.383 34.079 147.826C33.9803 149.269 33.9309 150.157 33.9063 150.6C33.8817 151.044 33.8817 151.044 37.016 151.044C40.1504 151.044 46.419 151.044 49.5658 150.995C52.7123 150.946 52.7372 150.847 52.8728 150.514C53.0085 150.181 53.2555 149.614 53.4157 148.788C53.5762 147.962 53.6503 146.876 53.6257 145.644C53.6008 144.41 53.4776 143.029 53.1565 141.735C52.8358 140.44 52.3175 139.231 51.9473 138.454C51.5771 137.678 51.3549 137.332 50.5899 137.061ZM22.0429 18.1538C31.7837 9.343 45.174 3.7774 59.9486 3.7774C74.7233 3.7774 88.1136 9.343 97.8544 18.1538C107.751 27.1052 113.883 39.4062 113.883 52.6314C113.883 53.2 113.869 53.7934 113.842 54.4099C113.828 54.7255 113.81 55.0415 113.788 55.3584C114.289 55.4651 114.563 55.5776 114.581 55.6953C114.668 56.2614 114.192 56.6396 113.095 56.8069C112.685 56.8682 112.304 56.5865 112.242 56.1777C112.23 56.0956 112.232 56.0146 112.245 55.9373L112.256 55.8057C107.546 55.4976 83.7367 55.3232 59.8968 55.3053C36.2435 55.2871 12.6144 55.4282 7.63908 55.7496L7.66036 55.9964C7.69586 56.4088 7.39028 56.7718 6.97789 56.8072C6.90658 56.8133 6.83645 56.8094 6.76939 56.7963C5.61477 56.6129 5.11348 56.2244 5.20117 55.6552C5.2212 55.5245 5.5344 55.4009 6.10245 55.2844C6.08425 55.0021 6.06875 54.7098 6.0554 54.4071C6.02839 53.7916 6.01474 53.1991 6.01474 52.6314C6.01474 39.4062 12.1462 27.1052 22.0429 18.1538ZM94.7749 86.4926C99.2177 84.1062 109.612 78.8177 117.772 75.9167C120.542 74.9318 123.065 74.2183 125.031 73.9788C127.257 73.7071 128.87 74.0501 129.525 75.2675C129.579 75.3673 129.625 75.4719 129.664 75.5808C130.496 77.919 127.37 81.5314 122.777 85.3046C115.951 90.9129 105.82 97.0928 101.231 99.5574C100.238 100.091 99.3018 100.507 98.4212 100.82C95.6565 101.803 93.4194 101.776 91.687 101.178C89.9049 100.562 88.6696 99.3494 87.9413 97.9958C87.7732 97.6829 87.6317 97.3623 87.517 97.0403C86.8801 95.2509 86.7205 93.6568 87.8032 91.8995C88.8027 90.2776 90.8993 88.5743 94.7749 86.4926ZM32.1415 102.364C30.3174 107.236 25.7878 118.82 21.8129 126.762C19.2281 131.927 16.7489 135.603 15.0687 135.213C15.015 135.2 14.958 135.183 14.8982 135.16C14.0276 134.835 13.7035 133.722 13.7909 132.05C13.8625 130.674 14.1869 128.83 14.6797 126.708C16.6324 118.301 21.2722 105.314 23.2239 100.099C24.7357 96.0608 26.0773 93.7738 27.3224 92.5439C28.7282 91.1554 30.0219 91.0193 31.2894 91.3131C32.6197 91.6218 33.6632 92.3296 33.9032 94.2157C34.105 95.8025 33.6569 98.3142 32.1415 102.364ZM49.2317 135.967C49.8635 136.081 50.4222 136.208 50.8388 136.356C51.348 136.536 51.686 136.752 51.9701 137.065C52.2344 137.355 52.4107 137.685 52.6237 138.132C52.8064 138.516 53.0318 139.022 53.2676 139.634C53.4958 140.227 53.7164 140.885 53.883 141.556C54.0408 142.194 54.1528 142.843 54.2296 143.481C54.3157 144.202 54.3585 144.932 54.3725 145.629C54.3852 146.276 54.3731 146.875 54.3373 147.412C54.2999 147.974 54.2371 148.484 54.1509 148.928C53.9883 149.765 53.7461 150.355 53.5944 150.724L53.5826 150.753C53.5777 150.767 53.5725 150.781 53.5668 150.795L53.565 150.8C53.2873 151.482 53.2045 151.685 49.5774 151.742C46.2446 151.794 40.0921 151.794 37.016 151.794C33.0909 151.794 33.0909 151.794 33.1595 150.56C33.1725 150.324 33.1926 149.969 33.2181 149.544C33.2475 149.058 33.2855 148.462 33.3322 147.776C33.3814 147.058 33.4433 146.198 33.5419 145.237C33.639 144.293 33.7713 143.272 33.9609 142.241C34.1263 141.343 34.3348 140.445 34.5493 139.622C34.8285 138.553 35.115 137.619 35.3325 136.981C35.5465 136.353 35.71 135.965 35.8924 135.696C36.157 135.305 36.4277 135.15 36.8073 135.046C37.0731 134.974 37.392 134.938 37.7959 134.928C38.1583 134.918 38.5958 134.927 39.1372 134.946C39.7501 134.967 40.4748 134.999 41.2116 135.043C41.8695 135.082 42.5328 135.128 43.1394 135.18C43.8461 135.242 44.5498 135.317 45.2499 135.401C45.8974 135.478 46.5847 135.569 47.2866 135.667C47.9451 135.758 48.6051 135.854 49.2317 135.967Z" fill="black" fill-opacity="0.109804"/>
<path fill-rule="evenodd" clip-rule="evenodd" d="M59.7074 4.72131C30.3814 4.72131 6.60791 26.9815 6.60791 52.8082C6.60791 78.6353 30.3814 85.9295 59.7074 85.9295C89.0333 85.9295 112.807 78.6353 112.807 52.8082C112.807 26.9815 89.0333 4.72131 59.7074 4.72131Z" fill="#FEFEFE"/>
<path fill-rule="evenodd" clip-rule="evenodd" d="M59.2342 12.2758C34.3398 12.2758 14.1587 31.2389 14.1587 53.2402C14.1587 75.2414 34.3398 76.0148 59.2342 76.0148C84.1286 76.0148 104.31 75.2414 104.31 53.2402C104.31 31.2389 84.1286 12.2758 59.2342 12.2758Z" fill="#0C295C"/>
<path fill-rule="evenodd" clip-rule="evenodd" d="M59.2342 12.2758C34.3398 12.2758 14.1587 31.0836 14.1587 52.9046C14.1587 53.2298 14.1638 53.5498 14.1726 53.8656C16.4018 33.7517 35.6337 17.1382 59.0307 17.1382C83.5022 17.1382 103.418 35.3122 104.088 56.657C104.234 55.4806 104.31 54.2322 104.31 52.9046C104.31 31.0836 84.1286 12.2758 59.2342 12.2758Z" fill="black" fill-opacity="0.141176"/>
<path fill-rule="evenodd" clip-rule="evenodd" d="M118.358 62.3229C115.833 64.7858 112.84 66.6741 109.38 67.9881C108.676 57.0228 109.038 46.9506 110.467 37.7711C113.787 39.1562 116.418 40.5332 118.358 41.9018C119.767 48.7605 119.767 55.5675 118.358 62.3229Z" fill="#446AB1"/>
<path fill-rule="evenodd" clip-rule="evenodd" d="M1.10494 62.3229C3.7451 64.7858 6.87405 66.6741 10.4915 67.9881C11.2275 57.0228 10.8484 46.9506 9.35501 37.7711C5.88343 39.1562 3.13331 40.5332 1.10494 41.9018C-0.368314 48.7605 -0.368314 55.5675 1.10494 62.3229Z" fill="#446AB1"/>
<path fill-rule="evenodd" clip-rule="evenodd" d="M75.6413 1.83735C77.4478 6.90765 78.3513 9.44282 78.3513 9.44282C66.2329 6.59459 53.654 6.59459 41.5356 9.44282C42.7119 4.37252 43.2999 1.83735 43.2999 1.83735C54.6295 -0.612448 65.4099 -0.612448 75.6413 1.83735Z" fill="#18386E"/>
<path fill-rule="evenodd" clip-rule="evenodd" d="M75.6413 1.83735C77.4478 6.90765 78.3513 9.44282 78.3513 9.44282C77.3935 9.21759 76.4331 9.01046 75.4702 8.82105L73.4185 3.06353C64.6358 0.960457 55.3817 0.960457 45.6566 3.06353L44.3161 8.84095C43.3869 9.02506 42.4598 9.22569 41.5356 9.44282C42.7119 4.37252 43.2999 1.83735 43.2999 1.83735C54.6295 -0.612448 65.4099 -0.612448 75.6413 1.83735Z" fill="#446AB1"/>
<path fill-rule="evenodd" clip-rule="evenodd" d="M35.7773 123.368C35.3849 121.789 35.0431 120.133 34.7782 118.512C34.0321 113.951 33.8898 109.671 34.0321 105.987C34.174 102.304 34.6005 99.2167 35.2224 96.6909C35.8446 94.1648 36.6623 92.2003 37.6214 91.0427C38.5807 89.8851 39.6814 89.5341 41.8301 89.3239C43.9792 89.1133 47.1765 89.0432 50.4091 88.9728C53.642 88.9027 56.9104 88.8327 60.1788 88.7626C63.4472 88.8327 66.7152 88.9027 69.9481 88.9728C73.181 89.0432 76.3781 89.1133 78.5271 89.3239C80.6762 89.5341 81.7768 89.8851 82.7359 91.0427C83.6952 92.2003 84.5129 94.1648 85.1348 96.6909C85.7568 99.2167 86.1832 102.304 86.3252 105.987C86.4674 109.671 86.3255 113.951 85.5794 118.512C85.3444 119.948 85.0492 121.413 84.7121 122.827C83.4428 123.47 81.8338 123.722 79.8845 123.583C78.9307 115.612 77.0214 107.875 74.1569 100.369H46.2347C43.3689 106.911 41.1415 114.846 39.5523 124.172C37.9163 124.192 36.6578 123.924 35.7773 123.368Z" fill="#FEFEFE"/>
<path fill-rule="evenodd" clip-rule="evenodd" d="M31.3042 102.215C28.4087 110.052 18.5824 135.306 15.3343 134.543C12.0865 133.78 21.0007 108.311 23.8962 100.474C26.7918 92.6377 28.9442 91.6899 30.9899 92.1706C33.0356 92.6511 34.1995 94.3784 31.3042 102.215Z" fill="#FEFEFE"/>
<path fill-rule="evenodd" clip-rule="evenodd" d="M95.11 87.2192C102.571 83.1548 126.968 70.7149 128.753 75.8005C130.539 80.8858 108.288 95.0042 100.826 99.0686C93.3654 103.133 89.3661 100.146 88.2417 96.943C87.1173 93.7402 87.649 91.2836 95.11 87.2192Z" fill="#FEFEFE"/>
<path fill-rule="evenodd" clip-rule="evenodd" d="M70.0779 137.386C70.8469 137.111 72.1612 136.911 73.5004 136.724C74.8397 136.536 76.2036 136.361 77.6298 136.237C79.0556 136.111 80.5436 136.036 81.61 135.999C82.6766 135.961 83.3213 135.961 83.7305 136.074C84.1397 136.186 84.3132 136.411 84.6977 137.549C85.0822 138.686 85.6774 140.735 86.0494 142.772C86.4214 144.809 86.5699 146.833 86.6693 148.296C86.7684 149.758 86.8182 150.657 86.8429 151.107C86.8676 151.557 86.8676 151.557 83.718 151.557C80.5684 151.557 74.2691 151.557 71.1073 151.507C67.9452 151.457 67.9205 151.357 67.7839 151.02C67.6476 150.682 67.3997 150.107 67.2383 149.27C67.077 148.433 67.0027 147.333 67.0277 146.084C67.0524 144.834 67.1765 143.434 67.4988 142.122C67.8211 140.81 68.3419 139.585 68.7139 138.798C69.0859 138.011 69.3092 137.661 70.0779 137.386Z" fill="#FEFEFE"/>
<path fill-rule="evenodd" clip-rule="evenodd" d="M50.7516 137.343C49.9828 137.077 48.6683 136.883 47.3291 136.701C45.9898 136.519 44.6259 136.35 43.2001 136.228C41.7739 136.107 40.2859 136.035 39.2196 135.998C38.1533 135.962 37.5084 135.962 37.0992 136.071C36.6899 136.18 36.5164 136.398 36.1319 137.501C35.7477 138.604 35.1525 140.591 34.7805 142.566C34.4085 144.541 34.2597 146.505 34.1603 147.923C34.0612 149.34 34.0115 150.213 33.9868 150.649C33.9621 151.085 33.962 151.085 37.1116 151.085C40.2612 151.085 46.5604 151.085 49.7224 151.037C52.8842 150.988 52.9092 150.891 53.0455 150.564C53.1818 150.237 53.4301 149.679 53.5911 148.867C53.7524 148.056 53.8268 146.989 53.8021 145.778C53.7771 144.566 53.6532 143.209 53.3306 141.936C53.0083 140.664 52.4875 139.476 52.1155 138.713C51.7435 137.949 51.5203 137.61 50.7516 137.343Z" fill="#FEFEFE"/>
<path fill-rule="evenodd" clip-rule="evenodd" d="M59.2342 18.7005C48.5011 18.7005 38.8155 22.7246 31.8065 29.0944C24.861 35.4062 20.5576 44.0245 20.5576 53.2402C20.5576 60.9199 23.9792 64.8587 29.5108 66.8547C36.6235 69.4213 47.3438 69.5901 59.2342 69.5901C71.1246 69.5901 81.845 69.4213 88.9577 66.8547C94.4893 64.8587 97.9108 60.9199 97.9108 53.2402C97.9108 44.0245 93.6075 35.4062 86.662 29.0944C79.653 22.7246 69.9673 18.7005 59.2342 18.7005ZM59.2342 12.2758C34.3398 12.2758 14.1587 31.2389 14.1587 53.2402C14.1587 75.2414 34.3398 76.0148 59.2342 76.0148C84.1286 76.0148 104.31 75.2414 104.31 53.2402C104.31 31.2389 84.1286 12.2758 59.2342 12.2758Z" fill="#446AB1"/>
<path fill-rule="evenodd" clip-rule="evenodd" d="M36.424 38.8967C40.6393 38.8967 44.0564 42.3269 44.0564 46.5583C44.0564 50.7894 40.6393 54.2195 36.424 54.2195C32.2088 54.2195 28.792 50.7894 28.792 46.5583C28.792 42.3269 32.2088 38.8967 36.424 38.8967ZM55.423 61.3013C54.5194 60.0746 53.9495 58.6061 53.8181 57.038L53.8193 57.0377L53.8181 57.0231C53.7415 55.9906 54.5131 55.0912 55.5416 55.0143C57.8932 54.8323 60.0938 54.5628 62.1433 54.2064C64.1737 53.8533 66.0573 53.414 67.7942 52.8886L67.7948 52.8904L67.8527 52.874C68.8488 52.6106 69.8692 53.208 70.1313 54.2082C70.5345 55.7351 70.4924 57.3072 70.0559 58.7562C69.62 60.2032 68.7855 61.5355 67.6032 62.5856C66.4227 63.6342 65.0022 64.3027 63.5138 64.5616C62.0288 64.8199 60.4697 64.67 59.009 64.0821C57.5521 63.496 56.3217 62.5215 55.423 61.3013ZM84.407 37.2991C88.6223 37.2991 92.0394 40.7292 92.0394 44.9603C92.0394 49.1917 88.6223 52.6218 84.407 52.6218C80.1921 52.6218 76.775 49.1917 76.775 44.9603C76.775 40.7292 80.1921 37.2991 84.407 37.2991Z" fill="#8AB2FC"/>
<path d="M36.1077 39.1877C38.2583 39.1877 40.2053 40.0332 41.6148 41.4001C43.024 42.7673 43.8957 44.656 43.8957 46.742C43.8957 48.828 43.024 50.7166 41.6148 52.0835C40.2053 53.4507 38.2583 54.2962 36.1077 54.2962C33.9572 54.2962 32.0102 53.4507 30.601 52.0835C29.1915 50.7166 28.3198 48.828 28.3198 46.742C28.3198 44.656 29.1915 42.7673 30.601 41.4001C32.0102 40.0332 33.9572 39.1877 36.1077 39.1877ZM41.5345 41.4781C40.1455 40.1311 38.227 39.2978 36.1077 39.2978C33.9888 39.2978 32.07 40.1311 30.6813 41.4781C29.2924 42.8254 28.4335 44.6863 28.4335 46.742C28.4335 48.7974 29.2924 50.6586 30.6813 52.0055C32.07 53.3525 33.9888 54.1859 36.1077 54.1859C38.227 54.1859 40.1455 53.3525 41.5345 52.0055C42.9231 50.6586 43.7819 48.7974 43.7819 46.742C43.7819 44.6863 42.9231 42.8254 41.5345 41.4781Z" fill="#446AB1"/>
<path d="M84.2518 37.2991C86.4024 37.2991 88.3494 38.1713 89.7589 39.5809C91.1681 40.9905 92.0397 42.9385 92.0397 45.0894C92.0397 47.2406 91.1681 49.1882 89.7589 50.5981C88.3494 52.0077 86.4024 52.8797 84.2518 52.8797C82.1012 52.8797 80.1543 52.0077 78.7451 50.5981C77.3356 49.1885 76.4639 47.2406 76.4639 45.0894C76.4639 42.9385 77.3356 40.9905 78.7451 39.5809C80.1543 38.1713 82.1012 37.2991 84.2518 37.2991ZM89.6785 39.6613C88.2899 38.2722 86.3711 37.4128 84.2518 37.4128C82.1328 37.4128 80.2141 38.2722 78.8254 39.6613C77.4368 41.0504 76.5776 42.9698 76.5776 45.0894C76.5776 47.2093 77.4368 49.1287 78.8254 50.5177C80.2141 51.9068 82.1328 52.7662 84.2518 52.7662C86.3711 52.7662 88.2899 51.9068 89.6785 50.5177C91.0671 49.1287 91.9263 47.2093 91.9263 45.0894C91.9263 42.9698 91.0671 41.0504 89.6785 39.6613Z" fill="#446AB1"/>
<path fill-rule="evenodd" clip-rule="evenodd" d="M60.3244 135.032C57.501 135.032 54.6776 135.032 51.7129 134.857C48.7482 134.682 45.6424 134.331 43.3837 133.981C41.1247 133.63 39.713 133.279 38.3366 130.685C37.4494 129.013 36.5772 126.409 35.8706 123.549C36.7453 124.105 37.9956 124.373 39.621 124.352C41.1998 115.032 43.4126 107.103 46.2597 100.566H73.9998C76.8457 108.066 78.7424 115.798 79.69 123.764C81.6266 123.902 83.2252 123.65 84.4861 123.008C83.7579 126.079 82.8316 128.908 81.8889 130.685C80.5124 133.279 79.1007 133.63 76.842 133.981C74.5833 134.331 71.4772 134.682 68.5125 134.857C65.5481 135.032 63.1481 135.032 60.3244 135.032Z" fill="#446AB1"/>
<path fill-rule="evenodd" clip-rule="evenodd" d="M60.3916 135.032C57.5497 135.032 54.7078 135.032 51.7236 134.856C48.7394 134.68 45.6133 134.328 43.3398 133.976C41.0659 133.624 39.6449 133.272 38.2595 130.666C37.3665 128.986 36.4886 126.371 35.777 123.498C35.3849 121.913 35.0431 120.251 34.7782 118.623C34.0321 114.045 33.8898 109.749 34.0321 106.052C34.174 102.355 34.6005 99.2559 35.2224 96.7207C35.8446 94.1851 36.6623 92.2132 37.6214 91.0513C38.5807 89.8893 39.6811 89.537 41.8301 89.326C43.9791 89.1146 47.1762 89.0442 50.4091 88.9736C53.642 88.9032 56.9104 88.8329 60.1787 88.7626C63.4468 88.8329 66.7151 88.9032 69.948 88.9736C73.1809 89.0442 76.378 89.1146 78.527 89.326C80.676 89.537 81.7767 89.8893 82.7358 91.0513C83.6951 92.2132 84.5128 94.1851 85.1347 96.7207C85.7566 99.2559 86.1831 102.355 86.3253 106.052C86.4673 109.749 86.3254 114.045 85.5792 118.623C85.3443 120.065 85.049 121.535 84.7119 122.954C83.979 126.039 83.0466 128.881 82.0976 130.666C80.7122 133.272 79.2912 133.624 77.0176 133.976C74.7438 134.328 71.6177 134.68 68.6335 134.856C65.6496 135.032 63.2338 135.032 60.3916 135.032C46.955 135.032 38.1512 135.058 38.1512 112.886C38.1512 90.7144 46.955 91.8497 60.3916 91.8497C73.8282 91.8497 82.5225 91.4406 82.5225 112.232C82.5225 133.024 73.8282 135.032 60.3916 135.032Z" fill="black" fill-opacity="0.109804"/>
<path d="M64.7116 124.712C64.1051 125.157 63.439 125.535 62.7292 125.829C61.642 126.28 60.4577 126.534 59.2348 126.534C56.6932 126.534 54.3921 125.503 52.7265 123.837C51.061 122.171 50.0308 119.869 50.0308 117.327C50.0308 114.785 51.061 112.483 52.7265 110.817C54.3921 109.151 56.6932 108.12 59.2348 108.12C61.7761 108.12 64.0772 109.151 65.7427 110.817C67.4083 112.483 68.4386 114.785 68.4386 117.327C68.4386 117.818 68.4244 118.136 68.3441 118.639L65.6219 118.637H61.0279C60.6238 119.189 59.9712 119.549 59.2345 119.549C58.0082 119.549 57.014 118.554 57.014 117.327C57.014 116.1 58.0082 115.106 59.2345 115.106C59.9712 115.106 60.6238 115.464 61.0279 116.017H65.6119C65.352 114.744 64.7213 113.607 63.8373 112.723C62.6598 111.545 61.0321 110.816 59.2348 110.816C57.4372 110.816 55.8095 111.545 54.632 112.723C53.4542 113.901 52.7256 115.529 52.7256 117.327C52.7256 119.125 53.4542 120.753 54.632 121.931C55.8095 123.109 57.4372 123.838 59.2348 123.838C60.1085 123.838 60.9461 123.66 61.7083 123.344C62.4847 123.023 63.1902 122.557 63.7825 121.989L63.8373 121.931C64.3635 121.405 65.2166 121.405 65.7427 121.931L67.9987 124.188C68.5249 124.714 68.5249 125.568 67.9987 126.094C67.4728 126.62 66.6194 126.62 66.0936 126.094L64.7116 124.712Z" fill="#FEFEFE"/>
<path fill-rule="evenodd" clip-rule="evenodd" d="M95.103 87.4246C97.7396 86.0084 102.493 83.5601 107.615 81.2084C97.3106 86.371 97.3374 88.4686 98.9227 91.7074C99.9442 93.7939 101.132 97.0842 105.414 96.4644C103.605 97.5473 102.017 98.4521 100.814 99.0981C93.3601 103.102 89.3646 100.159 88.2413 97.004C87.1179 93.8487 87.6491 91.4286 95.103 87.4246Z" fill="black" fill-opacity="0.109804"/>
<path fill-rule="evenodd" clip-rule="evenodd" d="M31.281 102.215C28.3466 110.052 18.3888 135.306 15.0972 134.543C14.8984 134.497 14.7454 134.359 14.6323 134.141C17.0015 131.771 21.1395 122.906 24.8235 112.874C29.2746 100.754 32.7525 95.1181 29.117 93.6126C28.4966 93.3559 27.9281 93.3295 27.3899 93.5218C28.6812 92.0702 29.8379 91.9098 30.9625 92.1704C33.0356 92.6512 34.215 94.3785 31.281 102.215Z" fill="black" fill-opacity="0.109804"/>
<path fill-rule="evenodd" clip-rule="evenodd" d="M50.7024 137.335C49.9212 137.068 48.5854 136.873 47.2245 136.691C45.8636 136.508 44.4776 136.338 43.0287 136.216C41.5795 136.095 40.0674 136.022 38.9839 135.986C38.8869 135.982 38.7933 135.979 38.7031 135.977C46.6987 137.776 49.7667 138.447 50.6051 141.043C51.8464 147.379 50.6088 150.801 48.7658 151.085C49.0831 151.081 49.3818 151.078 49.6566 151.074C52.8696 151.025 52.895 150.928 53.0335 150.6C53.172 150.271 53.4242 149.712 53.5878 148.897C53.7518 148.083 53.8274 147.013 53.8023 145.797C53.7768 144.581 53.651 143.22 53.3232 141.943C52.9957 140.666 52.4664 139.475 52.0884 138.709C51.7104 137.943 51.4836 137.602 50.7024 137.335Z" fill="black" fill-opacity="0.109804"/>
<path fill-rule="evenodd" clip-rule="evenodd" d="M70.1273 137.378C70.9088 137.102 72.2443 136.901 73.6052 136.713C74.9662 136.525 76.3522 136.349 77.8014 136.224C79.2503 136.099 80.7624 136.023 81.846 135.986C81.943 135.982 82.0366 135.979 82.1268 135.977C74.1311 137.832 71.3745 138.29 70.3796 141.59C69.1386 147.501 70.2209 151.264 72.064 151.557C71.7467 151.554 71.4479 151.55 71.1734 151.545C67.9601 151.495 67.935 151.395 67.7962 151.056C67.6577 150.718 67.4057 150.141 67.2418 149.301C67.0779 148.461 67.0024 147.358 67.0278 146.104C67.0529 144.85 67.179 143.446 67.5065 142.129C67.834 140.813 68.3632 139.584 68.7413 138.794C69.1193 138.004 69.3462 137.654 70.1273 137.378Z" fill="black" fill-opacity="0.109804"/>
<path fill-rule="evenodd" clip-rule="evenodd" d="M0.472656 55.2405C0.618119 57.699 0.949988 60.1509 1.4688 62.596C4.05167 65.0733 7.11273 66.9726 10.6517 68.2942V68.2939C18.5055 81.7016 37.6135 85.9297 59.9426 85.9297C82.275 85.9297 101.385 81.7004 109.237 68.2879L109.237 68.2942C112.776 66.9726 115.837 65.0733 118.42 62.596C118.938 60.1551 119.27 57.7079 119.415 55.2536L108.882 56.8619C105.056 71.1394 97.6613 81.1773 59.9438 81.1773C22.3654 81.1773 15.5459 73.807 11.006 56.8619L0.472656 55.2405Z" fill="black" fill-opacity="0.109804"/>
<path fill-rule="evenodd" clip-rule="evenodd" d="M24.4692 30.2991C25.8 32.0659 30.0824 31.0307 34.0339 27.9868C37.9855 24.9426 40.11 21.0429 38.7792 19.2757C37.4484 17.5089 33.1663 18.5442 29.2147 21.5881C25.2632 24.6322 23.1383 28.532 24.4692 30.2991Z" fill="#FEFEFE" fill-opacity="0.270588"/>
</svg>
