<svg width="28" height="35" viewBox="0 0 28 35" fill="none" xmlns="http://www.w3.org/2000/svg">
<path d="M3.23389 33.2296V15.8714C3.23389 15.3001 3.69704 14.8369 4.26837 14.8369H23.1233C23.6947 14.8369 24.1578 15.3001 24.1578 15.8714V33.2166C24.1578 34.0111 23.2994 34.509 22.6097 34.1146L14.793 29.6437C14.1606 29.282 13.3847 29.2795 12.75 29.6372L4.77625 34.1308C4.08666 34.5194 3.23389 34.0212 3.23389 33.2296Z" fill="#C3C6C8" stroke="#C3C6C8" stroke-width="0.206897"/>
<circle cx="13.7908" cy="13.7908" r="13.7908" fill="#C3C6C8"/>
<circle cx="13.8859" cy="13.8859" r="9.51088" fill="#959799"/>
<path d="M10.7848 9.54697C11.8551 8.97318 12.9199 8.68628 13.9792 8.68628C15.0496 8.68628 15.8606 8.95662 16.4123 9.49731C16.9641 10.038 17.2399 10.8049 17.2399 11.798C17.2399 12.7801 17.0634 13.5856 16.7103 14.2146C16.3682 14.8435 15.7337 15.6932 14.8068 16.7635H17.273V19.1304H11.1986L11.0661 17.4421C12.1144 16.3277 12.8592 15.4835 13.3006 14.9097C13.742 14.3359 14.0399 13.8615 14.1944 13.4863C14.3489 13.1111 14.4261 12.7635 14.4261 12.4435C14.4261 12.1125 14.3434 11.8587 14.1779 11.6821C14.0234 11.5056 13.8192 11.4173 13.5654 11.4173C13.3117 11.4173 13.0689 11.4504 12.8372 11.5166C12.5172 11.5939 12.0096 11.7925 11.3144 12.1125L10.7848 9.54697Z" fill="#C3C6C8"/>
</svg>
