<svg width="390" height="384" viewBox="0 0 390 384" fill="none" xmlns="http://www.w3.org/2000/svg">
<circle cx="195" cy="84" r="300" fill="#E4F4FF"/>
<path fill-rule="evenodd" clip-rule="evenodd" d="M195 103C224.934 103 251.791 116.156 270.118 136.997L195 212.114L168.021 185.135C163.99 181.104 157.452 181.104 153.42 185.135C149.389 189.167 149.389 195.705 153.42 199.736L187.7 234.016C191.732 238.048 198.269 238.048 202.301 234.016L282.232 154.085C290.36 168.545 295 185.23 295 203C295 258.228 250.228 303 195 303C139.772 303 95 258.228 95 203C95 147.772 139.772 103 195 103Z" fill="#3B73C5"/>
</svg>
