<svg width="70" height="75" viewBox="0 0 70 75" fill="none" xmlns="http://www.w3.org/2000/svg">
<path d="M69.9534 23.9508C70.2475 25.6377 69.118 27.2438 67.4312 27.5392C65.7443 27.8334 64.1382 26.7051 63.8428 25.017C63.0248 20.3773 60.6019 16.3669 57.2071 13.5182C53.8099 10.6671 49.4357 8.97658 44.7178 8.97658C39.3557 8.97658 34.5 11.15 30.986 14.6639C27.4733 18.1778 25.2987 23.0323 25.2987 28.3957C25.2987 31.8625 26.2644 35.1989 27.9574 38.1009C29.6654 41.0252 32.092 43.5002 35.0002 45.2218C38.8468 46.9819 41.6309 49.3117 43.7807 52.493C45.8362 55.5353 47.2375 59.2887 48.4068 64.0501L48.4403 64.2016C48.727 65.5222 49.4668 66.6443 50.471 67.4213C51.49 68.2083 52.7821 68.6452 54.1524 68.5781C54.2468 68.5744 54.3411 68.5744 54.433 68.5781C56.9105 68.5546 59.1596 67.548 60.8055 65.9257C62.4762 64.2798 63.52 62.0021 63.5461 59.4812C63.5598 57.7745 64.9549 56.4004 66.6616 56.4141C68.3695 56.4277 69.7423 57.8229 69.7287 59.5295C69.6853 63.7659 67.9376 67.5852 65.1448 70.3382C62.3918 73.0516 58.6159 74.7334 54.4491 74.7607H54.4429C51.5595 74.8997 48.8387 73.98 46.6889 72.3192C44.5602 70.6721 42.9937 68.2989 42.3893 65.5074C41.3925 61.4609 40.2519 58.3429 38.6407 55.9598C37.1376 53.7355 35.1516 52.0933 32.3713 50.8322L32.375 50.8248C32.2831 50.7838 32.1938 50.7379 32.1044 50.687C28.1424 48.4019 24.8643 45.1089 22.6003 41.2288C20.3648 37.3996 19.0925 32.9895 19.0925 28.3957C19.0925 21.3194 21.961 14.9134 26.5983 10.2749C31.2355 5.63765 37.6428 2.76917 44.7178 2.76917C50.9302 2.76917 56.6982 5.00212 61.1828 8.76555C65.6711 12.5315 68.8735 17.8278 69.9534 23.9508ZM35.4619 24.3468C35.102 25.6625 33.898 26.6294 32.4681 26.6294C30.7539 26.6294 29.365 25.2405 29.365 23.5263C29.365 23.0633 29.4668 22.6239 29.648 22.2292C31.0804 18.3926 33.9042 15.4633 37.3424 13.8149C40.7831 12.1653 44.837 11.7979 48.7196 13.0888C48.9057 13.1347 49.0857 13.1992 49.257 13.2774C53.1061 14.7148 56.0044 17.5473 57.6167 20.9967C59.2601 24.5106 59.5655 28.6588 58.1765 32.6084C57.7508 33.831 56.6337 34.6167 55.4148 34.68C54.2021 34.8166 53.1433 35.426 52.4048 36.3098C51.6439 37.2184 51.2306 38.4149 51.3435 39.6822C51.4565 40.9396 52.0746 42.0393 52.9845 42.8002C53.893 43.5599 55.0896 43.9732 56.3569 43.8602H56.3581C56.409 43.8565 56.5418 43.8341 56.7565 43.7957C56.8956 43.7708 57.0259 43.7423 57.1463 43.71C58.7996 43.2681 60.4989 44.2512 60.9395 45.9045C61.3814 47.5578 60.3996 49.2571 58.7463 49.699C58.4335 49.7821 58.1244 49.8517 57.8228 49.9063C57.6614 49.9348 57.4554 49.9621 57.2059 49.9882C57.0172 50.0242 56.8223 50.0428 56.6237 50.0428V50.0391C53.7528 50.2253 51.0605 49.2683 49.0088 47.5516C46.9756 45.8524 45.5656 43.3997 45.223 40.566C45.182 40.3662 45.1609 40.1601 45.1609 39.9491H45.1647C44.9797 37.0781 45.9355 34.3859 47.6521 32.3341C48.9616 30.7689 50.7167 29.5724 52.7486 28.9493C53.0502 27.0887 52.7734 25.2343 52.0163 23.6144C51.0456 21.5391 49.2843 19.8436 46.9434 19.0194C44.5751 18.1865 42.0988 18.3901 40.0098 19.3918C37.9816 20.3637 36.3147 22.089 35.4619 24.3468Z" fill="#222222"/>
<path fill-rule="evenodd" clip-rule="evenodd" d="M24.8443 0.812534C25.7665 1.827 25.6918 3.39703 24.6773 4.3193C18.235 10.1761 14.4081 18.5697 14.423 27.5537C14.4368 35.7326 17.6334 43.4107 23.0814 49.1255C24.0274 50.1179 23.9898 51.6893 22.9975 52.6353C22.0051 53.5813 20.4338 53.5437 19.4877 52.5514C13.1788 45.9333 9.47408 37.0385 9.45809 27.5621L9.45809 27.562C9.44077 17.153 13.8755 7.42951 21.3375 0.645607C22.3519 -0.276665 23.922 -0.20193 24.8443 0.812534Z" fill="#222222"/>
<path fill-rule="evenodd" clip-rule="evenodd" d="M6.88831 7.82834C8.14766 8.37033 8.72919 9.83061 8.1872 11.09C5.00356 18.4873 4.1519 26.7074 5.75319 34.6064C6.02559 35.9501 5.15713 37.2602 3.81343 37.5326C2.46973 37.805 1.15963 36.9365 0.887234 35.5928C-0.914941 26.7029 0.0431147 17.4538 3.62669 9.12722C4.16868 7.86787 5.62896 7.28634 6.88831 7.82834Z" fill="#222222"/>
</svg>
