<svg width="163" height="153" viewBox="0 0 163 153" fill="none" xmlns="http://www.w3.org/2000/svg">
<mask id="mask0_1254_1274" style="mask-type:alpha" maskUnits="userSpaceOnUse" x="0" y="0" width="163" height="153">
<rect width="162.5" height="153" rx="12" fill="#E4F4FF"/>
</mask>
<g mask="url(#mask0_1254_1274)">
<ellipse cx="100.667" cy="147.005" rx="90.5" ry="73" transform="rotate(-15.9388 100.667 147.005)" fill="#E4F4FF"/>
<path d="M184.722 107.064C200.732 143.742 176.873 189.705 131.19 209.646C85.5073 229.587 35.5805 215.831 19.5705 179.154C3.56039 142.476 27.4196 96.5123 73.1026 76.5715C118.785 56.6307 168.712 70.3861 184.722 107.064Z" stroke="#4282CE" stroke-width="0.8"/>
<path d="M188.997 125.897C196.972 165.115 164.017 205.063 115.171 214.995C66.325 224.927 20.3857 201.022 12.4112 161.804C4.43669 122.587 37.392 82.6392 86.2378 72.7068C135.084 62.7745 181.023 86.68 188.997 125.897Z" stroke="#4282CE" stroke-width="0.8"/>
<circle cx="76.5" cy="74.5" r="1.5" fill="#20304B"/>
<circle cx="71.5" cy="76.5" r="2.5" fill="#20304B"/>
<circle cx="15.5" cy="126.5" r="2.5" fill="#20304B"/>
<circle cx="150.5" cy="79.5" r="1.5" fill="#20304B"/>
</g>
</svg>
