<svg width="108" height="90" viewBox="0 0 108 90" fill="none" xmlns="http://www.w3.org/2000/svg">
<mask id="mask0_1106_1311" style="mask-type:alpha" maskUnits="userSpaceOnUse" x="0" y="0" width="108" height="90">
<path d="M0 10C0 4.47715 4.47715 0 10 0H98C103.523 0 108 4.47715 108 10V80C108 85.5229 103.523 90 98 90H10C4.47715 90 0 85.5229 0 80V10Z" fill="#E6D4FF"/>
</mask>
<g mask="url(#mask0_1106_1311)">
<path d="M116.098 95.7959C108.902 128.142 76.8463 148.53 44.5 141.334C3.01421 132.105 -28.3496 79.6801 -21.1536 47.3338C-7.58104 -13.6747 43.1216 56.2937 89 66.5001C121.346 73.6961 123.294 63.4496 116.098 95.7959Z" fill="#F8F4FF"/>
</g>
</svg>
