<svg width="108" height="90" viewBox="0 0 108 90" fill="none" xmlns="http://www.w3.org/2000/svg">
<mask id="mask0_1130_1258" style="mask-type:alpha" maskUnits="userSpaceOnUse" x="0" y="0" width="108" height="90">
<path d="M0 10C0 4.47715 4.47715 0 10 0H98C103.523 0 108 4.47715 108 10V80C108 85.5229 103.523 90 98 90H10C4.47715 90 0 85.5229 0 80V10Z" fill="#FFD6DD"/>
</mask>
<g mask="url(#mask0_1130_1258)">
<path d="M-48.8382 74.3267C-69.7909 111.802 -6.28753 165.512 27.3521 153.586C82.4895 134.037 146.628 105.462 127.915 52.6814C100.855 -23.6428 79.237 63.2737 29.5979 50.9182C-2.24844 42.9914 -27.8855 36.8519 -48.8382 74.3267Z" fill="#FCFBF2"/>
</g>
</svg>
