<svg width="108" height="90" viewBox="0 0 108 90" fill="none" xmlns="http://www.w3.org/2000/svg">
<mask id="mask0_1130_1244" style="mask-type:alpha" maskUnits="userSpaceOnUse" x="0" y="0" width="108" height="90">
<path d="M0 10C0 4.47715 4.47715 0 10 0H98C103.523 0 108 4.47715 108 10V80C108 85.5229 103.523 90 98 90H10C4.47715 90 0 85.5229 0 80V10Z" fill="#FFD6DD"/>
</mask>
<g mask="url(#mask0_1130_1244)">
<path d="M-38 76.9999C-38.9715 119.924 -5.83011 167.692 29.852 168.5C75.6162 169.536 136.028 106.423 137 63.4999C138.833 -17.4584 61.148 64.68 11.5 76.9999C-20.352 84.9039 -37.0284 34.0764 -38 76.9999Z" fill="#F2FCFB"/>
</g>
</svg>
