<svg width="108" height="90" viewBox="0 0 108 90" fill="none" xmlns="http://www.w3.org/2000/svg">
<mask id="mask0_1123_1234" style="mask-type:alpha" maskUnits="userSpaceOnUse" x="0" y="0" width="108" height="90">
<path d="M0 10C0 4.47715 4.47715 0 10 0H98C103.523 0 108 4.47715 108 10V80C108 85.5229 103.523 90 98 90H10C4.47715 90 0 85.5229 0 80V10Z" fill="#FFD6DD"/>
</mask>
<g mask="url(#mask0_1123_1234)">
<path d="M114.5 66C137.441 89.912 114.5 111.322 93.5575 111.322C49.2201 111.322 -0.767116 140.338 -23.708 116.426C-66.9769 71.3253 5.23147 81.04 40.6132 47.095C65.559 23.1623 91.5591 42.088 114.5 66Z" fill="#FCF2F2"/>
</g>
</svg>
