<svg width="74" height="62" viewBox="0 0 74 62" fill="none" xmlns="http://www.w3.org/2000/svg">
<path fill-rule="evenodd" clip-rule="evenodd" d="M38.4541 56.8428C38.4541 58.6505 36.2463 59.5306 35.0027 58.2188L23.7932 46.3946L22.6843 45.225C22.3755 44.8992 21.966 44.6868 21.5218 44.622L1.71109 41.7298C0.72853 41.5864 0 40.7438 0 39.7508V22.1105C0 21.1176 0.728432 20.275 1.71091 20.1315L21.5219 17.2375C21.9661 17.1727 22.3754 16.9603 22.6842 16.6345L23.7932 15.4648L35.0027 3.64068C36.2463 2.32884 38.4541 3.20902 38.4541 5.01667V56.8428Z" fill="#222222"/>
<path fill-rule="evenodd" clip-rule="evenodd" d="M53.5554 30.9297C53.5554 25.7233 49.8227 21.3893 44.8872 20.4576C43.8018 20.2527 42.8981 21.1678 42.8981 22.2723V39.587C42.8981 40.6916 43.8018 41.6067 44.8872 41.4018C49.8227 40.4701 53.5554 36.1361 53.5554 30.9297ZM73.7409 30.9297C73.7409 22.4135 70.2888 14.7033 64.7056 9.12213C59.5646 3.98112 52.6171 0.644874 44.8973 0.150623C43.795 0.0800491 42.8981 0.982253 42.8981 2.08682V8.18868C42.8981 9.29325 43.7958 10.1786 44.8953 10.2836C49.8266 10.7544 54.2534 12.9511 57.5651 16.2627C61.3182 20.0158 63.6391 25.2011 63.6391 30.9297C63.6391 36.6583 61.3182 41.8436 57.5651 45.5967C54.2534 48.9084 49.8266 51.1065 44.8953 51.5778C43.7958 51.6829 42.8981 52.5682 42.8981 53.6727V59.7726C42.8981 60.8771 43.795 61.7793 44.8973 61.7088C52.6171 61.2148 59.5646 57.8803 64.7056 52.7393C70.2888 47.1561 73.7409 39.4459 73.7409 30.9297Z" fill="#222222"/>
</svg>
