<svg width="24" height="33" viewBox="0 0 24 33" fill="none" xmlns="http://www.w3.org/2000/svg">
<path d="M12.0004 0.5C13.3405 0.5 14.6256 1.03233 15.5732 1.97988C16.5207 2.92743 17.053 4.21259 17.053 5.55263V15.6579C17.053 16.9979 16.5207 18.2831 15.5732 19.2306C14.6256 20.1782 13.3405 20.7105 12.0004 20.7105C10.6604 20.7105 9.37521 20.1782 8.42766 19.2306C7.48011 18.2831 6.94778 16.9979 6.94778 15.6579V5.55263C6.94778 4.21259 7.48011 2.92743 8.42766 1.97988C9.37521 1.03233 10.6604 0.5 12.0004 0.5ZM23.7899 15.6579C23.7899 21.6032 19.3941 26.5042 13.6846 27.3295V32.5H10.3162V27.3295C4.60673 26.5042 0.210938 21.6032 0.210938 15.6579H3.57936C3.57936 17.8913 4.46657 20.0332 6.04583 21.6125C7.62508 23.1917 9.76701 24.0789 12.0004 24.0789C14.2338 24.0789 16.3757 23.1917 17.955 21.6125C19.5342 20.0332 20.4215 17.8913 20.4215 15.6579H23.7899Z" fill="#3B73C5"/>
</svg>
