<svg width="48" height="33" viewBox="0 0 48 33" fill="none" xmlns="http://www.w3.org/2000/svg">
<path d="M24.3305 0.5C25.6705 0.5 26.9557 1.03233 27.9032 1.97988C28.8508 2.92743 29.3831 4.21259 29.3831 5.55263V15.6579C29.3831 16.9979 28.8508 18.2831 27.9032 19.2306C26.9557 20.1782 25.6705 20.7105 24.3305 20.7105C22.9904 20.7105 21.7053 20.1782 20.7577 19.2306C19.8102 18.2831 19.2779 16.9979 19.2779 15.6579V5.55263C19.2779 4.21259 19.8102 2.92743 20.7577 1.97988C21.7053 1.03233 22.9904 0.5 24.3305 0.5ZM34.4358 15.6579C35.3659 15.6579 36.1326 16.4159 36.0014 17.3368C35.2648 22.5057 31.1767 26.5833 26.0147 27.3295V32.5H22.6463V27.3295C17.4843 26.5833 13.3962 22.5057 12.6596 17.3368C12.5283 16.4159 13.2951 15.6579 14.2252 15.6579C15.1554 15.6579 15.8925 16.4193 16.0773 17.331C16.4037 18.941 17.197 20.4335 18.3759 21.6125C19.9552 23.1917 22.0971 24.0789 24.3305 24.0789C26.5639 24.0789 28.7058 23.1917 30.2851 21.6125C31.464 20.4335 32.2573 18.941 32.5837 17.331C32.7685 16.4193 33.5056 15.6579 34.4358 15.6579Z" fill="white"/>
<path d="M44.1135 1.61839C44.3372 1.49579 44.6004 1.46706 44.8453 1.53851C45.0902 1.60995 45.2967 1.77573 45.4193 1.99938C46.7617 4.45215 47.4633 7.20408 47.459 10.0002C47.459 12.8967 46.7201 15.6239 45.4193 17.9997C45.2969 18.2235 45.0905 18.3896 44.8456 18.4612C44.6007 18.5329 44.3373 18.5044 44.1135 18.3819C43.8896 18.2594 43.7236 18.0531 43.6519 17.8082C43.5802 17.5633 43.6087 17.2999 43.7312 17.076C44.9189 14.907 45.5397 12.4731 45.5361 10.0002C45.5361 7.43457 44.8818 5.02292 43.7312 2.92427C43.6705 2.81343 43.6323 2.69172 43.6187 2.5661C43.6051 2.44049 43.6163 2.31342 43.6518 2.19215C43.6873 2.07089 43.7464 1.9578 43.8256 1.85936C43.9048 1.76091 44.0026 1.67903 44.1135 1.61839ZM40.1342 4.94595C40.3686 4.84529 40.6334 4.84185 40.8704 4.93639C41.1073 5.03093 41.297 5.21571 41.3978 5.45009C42.0132 6.88804 42.3301 8.43604 42.3291 10.0002C42.3297 11.5634 42.0129 13.1105 41.3978 14.5477C41.3505 14.6673 41.2796 14.7762 41.1895 14.868C41.0993 14.9598 40.9917 15.0326 40.8729 15.082C40.7541 15.1315 40.6267 15.1566 40.498 15.1559C40.3693 15.1552 40.2421 15.1288 40.1239 15.078C40.0056 15.0273 39.8988 14.9534 39.8096 14.8607C39.7204 14.7679 39.6508 14.6583 39.6047 14.5381C39.5587 14.418 39.5372 14.2898 39.5416 14.1613C39.5459 14.0327 39.576 13.9063 39.6301 13.7895C40.1418 12.5918 40.4049 11.3026 40.4036 10.0002C40.4045 8.69761 40.1409 7.40844 39.6288 6.21079C39.5281 5.97637 39.5247 5.71157 39.6192 5.47462C39.7138 5.23767 39.8986 5.04797 40.133 4.94724" fill="white"/>
<path d="M3.88654 1.61839C3.66284 1.49579 3.39961 1.46706 3.15472 1.53851C2.90984 1.60995 2.70335 1.77573 2.58066 1.99938C1.23829 4.45215 0.536738 7.20408 0.541019 10.0002C0.541019 12.8967 1.27991 15.6239 2.58066 17.9997C2.70314 18.2235 2.90953 18.3896 3.15443 18.4612C3.39933 18.5329 3.66268 18.5044 3.88654 18.3819C4.11041 18.2594 4.27645 18.0531 4.34814 17.8082C4.41983 17.5633 4.39129 17.2999 4.26882 17.076C3.08111 14.907 2.46029 12.4731 2.46393 10.0002C2.46393 7.43457 3.11815 5.02292 4.26882 2.92427C4.32947 2.81343 4.36769 2.69172 4.38131 2.5661C4.39492 2.44049 4.38366 2.31342 4.34816 2.19215C4.31266 2.07089 4.25362 1.9578 4.17442 1.85936C4.09521 1.76091 3.99739 1.67903 3.88654 1.61839ZM7.86577 4.94595C7.63135 4.84529 7.36655 4.84185 7.1296 4.93639C6.89265 5.03093 6.70295 5.21571 6.60222 5.45009C5.98677 6.88804 5.66992 8.43604 5.67091 10.0002C5.67027 11.5634 5.98711 13.1105 6.60222 14.5477C6.64953 14.6673 6.72036 14.7762 6.81051 14.868C6.90067 14.9598 7.00832 15.0326 7.12709 15.082C7.24586 15.1315 7.37335 15.1566 7.502 15.1559C7.63066 15.1552 7.75787 15.1288 7.87611 15.078C7.99435 15.0273 8.10122 14.9534 8.19039 14.8607C8.27957 14.7679 8.34924 14.6583 8.39527 14.5381C8.44131 14.418 8.46279 14.2898 8.45843 14.1613C8.45407 14.0327 8.42397 13.9063 8.3699 13.7895C7.85822 12.5918 7.59506 11.3026 7.59638 10.0002C7.59547 8.69761 7.85907 7.40844 8.37119 6.21079C8.47185 5.97637 8.47529 5.71157 8.38075 5.47462C8.28621 5.23767 8.10143 5.04797 7.86705 4.94724" fill="white"/>
</svg>
