<svg width="41" height="44" viewBox="0 0 41 44" fill="none" xmlns="http://www.w3.org/2000/svg">
<path d="M0 36.8292C0 36.3067 0.432638 35.8831 0.966247 35.8831C1.49986 35.8831 1.93249 36.3067 1.93249 36.8292C1.93249 38.2798 2.53933 39.5993 3.51681 40.5565C4.49429 41.5136 5.84195 42.1078 7.32346 42.1078H39.2789C39.8125 42.1078 40.2451 42.5314 40.2451 43.0539C40.2451 43.5763 39.8125 44 39.2789 44H7.32346C5.30852 44 3.47728 43.1934 2.15051 41.8943C0.823654 40.595 0 38.8021 0 36.8292Z" fill="white"/>
<path fill-rule="evenodd" clip-rule="evenodd" d="M39.5477 0.946002V30.6017C39.5477 31.1241 39.1152 31.5477 38.5818 31.5477H8.22865C6.51631 31.5477 4.96177 32.111 3.8253 33.085C2.75262 34.0042 2.04653 35.2978 1.93172 36.8329C1.92771 37.352 1.49686 37.7717 0.965906 37.7717C0.432485 37.7717 0 37.3481 0 36.8257V7.17001C0 5.1973 0.823362 3.4046 2.14975 2.10545C3.47605 0.806486 5.30664 0 7.32087 0H29.8036V7.15545L32.1466 4.96661L34.4897 7.15545V0H38.5818C39.1152 0 39.5477 0.423573 39.5477 0.946002ZM17.4081 21.0268C17.5823 21.4436 18.0395 21.6898 18.5183 21.6898C18.6707 21.6898 18.8231 21.671 18.9319 21.6331C19.5633 21.4246 19.868 20.8183 19.6503 20.2691L14.8394 9.1112C14.6435 8.69441 14.1863 8.4292 13.6856 8.44824C13.2067 8.4292 12.7279 8.69441 12.532 9.1112L7.72104 20.2691C7.50338 20.8183 7.80811 21.4246 8.43946 21.6331C8.57005 21.671 8.70065 21.6898 8.85305 21.6898C9.3319 21.6898 9.78911 21.4436 9.98505 21.0268L11.0516 18.5641H16.3414L17.4081 21.0268ZM11.9224 16.4803L13.6856 12.4075L15.449 16.4803H11.9224ZM31.6013 13.241C31.6013 12.6726 31.0789 12.218 30.4476 12.218C29.8816 12.218 29.4463 12.5778 29.3157 13.0515C28.4884 12.54 27.5088 12.218 26.4203 12.218C24.9401 12.218 23.6557 12.7673 22.7197 13.6387C21.7836 14.4913 21.2395 15.6657 21.2395 16.9728C21.2395 18.2611 21.7836 19.4355 22.7197 20.307C23.6557 21.1594 24.9401 21.6898 26.4203 21.6898C27.5088 21.6898 28.4884 21.3867 29.3157 20.8752C29.4463 21.3299 29.8816 21.6898 30.4476 21.6898C31.0789 21.6898 31.6013 21.2352 31.6013 20.6858V16.9728V13.241ZM28.4449 18.9241C27.9225 19.3976 27.1823 19.6628 26.4203 19.6628C25.6367 19.6628 24.8966 19.3976 24.3959 18.9241C23.8735 18.4314 23.5686 17.7496 23.5686 16.9728C23.5686 16.1772 23.8735 15.4953 24.3959 15.0216C24.8966 14.5101 25.6367 14.2449 26.4203 14.2449C27.1823 14.2449 27.9225 14.5101 28.4449 15.0216C28.9673 15.4953 29.2939 16.1772 29.2939 16.9728C29.2939 17.7496 28.9673 18.4314 28.4449 18.9241Z" fill="white"/>
<path d="M37.586 43.0624C37.584 43.5822 37.149 44.002 36.6145 44C36.08 43.9981 35.6484 43.5749 35.6504 43.055L35.725 33.7267C35.727 33.2069 36.162 32.7871 36.6965 32.7891C37.231 32.791 37.6626 33.2142 37.6606 33.734L37.586 43.0624Z" fill="white"/>
</svg>
