<svg width="35" height="35" viewBox="0 0 35 35" fill="none" xmlns="http://www.w3.org/2000/svg">
<mask id="mask0_129_301" style="mask-type:alpha" maskUnits="userSpaceOnUse" x="0" y="0" width="35" height="35">
<rect width="35" height="35" fill="#D9D9D9"/>
</mask>
<g mask="url(#mask0_129_301)">
<path d="M17.5 29.1665C16.3334 28.2429 15.0695 27.5259 13.7084 27.0155C12.3473 26.505 10.9375 26.2498 9.47921 26.2498C8.45837 26.2498 7.45577 26.3835 6.4714 26.6509C5.48702 26.9182 4.54518 27.295 3.64587 27.7811C3.13546 28.0485 2.64327 28.0363 2.16931 27.7446C1.69535 27.453 1.45837 27.0276 1.45837 26.4686V8.89567C1.45837 8.62831 1.52521 8.3731 1.65889 8.13005C1.79258 7.88699 1.9931 7.7047 2.26046 7.58317C3.37851 6.99984 4.54518 6.56234 5.76046 6.27067C6.97574 5.979 8.21532 5.83317 9.47921 5.83317C10.8889 5.83317 12.2683 6.01546 13.6172 6.38005C14.9662 6.74463 16.2605 7.2915 17.5 8.02067V25.6665C18.7396 24.8887 20.04 24.3054 21.4011 23.9165C22.7622 23.5276 24.1355 23.3332 25.5209 23.3332C26.3959 23.3332 27.2526 23.4061 28.0912 23.5519C28.9297 23.6978 29.7743 23.9165 30.625 24.2082V6.70817C30.9896 6.8297 31.3481 6.9573 31.7006 7.09098C32.053 7.22466 32.3994 7.38873 32.7396 7.58317C33.007 7.7047 33.2075 7.88699 33.3412 8.13005C33.4749 8.3731 33.5417 8.62831 33.5417 8.89567V26.4686C33.5417 27.0276 33.3047 27.453 32.8308 27.7446C32.3568 28.0363 31.8646 28.0485 31.3542 27.7811C30.4549 27.295 29.5131 26.9182 28.5287 26.6509C27.5443 26.3835 26.5417 26.2498 25.5209 26.2498C24.0625 26.2498 22.6528 26.505 21.2917 27.0155C19.9306 27.5259 18.6667 28.2429 17.5 29.1665ZM20.4167 21.8748V8.02067L27.7084 0.729004V15.3123L20.4167 21.8748ZM14.5834 24.2446V9.80713C13.7813 9.46685 12.9488 9.20557 12.086 9.02328C11.2231 8.84098 10.3542 8.74984 9.47921 8.74984C8.5799 8.74984 7.7049 8.83491 6.85421 9.00505C6.00351 9.17518 5.17712 9.43039 4.37504 9.77067V24.2446C5.22574 23.9287 6.07035 23.6978 6.9089 23.5519C7.74744 23.4061 8.60421 23.3332 9.47921 23.3332C10.3542 23.3332 11.211 23.4061 12.0495 23.5519C12.8881 23.6978 13.7327 23.9287 14.5834 24.2446Z" fill="#F1F8FD"/>
</g>
</svg>
