<svg width="25" height="24" viewBox="0 0 25 24" fill="none" xmlns="http://www.w3.org/2000/svg">
<mask id="mask0_149_1572" style="mask-type:alpha" maskUnits="userSpaceOnUse" x="0" y="0" width="25" height="24">
<rect x="0.5" width="24" height="24" fill="#D9D9D9"/>
</mask>
<g mask="url(#mask0_149_1572)">
<path d="M12.5 22C11.1167 22 9.81667 21.7375 8.6 21.2125C7.38333 20.6875 6.325 19.975 5.425 19.075C4.525 18.175 3.8125 17.1167 3.2875 15.9C2.7625 14.6833 2.5 13.3833 2.5 12C2.5 10.6167 2.7625 9.31667 3.2875 8.1C3.8125 6.88333 4.525 5.825 5.425 4.925C6.325 4.025 7.38333 3.3125 8.6 2.7875C9.81667 2.2625 11.1167 2 12.5 2C13.5833 2 14.6083 2.15833 15.575 2.475C16.1564 2.66546 16.7107 2.90114 17.2378 3.18204C17.785 3.47361 17.8528 4.20404 17.4182 4.64618L17.3653 4.69994C17.0354 5.03555 16.5188 5.08983 16.0992 4.8767C15.6748 4.66116 15.2334 4.48143 14.775 4.3375C14.0583 4.1125 13.3 4 12.5 4C10.2833 4 8.39583 4.77917 6.8375 6.3375C5.27917 7.89583 4.5 9.78333 4.5 12C4.5 14.2167 5.27917 16.1042 6.8375 17.6625C8.39583 19.2208 10.2833 20 12.5 20C14.7167 20 16.6042 19.2208 18.1625 17.6625C19.7208 16.1042 20.5 14.2167 20.5 12C20.5 11.7 20.4833 11.4 20.45 11.1C20.4377 10.9894 20.4232 10.88 20.4063 10.7717C20.3532 10.4295 20.449 10.076 20.6939 9.8311L20.7927 9.73226C21.3155 9.20949 22.1962 9.4205 22.3314 10.1473C22.3377 10.1815 22.344 10.2157 22.35 10.25C22.45 10.8167 22.5 11.4 22.5 12C22.5 13.3833 22.2375 14.6833 21.7125 15.9C21.1875 17.1167 20.475 18.175 19.575 19.075C18.675 19.975 17.6167 20.6875 16.4 21.2125C15.1833 21.7375 13.8833 22 12.5 22ZM11.8071 15.8913C11.4167 16.2826 10.7829 16.2829 10.3921 15.8921L7.55 13.05C7.1634 12.6634 7.1634 12.0366 7.55 11.65C7.9366 11.2634 8.5634 11.2634 8.95 11.65L11.1 13.8L20.4001 4.4767C20.7865 4.0893 21.4139 4.08891 21.8008 4.47582C22.1871 4.86209 22.1874 5.48825 21.8016 5.87494L11.8071 15.8913Z" fill="#2E4C7A"/>
</g>
</svg>
