<svg width="32" height="25" viewBox="0 0 32 25" fill="none" xmlns="http://www.w3.org/2000/svg">
<path d="M19.0414 20.6418C16.8912 20.6418 14.6908 20.6899 12.5475 20.6408C11.8817 20.676 11.6098 20.9509 11.2228 21.3582C10.3754 22.3946 9.53102 23.1929 8.68908 23.7525C7.78066 24.3558 6.86926 24.6888 5.95588 24.7498C4.91796 24.8202 3.5784 24.5354 2.6665 24.0299C1.70549 23.497 0.967229 22.6606 0.498878 21.6718C-0.107896 20.1546 -0.00369753 18.5813 0.0250783 16.9803C0.11984 14.0943 0.340615 11.6111 0.701801 9.61567C1.05951 7.63857 1.56409 6.11098 2.22891 5.1063C2.80442 4.15224 3.98522 2.82656 5.4776 1.79956C6.63012 1.00673 7.9801 0.376652 9.40699 0.198539C11.3345 -0.0386132 13.7159 -0.00140793 15.6791 0.0075225C17.7292 0.0075225 20.1563 -0.0539982 22.1656 0.193573C23.5315 0.31463 25.0328 1.02955 26.152 1.79956C27.6444 2.82656 28.8252 4.15224 29.4007 5.1063C30.0656 6.11098 30.5701 7.63857 30.9278 9.61567C31.289 11.6111 31.5098 14.0943 31.6051 16.9803C31.6284 18.4657 31.7445 20.3773 31.099 21.7387C30.589 22.7563 29.8815 23.5208 28.9632 24.0299C28.081 24.5186 27.0252 24.7592 25.7839 24.7503C24.9033 24.7989 23.659 24.2298 22.9406 23.7525C22.0986 23.1929 21.2537 22.3946 20.4068 21.3582C20.0119 20.9429 19.6557 20.6274 19.0414 20.6418ZM8.64245 7.18015V9.52538H6.29721C5.79066 9.52538 5.37936 9.93618 5.37936 10.4432C5.37936 10.9503 5.79066 11.3611 6.29721 11.3611H8.64245V13.7063C8.64245 14.2133 9.05374 14.6246 9.56079 14.6246C10.0673 14.6246 10.4786 14.2133 10.4786 13.7063V11.3611H12.8239C13.3309 11.3611 13.7417 10.9503 13.7417 10.4432C13.7417 9.93618 13.3309 9.52538 12.8239 9.52538H10.4786V7.18015C10.4786 6.6731 10.0673 6.2618 9.56079 6.2618C9.05374 6.2618 8.64245 6.6731 8.64245 7.18015ZM22.0941 6.2886C20.9471 6.2886 19.9082 6.75396 19.1565 7.50561C18.4049 8.25725 17.9395 9.29617 17.9395 10.4432C17.9395 11.5903 18.4049 12.6287 19.1565 13.3808C19.9082 14.1325 20.9471 14.5979 22.0941 14.5979C23.2412 14.5979 24.2796 14.1325 25.0318 13.3808C25.7834 12.6287 26.2488 11.5903 26.2488 10.4432C26.2488 9.29617 25.7834 8.25725 25.0318 7.50561C24.2796 6.75396 23.2412 6.2886 22.0941 6.2886ZM20.4336 8.78266C20.8583 8.35796 21.4457 8.09502 22.0941 8.09502C22.7426 8.09502 23.33 8.35796 23.7547 8.78266C24.1794 9.20735 24.4424 9.79478 24.4424 10.4432C24.4424 11.0917 24.1794 11.6791 23.7547 12.1038C23.33 12.5285 22.7426 12.7914 22.0941 12.7914C21.4457 12.7914 20.8583 12.5285 20.4336 12.1038C20.0089 11.6791 19.7459 11.0917 19.7459 10.4432C19.7459 9.79478 20.0089 9.20735 20.4336 8.78266Z" fill="#D1D1D1"/>
</svg>
