<svg width="28" height="28" viewBox="0 0 28 28" fill="none" xmlns="http://www.w3.org/2000/svg">
<path d="M14 13.3C15.5167 13.3 16.8233 13.8133 17.92 14.84C19.0167 15.8667 19.67 17.1383 19.88 18.655C19.9267 18.935 20.055 19.1625 20.265 19.3375C20.475 19.5125 20.72 19.6 21 19.6C21.28 19.6 21.5308 19.5067 21.7525 19.32C21.9742 19.1333 22.0617 18.9 22.015 18.62C21.7817 16.52 20.9125 14.7583 19.4075 13.335C17.9025 11.9117 16.1 11.2 14 11.2C11.9 11.2 10.0975 11.9117 8.5925 13.335C7.0875 14.7583 6.21833 16.52 5.985 18.62C5.93833 18.9 6.02583 19.1333 6.2475 19.32C6.46917 19.5067 6.72 19.6 7 19.6C7.28 19.6 7.525 19.5125 7.735 19.3375C7.945 19.1625 8.07333 18.935 8.12 18.655C8.33 17.1383 8.98333 15.8667 10.08 14.84C11.1767 13.8133 12.4833 13.3 14 13.3ZM11.97 7.735C12.18 7.54833 12.2792 7.30917 12.2675 7.0175C12.2558 6.72583 12.1333 6.48667 11.9 6.3C11.6667 6.11333 11.41 6.03167 11.13 6.055C10.85 6.07833 10.5933 6.18333 10.36 6.37C9.98667 6.69667 9.59583 6.97083 9.1875 7.1925C8.77917 7.41417 8.34167 7.60667 7.875 7.77C7.595 7.88667 7.3675 8.06167 7.1925 8.295C7.0175 8.52833 6.95333 8.79667 7 9.1C7.04667 9.40333 7.18667 9.63667 7.42 9.8C7.65333 9.96333 7.89833 9.99833 8.155 9.905C8.855 9.67167 9.53167 9.37417 10.185 9.0125C10.8383 8.65083 11.4333 8.225 11.97 7.735ZM16.03 7.735C16.5667 8.225 17.15 8.645 17.78 8.995C18.41 9.345 19.075 9.63667 19.775 9.87C20.055 9.96333 20.3175 9.93417 20.5625 9.7825C20.8075 9.63083 20.9533 9.40333 21 9.1C21.0467 8.79667 20.9767 8.52833 20.79 8.295C20.6033 8.06167 20.37 7.88667 20.09 7.77C19.6467 7.60667 19.2208 7.40833 18.8125 7.175C18.4042 6.94167 18.0133 6.67333 17.64 6.37C17.4067 6.18333 17.15 6.07833 16.87 6.055C16.59 6.03167 16.3333 6.11333 16.1 6.3C15.8667 6.48667 15.7442 6.72583 15.7325 7.0175C15.7208 7.30917 15.82 7.54833 16.03 7.735ZM14 28C12.0633 28 10.2433 27.6325 8.54 26.8975C6.83667 26.1625 5.355 25.165 4.095 23.905C2.835 22.645 1.8375 21.1633 1.1025 19.46C0.3675 17.7567 0 15.9367 0 14C0 12.0633 0.3675 10.2433 1.1025 8.54C1.8375 6.83667 2.835 5.355 4.095 4.095C5.355 2.835 6.83667 1.8375 8.54 1.1025C10.2433 0.3675 12.0633 0 14 0C15.9367 0 17.7567 0.3675 19.46 1.1025C21.1633 1.8375 22.645 2.835 23.905 4.095C25.165 5.355 26.1625 6.83667 26.8975 8.54C27.6325 10.2433 28 12.0633 28 14C28 15.9367 27.6325 17.7567 26.8975 19.46C26.1625 21.1633 25.165 22.645 23.905 23.905C22.645 25.165 21.1633 26.1625 19.46 26.8975C17.7567 27.6325 15.9367 28 14 28Z" fill="#F44336"/>
</svg>
